# RFL_Res.dat Editor OBJ Exporter v1.3 - (c) 2018 Atlas Vryzas Software

#
# object face
#

v  -9.968627 38.81176 23.05098
v  0 28.10588 24.83922
v  -10 28.10588 23.40784
v  0 38.88235 24.47843
v  -10 49.46667 21.98824
v  0 49.60784 23.40392
v  -17.69804 49.0549 17.2902
v  -17.79608 38.60392 18.33333
v  -17.82353 28.10588 18.16863
v  0 19.38039 23.59216
v  -9.709804 19.38039 21.73726
v  0 10.58039 21.24706
v  -8.968627 10.72157 19.17255
v  -24 33.43922 9.027451
v  0 1.776471 16.58431
v  -7.57647 2.729412 12.14118
v  -10.66667 10.89412 -18.37647
v  0 2.2 -0.7372549
v  0 9.631372 -19.10196
v  -13.63529 6.47451 -0.572549
v  -18.66667 15.55686 -13.8902
v  -19.08235 13.20784 -0.3019608
v  -26.29804 33.43922 0
v  -22.96078 20.7451 0
v  -24 21.9098 -9.019608
v  -10.81569 4.513725 6.094118
v  0 0 10.11373
v  -23.61961 28 9.031373
v  -13.77255 11.23922 15.01961
v  -17.82353 12.23922 7.478431
v  -24 46.22353 9.027451
v  -21.38431 20.22745 8.431373
v  -16.56471 19.74118 17.1098
v  9.972549 38.81176 23.05098
v  10 28.10588 23.40784
v  10 49.46667 21.98824
v  17.70196 49.0549 17.2902
v  17.8 38.60392 18.33333
v  17.82745 28.10588 18.16863
v  9.713725 19.38039 21.73726
v  24 33.43922 9.027451
v  10.67059 10.89412 -18.37647
v  18.67059 15.55686 -13.8902
v  13.63922 6.47451 -0.572549
v  19.08628 13.20784 -0.3019608
v  22.96471 20.7451 0
v  26.30196 33.43922 0
v  24 21.9098 -9.019608
v  10.81961 4.513725 6.094118
v  23.62353 28 9.031373
v  17.82745 12.23922 7.478431
v  24 46.22353 9.027451
v  21.38824 20.22745 8.431373
v  16.56863 19.74118 17.1098
v  8.972549 10.72157 19.17255
v  7.580392 2.729412 12.14118
v  13.77647 11.23922 15.01961
# 57 vertices

vn -0.3367647 0.06262255 0.9395221
vn 0 -0.02487745 0.9997549
vn -0.3571078 -0.0778799 0.9308211
vn 0 0.07751226 0.9970588
vn -0.3260417 0.2791054 0.9032475
vn 0 0.2952206 0.9554535
vn -0.6759804 0.2040441 0.7080882
vn -0.6907476 0.02873775 0.7224877
vn -0.7099878 -0.1074755 0.6959559
vn 0 -0.1978554 0.9802696
vn -0.3802083 -0.2345588 0.8946691
vn 0 -0.3438113 0.9390318
vn -0.4494485 -0.4544118 0.7690564
vn -0.9044118 -0.01795343 0.4262255
vn 0 -0.755821 0.6547794
vn -0.539951 -0.7751838 0.3278186
vn -0.3669118 -0.7588848 -0.5379289
vn 0 -0.966299 -0.2573529
vn 0 -0.8050858 -0.593076
vn -0.5709559 -0.8075981 -0.1474265
vn -0.7401348 -0.5771446 -0.3450368
vn -0.817647 -0.5756127 0.008333334
vn -0.9981618 -0.04895833 0.03602941
vn -0.9282476 -0.3558823 0.1076593
vn -0.9259191 -0.2979167 -0.2319853
vn -0.5547181 -0.8318627 -0.01127451
vn 0 -1 -0.005821078
vn -0.9168505 -0.1926471 0.3496936
vn -0.7250613 -0.488174 0.485723
vn -0.8096814 -0.5542279 0.1928309
vn -0.9216299 0.1819853 0.3428922
vn -0.8772672 -0.3582108 0.319424
vn -0.7207721 -0.2876225 0.630576
vn 0.336826 0.06262255 0.9395221
vn 0.3571691 -0.0778799 0.9308211
vn 0.3261029 0.2791054 0.9032475
vn 0.6760417 0.2040441 0.7080882
vn 0.6908088 0.02873775 0.7224877
vn 0.710049 -0.1074755 0.6959559
vn 0.3802696 -0.2345588 0.8946691
vn 0.9044731 -0.01795343 0.4262255
vn 0.366973 -0.7588848 -0.5379289
vn 0.740196 -0.5771446 -0.3450368
vn 0.5710171 -0.8075981 -0.1474265
vn 0.8177083 -0.5756127 0.008333334
vn 0.9283088 -0.3558823 0.1076593
vn 0.9982231 -0.04895833 0.03602941
vn 0.9259804 -0.2979167 -0.2319853
vn 0.5547794 -0.8318627 -0.01133578
vn 0.9169118 -0.1926471 0.3496936
vn 0.8098039 -0.5541667 0.1928309
vn 0.9216912 0.1819853 0.3428922
vn 0.8773285 -0.3582108 0.319424
vn 0.7208334 -0.2876225 0.630576
vn 0.4495098 -0.4544118 0.7690564
vn 0.5400122 -0.7751838 0.3278186
vn 0.7251226 -0.4881127 0.485723
# 57 vertex normals

vt 0.75 0.8399658 0.0000
vt 1 0.6800537 0.0000
vt 0.75 0.6800537 0.0000
vt 1 0.8399658 0.0000
vt 0.75 1 0.0000
vt 1 1 0.0000
vt 0.5 1 0.0000
vt 0.5 0.8399658 0.0000
vt 0.5 0.6800537 0.0000
vt 1 0.5200195 0.0000
vt 0.75 0.5200195 0.0000
vt 1 0.3599854 0.0000
vt 0.7490234 0.3599854 0.0000
vt 0.25 0.75 0.0000
vt 1 0.2209473 0.0000
vt 1 0.2209473 0.0000
vt 0.5618896 0.2209473 0.0000
vt 0 1 0.0000
vt 0.5 0.1325684 0.0000
vt 0.5618896 0.2209473 0.0000
vt 1 0.2121582 0.0000
vt 0.25 0.6800537 0.0000
vt 0.5618896 0.2209473 0.0000
vt 0.5 0.3599854 0.0000
vt 0.5618896 0.2209473 0.0000
vt 0.25 0.3599854 0.0000
vt 0.5618896 0.2209473 0.0000
vt 0.5 0.1325684 0.0000
vt 0.25 1 0.0000
vt 0 0.75 0.0000
vt 0 0.5200195 0.0000
vt 0.25 0.5200195 0.0000
vt 0 0.3599854 0.0000
vt 0.5 0.5200195 0.0000
vt 1.25 0.8399658 0.0000
vt 1.25 0.6800537 0.0000
vt 1.25 1 0.0000
vt 1.5 1 0.0000
vt 1.5 0.8399658 0.0000
vt 1.5 0.6800537 0.0000
vt 1.25 0.5200195 0.0000
vt 1.75 0.75 0.0000
vt 1.5 0.1325684 0.0000
vt 1 0 0.0000
vt 1 0.2121582 0.0000
vt 1.5 0.1325684 0.0000
vt 1.515991 0 0.0000
vt 1.75 0.6800537 0.0000
vt 1.5 0.1325684 0.0000
vt 1.75 0 0.0000
vt 1.5 0.1325684 0.0000
vt 1.75 0.125 0.0000
vt 1.75 1 0.0000
vt 2 0.75 0.0000
vt 2 0.5200195 0.0000
vt 1.75 0.5200195 0.0000
vt 1.5 0.5200195 0.0000
vt 1.250977 0.3599854 0.0000
vt 1.75 0.3599854 0.0000
vt 2 0.3599854 0.0000
vt 1.75 0.3599854 0.0000
vt 1.43811 0.2209473 0.0000
vt 1 0.2121582 0.0000
vt 1 0.2209473 0.0000
vt 1 0.2121582 0.0000
vt 0.5618896 0.2209473 0.0000
vt 1 0.2209473 0.0000
vt 1.5 0.3599854 0.0000
vt 1.75 0.3599854 0.0000
vt 1.43811 0.2209473 0.0000
vt 1.5 0.1325684 0.0000
vt 1 0.2121582 0.0000
vt 0.5 0.1325684 0.0000
vt 0.25 0 0.0000
vt 0.25 0.125 0.0000
vt 0.5 0.1325684 0.0000
vt 0.4840088 0 0.0000
vt 0.5 0.1325684 0.0000
vt 0.5 0.1325684 0.0000
vt 1 0.2121582 0.0000
vt 1 0.2209473 0.0000
vt 1 0.2209473 0.0000
vt 1.43811 0.2209473 0.0000
vt 1.43811 0.2209473 0.0000
vt 1.75 0.3599854 0.0000
vt 1.43811 0.2209473 0.0000
vt 1.43811 0.2209473 0.0000
vt 1.75 0.3599854 0.0000
vt 1.5 0.1325684 0.0000
# 89 texture coords

g face
f 30/26/30 24/31/24 22/33/22
f 30/26/30 32/32/32 24/31/24
f 29/24/29 32/32/32 30/26/30
f 29/24/29 33/34/33 32/32/32
f 13/13/13 33/34/33 29/24/29
f 13/13/13 11/11/11 33/34/33
f 12/12/12 11/11/11 13/13/13
f 12/12/12 10/10/10 11/11/11
f 40/41/40 10/10/10 12/12/12
f 40/41/40 35/36/35 10/10/10
f 39/40/39 35/36/35 40/41/40
f 39/40/39 38/39/38 35/36/35
f 41/42/41 38/39/38 39/40/39
f 41/42/41 52/53/52 38/39/38
f 18/18/18 19/18/19 42/18/42
f 18/18/18 17/18/17 19/18/19
f 20/18/20 17/18/17 18/18/18
f 20/18/20 21/18/21 17/18/17
f 22/18/22 21/18/21 20/18/20
f 22/18/22 25/18/25 21/18/21
f 24/18/24 25/18/25 22/18/22
f 24/18/24 23/18/23 25/18/25
f 55/58/55 12/12/12 15/81/15
f 55/58/55 40/41/40 12/12/12
f 54/57/54 40/41/40 55/58/55
f 54/57/54 39/40/39 40/41/40
f 50/48/50 39/40/39 54/57/54
f 50/48/50 41/42/41 39/40/39
f 47/54/47 41/42/41 50/48/50
f 57/68/57 55/58/55 56/84/56
f 57/68/57 54/57/54 55/58/55
f 53/56/53 54/57/54 57/68/57
f 53/56/53 50/48/50 54/57/54
f 46/55/46 50/48/50 53/56/53
f 46/55/46 47/54/47 50/48/50
f 37/38/37 38/39/38 52/53/52
f 37/38/37 34/35/34 38/39/38
f 36/37/36 34/35/34 37/38/37
f 36/37/36 4/4/4 34/35/34
f 6/6/6 4/4/4 36/37/36
f 6/6/6 5/5/5 4/4/4
f 34/35/34 35/36/35 38/39/38
f 34/35/34 2/2/2 35/36/35
f 4/4/4 2/2/2 34/35/34
f 4/4/4 1/1/1 2/2/2
f 5/5/5 1/1/1 4/4/4
f 5/5/5 7/7/7 1/1/1
f 2/2/2 10/10/10 35/36/35
f 2/2/2 3/3/3 10/10/10
f 1/1/1 3/3/3 2/2/2
f 1/1/1 8/8/8 3/3/3
f 7/7/7 8/8/8 1/1/1
f 7/7/7 31/29/31 8/8/8
f 14/14/14 8/8/8 31/29/31
f 14/14/14 9/9/9 8/8/8
f 28/22/28 9/9/9 14/14/14
f 28/22/28 33/34/33 9/9/9
f 32/32/32 33/34/33 28/22/28
f 11/11/11 9/9/9 33/34/33
f 11/11/11 3/3/3 9/9/9
f 10/10/10 3/3/3 11/11/11
f 28/22/28 24/31/24 32/32/32
f 28/22/28 23/30/23 24/31/24
f 14/14/14 23/30/23 28/22/28
f 46/18/46 48/18/48 47/18/47
f 46/18/46 45/18/45 48/18/48
f 45/18/45 43/18/43 48/18/48
f 45/18/45 44/18/44 43/18/43
f 44/18/44 42/18/42 43/18/43
f 44/18/44 18/18/18 42/18/42
f 49/89/49 51/88/51 56/87/56
f 57/68/57 56/86/56 51/85/51
f 56/83/56 55/58/55 15/82/15
f 18/44/18 27/80/27 26/79/26
f 20/77/20 18/44/18 26/78/26
f 22/74/22 20/77/20 26/76/26
f 30/75/30 22/74/22 26/73/26
f 27/72/27 49/71/49 56/70/56
f 51/69/51 53/56/53 57/68/57
f 15/67/15 16/66/16 27/65/27
f 15/64/15 27/63/27 56/62/56
f 46/55/46 51/61/51 45/60/45
f 53/56/53 51/59/51 46/55/46
f 45/50/45 51/52/51 49/51/49
f 44/47/44 45/50/45 49/49/49
f 18/44/18 44/47/44 49/46/49
f 27/45/27 18/44/18 49/43/49
f 26/28/26 16/27/16 30/26/30
f 29/24/29 30/26/30 16/25/16
f 13/13/13 29/24/29 16/23/16
f 27/21/27 16/20/16 26/19/26
f 16/17/16 15/16/15 13/13/13
f 12/12/12 13/13/13 15/15/15
f 9/9/9 3/3/3 8/8/8
# 94 faces

