# RFL_Res.dat Editor OBJ Exporter v1.3 - (c) 2018 Atlas Vryzas Software

#
# object face
#

v  9.972549 38.81176 23.05098
v  0 28.10588 24.83922
v  0 38.88235 24.47843
v  10 28.10588 23.40784
v  0 19.80392 24.6
v  9.980392 20 23.17255
v  10 49.46667 21.98824
v  0 49.60784 23.40392
v  17.70196 49.0549 17.2902
v  17.8 38.60392 18.33333
v  17.82745 28 18.68628
v  17.35686 20 18.45098
v  9.945098 12.16471 22.38431
v  0 4.333333 21.31373
v  0 12.10196 23.76078
v  9.109804 5 19.57647
v  24 33.43922 9.027451
v  26.30196 33.43922 0
v  23.81961 28 9.031373
v  0 0.09803922 18.63137
v  23.1098 12.31373 0
v  18.67059 15.55686 -13.8902
v  18.75294 7.658823 0
v  24 21.9098 -9.019608
v  24.38824 20 0
v  10.67059 10.89412 -18.37647
v  9.996078 3.870588 0
v  16.4549 12.41177 17.37255
v  15.11373 5.898039 15.73333
v  22.80784 20 9.333333
v  24 46.22353 9.027451
v  0 2.02353 0
v  0 9.631372 -19.10196
v  5.905882 1.133333 13.74902
v  0 -0.5372549 12
v  21.27843 12.41177 9.333333
v  18.6 7.141177 9.231373
v  -9.968627 38.81176 23.05098
v  -9.996078 28.10588 23.40784
v  -9.976471 20 23.17255
v  -10 49.46667 21.98824
v  -17.69804 49.0549 17.2902
v  -17.79608 38.60392 18.33333
v  -17.82353 28 18.68628
v  -17.35294 20 18.45098
v  -9.941176 12.16471 22.38431
v  -9.105883 5 19.57647
v  -24 33.43922 9.027451
v  -26.29804 33.43922 0
v  -23.81569 28 9.031373
v  -24.38431 20 0
v  -24 21.9098 -9.019608
v  -22.8 20 9.333333
v  -23.10588 12.31373 0
v  -18.66667 15.55686 -13.8902
v  -24 46.22353 9.027451
v  -5.901961 1.133333 13.74902
v  -10.66667 10.89412 -18.37647
v  -15.1098 5.898039 15.73333
v  -21.27843 12.41177 9.333333
v  -9.992157 3.870588 0
v  -18.74902 7.658823 0
v  -16.45098 12.41177 17.37255
v  -18.59608 7.141177 9.231373
v  -8.329412 2.243137 9.07451
v  8.333333 2.243137 9.07451
# 66 vertices

vn 0.3368872 0.06256127 0.9395221
vn 0 0.0127451 1
vn 0 0.07751226 0.9970588
vn 0.3359681 0.001470588 0.9419118
vn 0 -0.0555147 0.9985294
vn 0.3432598 -0.06905637 0.9367647
vn 0.3261029 0.2791054 0.9032475
vn 0 0.2952206 0.9554535
vn 0.6760417 0.2040441 0.7080882
vn 0.6863971 0.04031863 0.7261642
vn 0.7028799 -0.02156863 0.7110294
vn 0.7219976 -0.1113358 0.6829044
vn 0.3776961 -0.2411765 0.8939951
vn 0 -0.4088848 0.9126226
vn 0 -0.170527 0.9853554
vn 0.4104779 -0.5816789 0.7022672
vn 0.9044731 -0.01795343 0.4262255
vn 0.9982231 -0.04895833 0.03602941
vn 0.9271446 -0.07984069 0.3661765
vn 0 -0.8816177 0.471875
vn 0.8930147 -0.4425245 -0.08174019
vn 0.740196 -0.5771446 -0.3450368
vn 0.5544118 -0.8046569 -0.2123774
vn 0.9259804 -0.2979167 -0.2319853
vn 0.9837623 -0.1536765 0.09362745
vn 0.366973 -0.7588848 -0.5379289
vn 0.2819853 -0.9341299 -0.21875
vn 0.7210785 -0.2515931 0.6455882
vn 0.6314338 -0.6745711 0.3824755
vn 0.9137868 -0.1512255 0.3771446
vn 0.9216912 0.1819853 0.3428922
vn 0 -0.9503676 -0.3110907
vn 0 -0.8050858 -0.593076
vn 0.3623775 -0.9197304 0.1509804
vn 0 -0.9967524 -0.08002451
vn 0.9018995 -0.2880515 0.3219976
vn 0.6954044 -0.7099878 0.1110907
vn -0.336826 0.06256127 0.9395221
vn -0.3359069 0.001470588 0.9419118
vn -0.3431985 -0.06905637 0.9367647
vn -0.3260417 0.2791054 0.9032475
vn -0.6759804 0.2040441 0.7080882
vn -0.6863358 0.04031863 0.7261642
vn -0.7028186 -0.02156863 0.7110907
vn -0.7219363 -0.1113358 0.6829044
vn -0.3776348 -0.2411765 0.8939951
vn -0.4104167 -0.5816789 0.7022672
vn -0.9044118 -0.01795343 0.4262255
vn -0.9981618 -0.04895833 0.03602941
vn -0.9270833 -0.07984069 0.3661765
vn -0.983701 -0.1536152 0.09356618
vn -0.9259191 -0.2979167 -0.2319853
vn -0.9137255 -0.1509804 0.3772059
vn -0.8928922 -0.4426471 -0.08192402
vn -0.7401348 -0.5771446 -0.3450368
vn -0.9216299 0.1819853 0.3428922
vn -0.3623162 -0.9197304 0.1509804
vn -0.3669118 -0.7588848 -0.5379289
vn -0.63125 -0.6746324 0.3824755
vn -0.9018382 -0.2881128 0.3219976
vn -0.281924 -0.9341299 -0.21875
vn -0.5543505 -0.8046569 -0.2123774
vn -0.7208946 -0.2515319 0.6457108
vn -0.6951593 -0.7101716 0.1109681
vn -0.3814951 -0.9233456 -0.04136029
vn 0.3815564 -0.9233456 -0.04136029
# 66 vertex normals

vt 1.25 0.8399658 0.0000
vt 1 0.6800537 0.0000
vt 1 0.8399658 0.0000
vt 1.25 0.6800537 0.0000
vt 1 0.5200195 0.0000
vt 1.25 0.5200195 0.0000
vt 1.25 1 0.0000
vt 1 1 0.0000
vt 1.5 1 0.0000
vt 1.5 0.8399658 0.0000
vt 1.5 0.6800537 0.0000
vt 1.5 0.5200195 0.0000
vt 1.25 0.3900146 0.0000
vt 1 0.2600098 0.0000
vt 1 0.3900146 0.0000
vt 1.25 0.2600098 0.0000
vt 1.75 0.75 0.0000
vt 2 0.75 0.0000
vt 1.75 0.6800537 0.0000
vt 1 0.2091064 0.0000
vt 0 1 0.0000
vt 1.5 0.3900146 0.0000
vt 1.5 0.2600098 0.0000
vt 1.75 0.5200195 0.0000
vt 2 0.5200195 0.0000
vt 1.75 1 0.0000
vt 1.375 0.1899414 0.0000
vt 1 0.2091064 0.0000
vt 1 0.1625977 0.0000
vt 1 0.2091064 0.0000
vt 1.75 0.3881836 0.0000
vt 1.75 0.2600098 0.0000
vt 2 0.3879395 0.0000
vt 0.75 0.8399658 0.0000
vt 0.75 0.6800537 0.0000
vt 0.75 0.5200195 0.0000
vt 0.75 1 0.0000
vt 0.5 1 0.0000
vt 0.5 0.8399658 0.0000
vt 0.5 0.6800537 0.0000
vt 0.5 0.5200195 0.0000
vt 0.75 0.3900146 0.0000
vt 0.75 0.2600098 0.0000
vt 0.25 0.75 0.0000
vt 0 0.75 0.0000
vt 0.25 0.6800537 0.0000
vt 1 0.2091064 0.0000
vt 0.25 0.5200195 0.0000
vt 0 0.5200195 0.0000
vt 0.25 1 0.0000
vt 1 0.2091064 0.0000
vt 0.625 0.1899414 0.0000
vt 1 0.2091064 0.0000
vt 1 0.1625977 0.0000
vt 0.5 0.2600098 0.0000
vt 0.25 0.3881836 0.0000
vt 0.5 0.3900146 0.0000
vt 0.25 0.2600098 0.0000
vt 0 0.3879395 0.0000
vt 0 0.2600098 0.0000
vt 2 0.2600098 0.0000
vt 0.5999756 0.125 0.0000
vt 1 0.1625977 0.0000
vt 0.5999756 0 0.0000
vt 1 0.1625977 0.0000
vt 1 0 0.0000
vt 1 0.1625977 0.0000
vt 1 0.1625977 0.0000
vt 1.400024 0 0.0000
vt 1 0.1625977 0.0000
vt 1.400024 0.125 0.0000
vt 1.75 0.125 0.0000
vt 1.75 0 0.0000
vt 1 0.1625977 0.0000
vt 0.25 0.125 0.0000
vt 0.25 0 0.0000
# 76 texture coords

g face
f 57/52/57 65/62/65 35/67/35
f 57/52/57 59/55/59 65/62/65
f 47/43/47 59/55/59 57/52/57
f 47/43/47 63/57/63 59/55/59
f 46/42/46 63/57/63 47/43/47
f 46/42/46 45/41/45 63/57/63
f 40/36/40 45/41/45 46/42/46
f 40/36/40 44/40/44 45/41/45
f 39/35/39 44/40/44 40/36/40
f 39/35/39 43/39/43 44/40/44
f 38/34/38 43/39/43 39/35/39
f 38/34/38 42/38/42 43/39/43
f 41/37/41 42/38/42 38/34/38
f 59/55/59 64/58/64 65/62/65
f 59/55/59 60/56/60 64/58/64
f 63/57/63 60/56/60 59/55/59
f 63/57/63 53/48/53 60/56/60
f 45/41/45 53/48/53 63/57/63
f 45/41/45 50/46/50 53/48/53
f 44/40/44 50/46/50 45/41/45
f 44/40/44 48/44/48 50/46/50
f 43/39/43 48/44/48 44/40/44
f 43/39/43 56/50/56 48/44/48
f 42/38/42 56/50/56 43/39/43
f 14/14/14 47/43/47 20/47/20
f 14/14/14 46/42/46 47/43/47
f 15/15/15 46/42/46 14/14/14
f 15/15/15 40/36/40 46/42/46
f 5/5/5 40/36/40 15/15/15
f 5/5/5 39/35/39 40/36/40
f 2/2/2 39/35/39 5/5/5
f 2/2/2 38/34/38 39/35/39
f 3/3/3 38/34/38 2/2/2
f 3/3/3 41/37/41 38/34/38
f 8/8/8 41/37/41 3/3/3
f 16/16/16 14/14/14 20/20/20
f 16/16/16 13/13/13 14/14/14
f 28/22/28 13/13/13 16/16/16
f 28/22/28 12/12/12 13/13/13
f 30/24/30 12/12/12 28/22/28
f 30/24/30 19/19/19 12/12/12
f 25/25/25 19/19/19 30/24/30
f 25/25/25 18/18/18 19/19/19
f 52/21/52 51/21/51 49/21/49
f 52/21/52 54/21/54 51/21/51
f 55/21/55 54/21/54 52/21/52
f 55/21/55 62/21/62 54/21/54
f 58/21/58 62/21/62 55/21/55
f 58/21/58 61/21/61 62/21/62
f 32/21/32 61/21/61 58/21/58
f 26/21/26 27/21/27 32/21/32
f 26/21/26 23/21/23 27/21/27
f 22/21/22 23/21/23 26/21/26
f 22/21/22 21/21/21 23/21/23
f 24/21/24 21/21/21 22/21/22
f 24/21/24 25/21/25 21/21/21
f 18/21/18 25/21/25 24/21/24
f 17/17/17 19/19/19 18/18/18
f 17/17/17 11/11/11 19/19/19
f 10/10/10 11/11/11 17/17/17
f 10/10/10 4/4/4 11/11/11
f 1/1/1 4/4/4 10/10/10
f 1/1/1 2/2/2 4/4/4
f 3/3/3 2/2/2 1/1/1
f 66/71/66 34/27/34 35/74/35
f 66/71/66 29/23/29 34/27/34
f 37/32/37 29/23/29 66/71/66
f 37/32/37 36/31/36 29/23/29
f 21/33/21 36/31/36 37/32/37
f 21/33/21 25/25/25 36/31/36
f 11/11/11 12/12/12 19/19/19
f 11/11/11 6/6/6 12/12/12
f 4/4/4 6/6/6 11/11/11
f 4/4/4 5/5/5 6/6/6
f 2/2/2 5/5/5 4/4/4
f 66/71/66 23/73/23 37/72/37
f 66/71/66 27/69/27 23/73/23
f 35/70/35 27/69/27 66/71/66
f 50/46/50 51/49/51 53/48/53
f 50/46/50 49/45/49 51/49/51
f 48/44/48 49/45/49 50/46/50
f 6/6/6 13/13/13 12/12/12
f 6/6/6 15/15/15 13/13/13
f 5/5/5 15/15/15 6/6/6
f 62/76/62 65/62/65 64/75/64
f 62/76/62 61/64/61 65/62/65
f 64/58/64 54/59/54 62/60/62
f 64/58/64 60/56/60 54/59/54
f 60/56/60 51/49/51 54/59/54
f 60/56/60 53/48/53 51/49/51
f 33/21/33 32/21/32 58/21/58
f 33/21/33 26/21/26 32/21/32
f 34/27/34 16/16/16 20/28/20
f 34/27/34 29/23/29 16/16/16
f 30/24/30 36/31/36 25/25/25
f 30/24/30 28/22/28 36/31/36
f 28/22/28 29/23/29 36/31/36
f 28/22/28 16/16/16 29/23/29
f 31/26/31 10/10/10 17/17/17
f 31/26/31 9/9/9 10/10/10
f 9/9/9 1/1/1 10/10/10
f 9/9/9 7/7/7 1/1/1
f 7/7/7 3/3/3 1/1/1
f 7/7/7 8/8/8 3/3/3
f 32/66/32 27/69/27 35/68/35
f 32/66/32 35/65/35 61/64/61
f 61/64/61 35/63/35 65/62/65
f 21/33/21 37/32/37 23/61/23
f 57/52/57 35/54/35 20/53/20
f 47/43/47 57/52/57 20/51/20
f 20/30/20 35/29/35 34/27/34
f 15/15/15 14/14/14 13/13/13
# 112 faces

