# RFL_Res.dat Editor OBJ Exporter v1.3 - (c) 2018 Atlas Vryzas Software

#
# object face
#

v  9.972549 41.81176 23.05098
v  0 31.10588 24.83922
v  0 41.88235 24.47843
v  10 31.10588 23.40784
v  0 21.13333 24.47843
v  9.972549 21.20392 23.05098
v  10 52.46667 21.98824
v  0 52.60784 23.40392
v  17.70196 52.0549 17.2902
v  17.8 41.60392 18.33333
v  17.82745 31.10588 18.68628
v  17.20392 21.74118 18.33333
v  24 49.22353 9.027451
v  24 36.43922 9.027451
v  21.39608 17.24314 9.25098
v  16.2 15.12941 17.2902
v  14.85098 8.780392 15.58431
v  18.49804 10.50196 9.654902
v  20.59608 12.55294 0
v  9.886274 5.396079 0
v  13.22353 2.956863 10.16471
v  25.08628 20.44314 0
v  23.82353 31.10588 9.231373
v  24 24.9098 -9.019608
v  18.67059 18.55686 -13.8902
v  10.67059 13.89412 -18.37647
v  0 3.031373 0
v  26.30196 36.43922 0
v  0 13.98431 23.29412
v  9.921569 14.10196 21.87843
v  9.760784 1.85098 16.96471
v  6.454902 1.45098 10.66275
v  0 0.8196079 11.38824
v  0 1.121569 19.91765
v  0 12.63137 -19.10196
v  -9.968627 41.81176 23.05098
v  -9.996078 31.10588 23.40784
v  -10 52.46667 21.98824
v  -17.69804 52.0549 17.2902
v  -17.79608 41.60392 18.33333
v  -17.82353 31.10588 18.68628
v  -9.917647 14.10196 21.87843
v  0 7.662745 21.9098
v  -9.847059 8 19.98039
v  -24 49.22353 9.027451
v  -24 36.43922 9.027451
v  -14.84706 8.780392 15.58431
v  -9.756863 1.85098 16.96471
v  -18.66667 18.55686 -13.8902
v  -9.882353 5.396079 0
v  -10.66667 13.89412 -18.37647
v  -20.59216 12.55294 0
v  -26.29804 36.43922 0
v  -25.08235 20.44314 0
v  -24 24.9098 -9.019608
v  -23.81961 31.10588 9.231373
v  -9.968627 21.20392 23.05098
v  -17.2 21.74118 18.33333
v  -16.19608 15.12941 17.2902
v  -18.49412 10.50196 9.654902
v  -13.21961 2.956863 10.16471
v  -21.39216 17.24314 9.25098
v  -6.45098 1.45098 10.66275
v  9.850981 8 19.98039
# 64 vertices

vn 0.3368872 0.06256127 0.9395221
vn 0 0.01035539 1
vn 0 0.07751226 0.9970588
vn 0.3359069 -0.001776961 0.9419118
vn 0 -0.0786152 0.9969363
vn 0.3479779 -0.1026348 0.931924
vn 0.3261029 0.2791054 0.9032475
vn 0 0.2952206 0.9554535
vn 0.6760417 0.2040441 0.7080882
vn 0.6863971 0.04044118 0.7262255
vn 0.7020833 -0.02273284 0.7117647
vn 0.7262255 -0.1460784 0.671875
vn 0.9216912 0.1819853 0.3428922
vn 0.9044731 -0.01795343 0.4262255
vn 0.8783701 -0.2575368 0.4026961
vn 0.7175858 -0.261826 0.6454657
vn 0.7741421 -0.3987745 0.4916667
vn 0.854902 -0.4664216 0.2273897
vn 0.7591299 -0.6129902 -0.2189338
vn 0.3835171 -0.8563725 -0.3457721
vn 0.6102328 -0.7922181 0.002083333
vn 0.9558824 -0.2868873 0.06335784
vn 0.9159926 -0.08345588 0.3924632
vn 0.9259804 -0.2979167 -0.2319853
vn 0.740196 -0.5771446 -0.3450368
vn 0.366973 -0.7588848 -0.5379289
vn 0 -0.9422181 -0.3349265
vn 0.9982231 -0.04895833 0.03602941
vn 0 -0.1808211 0.9835784
vn 0.3808211 -0.2172794 0.8987745
vn 0.417402 -0.8331495 0.3628064
vn 0.161152 -0.973897 -0.1596814
vn 0 -0.9988358 -0.04834559
vn 0 -0.6816176 0.7317402
vn 0 -0.8050858 -0.593076
vn -0.336826 0.06256127 0.9395221
vn -0.3358456 -0.001776961 0.9419118
vn -0.3260417 0.2791054 0.9032475
vn -0.6759804 0.2040441 0.7080882
vn -0.6863358 0.04044118 0.7262255
vn -0.7020221 -0.02273284 0.7117647
vn -0.3807598 -0.2172794 0.8987745
vn 0 -0.2682598 0.9633579
vn -0.4424632 -0.3283088 0.8344976
vn -0.9216299 0.1819853 0.3428922
vn -0.9044118 -0.01795343 0.4262255
vn -0.7740809 -0.3987745 0.4916667
vn -0.4173407 -0.8331495 0.3628064
vn -0.7401348 -0.5771446 -0.3450368
vn -0.3834559 -0.8563725 -0.3457721
vn -0.3669118 -0.7588848 -0.5379289
vn -0.7590686 -0.6129902 -0.2189338
vn -0.9981618 -0.04895833 0.03602941
vn -0.9558211 -0.2868873 0.06335784
vn -0.9259191 -0.2979167 -0.2319853
vn -0.9159313 -0.08345588 0.3924632
vn -0.3479167 -0.1026348 0.931924
vn -0.7261642 -0.1460784 0.671875
vn -0.7175245 -0.261826 0.6454657
vn -0.8548407 -0.4664216 0.2273897
vn -0.6101716 -0.7922181 0.002083333
vn -0.8783088 -0.2575368 0.4026961
vn -0.1610907 -0.973897 -0.1596814
vn 0.4425245 -0.3283088 0.8344976
# 64 vertex normals

vt 1.25 0.8399658 0.0000
vt 1 0.6800537 0.0000
vt 1 0.8399658 0.0000
vt 1.25 0.6800537 0.0000
vt 1 0.5200195 0.0000
vt 1.25 0.5200195 0.0000
vt 1.25 1 0.0000
vt 1 1 0.0000
vt 1.5 1 0.0000
vt 1.5 0.8399658 0.0000
vt 1.5 0.6800537 0.0000
vt 1.5 0.5200195 0.0000
vt 1.75 1 0.0000
vt 1.75 0.75 0.0000
vt 1.75 0.4462891 0.0000
vt 1.482422 0.4165039 0.0000
vt 1.75 0.4462891 0.0000
vt 1.438721 0.3199463 0.0000
vt 1.482422 0.4165039 0.0000
vt 1.75 0.4462891 0.0000
vt 1.75 0.3599854 0.0000
vt 1.75 0 0.0000
vt 1.5 0 0.0000
vt 1.5 0.125 0.0000
vt 2 0.4903564 0.0000
vt 1.75 0.4462891 0.0000
vt 1.75 0.6800537 0.0000
vt 2 0.4903564 0.0000
vt 1.75 0.4462891 0.0000
vt 2 0.4903564 0.0000
vt 2 0.3599854 0.0000
vt 0 1 0.0000
vt 1.75 0.4462891 0.0000
vt 1 0.4133301 0.0000
vt 1.25 0.4133301 0.0000
vt 1 0.4133301 0.0000
vt 1.482422 0.4165039 0.0000
vt 1.25 0.2399902 0.0000
vt 1.305054 0.1496582 0.0000
vt 1 0.1595459 0.0000
vt 1.25 0.2399902 0.0000
vt 1.25 0.2399902 0.0000
vt 1 0.1595459 0.0000
vt 1 0.2399902 0.0000
vt 2 0.75 0.0000
vt 2 0.4903564 0.0000
vt 0.75 0.8399658 0.0000
vt 0.75 0.6800537 0.0000
vt 0.75 1 0.0000
vt 0.5 1 0.0000
vt 0.5 0.8399658 0.0000
vt 0.5 0.6800537 0.0000
vt 0.75 0.4133301 0.0000
vt 1 0.3199463 0.0000
vt 0.75 0.3199463 0.0000
vt 1 0.4133301 0.0000
vt 0.25 1 0.0000
vt 0.25 0.75 0.0000
vt 0.5612793 0.3199463 0.0000
vt 0.75 0.2399902 0.0000
vt 0.25 0.6800537 0.0000
vt 0.75 0.5200195 0.0000
vt 0.5 0.5200195 0.0000
vt 1 0.4133301 0.0000
vt 1 0.4133301 0.0000
vt 0.5175781 0.4165039 0.0000
vt 0.25 0.125 0.0000
vt 0.5 0.125 0.0000
vt 0.25 0 0.0000
vt 0.25 0.4462891 0.0000
vt 0 0.4903564 0.0000
vt 0.25 0.3599854 0.0000
vt 0 0.4903564 0.0000
vt 0.25 0.4462891 0.0000
vt 0 0.3599854 0.0000
vt 0 0.4903564 0.0000
vt 0.6949463 0.1496582 0.0000
vt 0.5 0 0.0000
vt 0.75 0.2399902 0.0000
vt 1 0 0.0000
vt 1 0.1595459 0.0000
vt 1 0.1595459 0.0000
vt 0.75 0.2399902 0.0000
vt 1 0.1595459 0.0000
vt 0.75 0.2399902 0.0000
vt 1 0.2399902 0.0000
vt 0 0.75 0.0000
vt 0 0.4903564 0.0000
vt 1.75 0.125 0.0000
vt 0.25 0.4462891 0.0000
vt 0.5175781 0.4165039 0.0000
vt 0.25 0.4462891 0.0000
vt 1 0.1595459 0.0000
vt 1 0.4133301 0.0000
vt 1.25 0.3199463 0.0000
vt 1.482422 0.4165039 0.0000
vt 1.482422 0.4165039 0.0000
vt 1.599976 0.2399902 0.0000
vt 1 0.2399902 0.0000
vt 0.75 0.2399902 0.0000
vt 1 0.2399902 0.0000
vt 1 0.2399902 0.0000
vt 1.25 0.2399902 0.0000
vt 1 0.2399902 0.0000
vt 1.25 0.2399902 0.0000
vt 1.599976 0.2399902 0.0000
vt 1.25 0.2399902 0.0000
vt 0.4000244 0.2399902 0.0000
vt 0.75 0.2399902 0.0000
vt 0.4000244 0.2399902 0.0000
vt 0.5175781 0.4165039 0.0000
vt 0.5175781 0.4165039 0.0000
vt 0.25 0.4462891 0.0000
vt 0.5175781 0.4165039 0.0000
vt 0.25 0.4462891 0.0000
# 115 texture coords

g face
f 58/63/58 56/61/56 62/115/62
f 58/63/58 41/52/41 56/61/56
f 57/62/57 41/52/41 58/63/58
f 57/62/57 37/48/37 41/52/41
f 5/5/5 37/48/37 57/62/57
f 5/5/5 2/2/2 37/48/37
f 4/4/4 2/2/2 5/5/5
f 4/4/4 1/1/1 2/2/2
f 10/10/10 1/1/1 4/4/4
f 10/10/10 9/9/9 1/1/1
f 13/13/13 9/9/9 10/10/10
f 56/61/56 53/87/53 54/88/54
f 56/61/56 46/58/46 53/87/53
f 41/52/41 46/58/46 56/61/56
f 41/52/41 40/51/40 46/58/46
f 37/48/37 40/51/40 41/52/41
f 37/48/37 36/47/36 40/51/40
f 2/2/2 36/47/36 37/48/37
f 2/2/2 3/3/3 36/47/36
f 1/1/1 3/3/3 2/2/2
f 1/1/1 7/7/7 3/3/3
f 9/9/9 7/7/7 1/1/1
f 55/32/55 54/32/54 53/32/53
f 55/32/55 52/32/52 54/32/54
f 49/32/49 52/32/52 55/32/55
f 49/32/49 50/32/50 52/32/52
f 51/32/51 50/32/50 49/32/49
f 51/32/51 27/32/27 50/32/50
f 35/32/35 27/32/27 51/32/51
f 35/32/35 26/32/26 27/32/27
f 40/51/40 45/57/45 46/58/46
f 40/51/40 39/50/39 45/57/45
f 36/47/36 39/50/39 40/51/40
f 36/47/36 38/49/38 39/50/39
f 3/3/3 38/49/38 36/47/36
f 3/3/3 8/8/8 38/49/38
f 7/7/7 8/8/8 3/3/3
f 63/77/63 27/80/27 33/81/33
f 63/77/63 50/78/50 27/80/27
f 61/68/61 50/78/50 63/77/63
f 61/68/61 52/69/52 50/78/50
f 60/67/60 52/69/52 61/68/61
f 12/12/12 30/35/30 16/37/16
f 12/12/12 6/6/6 30/35/30
f 11/11/11 6/6/6 12/12/12
f 11/11/11 4/4/4 6/6/6
f 10/10/10 4/4/4 11/11/11
f 23/27/23 12/12/12 15/33/15
f 23/27/23 11/11/11 12/12/12
f 14/14/14 11/11/11 23/27/23
f 14/14/14 10/10/10 11/11/11
f 13/13/13 10/10/10 14/14/14
f 44/55/44 42/53/42 59/112/59
f 44/55/44 43/54/43 42/53/42
f 34/101/34 43/54/43 44/55/44
f 64/95/64 43/54/43 34/104/34
f 64/95/64 30/35/30 43/54/43
f 16/97/16 30/35/30 64/95/64
f 21/24/21 19/22/19 18/89/18
f 21/24/21 20/23/20 19/22/19
f 32/39/32 20/23/20 21/24/21
f 42/53/42 58/63/58 59/66/59
f 42/53/42 57/62/57 58/63/58
f 29/64/29 57/62/57 42/53/42
f 47/59/47 44/55/44 59/111/59
f 47/59/47 48/60/48 44/55/44
f 47/59/47 60/72/60 61/110/61
f 47/59/47 62/92/62 60/72/60
f 17/18/17 64/95/64 31/105/31
f 17/18/17 16/96/16 64/95/64
f 18/21/18 17/18/17 21/98/21
f 18/21/18 15/20/15 17/18/17
f 27/80/27 32/39/32 33/93/33
f 27/80/27 20/23/20 32/39/32
f 28/45/28 23/27/23 22/46/22
f 28/45/28 14/14/14 23/27/23
f 6/6/6 5/5/5 29/34/29
f 6/6/6 4/4/4 5/5/5
f 22/32/22 24/32/24 28/32/28
f 22/32/22 19/32/19 24/32/24
f 26/32/26 20/32/20 27/32/27
f 26/32/26 25/32/25 20/32/20
f 25/32/25 19/32/19 20/32/20
f 25/32/25 24/32/24 19/32/19
f 59/114/59 58/63/58 62/113/62
f 48/109/48 47/59/47 61/108/61
f 31/107/31 21/106/21 17/18/17
f 31/103/31 64/95/64 34/102/34
f 48/100/48 34/99/34 44/55/44
f 29/94/29 43/54/43 30/35/30
f 59/91/59 62/90/62 47/59/47
f 34/86/34 48/85/48 33/84/33
f 48/83/48 63/77/63 33/82/33
f 48/79/48 61/68/61 63/77/63
f 54/76/54 52/75/52 60/72/60
f 62/74/62 54/73/54 60/72/60
f 56/61/56 54/71/54 62/70/62
f 57/62/57 29/65/29 5/5/5
f 43/54/43 29/56/29 42/53/42
f 34/44/34 33/43/33 31/42/31
f 21/24/21 31/41/31 32/39/32
f 33/40/33 32/39/32 31/38/31
f 6/6/6 29/36/29 30/35/30
f 18/21/18 19/31/19 22/30/22
f 15/29/15 18/21/18 22/28/22
f 23/27/23 15/26/15 22/25/22
f 16/19/16 17/18/17 15/17/15
f 16/16/16 15/15/15 12/12/12
# 108 faces

