# RFL_Res.dat Editor OBJ Exporter v1.3 - (c) 2018 Atlas Vryzas Software

#
# object face
#

v  0 28.10588 24.83922
v  9.972549 38.81176 23.05098
v  10 28.10588 23.40784
v  0 38.88235 24.47843
v  0 19.90196 24.6
v  9.980392 20.4 22.83922
v  10 49.46667 21.98824
v  0 49.60784 23.40392
v  17.70196 49.0549 17.2902
v  17.8 38.60392 18.33333
v  17.71373 23 18.31765
v  17.82745 28.10588 18.68628
v  24 33.43922 9.027451
v  23.98824 28 9.031373
v  26.30196 33.43922 0
v  9.631372 5.921569 16.8549
v  0 0.2313726 10.44314
v  0 4.443137 18.69412
v  10.07059 2.67451 10.01961
v  0 5.14902 -10.63922
v  10.67059 10.89412 -18.37647
v  0 9.631372 -19.10196
v  19.03922 11.68627 -7.8
v  18.67059 15.55686 -13.8902
v  25.58431 24.68628 0
v  17.43922 18 17.34902
v  22.89804 18.04314 8.690196
v  17.52941 12.2 15.05098
v  24 46.22353 9.027451
v  10.2549 3.662745 -1.321569
v  18.02745 8.298039 9.301961
v  18.88627 9.47451 -0.8078431
v  24 21.9098 -9.019608
v  0 1.603922 -1.552941
v  23.3451 16.01961 -0.2823529
v  -9.968627 38.81176 23.05098
v  -9.996078 28.10588 23.40784
v  -9.976471 20.4 22.83922
v  -10 49.46667 21.98824
v  -17.69804 49.0549 17.2902
v  -17.79608 38.60392 18.33333
v  -17.7098 23 18.31765
v  -17.82353 28.10588 18.68628
v  0 12.10196 23.30588
v  -9.854902 13 21.26274
v  -24 33.43922 9.027451
v  -23.98431 28 9.031373
v  -26.29804 33.43922 0
v  -10.66667 10.89412 -18.37647
v  -18.66667 15.55686 -13.8902
v  -19.03529 11.68627 -7.8
v  -17.43529 18 17.34902
v  -25.57647 24.68628 0
v  -10.24706 3.662745 -1.321569
v  -18.02353 8.298039 9.301961
v  -10.06667 2.67451 10.01961
v  -18.88235 9.47451 -0.8078431
v  -22.89412 18.04314 8.690196
v  -17.52549 12.2 15.05098
v  -9.627451 5.921569 16.8549
v  -24 46.22353 9.027451
v  -24 21.9098 -9.019608
v  -23.34118 16.01961 -0.2823529
v  9.858824 13 21.26274
# 64 vertices

vn 0 0.01262255 1
vn 0.3368872 0.06256127 0.9395221
vn 0.3683824 -0.02126225 0.929473
vn 0 0.07751226 0.9970588
vn 0 -0.08903186 0.9960784
vn 0.3701593 -0.1490196 0.9169731
vn 0.3261029 0.2791054 0.9032475
vn 0 0.2952206 0.9554535
vn 0.6760417 0.2040441 0.7080882
vn 0.6863971 0.04044118 0.7262255
vn 0.7030025 -0.1099265 0.7027574
vn 0.7294118 -0.01691176 0.6839461
vn 0.9044731 -0.01795343 0.4262255
vn 0.9224265 -0.06219363 0.3811887
vn 0.9982231 -0.04895833 0.03602941
vn 0.4136029 -0.7106618 0.5691789
vn 0 -0.9625612 0.2710784
vn 0 -0.6691176 0.7431372
vn 0.3754902 -0.9193015 0.118076
vn 0 -0.9136029 -0.4064338
vn 0.366973 -0.7588848 -0.5379289
vn 0 -0.8050858 -0.593076
vn 0.7166666 -0.6306372 -0.2977328
vn 0.740196 -0.5771446 -0.3450368
vn 0.9860294 -0.1567402 0.05674019
vn 0.6809436 -0.2049632 0.703125
vn 0.9060049 -0.2422181 0.3472427
vn 0.7026961 -0.4083333 0.5827206
vn 0.9216912 0.1819853 0.3428922
vn 0.4076593 -0.8863358 -0.219424
vn 0.7275735 -0.660049 0.1869485
vn 0.7056985 -0.6995711 -0.1121936
vn 0.9259804 -0.2979167 -0.2319853
vn 0 -0.9819853 -0.1887255
vn 0.9052083 -0.423223 -0.03939951
vn -0.336826 0.06256127 0.9395221
vn -0.3683211 -0.02126225 0.929473
vn -0.370098 -0.1490196 0.9169731
vn -0.3260417 0.2791054 0.9032475
vn -0.6759804 0.2040441 0.7080882
vn -0.6863358 0.04044118 0.7262255
vn -0.7029412 -0.1099265 0.7027574
vn -0.7293505 -0.01691176 0.6839461
vn 0 -0.3008578 0.9536765
vn -0.3985907 -0.3704657 0.8390319
vn -0.9044118 -0.01795343 0.4262255
vn -0.9223652 -0.06219363 0.3811887
vn -0.9981618 -0.04895833 0.03602941
vn -0.3669118 -0.7588848 -0.5379289
vn -0.7401348 -0.5771446 -0.3450368
vn -0.7166054 -0.6306985 -0.2977328
vn -0.6808823 -0.2049632 0.703125
vn -0.9859681 -0.1567402 0.05674019
vn -0.407598 -0.8863358 -0.2194853
vn -0.7275122 -0.6601103 0.1869485
vn -0.3754289 -0.9193015 0.118076
vn -0.705576 -0.6996323 -0.1121936
vn -0.9059436 -0.2422181 0.3471814
vn -0.7026348 -0.4083333 0.5827206
vn -0.4135417 -0.7106618 0.5691789
vn -0.9216299 0.1819853 0.3428922
vn -0.9259191 -0.2979167 -0.2319853
vn -0.9051471 -0.4231618 -0.03939951
vn 0.398652 -0.3704657 0.8390319
# 64 vertex normals

vt 1.000122 0.6800537 0.0000
vt 1.25 0.8399658 0.0000
vt 1.25 0.6800537 0.0000
vt 1.000122 0.8399658 0.0000
vt 1.000122 0.5200195 0.0000
vt 1.25 0.5200195 0.0000
vt 1.25 1 0.0000
vt 1.000122 1 0.0000
vt 1.5 1 0.0000
vt 1.5 0.8399658 0.0000
vt 1.5 0.5704346 0.0000
vt 1.5 0.6800537 0.0000
vt 1.75 0.75 0.0000
vt 1.75 0.6800537 0.0000
vt 2 0.75 0.0000
vt 1.274414 0.2399902 0.0000
vt 1 0.125 0.0000
vt 1.000122 0.2399902 0.0000
vt 1.274414 0.125 0.0000
vt 1.274414 0.2399902 0.0000
vt 0 1 0.0000
vt 2 0.5999756 0.0000
vt 1.5 0.4699707 0.0000
vt 1.75 0.4647217 0.0000
vt 1.515503 0.3531494 0.0000
vt 1.75 1 0.0000
vt 1.274414 0 0.0000
vt 1.75 0.125 0.0000
vt 1.75 0 0.0000
vt 1.75 0.4647217 0.0000
vt 2 0.4246826 0.0000
vt 1.75 0.4647217 0.0000
vt 2 0.4246826 0.0000
vt 1.75 0.2399902 0.0000
vt 1.75 0.4647217 0.0000
vt 1.75 0.2399902 0.0000
vt 2 0.4246826 0.0000
vt 2 0.2399902 0.0000
vt 0.75 0.8399658 0.0000
vt 0.75 0.6800537 0.0000
vt 0.75 0.5200195 0.0000
vt 0.75 1 0.0000
vt 0.5 1 0.0000
vt 0.5 0.8399658 0.0000
vt 0.5 0.5704346 0.0000
vt 0.5 0.6800537 0.0000
vt 1.000122 0.3800049 0.0000
vt 0.75 0.3800049 0.0000
vt 0.25 0.75 0.0000
vt 0.25 0.6800537 0.0000
vt 0 0.75 0.0000
vt 0.5 0.4772949 0.0000
vt 0 0.5999756 0.0000
vt 0.7255859 0 0.0000
vt 0.25 0.125 0.0000
vt 0.7255859 0.125 0.0000
vt 0.25 0 0.0000
vt 0.25 0.4647217 0.0000
vt 0.5 0.4772949 0.0000
vt 0.4844971 0.3531494 0.0000
vt 0.25 0.2399902 0.0000
vt 0.7255859 0.2399902 0.0000
vt 0.7255859 0.2399902 0.0000
vt 0.25 0.2399902 0.0000
vt 0.25 1 0.0000
vt 0.7255859 0.2399902 0.0000
vt 0.7255859 0.2399902 0.0000
vt 1.000122 0.2399902 0.0000
vt 0.7255859 0.2399902 0.0000
vt 0.25 0.4647217 0.0000
vt 0.25 0.2399902 0.0000
vt 0 0.4246826 0.0000
vt 0.25 0.4647217 0.0000
vt 0.25 0.2399902 0.0000
vt 0 0.2399902 0.0000
vt 0 0.4246826 0.0000
vt 0 0.4246826 0.0000
vt 0.25 0.4647217 0.0000
vt 1.25 0.3800049 0.0000
vt 1.5 0.4699707 0.0000
vt 1.000122 0.2399902 0.0000
vt 1.274414 0.2399902 0.0000
vt 1.000122 0.2399902 0.0000
vt 1.274414 0.2399902 0.0000
vt 0.25 0.4647217 0.0000
vt 0.5 0.4772949 0.0000
vt 1.5 0.4699707 0.0000
vt 1.75 0.4647217 0.0000
vt 0.5 0.4772949 0.0000
vt 0.25 0.4647217 0.0000
vt 1.75 0.4647217 0.0000
vt 1.5 0.4699707 0.0000
vt 1.274414 0.2399902 0.0000
vt 1.75 0.2399902 0.0000
vt 1.274414 0.2399902 0.0000
vt 1.75 0.2399902 0.0000
vt 1.75 0.4647217 0.0000
vt 1.75 0.2399902 0.0000
vt 0.25 0.4647217 0.0000
vt 0.25 0.2399902 0.0000
vt 0.5 0.4772949 0.0000
vt 1.5 0.4699707 0.0000
vt 0.7255859 0.2399902 0.0000
vt 1.000122 0.2399902 0.0000
vt 1.000122 0.2399902 0.0000
vt 1.000122 0 0.0000
# 106 texture coords

g face
f 38/41/38 42/45/42 52/52/52
f 38/41/38 37/40/37 42/45/42
f 5/5/5 37/40/37 38/41/38
f 5/5/5 1/1/1 37/40/37
f 3/3/3 1/1/1 5/5/5
f 3/3/3 2/2/2 1/1/1
f 10/10/10 2/2/2 3/3/3
f 10/10/10 9/9/9 2/2/2
f 42/45/42 47/50/47 58/85/58
f 42/45/42 43/46/43 47/50/47
f 37/40/37 43/46/43 42/45/42
f 37/40/37 41/44/41 43/46/43
f 36/39/36 41/44/41 37/40/37
f 36/39/36 40/43/40 41/44/41
f 39/42/39 40/43/40 36/39/36
f 14/14/14 11/11/11 27/88/27
f 14/14/14 12/12/12 11/11/11
f 13/13/13 12/12/12 14/14/14
f 13/13/13 10/10/10 12/12/12
f 29/26/29 10/10/10 13/13/13
f 29/26/29 9/9/9 10/10/10
f 20/21/20 34/21/34 54/21/54
f 20/21/20 30/21/30 34/21/34
f 21/21/21 30/21/30 20/21/20
f 21/21/21 23/21/23 30/21/30
f 24/21/24 23/21/23 21/21/21
f 24/21/24 33/21/33 23/21/23
f 62/21/62 53/21/53 48/21/48
f 62/21/62 63/21/63 53/21/53
f 51/21/51 63/21/63 62/21/62
f 51/21/51 57/21/57 63/21/63
f 54/21/54 57/21/57 51/21/51
f 1/1/1 36/39/36 37/40/37
f 1/1/1 4/4/4 36/39/36
f 2/2/2 4/4/4 1/1/1
f 2/2/2 7/7/7 4/4/4
f 9/9/9 7/7/7 2/2/2
f 23/21/23 32/21/32 30/21/30
f 23/21/23 35/21/35 32/21/32
f 33/21/33 35/21/35 23/21/23
f 33/21/33 25/21/25 35/21/35
f 15/21/15 25/21/25 33/21/33
f 11/11/11 6/6/6 26/80/26
f 11/11/11 3/3/3 6/6/6
f 12/12/12 3/3/3 11/11/11
f 12/12/12 10/10/10 3/3/3
f 49/21/49 54/21/54 51/21/51
f 49/21/49 20/21/20 54/21/54
f 22/21/22 20/21/20 49/21/49
f 22/21/22 21/21/21 20/21/20
f 64/79/64 44/47/44 18/105/18
f 64/79/64 6/6/6 44/47/44
f 26/87/26 6/6/6 64/79/64
f 45/48/45 38/41/38 52/86/52
f 45/48/45 44/47/44 38/41/38
f 18/81/18 44/47/44 45/48/45
f 47/50/47 53/53/53 58/70/58
f 47/50/47 48/51/48 53/53/53
f 46/49/46 48/51/48 47/50/47
f 56/56/56 17/17/17 60/69/60
f 56/56/56 34/106/34 17/17/17
f 54/54/54 34/106/34 56/56/56
f 4/4/4 39/42/39 36/39/36
f 4/4/4 8/8/8 39/42/39
f 7/7/7 8/8/8 4/4/4
f 19/19/19 34/106/34 30/27/30
f 19/19/19 17/17/17 34/106/34
f 16/20/16 17/17/17 19/19/19
f 64/79/64 28/25/28 26/102/26
f 64/79/64 16/84/16 28/25/28
f 59/60/59 45/48/45 52/101/52
f 59/60/59 60/66/60 45/48/45
f 50/21/50 51/21/51 62/21/62
f 50/21/50 49/21/49 51/21/51
f 61/65/61 41/44/41 40/43/40
f 61/65/61 46/49/46 41/44/41
f 54/54/54 55/55/55 57/57/57
f 54/54/54 56/56/56 55/55/55
f 43/46/43 46/49/46 47/50/47
f 43/46/43 41/44/41 46/49/46
f 44/47/44 5/5/5 38/41/38
f 44/47/44 6/6/6 5/5/5
f 25/22/25 14/14/14 27/30/27
f 25/22/25 15/15/15 14/14/14
f 31/28/31 30/27/30 32/29/32
f 31/28/31 19/19/19 30/27/30
f 18/104/18 45/48/45 60/103/60
f 55/100/55 59/60/59 58/99/58
f 31/98/31 27/97/27 28/25/28
f 31/96/31 28/25/28 16/95/16
f 19/19/19 31/94/31 16/93/16
f 26/92/26 27/91/27 11/11/11
f 58/90/58 52/89/52 42/45/42
f 64/79/64 18/83/18 16/82/16
f 58/78/58 53/53/53 63/77/63
f 63/76/63 57/75/57 55/74/55
f 58/73/58 63/72/63 55/71/55
f 18/68/18 60/67/60 17/17/17
f 55/64/55 60/63/60 59/60/59
f 56/56/56 60/62/60 55/61/55
f 59/60/59 52/59/52 58/58/58
f 32/38/32 35/37/35 31/36/31
f 27/35/27 31/34/31 35/33/35
f 27/32/27 35/31/35 25/22/25
f 28/25/28 27/24/27 26/23/26
f 18/18/18 17/17/17 16/16/16
f 14/14/14 15/15/15 13/13/13
f 6/6/6 3/3/3 5/5/5
# 108 faces

