# RFL_Res.dat Editor OBJ Exporter v1.3 - (c) 2018 Atlas Vryzas Software

#
# object face
#

v  -9.968627 41.81176 23.05098
v  0 31.10588 24.83922
v  -9.996078 31.10588 23.40784
v  0 41.88235 24.47843
v  -10 52.46667 21.98824
v  0 52.60784 23.40392
v  -17.69804 52.0549 17.2902
v  -17.79608 41.60392 18.33333
v  -17.82353 31.10588 18.68628
v  -9.976471 22.50588 22.68235
v  0 13.48235 22.56078
v  -9.898039 13.62353 20.89412
v  0 22.45882 24.10588
v  -24 36.43922 9.027451
v  -26.29804 36.43922 0
v  -23.76471 31 9.031373
v  0 4.286274 18.65098
v  0 -0.9647059 8.470589
v  -9.227451 5.043137 16.48627
v  -10.66667 13.89412 -18.37647
v  0 1.227451 -2.596078
v  0 12.63137 -19.10196
v  -9.490196 4.156863 -2.294118
v  -23.31372 23.61961 -0.4627451
v  -24 24.9098 -9.019608
v  -8.882353 1.058824 7.466667
v  -22.66274 23.27059 8.615686
v  -15.55686 14.23137 15.8549
v  -19.5451 15.07843 7.862745
v  -17.18039 22.64314 17.45098
v  -16.60392 9.019608 -1.721569
v  -15.45098 7.243137 7.164706
v  -12.68235 6.152941 12.49412
v  -18.66667 18.55686 -13.8902
v  -20.07843 16.05098 -1.019608
v  -24 49.22353 9.027451
v  9.972549 41.81176 23.05098
v  10 31.10588 23.40784
v  10 52.46667 21.98824
v  17.70196 52.0549 17.2902
v  17.8 41.60392 18.33333
v  17.82745 31.10588 18.68628
v  9.980392 22.50588 22.68235
v  9.90196 13.62353 20.89412
v  24 36.43922 9.027451
v  26.30196 36.43922 0
v  23.76863 31 9.031373
v  9.231373 5.043137 16.48627
v  10.67059 13.89412 -18.37647
v  9.490196 4.156863 -2.294118
v  18.67059 18.55686 -13.8902
v  16.60392 9.019608 -1.721569
v  23.31765 23.61961 -0.4627451
v  24 24.9098 -9.019608
v  8.886274 1.058824 7.466667
v  15.56078 14.23137 15.8549
v  22.66667 23.27059 8.615686
v  19.54902 15.07843 7.862745
v  17.18431 22.64314 17.45098
v  12.68627 6.152941 12.49412
v  20.08235 16.05098 -1.019608
v  24 49.22353 9.027451
v  15.4549 7.243137 7.164706
# 63 vertices

vn -0.336826 0.06256127 0.9395221
vn 0 -0.005759804 1
vn -0.3358456 -0.02518382 0.9416054
vn 0 0.07751226 0.9970588
vn -0.3260417 0.2791054 0.9032475
vn 0 0.2952206 0.9554535
vn -0.6759804 0.2040441 0.7080882
vn -0.6863358 0.04044118 0.7262255
vn -0.7096814 -0.06170343 0.7018383
vn -0.3637255 -0.1449755 0.9201593
vn 0 -0.2545956 0.9670956
vn -0.4214461 -0.3216299 0.8479167
vn 0 -0.1129902 0.9936274
vn -0.9044118 -0.01795343 0.4262255
vn -0.9981618 -0.04895833 0.03602941
vn -0.9313112 -0.1261029 0.3417279
vn 0 -0.6129902 0.7900735
vn 0 -0.9731618 0.2300858
vn -0.4664828 -0.6817402 0.5635417
vn -0.3669118 -0.7588848 -0.5379289
vn 0 -0.9192402 -0.3936275
vn 0 -0.8050858 -0.593076
vn -0.4231005 -0.8351103 -0.351348
vn -0.954473 -0.2931373 0.05379902
vn -0.9259191 -0.2979167 -0.2319853
vn -0.4920343 -0.8702206 0.02395833
vn -0.9139093 -0.2601716 0.3115809
vn -0.7653186 -0.3684436 0.5278186
vn -0.8863358 -0.4199755 0.1948529
vn -0.7356005 -0.1914216 0.6498162
vn -0.7234069 -0.6556985 -0.2161765
vn -0.8117647 -0.5744485 0.1050245
vn -0.7409927 -0.5744485 0.3477328
vn -0.7401348 -0.5771446 -0.3450368
vn -0.8935662 -0.4456495 -0.05349265
vn -0.9216299 0.1819853 0.3428922
vn 0.3368872 0.06256127 0.9395221
vn 0.3359069 -0.02518382 0.9416054
vn 0.3261029 0.2791054 0.9032475
vn 0.6760417 0.2040441 0.7080882
vn 0.6863971 0.04044118 0.7262255
vn 0.7097427 -0.06170343 0.7018383
vn 0.3637868 -0.1449755 0.9201593
vn 0.4215074 -0.3216299 0.8479167
vn 0.9044731 -0.01795343 0.4262255
vn 0.9982231 -0.04895833 0.03602941
vn 0.9313725 -0.1261029 0.3417279
vn 0.4665441 -0.6817402 0.5635417
vn 0.366973 -0.7588848 -0.5379289
vn 0.4231618 -0.8351103 -0.351348
vn 0.740196 -0.5771446 -0.3450368
vn 0.7234069 -0.6556985 -0.2161765
vn 0.9545343 -0.2931373 0.05379902
vn 0.9259804 -0.2979167 -0.2319853
vn 0.4920956 -0.8702206 0.02389706
vn 0.7653799 -0.3684436 0.5278186
vn 0.9139706 -0.2601716 0.3115809
vn 0.8863971 -0.4199755 0.1948529
vn 0.7356617 -0.1914216 0.6498162
vn 0.7410539 -0.5744485 0.3477328
vn 0.8935662 -0.4457108 -0.05355392
vn 0.9216912 0.1819853 0.3428922
vn 0.811826 -0.5745098 0.1049632
# 63 vertex normals

vt 0.75 0.8399658 0.0000
vt 1 0.6800537 0.0000
vt 0.75 0.6800537 0.0000
vt 1 0.8399658 0.0000
vt 0.75 1 0.0000
vt 1 1 0.0000
vt 0.5 1 0.0000
vt 0.5 0.8399658 0.0000
vt 0.5 0.6800537 0.0000
vt 0.75 0.5400391 0.0000
vt 1 0.4000244 0.0000
vt 0.75 0.4000244 0.0000
vt 1 0.5400391 0.0000
vt 1 0.4000244 0.0000
vt 0.25 0.75 0.0000
vt 0 0.75 0.0000
vt 0.25 0.6800537 0.0000
vt 1 0.2600098 0.0000
vt 1 0.1739502 0.0000
vt 0.7491455 0.2600098 0.0000
vt 0 1 0.0000
vt 1 0 0.0000
vt 0.7199707 0.1575928 0.0000
vt 1 0.1739502 0.0000
vt 0.25 0.5400391 0.0000
vt 0.5 0.4000244 0.0000
vt 0.25 0.4000244 0.0000
vt 0.5 0.5400391 0.0000
vt 0.5 0.4000244 0.0000
vt 0 0.5400391 0.0000
vt 0.25 0.4000244 0.0000
vt 0.7199707 0.1575928 0.0000
vt 0.25 0 0.0000
vt 0.25 0.125 0.0000
vt 0.7199707 0.1575928 0.0000
vt 0.6723633 0 0.0000
vt 0.75 0.4000244 0.0000
vt 0.75 0.4000244 0.0000
vt 0.5 0.4000244 0.0000
vt 0.5 0.2600098 0.0000
vt 0.7199707 0.1575928 0.0000
vt 0.25 1 0.0000
vt 1 0.1739502 0.0000
vt 0.7199707 0.1575928 0.0000
vt 0.7199707 0.1575928 0.0000
vt 0.25 0.2600098 0.0000
vt 0.7199707 0.1575928 0.0000
vt 0.25 0.4000244 0.0000
vt 0.5 0.4000244 0.0000
vt 0.25 0.4000244 0.0000
vt 0.5 0.4000244 0.0000
vt 0.75 0.4000244 0.0000
vt 0.5 0.4000244 0.0000
vt 0.75 0.4000244 0.0000
vt 1 0.4000244 0.0000
vt 0.75 0.4000244 0.0000
vt 0.25 0.4000244 0.0000
vt 0 0.4000244 0.0000
vt 0 0.4000244 0.0000
vt 0.25 0.4000244 0.0000
vt 1.25 0.8399658 0.0000
vt 1.25 0.6800537 0.0000
vt 1.25 1 0.0000
vt 1.5 1 0.0000
vt 1.5 0.8399658 0.0000
vt 1.5 0.6800537 0.0000
vt 1 0.4000244 0.0000
vt 1.25 0.5400391 0.0000
vt 1.25 0.4000244 0.0000
vt 1 0.4000244 0.0000
vt 1.75 0.75 0.0000
vt 2 0.75 0.0000
vt 1.75 0.6800537 0.0000
vt 1 0.1739502 0.0000
vt 1.250854 0.2600098 0.0000
vt 1.280029 0.1575928 0.0000
vt 1 0.1739502 0.0000
vt 1.5 0.4000244 0.0000
vt 1.75 0.5400391 0.0000
vt 1.75 0.4000244 0.0000
vt 1.5 0.5400391 0.0000
vt 1.5 0.4000244 0.0000
vt 2 0.5400391 0.0000
vt 1.75 0.4000244 0.0000
vt 1.25 0.4000244 0.0000
vt 1.5 0.4000244 0.0000
vt 1.25 0.4000244 0.0000
vt 1.5 0.2600098 0.0000
vt 1.280029 0.1575928 0.0000
vt 1.75 1 0.0000
vt 1 0.1739502 0.0000
vt 1.280029 0.1575928 0.0000
vt 2 0.4000244 0.0000
vt 2 0.2600098 0.0000
vt 1.75 0.2600098 0.0000
vt 1.280029 0.1575928 0.0000
vt 1.328003 0 0.0000
vt 1.280029 0.1575928 0.0000
vt 1.75 0.4000244 0.0000
vt 1.5 0.4000244 0.0000
vt 1.75 0.4000244 0.0000
vt 1.5 0.4000244 0.0000
vt 1.25 0.4000244 0.0000
vt 1.5 0.4000244 0.0000
vt 1.25 0.4000244 0.0000
vt 1 0.4000244 0.0000
vt 1.25 0.4000244 0.0000
vt 1.75 0.4000244 0.0000
vt 1.75 0.4000244 0.0000
vt 1.75 0 0.0000
vt 1.280029 0.1575928 0.0000
vt 1.75 0.125 0.0000
vt 1.280029 0.1575928 0.0000
vt 0 0.2600098 0.0000
vt 0 0.4000244 0.0000
# 115 texture coords

g face
f 25/21/25 24/21/24 15/21/15
f 25/21/25 35/21/35 24/21/24
f 34/21/34 35/21/35 25/21/25
f 34/21/34 31/21/31 35/21/35
f 20/21/20 31/21/31 34/21/34
f 20/21/20 23/21/23 31/21/31
f 21/21/21 23/21/23 20/21/20
f 43/68/43 13/13/13 11/70/11
f 43/68/43 38/62/38 13/13/13
f 42/66/42 38/62/38 43/68/43
f 42/66/42 41/65/41 38/62/38
f 45/71/45 41/65/41 42/66/42
f 45/71/45 62/90/62 41/65/41
f 40/64/40 41/65/41 62/90/62
f 40/64/40 37/61/37 41/65/41
f 39/63/39 37/61/37 40/64/40
f 39/63/39 4/4/4 37/61/37
f 6/6/6 4/4/4 39/63/39
f 6/6/6 5/5/5 4/4/4
f 37/61/37 38/62/38 41/65/41
f 37/61/37 2/2/2 38/62/38
f 4/4/4 2/2/2 37/61/37
f 4/4/4 1/1/1 2/2/2
f 5/5/5 1/1/1 4/4/4
f 5/5/5 7/7/7 1/1/1
f 2/2/2 13/13/13 38/62/38
f 2/2/2 3/3/3 13/13/13
f 1/1/1 3/3/3 2/2/2
f 1/1/1 8/8/8 3/3/3
f 7/7/7 8/8/8 1/1/1
f 7/7/7 36/42/36 8/8/8
f 14/15/14 8/8/8 36/42/36
f 14/15/14 9/9/9 8/8/8
f 16/17/16 9/9/9 14/15/14
f 16/17/16 30/28/30 9/9/9
f 27/25/27 30/28/30 16/17/16
f 27/25/27 28/29/28 30/28/30
f 59/81/59 43/68/43 44/85/44
f 59/81/59 42/66/42 43/68/43
f 47/73/47 42/66/42 59/81/59
f 47/73/47 45/71/45 42/66/42
f 46/72/46 45/71/45 47/73/47
f 47/73/47 53/83/53 46/72/46
f 47/73/47 57/79/57 53/83/53
f 59/81/59 57/79/57 47/73/47
f 59/81/59 56/82/56 57/79/57
f 10/10/10 30/28/30 12/37/12
f 10/10/10 9/9/9 30/28/30
f 3/3/3 9/9/9 10/10/10
f 3/3/3 8/8/8 9/9/9
f 21/21/21 49/21/49 50/21/50
f 21/21/21 22/21/22 49/21/49
f 20/21/20 22/21/22 21/21/21
f 63/95/63 61/93/61 58/109/58
f 63/95/63 52/94/52 61/93/61
f 17/18/17 48/75/48 44/107/44
f 17/18/17 18/74/18 48/75/48
f 48/75/48 60/88/60 56/104/56
f 48/75/48 55/89/55 60/88/60
f 60/88/60 63/95/63 58/101/58
f 60/88/60 55/98/55 63/95/63
f 53/21/53 54/21/54 46/21/46
f 53/21/53 61/21/61 54/21/54
f 61/21/61 51/21/51 54/21/54
f 61/21/61 52/21/52 51/21/51
f 52/21/52 49/21/49 51/21/51
f 52/21/52 50/21/50 49/21/49
f 19/20/19 17/18/17 12/56/12
f 19/20/19 18/19/18 17/18/17
f 33/40/33 19/20/19 28/53/28
f 33/40/33 26/41/26 19/20/19
f 32/46/32 33/40/33 29/50/29
f 32/46/32 26/47/26 33/40/33
f 10/10/10 13/13/13 3/3/3
f 10/10/10 11/14/11 13/13/13
f 27/25/27 24/30/24 29/31/29
f 27/25/27 16/17/16 24/30/24
f 16/17/16 15/16/15 24/30/24
f 16/17/16 14/15/14 15/16/15
f 32/46/32 35/115/35 31/114/31
f 55/113/55 50/97/50 52/110/52
f 63/112/63 55/111/55 52/110/52
f 53/83/53 58/108/58 61/93/61
f 11/106/11 17/18/17 44/105/44
f 44/103/44 48/75/48 56/102/56
f 56/100/56 60/88/60 58/99/58
f 21/22/21 50/97/50 55/96/55
f 55/92/55 48/75/48 18/91/18
f 59/81/59 44/87/44 56/86/56
f 58/84/58 53/83/53 57/79/57
f 58/80/58 57/79/57 56/78/56
f 18/77/18 21/22/21 55/76/55
f 44/69/44 43/68/43 11/67/11
f 32/46/32 29/60/29 35/59/35
f 24/30/24 35/58/35 29/57/29
f 11/55/11 12/54/12 17/18/17
f 12/52/12 28/51/28 19/20/19
f 28/49/28 29/48/29 33/40/33
f 21/22/21 26/45/26 23/36/23
f 26/44/26 18/43/18 19/20/19
f 30/28/30 28/39/28 12/38/12
f 31/33/31 23/36/23 26/35/26
f 32/34/32 31/33/31 26/32/26
f 29/27/29 28/26/28 27/25/27
f 18/24/18 26/23/26 21/22/21
f 12/12/12 11/11/11 10/10/10
# 106 faces

