# RFL_Res.dat Editor OBJ Exporter v1.3 - (c) 2018 Atlas Vryzas Software

#
# object hair
#

v  0 68.68235 16
v  10.92549 65.63137 15.17647
v  10.85882 64.25491 22.0902
v  0 69.73333 5.333333
v  10.46274 68 5.333333
v  18.70196 60.07843 12.57255
v  18.76471 61.06274 4.870588
v  25.50588 51.72941 9.333333
v  29.03137 43.99608 -5.431373
v  25.50196 52.96078 -2.866667
v  28.3451 35.88628 7.733334
v  27.72157 43.41961 8.082353
v  29.58824 35.07059 -6.694118
v  19.48235 50 23.50196
v  14 54 10.81569
v  17.70588 55.83529 22.09804
v  12.12157 29.67451 -3.47451
v  21.32941 44 23.50196
v  23.35686 36 20
v  -10.45882 68 5.333333
v  -18.69804 60.08627 12.57255
v  -18.76078 61.06274 4.870588
v  -10.92157 65.63137 15.17647
v  -25.49804 51.73333 9.329412
v  -29.02745 43.99608 -5.431373
v  -25.43922 52.96078 -2.866667
v  -27.71765 43.42353 8.078431
v  -28.34118 35.88628 7.733334
v  -29.58431 35.07059 -6.694118
v  -24.31372 44.6902 19.54118
v  -23 33.32549 17.51765
v  -20.14118 39.20392 23.89804
v  -18.33333 54.33725 25.81176
v  -14.75294 45.81569 30.07059
v  -10.11373 60.82745 28.42745
v  -7.184314 50.06667 32.7451
v  0.007843138 64.31373 26.52157
v  1.156863 53.67843 32.52157
v  10.6549 56.0549 29.5098
v  -24.72941 27.56471 10.2902
v  -12.11765 29.67451 -3.47451
v  24.72941 27.56471 10.29412
v  10.60392 67.4902 -6
v  0 65.56863 -18.54902
v  10.60392 63.99608 -17.63922
v  0 69.24313 -6.309804
v  20.6549 45.33333 -26.1451
v  18.76471 58.18431 -15.83922
v  10.60392 56.11765 -27.02353
v  26.95294 34.12941 -17.38039
v  21.01176 33.79608 -27.62353
v  26.57647 44.86666 -16.10588
v  11.3098 33.43922 -33.51765
v  10.60392 45.50588 -33.15294
v  0 46.12549 -34.86274
v  0 57.28627 -28.41961
v  28.24314 25.41176 -5.427451
v  25.46667 20.60392 -15.6902
v  0 18.8902 -32.75686
v  0 33.43922 -35.24314
v  28.16078 16.7451 -4.431373
v  9.913726 8.54902 -30.29804
v  19.75686 19.68628 -24.46275
v  10.34118 19.08235 -30.71765
v  18.69412 7.301961 -24.44314
v  0 -0.7490196 -33.49804
v  11.76471 -1.92549 -29.22353
v  0 9.215686 -32.4
v  27.12157 24.33726 7.443137
v  30.03529 10.50196 11.62745
v  27.59608 16.99608 9.066667
v  24.86275 6.996078 -14.03529
v  32.68235 1 4.858824
v  15.60784 1.905882 0.01960784
v  21.46275 3.898039 7.996078
v  28.93333 -2.184314 -5.929412
v  20.6549 -2.92549 -20.39216
v  6.270588 0.1019608 -10.37647
v  28.98431 8.57647 -1.435294
v  34.24314 5.752941 14.39216
v  -10.6 67.4902 -6
v  -10.6 63.99608 -17.63922
v  -18.76078 58.18431 -15.83922
v  -20.65098 45.33333 -26.1451
v  -10.6 56.11765 -27.02353
v  -26.94902 34.12941 -17.38039
v  -21.00784 33.79608 -27.62353
v  -26.57255 44.86666 -16.10588
v  -11.30588 33.43922 -33.51765
v  -10.6 45.50588 -33.15294
v  -28.23922 25.41176 -5.427451
v  -25.46275 20.60392 -15.6902
v  -10.33725 19.08235 -30.71765
v  -28.15686 16.7451 -4.431373
v  -24.85882 6.996078 -14.03529
v  -28.98039 8.57647 -1.435294
v  -9.909804 8.54902 -30.29804
v  -19.75294 19.68628 -24.46275
v  -18.6902 7.301961 -24.44314
v  -11.76078 -1.92549 -29.22353
v  -27.11765 24.33726 7.443137
v  -30.03137 10.50196 11.62745
v  -27.59216 16.99608 9.066667
v  -15.60392 1.905882 0.01960784
v  -32.67843 1 4.858824
v  -21.45882 3.898039 7.996078
v  -28.92941 -2.184314 -5.929412
v  -20.65098 -2.92549 -20.39216
v  -6.266666 0.1019608 -10.37647
v  -34.23922 5.752941 14.39216
# 110 vertices

vn 0.02389706 0.9729167 0.2300858
vn 0.4507966 0.873652 0.183701
vn 0.4770833 0.7731005 0.4181373
vn 0 0.9996936 0.028125
vn 0.3931985 0.9169731 0.06813726
vn 0.7039216 0.6826593 0.1964461
vn 0.7183824 0.6957108 0.004227941
vn 0.8833333 0.4210172 0.2064338
vn 0.9781862 0.2077206 -0.01151961
vn 0.8510417 0.5185049 -0.08302696
vn 0.9776348 -0.03964461 0.2068627
vn 0.9446691 0.1519608 0.2908088
vn 0.9968137 -0.03278186 -0.07352941
vn -0.9044118 -0.2015931 0.3760417
vn 0.1202206 -0.9139093 0.3877451
vn -0.5409313 -0.7838848 0.3046569
vn -0.6308824 -0.2226103 0.7431985
vn -0.8215686 -0.3373775 0.4595588
vn -0.7028186 -0.5266544 0.4782476
vn -0.393076 0.9169731 0.06807598
vn -0.6906863 0.6931372 0.2061274
vn -0.7189951 0.6949755 0.003492647
vn -0.4141544 0.8651348 0.2829044
vn -0.8904412 0.4245098 0.1639706
vn -0.9776348 0.2097427 -0.01207108
vn -0.8503677 0.5194853 -0.08351716
vn -0.9708946 0.1509804 0.1856005
vn -0.969424 -0.0588848 0.2380515
vn -0.9967524 -0.03278186 -0.07352941
vn -0.8814338 0.03511029 0.4709559
vn -0.8606617 -0.2086397 0.4643382
vn -0.7832108 -0.1098039 0.6118873
vn -0.7128676 0.3713848 0.5948529
vn -0.6546569 0.08253676 0.7514093
vn -0.3887868 0.6277574 0.6743873
vn -0.3435049 0.2734681 0.8984681
vn 0.01292892 0.7752451 0.6316177
vn 0.006433824 0.4471814 0.894424
vn 0.3675858 0.5654412 0.7384191
vn 0.7583946 0.5018382 0.4160539
vn -0.03406863 -0.9827206 -0.1818015
vn 0.574326 -0.2870098 0.7666667
vn -0.08327205 -0.9178309 0.3881128
vn -0.8752451 -0.2535539 0.4117647
vn 0.5253063 -0.7371936 0.4249387
vn 0.4926471 -0.7564338 0.4302083
vn 0.4523897 -0.8316789 0.321875
vn 0.4013481 -0.8868873 0.2287377
vn 0.3400123 -0.9215686 0.1873775
vn 0.1949755 -0.9704657 0.1416054
vn 0.880576 0.2700368 0.389522
vn 0.9123162 0.1720588 0.3717524
vn 0.924326 -0.04993872 0.3783088
vn 0.8898284 -0.2745711 0.3645833
vn 0.4216912 0.8910539 -0.1681373
vn 0 0.9104779 -0.4135417
vn 0.3466912 0.8044118 -0.4824755
vn 0 0.9921569 -0.125
vn 0.7050245 0.267402 -0.6568015
vn 0.7066177 0.6309437 -0.3203431
vn 0.3833333 0.5775735 -0.7207721
vn 0.929473 -0.03498774 -0.3673407
vn 0.7141544 -0.09644608 -0.693321
vn 0.9101103 0.2753064 -0.3097427
vn 0.3588848 -0.05894608 -0.9314951
vn 0.3291054 0.2190564 -0.9185049
vn 0 0.3528186 -0.9357231
vn 0 0.6867034 -0.7269608
vn 0.9949755 -0.06415441 -0.0773897
vn 0.9099265 -0.1102941 -0.3998775
vn 0 -0.1370098 -0.9905025
vn 0 -0.03327206 -0.9994485
vn 0.988848 0.05030637 -0.1405025
vn 0.4091912 -0.01145833 -0.9123162
vn 0.680576 -0.1221201 -0.7224265
vn 0.376103 -0.1303309 -0.9173407
vn 0.7398284 -0.06721814 -0.669424
vn 0 0.03682598 -0.999326
vn 0.5367647 -0.05870098 -0.8416666
vn 0 0.008272059 -0.9999387
vn 0.08321078 -0.9177696 0.3882966
vn -0.563848 0.0939951 0.8204657
vn 0.001348039 -0.9882353 -0.1526348
vn 0.9949755 -0.0502451 0.08731618
vn 0.9318015 0.3558211 -0.07224265
vn 0.9871324 0.1496323 0.05674019
vn 0.9143995 -0.02530637 -0.4040441
vn -0.1292892 -0.918076 0.3746936
vn -0.4249387 -0.7744485 0.4686887
vn -0.5138481 -0.2846814 0.8093137
vn -0.1802083 -0.9512255 0.2504289
vn -0.1469363 -0.9776961 0.1499387
vn -0.2280637 -0.8764093 0.4240196
vn 0.9453431 0.1994485 -0.258027
vn 0.8776348 0.4281863 -0.2154412
vn 0.9291054 0.1907475 -0.316973
vn 0.9150122 0.07610294 -0.3962623
vn 0.8128676 -0.08020833 -0.5768995
vn -0.1458946 -0.9871936 0.06366421
vn -0.3389706 -0.4715073 0.8140931
vn -0.4715686 0.132598 0.8718137
vn -0.5202819 0.1609069 0.8387255
vn -0.4216299 0.8910539 -0.1681373
vn -0.3466299 0.8044118 -0.4824755
vn -0.7071691 0.630576 -0.3197917
vn -0.7049632 0.267402 -0.6568015
vn -0.3832721 0.5775735 -0.7207721
vn -0.9294118 -0.03498774 -0.3673407
vn -0.7140931 -0.09644608 -0.693321
vn -0.9099877 0.2762255 -0.3090686
vn -0.3588235 -0.05894608 -0.9314951
vn -0.3290441 0.2190564 -0.9185049
vn -0.9949142 -0.06415441 -0.0773897
vn -0.9098652 -0.1102941 -0.3998775
vn -0.3760417 -0.1303309 -0.9173407
vn -0.9887868 0.05030637 -0.1405025
vn -0.9143382 -0.02530637 -0.4040441
vn -0.9452819 0.1994485 -0.258027
vn -0.4091299 -0.01145833 -0.9123162
vn -0.6805147 -0.1221201 -0.7224265
vn -0.7397671 -0.06721814 -0.669424
vn -0.5367034 -0.05870098 -0.8416666
vn 0.5639093 0.0939951 0.8204657
vn -0.9949142 -0.0502451 0.08731618
vn -0.9317402 0.3558211 -0.07224265
vn -0.9870711 0.1496323 0.05674019
vn 0.425 -0.7744485 0.4686887
vn 0.1293505 -0.918076 0.3746936
vn 0.5139093 -0.2846814 0.8093137
vn 0.1802696 -0.9512255 0.2504289
vn 0.1469976 -0.9776961 0.1499387
vn 0.2001226 -0.8103554 0.5507353
vn -0.8775735 0.4281863 -0.2154412
vn -0.9290441 0.1907475 -0.316973
vn -0.914951 0.07610294 -0.3962623
vn -0.8128064 -0.08020833 -0.5768995
vn 0.1459559 -0.9871936 0.06366421
vn 0 -0.9982231 0.05943628
vn 0.3390319 -0.4715073 0.8140931
vn 0.4716299 0.132598 0.8718137
vn 0.5203431 0.1609069 0.8387255
# 141 vertex normals

# 0 texture coords

g hair
f 11//11 19//53 42//54
f 11//11 12//12 19//53
f 9//9 12//12 11//11
f 9//9 8//8 12//12
f 10//10 8//8 9//9
f 10//10 7//7 8//8
f 48//60 7//7 10//10
f 48//60 43//55 7//7
f 45//57 43//55 48//60
f 45//57 44//56 43//55
f 56//68 44//56 45//57
f 56//68 82//104 44//56
f 85//107 82//104 56//68
f 85//107 83//105 82//104
f 84//106 83//105 85//107
f 84//106 88//110 83//105
f 86//108 88//110 84//106
f 86//108 29//29 88//110
f 91//113 29//29 86//108
f 91//113 101//124 29//29
f 103//126 101//124 91//113
f 12//12 18//52 19//53
f 12//12 14//51 18//52
f 8//8 14//51 12//12
f 8//8 16//40 14//51
f 6//6 16//40 8//8
f 6//6 3//3 16//40
f 2//2 3//3 6//6
f 2//2 1//1 3//3
f 5//5 1//1 2//2
f 5//5 4//4 1//1
f 46//58 4//4 5//5
f 46//58 20//20 4//4
f 81//103 20//20 46//58
f 81//103 22//22 20//20
f 83//105 22//22 81//103
f 83//105 26//26 22//22
f 88//110 26//26 83//105
f 88//110 25//25 26//26
f 29//29 25//25 88//110
f 29//29 28//28 25//25
f 101//124 28//28 29//29
f 99//121 100//122 108//136
f 99//121 97//119 100//122
f 98//120 97//119 99//121
f 98//120 93//115 97//119
f 87//109 93//115 98//120
f 87//109 89//111 93//115
f 84//106 89//111 87//109
f 84//106 90//112 89//111
f 85//107 90//112 84//106
f 85//107 55//67 90//112
f 56//68 55//67 85//107
f 56//68 49//61 55//67
f 45//57 49//61 56//68
f 45//57 48//60 49//61
f 3//3 39//39 16//40
f 3//3 37//37 39//39
f 1//1 37//37 3//3
f 1//1 23//23 37//37
f 20//20 23//23 1//1
f 20//20 21//21 23//23
f 22//22 21//21 20//20
f 22//22 24//24 21//21
f 26//26 24//24 22//22
f 26//26 25//25 24//24
f 74//89 77//92 76//91
f 74//89 78//93 77//92
f 17//17 78//93 74//89
f 17//17 109//132 78//93
f 41//42 109//132 17//17
f 41//42 104//127 109//132
f 106//129 104//127 41//42
f 106//129 105//128 104//127
f 110//139 105//128 106//129
f 97//119 66//78 100//122
f 97//119 68//80 66//78
f 93//115 68//80 97//119
f 93//115 59//71 68//80
f 89//111 59//71 93//115
f 89//111 60//72 59//71
f 90//112 60//72 89//111
f 90//112 55//67 60//72
f 65//77 77//98 67//79
f 65//77 72//87 77//98
f 58//70 72//87 65//77
f 58//70 61//73 72//87
f 57//69 61//73 58//70
f 57//69 71//86 61//73
f 69//84 71//86 57//69
f 81//103 82//104 83//105
f 81//103 44//56 82//104
f 46//58 44//56 81//103
f 46//58 43//55 44//56
f 5//5 43//55 46//58
f 5//5 7//7 43//55
f 33//33 34//34 36//36
f 33//33 30//30 34//34
f 24//24 30//30 33//33
f 24//24 27//27 30//30
f 25//25 27//27 24//24
f 25//25 28//28 27//27
f 92//114 91//113 86//108
f 92//114 94//116 91//113
f 95//117 94//116 92//114
f 95//117 96//118 94//116
f 107//135 96//118 95//117
f 107//135 105//134 96//118
f 59//71 64//76 68//80
f 59//71 53//65 64//76
f 60//72 53//65 59//71
f 60//72 54//66 53//65
f 55//67 54//66 60//72
f 55//67 49//61 54//66
f 13//13 9//9 11//11
f 13//13 52//64 9//9
f 50//62 52//64 13//13
f 50//62 47//59 52//64
f 51//63 47//59 50//62
f 51//63 53//65 47//59
f 72//87 76//97 77//98
f 72//87 79//94 76//97
f 61//73 79//94 72//87
f 61//73 70//85 79//94
f 71//86 70//85 61//73
f 15//15 16//16 39//50
f 15//15 14//14 16//16
f 17//17 14//14 15//15
f 17//17 18//18 14//14
f 19//19 18//18 17//17
f 17//17 71//102 69//82
f 17//17 75//90 71//102
f 74//89 75//90 17//17
f 74//89 73//88 75//90
f 76//91 73//88 74//89
f 50//62 58//70 51//63
f 50//62 57//69 58//70
f 13//13 57//69 50//62
f 13//13 69//84 57//69
f 11//11 69//84 13//13
f 52//64 10//10 9//9
f 52//64 48//60 10//10
f 47//59 48//60 52//64
f 47//59 49//61 48//60
f 54//66 49//61 47//59
f 87//109 86//108 84//106
f 87//109 92//114 86//108
f 98//120 92//114 87//109
f 98//120 99//121 92//114
f 31//31 28//28 40//44
f 31//31 30//30 28//28
f 32//32 30//30 31//31
f 32//32 34//34 30//30
f 51//63 64//76 53//65
f 51//63 63//75 64//76
f 58//70 63//75 51//63
f 58//70 65//77 63//75
f 37//37 38//38 39//39
f 37//37 35//35 38//38
f 23//23 35//35 37//37
f 23//23 21//21 35//35
f 35//35 36//36 38//38
f 35//35 33//33 36//36
f 21//21 33//33 35//35
f 21//21 24//24 33//33
f 66//138 109//132 100//137
f 66//138 78//93 109//132
f 67//99 78//93 66//138
f 67//99 77//92 78//93
f 75//90 70//101 71//102
f 75//90 80//100 70//101
f 73//88 80//100 75//90
f 6//6 5//5 2//2
f 6//6 7//7 5//5
f 8//8 7//7 6//6
f 79//94 73//96 76//97
f 79//94 80//95 73//96
f 70//85 80//95 79//94
f 15//15 36//48 34//47
f 15//15 38//49 36//48
f 39//50 38//49 15//15
f 17//17 42//83 19//19
f 17//17 11//81 42//83
f 69//82 11//81 17//17
f 15//15 31//45 41//42
f 15//15 32//46 31//45
f 34//47 32//46 15//15
f 95//117 108//136 107//135
f 95//117 99//121 108//136
f 92//114 99//121 95//117
f 94//116 103//126 91//113
f 94//116 102//125 103//126
f 96//118 102//125 94//116
f 62//74 68//80 64//76
f 62//74 66//78 68//80
f 67//79 66//78 62//74
f 62//74 65//77 67//79
f 62//74 63//75 65//77
f 64//76 63//75 62//74
f 110//133 96//118 105//134
f 110//133 102//125 96//118
f 101//123 41//42 28//43
f 101//123 103//141 41//42
f 103//141 106//129 41//42
f 103//141 102//140 106//129
f 107//130 104//127 105//128
f 107//130 108//131 104//127
f 108//131 109//132 104//127
f 108//131 100//137 109//132
f 40//41 41//42 31//45
f 40//41 28//43 41//42
f 30//30 27//27 28//28
f 1//1 4//4 20//20
f 110//139 106//129 102//140
f 53//65 54//66 47//59
# 215 faces

