# RFL_Res.dat Editor OBJ Exporter v1.3 - (c) 2018 Atlas Vryzas Software

#
# object hair
#

v  26.20392 1.035294 -21.33726
v  27.76078 3.839216 -11.27451
v  24.32157 10.23529 -21.8902
v  14.18039 1.035294 -38.01961
v  18.55294 3.839216 -28.06274
v  13.16471 10.23529 -34.84706
v  30.80392 13.03529 -15
v  22.86667 13.03529 -31.97255
v  -2.294118 11.63922 -39.77647
v  0 1.035294 -43.8549
v  2.298039 11.63922 -39.77647
v  6.513725 3.839216 -36.71765
v  31.55294 15.83922 -2.466667
v  31.78039 10.23529 -2.494118
v  32.85882 14 6
v  25.47451 25.03529 -21.92549
v  27.14118 22.23529 -10.98824
v  26.22353 27.83922 -10.56078
v  0 25.03529 -42.59216
v  6.364706 22.23529 -35.86274
v  6.14902 27.83922 -34.59216
v  28.89412 33.03529 -8.298039
v  22.1098 33.03529 -23
v  11.96863 33.03529 -32.82745
v  17.52549 27.83922 -26.41569
v  0 33.03529 -36.27843
v  32.23922 25.03529 -1.615686
v  30.77647 24 10
v  28.31765 33.03922 8
v  34.23529 1.035294 -0.4470588
v  30.26667 6 8
v  24.14902 15.83922 -21.72157
v  13.78824 25.03529 -36.92157
v  18.13725 22.23529 -27.4
v  13.06667 15.83922 -34.58431
v  0 15.83922 -39.09804
v  7.223529 13.03529 -41.76471
v  -7.219608 13.03529 -41.76471
v  31.96863 -1.764706 8
v  29.72941 -6.964706 -2.227451
v  27.09804 -1.764706 -10.96863
v  22.75686 -6.964706 -20.36863
v  18.10588 -1.764706 -27.35294
v  12.31373 -6.964706 -32.4902
v  6.356863 -1.764706 -35.8
v  0 -6.964706 -36.74902
v  0 18 -3.8
v  -6.352941 -1.764706 -35.8
v  -27.75686 3.839216 -11.27451
v  -26.2 1.035294 -21.33726
v  -24.31765 10.23529 -21.8902
v  -18.54902 3.839216 -28.06274
v  -14.17647 1.035294 -38.01961
v  -13.16078 10.23529 -34.84706
v  -30.8 13.03529 -15
v  -22.86275 13.03529 -31.97255
v  -6.509804 3.839216 -36.71765
v  -31.77647 10.23529 -2.494118
v  -31.54902 15.83922 -2.466667
v  -32.8549 14 6
v  -27.13725 22.23529 -10.98824
v  -25.47059 25.03529 -21.92549
v  -26.21961 27.83922 -10.56078
v  -6.360785 22.23529 -35.86274
v  -6.145098 27.83922 -34.59216
v  -22.10588 33.03529 -23
v  -28.8902 33.03529 -8.298039
v  -11.96471 33.03529 -32.82745
v  -17.52157 27.83922 -26.41569
v  -30.26274 6 8
v  -34.23137 1.035294 -0.4470588
v  -24.1451 15.83922 -21.72157
v  -28.31372 33.03922 8
v  -32.23529 25.03529 -1.615686
v  -13.78431 25.03529 -36.92157
v  -18.13333 22.23529 -27.4
v  -30.77255 24 10
v  -13.06275 15.83922 -34.58431
v  -31.96471 -1.764706 8
v  -29.72549 -6.964706 -2.227451
v  -27.09412 -1.764706 -10.96863
v  -22.75294 -6.964706 -20.36863
v  -18.10196 -1.764706 -27.35294
v  -12.3098 -6.964706 -32.4902
v  10.60392 45.50588 -33.15294
v  0 46.12549 -34.86274
v  25.44314 44.26274 -12.90196
v  27.88235 44 0
v  25.44314 52.96078 -2.866667
v  19.78823 43.70588 -26.39216
v  18.76471 58.18431 -15.83922
v  10.60392 63.99608 -17.63922
v  10.60392 56.11765 -27.02353
v  0 57.28627 -28.41961
v  0 65.56863 -18.54902
v  25 44 10
v  22.64314 55 11
v  9.807843 57.5647 22.78039
v  18.30588 60.58823 14.76471
v  17.88627 56.03529 16.15686
v  10.09804 64.63921 20.8
v  8.631372 69 10
v  16 65 6
v  0 58.12941 25.16078
v  0 66.09019 22.98824
v  0 70.33334 11.72941
v  12.56078 65 -7
v  21.3098 59.70196 0.7294118
v  6.764706 68.48235 -2.8
v  0 70.44314 -0.7843137
v  -10.6 45.50588 -33.15294
v  -27.87843 44 0
v  -25.43922 44.26274 -12.90196
v  -25.43922 52.96078 -2.866667
v  -19.78431 43.70588 -26.39216
v  -18.76078 58.18431 -15.83922
v  -10.6 63.99608 -17.63922
v  -10.6 56.11765 -27.02353
v  -22.63922 55 11
v  -24.99608 44 10
v  -18.30196 60.58823 14.76471
v  -9.803922 57.5647 22.78039
v  -17.88235 56.03529 16.15686
v  -10.09412 64.63921 20.8
v  -8.627451 69 10
v  -16 65 6
v  -12.55686 65 -7
v  -21.30588 59.70196 0.7294118
v  -6.760784 68.48235 -2.8
# 129 vertices

vn 0.8629289 -0.1364583 -0.4865809
vn 0.9863971 0.03118873 -0.1613971
vn 0.9329044 -0.04957108 -0.3567402
vn 0.4903186 -0.1578431 -0.8571078
vn 0.9067402 0.06599265 -0.4164216
vn 0.6246936 0.05526961 -0.7789215
vn 0.8734682 -0.2135417 -0.4376225
vn 0.9227941 0.03517157 -0.3836397
vn 0.7533088 -0.2101103 -0.6232231
vn 0.7573529 0.03645833 -0.6520221
vn 0.6738358 -0.2842525 -0.6819853
vn -0.02990196 0.02843137 -0.9991422
vn 0 -0.1583946 -0.9873162
vn 0.02996324 0.02843137 -0.9991422
vn 0.7403187 -0.006678921 -0.6722426
vn 0.9870711 0.04503676 -0.1538603
vn 0.9887868 -0.1342524 -0.06593137
vn 0.9969975 -0.008088235 -0.07775735
vn 0.8388481 0.1087623 -0.5334559
vn 0.9368873 0.248652 -0.2460784
vn 0.9275735 0.05980392 -0.3688726
vn 0 0.1969363 -0.9803922
vn 0.5287377 0.2572304 -0.8088848
vn 0.2886029 0.2962623 -0.9104167
vn 0.9613971 0.06629902 -0.2672181
vn 0.8346201 0.0245098 -0.5503064
vn 0.5095588 0.1055147 -0.8539216
vn 0.7330883 0.1520833 -0.6629902
vn 0 0.1742647 -0.9846201
vn 0.9670956 0.1104779 -0.2293505
vn 0.9869485 0.1512255 0.05606618
vn 0.9599265 0.2525735 0.121875
vn 0.985049 -0.06758578 -0.1583333
vn 0.9244485 0.2526348 0.2856005
vn 0.9922181 0.02683824 -0.1216912
vn 0.8121324 0.07830882 -0.5781863
vn 0.4782476 0.164951 -0.8626226
vn 0.9340073 0.2974877 -0.1981005
vn 0.813174 0.2963848 -0.5009191
vn 0.03272059 -0.2004289 -0.9791667
vn 0.8659927 0.07800245 -0.4939951
vn 0.4208946 0.05232843 -0.9056373
vn -0.1347426 -0.01758578 -0.9906863
vn 0 0.09620098 -0.9953431
vn 0.5854779 0.04859069 -0.8092524
vn 0.965625 0.2356005 -0.1101716
vn 0.6934437 0.2677083 -0.6689951
vn 0.2631128 0.02604167 -0.9643995
vn -0.2630515 0.02604167 -0.9643995
vn 0.3388481 -0.2389706 -0.9099265
vn 0.9523897 -0.3047181 0.01421569
vn 0.9653186 -0.1607843 0.2060049
vn 0.8718137 -0.4456495 -0.2034314
vn 0.8314951 -0.2443627 -0.4989583
vn 0.9507965 -0.2686275 -0.1546569
vn 0.7961397 -0.3982843 -0.4555147
vn 0.8675858 -0.2984681 -0.3977329
vn 0.422549 -0.5799632 -0.6964461
vn -0.1298407 -0.3676471 -0.9208333
vn 0.6720588 -0.3508579 -0.6520833
vn 0 -0.6641544 -0.747549
vn 0.6320466 -0.2529412 -0.7324755
vn -0.2546569 -0.5695466 0.7814951
vn -0.6339461 -0.5349877 0.5584559
vn -0.5768995 -0.1503064 0.8028799
vn -0.6425245 -0.7581495 0.1107843
vn 0 -0.556924 0.8305147
vn -0.5266544 -0.4058211 0.7469975
vn -0.7495711 -0.634804 0.1875613
vn 0.2547181 -0.5695466 0.7814951
vn 0 -0.1793505 0.9838235
vn -0.8685662 -0.1358456 0.4765319
vn -0.9863358 0.03118873 -0.1613971
vn -0.8628677 -0.1364583 -0.4865809
vn -0.9328431 -0.04957108 -0.3567402
vn -0.9066789 0.06599265 -0.4164216
vn -0.4902574 -0.1578431 -0.8571078
vn -0.6246324 0.05526961 -0.7789215
vn -0.9227328 0.03517157 -0.3836397
vn -0.8734069 -0.2135417 -0.4376225
vn -0.7532476 -0.2101103 -0.6232231
vn -0.7572917 0.03645833 -0.6520221
vn -0.6737745 -0.2842525 -0.6819853
vn -0.03265931 -0.2004289 -0.9791667
vn -0.9887255 -0.1342524 -0.06593137
vn -0.9870098 0.04503676 -0.1538603
vn -0.9969363 -0.008088235 -0.07775735
vn -0.936826 0.248652 -0.2460784
vn -0.8387868 0.1087623 -0.5334559
vn -0.9275122 0.05980392 -0.3688726
vn -0.5286765 0.2572304 -0.8088848
vn -0.2885417 0.2962623 -0.9104167
vn -0.8345588 0.0245098 -0.5503064
vn -0.9613358 0.06629902 -0.2672181
vn -0.5094975 0.1055147 -0.8539216
vn -0.733027 0.1520833 -0.6629902
vn -0.9243873 0.2526348 0.2856005
vn -0.9849877 -0.06758578 -0.1583333
vn -0.9921569 0.02683824 -0.1216912
vn -0.8120711 0.07830882 -0.5781863
vn -0.9598652 0.2525735 0.121875
vn -0.9670343 0.1104779 -0.2293505
vn -0.4781863 0.164951 -0.8626226
vn -0.8131127 0.2963848 -0.5009191
vn -0.9339461 0.2974877 -0.1981005
vn -0.7402574 -0.006678921 -0.6722426
vn -0.9868873 0.1512255 0.05606618
vn -0.8659314 0.07800245 -0.4939951
vn -0.4208333 0.05232843 -0.9056373
vn 0.1348039 -0.01758578 -0.9906863
vn -0.5854167 0.04859069 -0.8092524
vn -0.9655637 0.2356005 -0.1101716
vn -0.6933824 0.2677083 -0.6689951
vn -0.3387868 -0.2389706 -0.9099265
vn -0.9523284 -0.3047181 0.01421569
vn -0.9652573 -0.1607843 0.2060049
vn -0.8717524 -0.4456495 -0.2034314
vn -0.8314338 -0.2443627 -0.4989583
vn -0.9507353 -0.2686275 -0.1546569
vn -0.7960784 -0.3982843 -0.4555147
vn -0.8675245 -0.2984681 -0.3977329
vn -0.4224877 -0.5799632 -0.6964461
vn 0.129902 -0.3676471 -0.9208333
vn -0.6719975 -0.3508579 -0.6520833
vn -0.6319853 -0.2529412 -0.7324755
vn 0.6340073 -0.5349877 0.5584559
vn 0.5769608 -0.1503064 0.8028799
vn 0.6425858 -0.7581495 0.1107843
vn 0.5267157 -0.4058211 0.7469975
vn 0.7496324 -0.634804 0.1875613
vn 0.8686274 -0.1358456 0.4765319
vn 0.3215686 0.1134804 0.9400735
vn 0.2914216 -0.05386029 0.9550858
vn 0.3761642 -0.1667892 0.9114583
vn 0.3454044 -0.08302696 0.9348039
vn -0.3215074 0.1134804 0.9400735
vn -0.2913603 -0.05386029 0.9550858
vn -0.376103 -0.1667892 0.9114583
vn -0.3453431 -0.08302696 0.9348039
vn 0.3767157 0.2204044 -0.8996936
vn 0 0.3764093 -0.9264093
vn 0.9247549 0.2196691 -0.3107843
vn 0.9767157 0.2054534 0.06262255
vn 0.9147059 0.3952819 -0.08449755
vn 0.7550245 0.2176471 -0.6185662
vn 0.7382966 0.5810049 -0.342647
vn 0.3628064 0.833272 -0.4172181
vn 0.4047794 0.5634804 -0.7201593
vn 0 0.6867034 -0.7269608
vn 0 0.9189951 -0.3943627
vn 0.6128064 -0.05177696 0.7886029
vn 0.8870098 0.3036765 0.3479167
vn 0.4761029 -0.1212623 0.8710172
vn 0.7362745 0.5041667 0.4514706
vn 0.3978554 0.6259191 0.6708333
vn 0.3757966 0.9196691 0.1145221
vn 0.576777 0.8169118 -0.001715686
vn 0 -0.02585784 0.9997549
vn 0 0.6748162 0.7380515
vn 0 0.9708946 0.2395221
vn 0.540625 0.8261642 -0.1589461
vn 0.7632353 0.6458333 -0.02254902
vn 0.3223652 0.9327206 -0.1619485
vn 0 0.9936887 -0.1122549
vn -0.3766544 0.2204044 -0.8996936
vn -0.9766544 0.2054534 0.06262255
vn -0.9246936 0.2196691 -0.3107843
vn -0.9146446 0.3952819 -0.08449755
vn -0.7549632 0.2176471 -0.6185662
vn -0.7382353 0.5810049 -0.342647
vn -0.3627451 0.833272 -0.4172181
vn -0.4047181 0.5634804 -0.7201593
vn -0.8869485 0.3036765 0.3479167
vn -0.6127451 -0.05177696 0.7886029
vn -0.7362132 0.5041667 0.4514706
vn -0.4760417 -0.1212623 0.8710172
vn -0.3977941 0.6259191 0.6708333
vn -0.3757353 0.9196691 0.1145221
vn -0.5767157 0.8169118 -0.001715686
vn -0.5405637 0.8261642 -0.1589461
vn -0.763174 0.6458333 -0.02254902
vn -0.3223039 0.9327206 -0.1619485
# 182 vertex normals

# 0 texture coords

g hair
f 47//67 120//174 73//135
f 47//67 123//65 120//174
f 122//176 123//65 47//67
f 122//176 121//175 123//65
f 124//177 121//175 122//176
f 124//177 125//178 121//175
f 106//160 125//178 124//177
f 106//160 110//164 125//178
f 102//156 110//164 106//160
f 102//156 109//163 110//164
f 103//157 109//163 102//156
f 103//157 107//161 109//163
f 108//162 107//161 103//157
f 108//162 91//146 107//161
f 89//144 91//146 108//162
f 89//144 87//142 91//146
f 88//143 87//142 89//144
f 88//143 22//25 87//142
f 29//32 22//25 88//143
f 29//32 27//30 22//25
f 28//31 27//30 29//32
f 28//31 13//16 27//30
f 15//18 13//16 28//31
f 15//18 14//17 13//16
f 31//51 14//17 15//18
f 60//87 58//85 70//115
f 60//87 59//86 58//85
f 77//107 59//86 60//87
f 77//107 74//102 59//86
f 73//101 74//102 77//107
f 73//101 67//94 74//102
f 112//166 67//94 73//101
f 112//166 113//167 67//94
f 114//168 113//167 112//166
f 114//168 116//170 113//167
f 128//181 116//170 114//168
f 128//181 127//180 116//170
f 126//179 127//180 128//181
f 126//179 129//182 127//180
f 125//178 129//182 126//179
f 125//178 110//164 129//182
f 74//102 61//108 59//86
f 74//102 63//90 61//108
f 67//94 63//90 74//102
f 67//94 66//93 63//90
f 113//167 66//93 67//94
f 113//167 115//169 66//93
f 116//170 115//169 113//167
f 116//170 118//172 115//169
f 117//171 118//172 116//170
f 117//171 94//149 118//172
f 95//150 94//149 117//171
f 95//150 92//147 94//149
f 109//163 92//147 95//150
f 109//163 107//161 92//147
f 91//146 92//147 107//161
f 91//146 93//148 92//147
f 90//145 93//148 91//146
f 90//145 85//140 93//148
f 24//27 85//140 90//145
f 24//27 26//29 85//140
f 21//24 26//29 24//27
f 21//24 19//22 26//29
f 20//23 19//22 21//24
f 20//23 36//44 19//22
f 37//48 36//44 20//23
f 37//48 11//14 36//44
f 12//40 11//14 37//48
f 86//141 118//172 94//149
f 86//141 111//165 118//172
f 26//29 111//165 86//141
f 26//29 68//95 111//165
f 65//92 68//95 26//29
f 65//92 75//103 68//95
f 64//110 75//103 65//92
f 64//110 78//109 75//103
f 68//95 66//93 115//169
f 68//95 69//96 66//93
f 75//103 69//96 68//95
f 75//103 76//104 69//96
f 78//109 76//104 75//103
f 78//109 56//82 76//104
f 54//114 56//82 78//109
f 54//114 52//83 56//82
f 102//156 99//154 103//157
f 102//156 101//155 99//154
f 106//160 101//155 102//156
f 106//160 105//159 101//155
f 124//177 105//159 106//160
f 124//177 104//158 105//159
f 122//176 104//158 124//177
f 122//176 47//67 104//158
f 87//142 90//145 91//146
f 87//142 23//26 90//145
f 22//25 23//26 87//142
f 22//25 18//21 23//26
f 27//30 18//21 22//25
f 27//30 17//41 18//21
f 13//16 17//41 27//30
f 19//22 65//92 26//29
f 19//22 64//91 65//92
f 36//44 64//91 19//22
f 36//44 38//49 64//91
f 9//12 38//49 36//44
f 9//12 57//84 38//49
f 38//49 78//113 64//91
f 38//49 54//78 78//113
f 57//84 54//78 38//49
f 57//84 53//77 54//78
f 48//123 53//77 57//84
f 48//123 84//122 53//77
f 96//151 47//67 29//139
f 96//151 100//127 47//67
f 97//152 100//127 96//151
f 97//152 99//154 100//127
f 108//162 99//154 97//152
f 108//162 103//157 99//154
f 7//8 3//9 32//36
f 7//8 2//7 3//9
f 14//35 2//7 7//8
f 14//35 30//33 2//7
f 31//34 30//33 14//35
f 31//34 39//52 30//33
f 56//82 72//105 76//104
f 56//82 51//75 72//105
f 52//83 51//75 56//82
f 52//83 50//74 51//75
f 83//125 50//74 52//83
f 83//125 82//120 50//74
f 83//126 81//130 82//131
f 83//126 47//67 81//130
f 48//70 47//67 83//126
f 48//70 45//63 47//67
f 46//71 45//63 48//70
f 23//26 24//27 90//145
f 23//26 25//28 24//27
f 16//19 25//28 23//26
f 16//19 34//45 25//28
f 32//36 34//45 16//19
f 34//39 33//37 25//28
f 34//39 35//42 33//37
f 8//10 35//42 34//39
f 8//10 6//50 35//42
f 5//11 6//50 8//10
f 11//14 9//12 36//44
f 11//14 10//13 9//12
f 12//15 10//13 11//14
f 12//15 45//60 10//13
f 17//20 32//36 16//19
f 17//20 7//8 32//36
f 13//46 7//8 17//20
f 13//46 14//35 7//8
f 88//143 96//151 29//32
f 88//143 97//152 96//151
f 89//144 97//152 88//143
f 89//144 108//162 97//152
f 6//6 12//40 37//48
f 6//6 4//4 12//40
f 5//5 4//4 6//6
f 5//5 43//57 4//4
f 41//69 43//64 42//72
f 41//69 47//67 43//64
f 40//66 47//67 41//69
f 40//66 39//68 47//67
f 104//158 101//155 105//159
f 104//158 98//153 101//155
f 47//67 98//153 104//158
f 47//67 100//127 98//153
f 3//3 5//11 8//10
f 3//3 1//1 5//11
f 2//2 1//1 3//3
f 2//2 41//55 1//1
f 120//174 112//166 73//101
f 120//174 119//173 112//166
f 123//65 119//173 120//174
f 123//65 121//175 119//173
f 93//148 94//149 92//147
f 93//148 86//141 94//149
f 85//140 86//141 93//148
f 85//140 26//29 86//141
f 61//88 72//100 55//79
f 61//88 62//89 72//100
f 63//90 62//89 61//88
f 63//90 66//93 62//89
f 47//67 60//133 70//132
f 47//67 77//134 60//133
f 73//135 77//134 47//67
f 47//67 80//128 81//130
f 47//67 79//129 80//128
f 70//132 79//129 47//67
f 10//13 57//106 9//12
f 10//13 48//124 57//106
f 46//61 48//124 10//13
f 30//33 41//54 2//7
f 30//33 40//53 41//54
f 39//52 40//53 30//33
f 55//79 49//80 58//99
f 55//79 51//81 49//80
f 72//100 51//81 55//79
f 62//89 76//111 72//100
f 62//89 69//96 76//111
f 66//93 69//96 62//89
f 71//98 49//80 81//118
f 71//98 58//99 49//80
f 70//97 58//99 71//98
f 1//1 43//62 5//11
f 1//1 42//56 43//62
f 41//55 42//56 1//1
f 4//4 45//59 12//40
f 4//4 44//58 45//59
f 43//57 44//58 4//4
f 126//179 121//175 125//178
f 126//179 128//181 121//175
f 128//181 119//173 121//175
f 128//181 114//168 119//173
f 127//180 117//171 116//170
f 127//180 129//182 117//171
f 129//182 95//150 117//171
f 129//182 110//164 95//150
f 111//165 115//169 118//172
f 111//165 68//95 115//169
f 81//119 50//74 82//120
f 81//119 49//73 50//74
f 83//121 53//77 84//122
f 83//121 52//76 53//77
f 80//117 71//98 81//118
f 80//117 79//116 71//98
f 35//47 37//48 20//23
f 35//47 6//6 37//48
f 59//112 55//79 58//99
f 59//112 61//88 55//79
f 45//63 43//64 47//67
f 45//63 44//65 43//64
f 31//136 47//67 39//68
f 31//136 15//137 47//67
f 18//21 16//19 23//26
f 18//21 17//20 16//19
f 20//43 33//37 35//42
f 20//43 21//24 33//37
f 32//38 8//10 34//39
f 32//38 3//3 8//10
f 24//27 33//37 21//24
f 24//27 25//28 33//37
f 98//153 99//154 101//155
f 98//153 100//127 99//154
f 28//138 47//67 15//137
f 28//138 29//139 47//67
f 84//127 48//70 83//126
f 112//166 119//173 114//168
f 110//164 109//163 95//150
f 54//78 53//77 52//76
f 51//75 50//74 49//73
f 46//61 10//13 45//60
f 70//97 71//98 79//116
# 254 faces

