# RFL_Res.dat Editor OBJ Exporter v1.3 - (c) 2018 Atlas Vryzas Software

#
# object hair
#

v  -27.12157 20.93726 4.258823
v  -25.84706 36.2 9.580392
v  -25.67059 23.15294 12.01176
v  -26.39608 33.43922 0
v  -10.59216 77.53333 2.45098
v  0 76.36863 -12.38039
v  0 78.81961 3.011765
v  -10.17647 75.14902 -12.60784
v  -10.76471 75.35686 15.52157
v  0 76.6 16.38039
v  -28.14118 66.28236 9.145098
v  -20.13333 73.83138 0.8196079
v  -20.44706 71.78824 13.02745
v  -27.74902 68.10588 -1.698039
v  -33.24706 59.41569 4.223529
v  -32.84706 60.95686 -4.839216
v  -36.53725 50.15686 -5.564706
v  -35.56078 48.51373 6.098039
v  -10.67843 68.8353 25.34118
v  0 69.92941 26.41961
v  -10.34118 58.59608 30.95294
v  0 59.45098 32.15294
v  0 50.16079 28.49412
v  -9.933333 50.55294 26.35686
v  -27.94902 60.87843 17.30196
v  -20.29412 65.69411 22.20392
v  -19.6902 56.14118 27.45882
v  -27.18824 52.41177 20.90196
v  -19.22745 51.33333 22.54902
v  -24.17255 47.53333 16.1451
v  -33.04706 54.90196 11.04706
v  -30.6549 47.5451 14.31373
v  0 49.37255 6
v  -24.11765 39.1098 11.63529
v  -26.81176 66.17647 -14.17647
v  -18.49412 70.66274 -13.39216
v  -23.38039 31.86275 7.411765
v  -17 34.47843 2.815686
v  -12 34.95686 -1.509804
v  -35.89412 37.98039 -9.949019
v  -35.2902 36.03529 -16.97255
v  -34.6353 46.44314 -15.95686
v  -36.6902 43.42353 -5.545098
v  -33.24706 29.94902 -3.643137
v  -34.12941 34.61176 1.592157
v  -34.93726 40.55294 4.956863
v  -31.86667 26.19608 -17.39216
v  -32.55294 54.07843 -15.21961
v  -26.52549 58 -22.55294
v  -16.63922 62.66667 -28.27451
v  0 66.10196 -31.01569
v  -28.41961 48 -28.55294
v  -17.04314 52.11765 -37.96471
v  0 54.52549 -41.58039
v  -28.4902 36.23137 -30.55294
v  -16.30196 37.62353 -41.29804
v  0 38.72941 -45.09804
v  -25.87843 24.91372 -28.76078
v  -14.47451 24.00784 -37.08627
v  0 23.82745 -40.29804
v  -21.35294 18.14902 -22.31765
v  -12.29412 15.73333 -27.81569
v  0 14.7098 -29.81176
v  -18.66667 15.55686 -13.8902
v  -24 21.9098 -9.019608
v  -10.66667 10.89412 -18.37647
v  0 9.631372 -19.10196
v  -29.85882 38.7098 12.69412
v  -28.74118 30.77255 8.278431
v  -27.45882 24.55686 1.215686
v  27.12549 20.93726 4.258823
v  25.85098 36.2 9.580392
v  26.4 33.43922 0
v  25.67451 23.15294 12.01176
v  10.59608 77.53333 2.45098
v  10.18039 75.14902 -12.60784
v  10.76863 75.35686 15.52157
v  20.13725 73.83138 0.8196079
v  28.1451 66.28236 9.145098
v  20.45098 71.78824 13.02745
v  27.75294 68.10588 -1.698039
v  33.25098 59.41569 4.223529
v  32.85098 60.95686 -4.839216
v  10.68235 68.8353 25.34118
v  10.3451 58.59608 30.95294
v  9.937255 50.55294 26.35686
v  27.95294 60.87843 17.30196
v  20.29804 65.69411 22.20392
v  19.69412 56.14118 27.45882
v  27.19216 52.41177 20.90196
v  19.23137 51.33333 22.54902
v  24.17647 47.53333 16.1451
v  33.05098 54.90196 11.04706
v  30.65882 47.5451 14.31373
v  24.12157 39.1098 11.63529
v  35.5647 48.51373 6.098039
v  26.81569 66.17647 -14.17647
v  18.49804 70.66274 -13.39216
v  23.38431 31.86275 7.411765
v  17 34.47843 2.815686
v  12 34.95686 -1.509804
v  35.29412 36.03529 -16.97255
v  35.89804 37.98039 -9.949019
v  34.63922 46.44314 -15.95686
v  36.69412 43.42353 -5.545098
v  36.54118 50.15686 -5.564706
v  34.94118 40.55294 4.956863
v  33.25098 29.94902 -3.643137
v  34.13334 34.61176 1.592157
v  31.87059 26.19608 -17.39216
v  32.55686 54.07843 -15.21961
v  26.52941 58 -22.55294
v  16.64314 62.66667 -28.27451
v  28.42353 48 -28.55294
v  17.04706 52.11765 -37.96471
v  28.49412 36.23137 -30.55294
v  16.30588 37.62353 -41.29804
v  25.88235 24.91372 -28.76078
v  14.47843 24.00784 -37.08627
v  21.35686 18.14902 -22.31765
v  12.29804 15.73333 -27.81569
v  18.67059 15.55686 -13.8902
v  24 21.9098 -9.019608
v  10.67059 10.89412 -18.37647
v  27.46275 24.55686 1.215686
v  29.86275 38.7098 12.69412
v  28.7451 30.77255 8.278431
v  0 20.93726 4.258823
v  0 36.2 9.580392
# 129 vertices

vn -0.993076 0.04540441 0.1081495
vn -0.983701 0.01997549 0.178799
vn -0.9968137 0.07058824 0.03682598
vn -0.2450368 0.9694853 -0.003247549
vn 0 0.9628676 -0.2699755
vn 0 0.9984069 0.0569853
vn -0.2768995 0.8950368 -0.3496936
vn -0.2732843 0.8960171 0.3500613
vn 0 0.901777 0.4322917
vn -0.7576593 0.6125613 0.2251226
vn -0.4982843 0.8657476 -0.04699755
vn -0.5321691 0.790625 0.3027574
vn -0.6900735 0.7214461 -0.05704657
vn -0.9104167 0.394424 0.1245711
vn -0.8779412 0.4608456 -0.1292279
vn -0.9754289 0.2040441 -0.08284314
vn -0.9647059 0.03278186 0.2613971
vn -0.2552696 0.6864583 0.6810049
vn 0 0.6126226 0.7904412
vn -0.2515319 0.07150735 0.9652573
vn 0 0.06115196 0.9981618
vn 0 -0.7165441 0.6976103
vn -0.1898897 -0.8229167 0.5354779
vn -0.7492034 0.4072917 0.5224265
vn -0.508027 0.5716299 0.6443015
vn -0.4928309 -0.179473 0.8514093
vn -0.5964461 -0.3678921 0.7133579
vn -0.1391544 -0.8592525 0.4922794
vn 0.01979167 -0.6336397 0.7733456
vn -0.8969363 0.1905024 0.3989583
vn -0.7091912 -0.249326 0.6594363
vn 0 -0.8704657 0.4922794
vn 0.2754902 -0.4542892 0.8471814
vn -0.6713848 0.6435662 -0.3675245
vn -0.4433824 0.8357843 -0.3238971
vn 0.4204657 -0.6310049 0.6520221
vn 0.5517157 -0.691973 0.465625
vn 0.5362132 -0.6939951 0.4804534
vn -0.9882966 -0.1522059 -0.004166666
vn -0.951777 -0.1391544 -0.2734069
vn -0.9550858 0.1282475 -0.2669118
vn -0.9984682 -0.05367647 -0.01072304
vn -0.8449755 -0.5192402 0.1273284
vn -0.8926471 -0.348223 0.2859681
vn -0.9304534 -0.2015319 0.3058824
vn -0.776777 -0.6231618 -0.09074755
vn -0.8650735 0.3593137 -0.35
vn -0.6958333 0.489277 -0.5257353
vn -0.3949755 0.7030025 -0.5914828
vn 0 0.8025122 -0.5966299
vn -0.7987745 0.2363358 -0.553125
vn -0.4617647 0.3952206 -0.7940564
vn 0 0.5404412 -0.8414215
vn -0.7501838 -0.1293505 -0.6483456
vn -0.4552696 -0.07971814 -0.8867034
vn 0 0.04148284 -0.9991422
vn -0.6843137 -0.5232843 -0.5077819
vn -0.3813725 -0.5447916 -0.7468137
vn 0 -0.4770221 -0.8788603
vn -0.5892157 -0.7891544 -0.1731005
vn -0.3059436 -0.8215686 -0.4809436
vn 0 -0.8142157 -0.5803922
vn -0.6520221 -0.7577819 -0.02512255
vn -0.6498162 -0.7568628 0.06960785
vn -0.3787377 -0.8761642 -0.2979167
vn 0 -0.9013481 -0.4329657
vn -0.4592524 -0.3926471 0.7968137
vn -0.7965074 -0.4762868 0.3724878
vn -0.7393382 -0.6558211 0.1525735
vn 0.2283701 -0.5496936 0.8035539
vn 0.4910539 -0.7052084 0.5113971
vn 0.5615196 -0.7351103 0.3798407
vn 0.9931372 0.04540441 0.1081495
vn 0.996875 0.07058824 0.03682598
vn 0.9837623 0.01997549 0.178799
vn 0.245098 0.9694853 -0.003247549
vn 0.2769608 0.8950368 -0.3496936
vn 0.2733456 0.8960171 0.3500613
vn 0.4983456 0.8657476 -0.04699755
vn 0.7577206 0.6125613 0.2251226
vn 0.5322304 0.790625 0.3027574
vn 0.6901348 0.7214461 -0.05704657
vn 0.9104779 0.394424 0.1245711
vn 0.8780025 0.4608456 -0.1292279
vn 0.2553309 0.6864583 0.6810049
vn 0.2515931 0.07150735 0.9652573
vn 0.189951 -0.8229167 0.5354779
vn 0.7492647 0.4072917 0.5224265
vn 0.5080882 0.5716299 0.6443015
vn 0.4928921 -0.179473 0.8514093
vn 0.5965074 -0.3678921 0.7133579
vn 0.1392157 -0.8592525 0.4922794
vn -0.01973039 -0.6336397 0.7733456
vn 0.8969976 0.1905024 0.3989583
vn 0.7092525 -0.249326 0.6594363
vn -0.2754289 -0.4542892 0.8471814
vn 0.9647672 0.03278186 0.2613971
vn 0.6714461 0.6435662 -0.3675245
vn 0.4434436 0.8357843 -0.3238971
vn -0.4204044 -0.6310049 0.6520221
vn -0.5516544 -0.691973 0.465625
vn -0.5361519 -0.6939951 0.4804534
vn 0.9518383 -0.1391544 -0.2734069
vn 0.9883578 -0.1522059 -0.004166666
vn 0.9551471 0.1282475 -0.2669118
vn 0.9985294 -0.05367647 -0.01072304
vn 0.9754902 0.2040441 -0.08284314
vn 0.9305147 -0.2015319 0.3058824
vn 0.8450367 -0.5193015 0.1273284
vn 0.8927084 -0.348223 0.2859681
vn 0.7768382 -0.6231618 -0.09074755
vn 0.8651348 0.3593137 -0.35
vn 0.6958946 0.489277 -0.5257353
vn 0.3950368 0.7030025 -0.5914828
vn 0.7988358 0.2363358 -0.553125
vn 0.461826 0.3952206 -0.7940564
vn 0.7502451 -0.1293505 -0.6483456
vn 0.4553309 -0.07971814 -0.8867034
vn 0.684375 -0.5232843 -0.5077819
vn 0.3814338 -0.5447916 -0.7468137
vn 0.589277 -0.7891544 -0.1731005
vn 0.3060049 -0.8215686 -0.4809436
vn 0.6520833 -0.7577819 -0.02512255
vn 0.6498774 -0.7568628 0.06960785
vn 0.378799 -0.8761642 -0.2979167
vn 0.7393995 -0.6558211 0.1525735
vn 0.4593137 -0.3926471 0.7968137
vn 0.7965686 -0.4762868 0.3724878
vn -0.2283088 -0.5496936 0.8035539
vn -0.4909926 -0.7052084 0.5113971
vn -0.5614583 -0.7351103 0.3798407
vn 0 -0.8860907 -0.4634191
vn 0 -0.526103 0.8504289
vn 0 0.1831495 0.9831495
vn 0 -0.3224265 -0.9465686
# 135 vertex normals

# 0 texture coords

g hair
f 125//130 101//102 123//131
f 125//130 100//101 101//102
f 99//100 100//101 125//130
f 99//100 33//32 100//101
f 95//96 33//32 99//100
f 95//96 92//93 33//32
f 126//127 92//93 95//96
f 126//127 94//95 92//93
f 107//108 94//95 126//127
f 107//108 96//97 94//95
f 105//106 96//97 107//108
f 105//106 106//107 96//97
f 104//105 106//107 105//106
f 104//105 111//112 106//107
f 114//115 111//112 104//105
f 114//115 112//113 111//112
f 115//116 112//113 114//115
f 115//116 113//114 112//113
f 54//53 113//114 115//116
f 54//53 51//50 113//114
f 50//49 51//50 54//53
f 50//49 8//7 51//50
f 36//35 8//7 50//49
f 36//35 12//11 8//7
f 14//13 12//11 36//35
f 14//13 11//10 12//11
f 15//14 11//10 14//13
f 15//14 31//30 11//10
f 18//17 31//30 15//14
f 18//17 32//31 31//30
f 46//45 32//31 18//17
f 46//45 68//67 32//31
f 45//44 68//67 46//45
f 45//44 69//68 68//67
f 44//43 69//68 45//44
f 44//43 70//69 69//68
f 65//64 70//69 44//43
f 91//92 33//32 92//93
f 91//92 86//87 33//32
f 89//90 86//87 91//92
f 89//90 85//86 86//87
f 88//89 85//86 89//90
f 88//89 84//85 85//86
f 77//78 84//85 88//89
f 77//78 10//9 84//85
f 7//6 10//9 77//78
f 7//6 9//8 10//9
f 5//4 9//8 7//6
f 5//4 13//12 9//8
f 12//11 13//12 5//4
f 12//11 11//10 13//12
f 5//4 8//7 12//11
f 5//4 6//5 8//7
f 7//6 6//5 5//4
f 7//6 75//76 6//5
f 77//78 75//76 7//6
f 77//78 80//81 75//76
f 88//89 80//81 77//78
f 88//89 87//88 80//81
f 89//90 87//88 88//89
f 89//90 90//91 87//88
f 91//92 90//91 89//90
f 91//92 92//93 90//91
f 102//103 114//115 104//105
f 102//103 116//117 114//115
f 118//119 116//117 102//103
f 118//119 119//120 116//117
f 121//122 119//120 118//119
f 121//122 63//62 119//120
f 67//66 63//62 121//122
f 67//66 62//61 63//62
f 66//65 62//61 67//66
f 66//65 61//60 62//61
f 64//63 61//60 66//65
f 64//63 65//64 61//60
f 60//59 117//118 119//120
f 60//59 57//56 117//118
f 56//55 57//56 60//59
f 56//55 53//52 57//56
f 52//51 53//52 56//55
f 52//51 49//48 53//52
f 48//47 49//48 52//51
f 48//47 35//34 49//48
f 16//15 35//34 48//47
f 16//15 14//13 35//34
f 15//14 14//13 16//15
f 94//95 90//91 92//93
f 94//95 93//94 90//91
f 96//97 93//94 94//95
f 96//97 82//83 93//94
f 106//107 82//83 96//97
f 106//107 83//84 82//83
f 111//112 83//84 106//107
f 111//112 97//98 83//84
f 112//113 97//98 111//112
f 112//113 113//114 97//98
f 63//62 60//59 119//120
f 63//62 59//58 60//59
f 62//61 59//58 63//62
f 62//61 58//57 59//58
f 61//60 58//57 62//61
f 61//60 47//46 58//57
f 65//64 47//46 61//60
f 65//64 44//43 47//46
f 103//104 104//105 105//106
f 103//104 102//103 104//105
f 108//109 102//103 103//104
f 108//109 110//111 102//103
f 123//124 110//111 108//109
f 123//124 120//121 110//111
f 122//123 120//121 123//124
f 122//123 124//125 120//121
f 85//86 23//22 86//87
f 85//86 22//21 23//22
f 20//19 22//21 85//86
f 20//19 21//20 22//21
f 19//18 21//20 20//19
f 19//18 26//25 21//20
f 9//8 26//25 19//18
f 9//8 13//12 26//25
f 23//22 33//32 86//87
f 23//22 24//23 33//32
f 21//20 24//23 23//22
f 21//20 27//26 24//23
f 26//25 27//26 21//20
f 26//25 25//24 27//26
f 13//12 25//24 26//25
f 13//12 11//10 25//24
f 39//38 70//71 65//72
f 39//38 38//37 70//71
f 33//32 38//37 39//38
f 33//32 37//36 38//37
f 34//33 37//36 33//32
f 34//33 69//70 37//36
f 68//67 69//70 34//33
f 31//30 25//24 11//10
f 31//30 28//27 25//24
f 32//31 28//27 31//30
f 32//31 30//29 28//27
f 68//67 30//29 32//31
f 68//67 34//33 30//29
f 59//58 56//55 60//59
f 59//58 55//54 56//55
f 58//57 55//54 59//58
f 58//57 41//40 55//54
f 47//46 41//40 58//57
f 47//46 44//43 41//40
f 93//94 87//88 90//91
f 93//94 79//80 87//88
f 82//83 79//80 93//94
f 82//83 81//82 79//80
f 83//84 81//82 82//83
f 83//84 97//98 81//82
f 79//80 80//81 87//88
f 79//80 78//79 80//81
f 81//82 78//79 79//80
f 81//82 98//99 78//79
f 97//98 98//99 81//82
f 97//98 113//114 98//99
f 57//56 115//116 117//118
f 57//56 54//53 115//116
f 53//52 54//53 57//56
f 53//52 50//49 54//53
f 49//48 50//49 53//52
f 49//48 35//34 50//49
f 3//133 129//134 2//134
f 3//132 74//132 129//133
f 128//134 74//134 3//135
f 128//132 71//133 74//133
f 73//134 71//135 128//132
f 42//41 48//47 52//51
f 42//41 17//16 48//47
f 43//42 17//16 42//41
f 43//42 18//17 17//16
f 46//45 18//17 43//42
f 108//109 127//128 125//126
f 108//109 109//110 127//128
f 103//104 109//110 108//109
f 103//104 107//108 109//110
f 105//106 107//108 103//104
f 121//122 124//125 67//66
f 121//122 120//121 124//125
f 118//119 120//121 121//122
f 118//119 110//111 120//121
f 102//103 110//111 118//119
f 78//79 75//76 80//81
f 78//79 76//77 75//76
f 98//99 76//77 78//79
f 98//99 113//114 76//77
f 33//32 30//29 34//33
f 33//32 29//28 30//29
f 24//23 29//28 33//32
f 24//23 27//26 29//28
f 41//40 42//41 52//51
f 41//40 40//39 42//41
f 44//43 40//39 41//40
f 44//43 45//44 40//39
f 51//50 76//77 113//114
f 51//50 6//5 76//77
f 8//7 6//5 51//50
f 117//118 116//117 119//120
f 117//118 114//115 116//117
f 115//116 114//115 117//118
f 127//129 99//100 125//130
f 127//129 95//96 99//100
f 126//127 95//96 127//129
f 17//16 16//15 48//47
f 17//16 15//14 16//15
f 18//17 15//14 17//16
f 40//39 43//42 42//41
f 40//39 46//45 43//42
f 45//44 46//45 40//39
f 1//132 128//132 3//133
f 1//132 4//133 128//135
f 1//1 2//1 4//3
f 1//1 3//3 2//2
f 55//54 52//51 56//55
f 55//54 41//40 52//51
f 35//34 36//35 50//49
f 35//34 14//13 36//35
f 70//71 37//36 69//70
f 70//71 38//37 37//36
f 71//73 72//73 74//75
f 71//73 73//75 72//74
f 84//85 20//19 85//86
f 84//85 10//9 20//19
f 29//28 28//27 30//29
f 29//28 27//26 28//27
f 19//18 10//9 9//8
f 19//18 20//19 10//9
f 109//110 126//127 127//128
f 109//110 107//108 126//127
f 4//135 73//135 128//132
f 72//134 129//134 74//133
f 101//102 100//101 33//32
f 6//5 75//76 76//77
f 125//126 123//124 108//109
f 27//26 25//24 28//27
f 21//20 23//22 22//21
# 239 faces

