# RFL_Res.dat Editor OBJ Exporter v1.3 - (c) 2018 Atlas Vryzas Software

#
# object hair
#

v  25.4549 28 9
v  24.76863 43.84314 10.89804
v  26.30196 33.43922 0
v  0 42.79608 11.8902
v  0 69 4
v  10 67.32157 16
v  0 68.21568 16
v  10.10588 67.55686 3.917647
v  0 9.631372 -19.10196
v  10.67059 23.19216 -28.14902
v  0 22.66667 -29.6
v  10.67059 10.89412 -18.37647
v  18.67059 24.72157 -23.9451
v  18.67059 15.55686 -13.8902
v  10.67059 33.43922 -31.61961
v  0 33.43922 -33.24706
v  10 44.82353 -31.27843
v  0 45.40784 -32.8902
v  10 65.5647 -5.662745
v  0 63.74902 -17.49804
v  10 62.26274 -16.64314
v  0 67.21568 -5.956863
v  14.73333 65.82745 3.776471
v  18.67059 43.12157 -24.90196
v  17.70196 56.78431 -14.94118
v  10 54.83529 -25.49804
v  24 21.9098 -9.019608
v  24.65098 33.43922 -15.0902
v  24 43.65098 -12.16863
v  24 51.8549 -2.701961
v  0 55.93726 -26.81176
v  26.30196 42.39216 -1.34902
v  19.35294 62 2.278431
v  21 63.01961 17
v  23.20392 53 13.4549
v  16.2 65.58039 16.50196
v  14.14902 54.45098 18.67451
v  12 64.34902 25
v  17 63.8902 22
v  9.988235 54.85098 21.10196
v  15.66275 53.83529 16.09412
v  6 64.63921 27
v  4.843137 55.20784 22.75294
v  0 64.76079 27.72549
v  0 55.4 23.2549
v  0 53.52941 21.30196
v  10.99216 53.91765 18.92157
v  2.043137 53.39216 21.03137
v  5.2 53.51373 20.46667
v  -24.76471 43.84314 10.89804
v  -25.45098 28 9
v  -26.29804 33.43922 0
v  -10 67.32157 16
v  -10.10196 67.55686 3.917647
v  -10.66667 23.19216 -28.14902
v  -10.66667 10.89412 -18.37647
v  -18.66667 24.72157 -23.9451
v  -18.66667 15.55686 -13.8902
v  -10.66667 33.43922 -31.61961
v  -10 44.82353 -31.27843
v  -10 65.5647 -5.662745
v  -10 62.26274 -16.64314
v  -14.72941 65.82745 3.776471
v  -18.66667 43.12157 -24.90196
v  -17.69804 56.78431 -14.94118
v  -10 54.83529 -25.49804
v  -24.64706 33.43922 -15.0902
v  -24 21.9098 -9.019608
v  -24 43.65098 -12.16863
v  -24 51.8549 -2.701961
v  -26.29804 42.39216 -1.34902
v  -19.34902 62 2.278431
v  -21 63.01961 17
v  -23.2 53 13.4549
v  -16.19608 65.58039 16.50196
v  -12 64.34902 25
v  -14.1451 54.45098 18.67451
v  -17 63.8902 22
v  -9.984314 54.85098 21.10196
v  -15.65882 53.83529 16.09412
v  -6 64.63921 27
v  -4.839216 55.20784 22.75294
v  -10.98824 53.91765 18.92157
v  -2.039216 53.39216 21.03137
v  -5.196078 53.51373 20.46667
# 85 vertices

vn 0.9933823 0.02996324 0.1113971
vn 0.9916054 0.06231618 0.1137868
vn 0.9998162 -0.02022059 0.004289216
vn -0.06274509 -0.6015931 0.7963848
vn -0.4033088 -0.7855392 0.4692402
vn -0.4795956 -0.7303922 -0.4862132
vn 0 0.9996324 -0.03014706
vn 0.1740809 0.9703431 0.1678309
vn 0 0.9786152 0.2060049
vn 0.2359069 0.9673407 -0.09313726
vn 0 -0.6246936 -0.7808824
vn 0.2803922 -0.491299 -0.8246323
vn 0 -0.4288603 -0.9033701
vn 0.4197917 -0.5973652 -0.6833333
vn 0.7246937 -0.3192402 -0.6106005
vn 0.7383578 -0.4985294 -0.4541667
vn 0.3825368 -0.1492034 -0.9117647
vn 0 -0.08523284 -0.9963235
vn 0.3517157 0.215625 -0.9109069
vn 0 0.3528186 -0.9357231
vn 0.3689338 0.8922181 -0.2604779
vn 0 0.9104779 -0.4135417
vn 0.3466912 0.8044118 -0.4824755
vn 0 0.9747549 -0.2233456
vn 0.4702206 0.8719363 -0.1367647
vn 0.7645221 0.203125 -0.6117647
vn 0.7329657 0.5672794 -0.3754902
vn 0.4047794 0.5634804 -0.7201593
vn 0.9216299 -0.2602328 -0.2881128
vn 0.9564951 -0.01960784 -0.2910539
vn 0.9260417 0.2394608 -0.2918505
vn 0.9331495 0.3340074 -0.1332108
vn 0 0.6867034 -0.7269608
vn 0.9922181 0.1191789 -0.03743872
vn 0.7005515 0.6790441 -0.2195466
vn 0.725674 0.6879289 -0.01121324
vn 0.9793505 0.1941177 0.05741422
vn 0.04742647 -0.1891544 0.9808211
vn 0.3599877 0.9291054 0.08468137
vn 0.4238971 -0.6542279 0.626348
vn 0.3803309 -0.4172794 0.8254289
vn 0.6227328 -0.4292279 0.6542892
vn 0.2529412 -0.6599265 0.7074142
vn 0.4515931 -0.5708946 0.6857231
vn 0.4938726 -0.3648897 0.7893382
vn 0.2072304 -0.4199755 0.8835784
vn 0.115625 -0.6268382 0.7704657
vn 0 -0.4259804 0.9047794
vn 0 -0.5859069 0.8104166
vn 0 -0.7215686 0.6923407
vn 0.3104779 0.9200981 0.2390319
vn 0.1901961 0.9440564 0.2695466
vn 0.09319853 0.9563726 0.2769608
vn 0 0.9591912 0.2827819
vn 0.1826593 -0.8917279 0.4139093
vn 0.1875 -0.3789216 0.90625
vn 0.09117647 -0.7548407 0.6495098
vn 0.153799 -0.8164828 0.5564338
vn -0.9915441 0.06231618 0.1137868
vn -0.9933211 0.02996324 0.1113971
vn -0.9997549 -0.02022059 0.004289216
vn -0.1740196 0.9703431 0.1678309
vn -0.2358456 0.9673407 -0.09313726
vn -0.2803309 -0.491299 -0.8246323
vn -0.4197304 -0.5973652 -0.6833333
vn -0.7246324 -0.3192402 -0.6106005
vn -0.7382966 -0.4985294 -0.4541667
vn -0.3824755 -0.1492034 -0.9117647
vn -0.3516544 0.215625 -0.9109069
vn -0.3688726 0.8922181 -0.2604779
vn -0.3466299 0.8044118 -0.4824755
vn -0.4701593 0.8719363 -0.1367647
vn -0.7644608 0.203125 -0.6117647
vn -0.7329044 0.5672794 -0.3754902
vn -0.4047181 0.5634804 -0.7201593
vn -0.9564338 -0.01960784 -0.2910539
vn -0.9215686 -0.2602328 -0.2881128
vn -0.9259804 0.2394608 -0.2918505
vn -0.9330882 0.3340074 -0.1332108
vn -0.9921569 0.1191789 -0.03743872
vn -0.7004902 0.6790441 -0.2195466
vn -0.7256128 0.6879289 -0.01121324
vn -0.9792892 0.1941177 0.05741422
vn 0.4033701 -0.7855392 0.4692402
vn -0.0473652 -0.1891544 0.9808211
vn 0.06280638 -0.6015931 0.7963848
vn 0.4796569 -0.7303922 -0.4862132
vn -0.3599265 0.9291054 0.08468137
vn -0.3802696 -0.4172794 0.8254289
vn -0.4238358 -0.6542279 0.626348
vn -0.6226715 -0.4292279 0.6542892
vn -0.2528799 -0.6599265 0.7074142
vn -0.4515319 -0.5708946 0.6857231
vn -0.4938113 -0.3648897 0.7893382
vn -0.2071691 -0.4199755 0.8835784
vn -0.1155637 -0.6268382 0.7704657
vn -0.3104167 0.9200981 0.2390319
vn -0.1901348 0.9440564 0.2695466
vn -0.09313726 0.9563726 0.2769608
vn -0.182598 -0.8917279 0.4139093
vn -0.1875 -0.3789216 0.90625
vn -0.0911152 -0.7548407 0.6495098
vn -0.1537377 -0.8164828 0.5564338
# 103 vertex normals

# 0 texture coords

g hair
f 50//59 52//61 51//60
f 50//59 71//80 52//61
f 74//83 71//80 50//59
f 74//83 70//79 71//80
f 73//82 70//79 74//83
f 73//82 72//81 70//79
f 63//72 72//81 73//82
f 63//72 61//70 72//81
f 54//63 61//70 63//72
f 54//63 22//24 61//70
f 5//7 22//24 54//63
f 5//7 8//10 22//24
f 6//8 8//10 5//7
f 6//8 36//39 8//10
f 39//51 36//39 6//8
f 39//51 34//36 36//39
f 3//3 2//2 1//1
f 3//3 32//34 2//2
f 28//30 32//34 3//3
f 28//30 29//31 32//34
f 24//26 29//31 28//30
f 24//26 25//27 29//31
f 26//28 25//27 24//26
f 26//28 21//23 25//27
f 31//33 21//23 26//28
f 31//33 20//22 21//23
f 62//71 20//22 31//33
f 62//71 61//70 20//22
f 65//74 61//70 62//71
f 65//74 72//81 61//70
f 70//79 72//81 65//74
f 13//15 24//26 28//30
f 13//15 15//17 24//26
f 10//12 15//17 13//15
f 10//12 11//13 15//17
f 9//11 11//13 10//12
f 9//11 55//64 11//13
f 56//65 55//64 9//11
f 56//65 57//66 55//64
f 58//67 57//66 56//65
f 58//67 68//77 57//66
f 67//76 68//77 52//61
f 67//76 57//66 68//77
f 64//73 57//66 67//76
f 64//73 59//68 57//66
f 60//69 59//68 64//73
f 60//69 16//18 59//68
f 18//20 16//18 60//69
f 18//20 17//19 16//18
f 26//28 17//19 18//20
f 26//28 24//26 17//19
f 5//7 7//9 6//8
f 5//7 53//62 7//9
f 54//63 53//62 5//7
f 54//63 75//88 53//62
f 63//72 75//88 54//63
f 63//72 73//82 75//88
f 22//24 20//22 61//70
f 22//24 19//21 20//22
f 8//10 19//21 22//24
f 8//10 23//25 19//21
f 36//39 23//25 8//10
f 36//39 34//36 23//25
f 30//32 34//36 35//37
f 30//32 33//35 34//36
f 25//27 33//35 30//32
f 25//27 19//21 33//35
f 21//23 19//21 25//27
f 21//23 20//22 19//21
f 59//68 55//64 57//66
f 59//68 11//13 55//64
f 16//18 11//13 59//68
f 16//18 15//17 11//13
f 17//19 15//17 16//18
f 17//19 24//26 15//17
f 6//8 38//52 39//51
f 6//8 42//53 38//52
f 7//9 42//53 6//8
f 7//9 44//54 42//53
f 81//99 44//54 7//9
f 46//50 82//96 84//102
f 46//50 45//49 82//96
f 43//47 45//49 46//50
f 43//47 44//48 45//49
f 42//46 44//48 43//47
f 78//97 75//88 73//82
f 78//97 53//62 75//88
f 76//98 53//62 78//97
f 76//98 81//99 53//62
f 35//56 4//4 2//38
f 35//56 41//44 4//4
f 34//45 41//44 35//56
f 34//45 39//42 41//44
f 32//34 35//37 2//2
f 32//34 30//32 35//37
f 29//31 30//32 32//34
f 29//31 25//27 30//32
f 27//29 28//30 3//3
f 27//29 13//15 28//30
f 14//16 13//15 27//29
f 14//16 12//14 13//15
f 79//92 83//100 85//103
f 79//92 77//90 83//100
f 76//89 77//90 79//92
f 76//89 78//91 77//90
f 79//92 81//95 76//89
f 79//92 82//96 81//95
f 85//103 82//96 79//92
f 85//103 84//102 82//96
f 71//80 67//76 52//61
f 71//80 69//78 67//76
f 70//79 69//78 71//80
f 70//79 65//74 69//78
f 18//20 31//33 26//28
f 18//20 66//75 31//33
f 60//69 66//75 18//20
f 60//69 64//73 66//75
f 47//55 40//43 49//58
f 47//55 37//40 40//43
f 41//44 37//40 47//55
f 41//44 39//42 37//40
f 4//86 51//84 52//87
f 4//86 50//85 51//84
f 74//101 50//85 4//86
f 80//93 74//101 4//86
f 80//93 73//94 74//101
f 78//91 73//94 80//93
f 66//75 62//71 31//33
f 66//75 65//74 62//71
f 64//73 65//74 66//75
f 40//43 43//47 49//58
f 40//43 42//46 43//47
f 38//41 42//46 40//43
f 1//5 4//4 3//6
f 1//5 2//38 4//4
f 23//25 33//35 19//21
f 23//25 34//36 33//35
f 12//14 10//12 13//15
f 12//14 9//11 10//12
f 77//90 80//93 83//100
f 77//90 78//91 80//93
f 44//48 82//96 45//49
f 44//48 81//95 82//96
f 48//57 43//47 46//50
f 48//57 49//58 43//47
f 69//78 64//73 67//76
f 69//78 65//74 64//73
f 37//40 38//41 40//43
f 37//40 39//42 38//41
f 53//62 81//99 7//9
# 150 faces

