# RFL_Res.dat Editor OBJ Exporter v1.3 - (c) 2018 Atlas Vryzas Software

#
# object hair
#

v  26.00784 35.89412 19.50196
v  27 24 24.61961
v  20 34.47843 22.47843
v  29.5451 38.98824 9.964705
v  27.88235 33.43922 0
v  29.09804 27 11
v  27.88235 42.92941 -1.427451
v  26.63922 51.86666 8
v  27.48627 49.6353 16.72549
v  18.68628 59.39216 17.71373
v  18.76471 61.68628 6.105882
v  7.270588 62.40392 21.39608
v  8.933333 66 15
v  13.76863 57.39216 26
v  11 67 5
v  0 64 15.47451
v  0 69 5
v  23.95686 14 14
v  31 25.34118 19.25098
v  0 33.43922 -35.24314
v  10.60392 45.50588 -33.15294
v  0 46.12549 -34.86274
v  11.3098 33.43922 -33.51765
v  10.60392 67.4902 -6
v  0 65.56863 -18.54902
v  10.60392 63.99608 -17.63922
v  0 69.24313 -6.309804
v  20.43529 33.54118 -26.58824
v  19.78823 43.70588 -26.39216
v  18.76471 58.18431 -15.83922
v  10.60392 56.11765 -27.02353
v  20 61.3647 -5
v  26.12941 33.43922 -16
v  25.44314 44.26274 -12.90196
v  0 57.28627 -28.41961
v  20.43529 20.95294 -20.04706
v  24.97255 12.29804 -7.384314
v  25.44314 20 -7
v  21.56471 12.41569 -22.17255
v  12.69804 12.30196 -31.81176
v  11.3098 22.02745 -30.57255
v  0 12 -36.32157
v  0 22.38431 -34.02745
v  30.45098 19.92157 2.447059
v  27.7098 10 9
v  28.45098 20 8.486275
v  32 10 3
v  28.54902 11 -3
v  18 1 2
v  21.47451 10 3
v  22 1 6
v  26 1 2
v  27 -9 8
v  24.33726 0 -3
v  16.4 -14.73726 -10.52941
v  20.67843 -7.203921 -17.02353
v  11.08235 -7.196078 -26
v  0 -9 -31.62353
v  0 -18 -22.62353
v  13.96471 1.403922 -30.86275
v  22.69412 2.941176 -21.52157
v  0 0.4196078 -36
v  23.43922 -3.603922 -8.305882
v  25.00784 4.443137 -11.04706
v  10 57.09019 17.77255
v  0 56.12549 19.91372
v  23.4902 27.01569 11.06667
v  26.20392 47.68235 24
v  20.6 44.86274 30.08628
v  18.67059 21.12157 -3.32549
v  25.44314 52.96078 -2.866667
v  -27 24 24.61961
v  -26.00392 35.89412 19.50196
v  -20 34.47843 22.47843
v  -27.87843 33.43922 0
v  -29.54118 38.98824 9.964705
v  -29.09412 27 11
v  -27.87843 42.92941 -1.427451
v  -26.63529 51.86666 8
v  -27.48235 49.6353 16.72549
v  -18.68235 59.39216 17.71373
v  -18.76078 61.68628 6.105882
v  -8.929412 66 15
v  -7.266666 62.40392 21.39608
v  -13.76471 57.39216 26
v  -11 67 5
v  -23.95294 14 14
v  -31 25.34118 19.25098
v  -10.6 45.50588 -33.15294
v  -11.30588 33.43922 -33.51765
v  -10.6 67.4902 -6
v  -10.6 63.99608 -17.63922
v  -19.78431 43.70588 -26.39216
v  -20.43137 33.54118 -26.58824
v  -18.76078 58.18431 -15.83922
v  -10.6 56.11765 -27.02353
v  -20 61.3647 -5
v  -25.43922 44.26274 -12.90196
v  -26.12549 33.43922 -16
v  -24.96863 12.29804 -7.384314
v  -20.43137 20.95294 -20.04706
v  -25.43922 20 -7
v  -21.56078 12.41569 -22.17255
v  -12.69412 12.30196 -31.81176
v  -11.30588 22.02745 -30.57255
v  -30.44706 19.92157 2.447059
v  -32 10 3
v  -28.44706 20 8.486275
v  -28.5451 11 -3
v  -21.47059 10 3
v  -18 1 2
v  -22 1 6
v  -26 1 2
v  -27 -9 8
v  -24.33333 0 -3
v  -20.67451 -7.203921 -17.02353
v  -16.39608 -14.73726 -10.52941
v  -11.07843 -7.196078 -26
v  -27.70588 10 9
v  -13.96078 1.403922 -30.86275
v  -22.6902 2.941176 -21.52157
v  -23.43529 -3.603922 -8.305882
v  -25.00392 4.443137 -11.04706
v  -10 57.09019 17.77255
v  -23.48627 27.01569 11.06667
v  -18.88235 42.67059 11.93333
v  -20.59608 44.86274 30.08628
v  -26.2 47.68235 24
v  -18.66667 21.12157 -3.32549
v  -25.43922 52.96078 -2.866667
v  -10.66667 3.003922 -11.36471
v  0 1.74902 -12.09412
v  10.67059 3.003922 -11.36471
v  18.88627 42.67059 11.93333
v  0 30.74902 6.086275
# 135 vertices

vn 0.8660539 0.03682598 0.4987132
vn 0.6877451 0.04448529 0.7246324
vn 0.4574755 -0.08112745 0.8855392
vn 0.9974265 0.05404412 0.04865196
vn 0.9849265 0.01997549 -0.1716912
vn 0.9998162 -0.008272059 0.02064951
vn 0.9829657 0.1183211 -0.1408701
vn 0.8969976 0.4420343 0.001654412
vn 0.9371936 0.2984681 0.1807598
vn 0.6258578 0.7333946 0.265625
vn 0.6810049 0.7291667 0.06832108
vn -0.1568628 0.7658088 0.6237133
vn 0.1779412 0.9083946 0.3783701
vn 0.4492647 0.7027574 0.5517157
vn 0.3643995 0.9262255 0.09650736
vn 0 0.8036152 0.5952206
vn 0 0.9799632 0.1994485
vn 0.8383579 -0.543076 0.04761029
vn 0.9803309 -0.08161765 0.1800245
vn 0 -0.01341912 -0.9999387
vn 0.3517157 0.215625 -0.9109069
vn 0 0.3528186 -0.9357231
vn 0.4095588 -0.06862745 -0.9096814
vn 0.3697917 0.9208946 -0.1237132
vn 0 0.9104779 -0.4135417
vn 0.3833333 0.804902 -0.4530637
vn 0 0.9970588 -0.07689951
vn 0.7485294 -0.1348652 -0.6492647
vn 0.7592524 0.2302696 -0.6087623
vn 0.7575368 0.5181985 -0.3969975
vn 0.4047794 0.5634804 -0.7201593
vn 0.6932598 0.7079657 -0.135049
vn 0.9439338 -0.05533088 -0.3255515
vn 0.9447304 0.1914828 -0.2661152
vn 0 0.6867034 -0.7269608
vn 0.8662378 -0.04050245 -0.4980392
vn 0.9594976 0.08419117 -0.2689338
vn 0.9316176 -0.05496323 -0.359375
vn 0.8766544 0.1233456 -0.4650735
vn 0.5547794 0.09846814 -0.8261642
vn 0.5181373 -0.03756128 -0.8544731
vn 0 0.1221201 -0.9924632
vn 0 -0.04969363 -0.9987745
vn 0.9865196 0.07953431 -0.1431985
vn 0.722549 -0.3846814 0.5744485
vn 0.9125 -0.021875 0.4085784
vn 0.9745098 -0.2200368 0.04405637
vn -0.9814338 -0.06286765 -0.1811274
vn -0.9893995 -0.009007353 0.1446691
vn -0.7013481 0.06084559 0.7102941
vn 0.7053922 -0.07003676 0.7053922
vn 0.9016544 -0.3071691 0.3045343
vn 0.9552084 0.2166054 0.2017157
vn 0.8863971 -0.3176471 -0.336826
vn 0.6980392 -0.6518382 -0.2963235
vn 0.749326 -0.5176471 -0.4129289
vn 0.4853554 -0.6143382 -0.6220588
vn 0 -0.5847427 -0.8112133
vn 0 -0.7070466 -0.7070466
vn 0.5833946 -0.2802696 -0.7623162
vn 0.9047794 -0.1639093 -0.3931372
vn 0 -0.1673407 -0.9858456
vn 0.9257966 -0.351348 -0.1395221
vn 0.9773284 -0.01268382 -0.2115196
vn -0.6246324 0.02022059 -0.7806373
vn -0.7933823 -0.4751838 0.3804534
vn -0.6333946 -0.5776961 0.5148284
vn -0.2893382 -0.6362132 0.7151961
vn 0.2278186 -0.4658701 0.8550858
vn 0 0.4909314 0.8712623
vn -0.8632966 -0.4550858 0.2180147
vn -0.7952819 -0.1599265 -0.5847427
vn -0.003553921 -0.9980392 -0.06194853
vn -0.4007966 -0.8246323 -0.3990809
vn -0.9448529 -0.2703431 0.1846201
vn -0.958272 -0.2843137 0.02751226
vn 0.8 0.3265931 0.5033701
vn 0.6553309 -0.1030637 0.7484069
vn -0.9227941 -0.3142157 0.2226716
vn -0.7764093 -0.6142157 0.1408088
vn -0.6203431 -0.2923407 -0.7277573
vn -0.6865196 0.1423407 0.7130515
vn -0.3118873 -0.5042892 0.8052083
vn -0.5867034 -0.1978554 0.7852328
vn 0.8989583 0.4185662 -0.1295956
vn -0.6876838 0.04448529 0.7246324
vn -0.8659927 0.03682598 0.4987132
vn -0.4574142 -0.08112745 0.8855392
vn -0.9848652 0.01997549 -0.1716912
vn -0.9973652 0.05404412 0.04865196
vn -0.9997549 -0.008272059 0.02064951
vn -0.9829044 0.1183211 -0.1408701
vn -0.8969363 0.4420343 0.001654412
vn -0.9371324 0.2984681 0.1807598
vn -0.6257966 0.7333946 0.265625
vn -0.6809436 0.7291667 0.06832108
vn -0.1778799 0.9083946 0.3783701
vn 0.156924 0.7658088 0.6237133
vn -0.4492034 0.7027574 0.5517157
vn -0.3643382 0.9262255 0.09650736
vn -0.8382966 -0.543076 0.04761029
vn -0.9802696 -0.08161765 0.1800245
vn -0.3516544 0.215625 -0.9109069
vn -0.4094976 -0.06862745 -0.9096814
vn -0.3697304 0.9208946 -0.1237132
vn -0.3832721 0.804902 -0.4530637
vn -0.7591912 0.2302696 -0.6087623
vn -0.7484682 -0.1348652 -0.6492647
vn -0.7574755 0.5181985 -0.3969975
vn -0.4047181 0.5634804 -0.7201593
vn -0.6931985 0.7079657 -0.135049
vn -0.9446691 0.1914828 -0.2661152
vn -0.9438726 -0.05533088 -0.3255515
vn -0.9594363 0.08419117 -0.2689338
vn -0.8661765 -0.04050245 -0.4980392
vn -0.9315563 -0.05496323 -0.359375
vn -0.8765931 0.1233456 -0.4650735
vn -0.5547181 0.09846814 -0.8261642
vn -0.518076 -0.03756128 -0.8544731
vn -0.9864584 0.07953431 -0.1431985
vn -0.9744485 -0.2200368 0.04405637
vn -0.9124388 -0.021875 0.4085784
vn 0.9894608 -0.009007353 0.1446691
vn 0.9814951 -0.06286765 -0.1811274
vn 0.7014093 0.06084559 0.7102941
vn -0.9015931 -0.3071691 0.3045343
vn -0.7053309 -0.07003676 0.7053922
vn -0.9551471 0.2166054 0.2017157
vn -0.8863358 -0.3176471 -0.336826
vn -0.7492647 -0.5176471 -0.4129289
vn -0.697978 -0.6518382 -0.2963235
vn -0.4852941 -0.6143382 -0.6220588
vn -0.7224877 -0.3846814 0.5744485
vn -0.5833333 -0.2802696 -0.7623162
vn -0.9047182 -0.1639093 -0.3931372
vn -0.9257353 -0.351348 -0.1395221
vn -0.9772671 -0.01268382 -0.2115196
vn 0.6246936 0.02022059 -0.7806373
vn 0.6334559 -0.5776961 0.5148284
vn 0.7934436 -0.4751838 0.3804534
vn 0.2893995 -0.6362132 0.7151961
vn -0.2277573 -0.4658701 0.8550858
vn 0.7953432 -0.1599265 -0.5847427
vn 0.8633578 -0.4550858 0.2180147
vn 0.4008578 -0.8246323 -0.3990809
vn 0.9449142 -0.2703431 0.1846201
vn 0.8516544 -0.4112745 0.3248774
vn 0.9228554 -0.3142157 0.2226716
vn 0.9583333 -0.2843137 0.02751226
vn -0.7999387 0.3265931 0.5033701
vn -0.6552696 -0.1030637 0.7484069
vn 0.6204044 -0.2923407 -0.7277573
vn 0.7764706 -0.6142157 0.1408088
vn 0.6865809 0.1423407 0.7130515
vn 0.3119485 -0.5042892 0.8052083
vn 0.5867647 -0.1978554 0.7852328
vn -0.8988971 0.4185662 -0.1295956
vn 0.08118872 -0.3476716 0.9341299
vn 0 -0.4678922 0.8838235
vn 0 -0.6265931 0.7793505
vn -0.08112745 -0.3476716 0.9341299
vn -0.1554534 0.1517157 0.9761642
vn -0.7056985 -0.1958333 0.6808823
vn -0.01709559 -0.04908088 0.9987133
vn 0.173223 -0.3132353 0.9337623
vn 0.6949755 -0.5803309 0.4245098
vn 0.1555147 0.1517157 0.9761642
vn 0.7057598 -0.1958333 0.6808823
vn 0.01715686 -0.04908088 0.9987133
vn -0.1731618 -0.3132353 0.9337623
vn 0.9386642 -0.2947917 0.1791054
vn -0.6949142 -0.5803309 0.4245098
vn -0.9386029 -0.2947917 0.1791054
vn -0.8515931 -0.4112745 0.3248774
vn 0 -0.5551471 0.8317402
# 175 vertex normals

# 0 texture coords

g hair
f 103//117 121//135 123//137
f 103//117 120//134 121//135
f 104//118 120//134 103//117
f 104//118 62//62 120//134
f 42//42 62//62 104//118
f 42//42 40//40 62//62
f 41//41 40//40 42//42
f 41//41 36//36 40//40
f 28//28 36//36 41//41
f 28//28 33//33 36//36
f 29//29 33//33 28//28
f 29//29 34//34 33//33
f 30//30 34//34 29//29
f 30//30 71//85 34//34
f 32//32 71//85 30//30
f 32//32 11//11 71//85
f 24//24 11//11 32//32
f 24//24 15//15 11//11
f 27//27 15//15 24//24
f 100//114 103//117 123//137
f 100//114 101//115 103//117
f 102//116 101//115 100//114
f 102//116 99//113 101//115
f 75//89 99//113 102//116
f 75//89 98//112 99//113
f 78//92 98//112 75//89
f 78//92 130//157 98//112
f 79//93 130//157 78//92
f 79//93 82//96 130//157
f 81//95 82//96 79//93
f 81//95 86//100 82//96
f 83//97 86//100 81//95
f 83//97 17//17 86//100
f 16//16 17//17 83//97
f 16//16 13//13 17//17
f 12//12 13//13 16//16
f 12//12 14//14 13//13
f 130//157 95//109 98//112
f 130//157 97//111 95//109
f 82//96 97//111 130//157
f 82//96 91//105 97//111
f 86//100 91//105 82//96
f 86//100 27//27 91//105
f 17//17 27//27 86//100
f 17//17 15//15 27//27
f 13//13 15//15 17//17
f 13//13 10//10 15//15
f 14//14 10//10 13//13
f 14//14 68//77 10//10
f 69//78 68//77 14//14
f 69//78 1//1 68//77
f 3//3 1//1 69//78
f 3//3 2//2 1//1
f 16//16 66//70 12//12
f 16//16 84//98 66//70
f 83//97 84//98 16//16
f 83//97 85//99 84//98
f 81//95 85//99 83//97
f 81//95 128//150 85//99
f 80//94 128//150 81//95
f 80//94 73//87 128//150
f 76//90 73//87 80//94
f 76//90 77//91 73//87
f 75//89 77//91 76//90
f 75//89 106//120 77//91
f 102//116 106//120 75//89
f 102//116 109//115 106//120
f 101//115 104//118 103//117
f 101//115 105//119 104//118
f 94//108 105//119 101//115
f 94//108 90//104 105//119
f 93//107 90//104 94//108
f 93//107 89//103 90//104
f 96//110 89//103 93//107
f 96//110 22//22 89//103
f 35//35 22//22 96//110
f 35//35 31//31 22//22
f 26//26 31//31 35//35
f 26//26 30//30 31//31
f 32//32 30//30 26//26
f 131//158 100//170 123//169
f 131//158 129//155 100//170
f 132//159 129//155 131//158
f 132//159 135//175 129//155
f 70//83 135//175 132//159
f 70//83 134//174 135//175
f 67//71 134//174 70//83
f 67//71 3//76 134//174
f 2//75 3//76 67//71
f 33//33 38//38 36//36
f 33//33 5//5 38//38
f 34//34 5//5 33//33
f 34//34 7//7 5//5
f 71//85 7//7 34//34
f 71//85 8//8 7//7
f 11//11 8//8 71//85
f 11//11 10//10 8//8
f 15//15 10//10 11//11
f 62//62 58//58 120//134
f 62//62 60//60 58//58
f 40//40 60//60 62//62
f 40//40 39//39 60//60
f 36//36 39//39 40//40
f 36//36 37//37 39//39
f 38//38 37//37 36//36
f 121//135 122//136 123//137
f 121//135 116//130 122//136
f 120//134 116//130 121//135
f 120//134 118//132 116//130
f 58//58 118//132 120//134
f 58//58 59//59 118//132
f 57//57 59//59 58//58
f 1//1 9//9 68//77
f 1//1 4//4 9//9
f 6//6 4//4 1//1
f 6//6 5//5 4//4
f 44//44 5//5 6//6
f 44//44 38//38 5//5
f 48//36 38//38 44//44
f 59//160 131//158 118//172
f 59//160 132//159 131//158
f 133//161 132//159 59//160
f 133//161 70//83 132//159
f 37//165 70//83 133//161
f 37//165 38//74 70//83
f 105//119 42//42 104//118
f 105//119 43//43 42//42
f 90//104 43//43 105//119
f 90//104 20//20 43//43
f 89//103 20//20 90//104
f 89//103 22//22 20//20
f 64//64 39//39 37//37
f 64//64 61//61 39//39
f 63//63 61//61 64//64
f 63//63 56//56 61//61
f 55//55 56//56 63//63
f 55//55 57//57 56//56
f 43//43 41//41 42//42
f 43//43 23//23 41//41
f 20//20 23//23 43//43
f 20//20 21//21 23//23
f 22//22 21//21 20//20
f 22//22 31//31 21//21
f 46//46 44//44 6//6
f 46//46 47//47 44//44
f 45//45 47//47 46//46
f 45//45 52//52 47//47
f 51//51 52//52 45//45
f 51//51 53//53 52//52
f 73//87 74//88 127//151
f 73//87 72//86 74//88
f 88//102 72//86 73//87
f 88//102 87//101 72//86
f 77//91 87//101 88//102
f 50//49 45//82 46//84
f 50//49 51//50 45//82
f 49//48 51//50 50//49
f 49//48 53//80 51//50
f 54//81 53//80 49//48
f 9//9 10//10 68//77
f 9//9 8//8 10//10
f 4//4 8//8 9//9
f 4//4 7//7 8//8
f 5//5 7//7 4//4
f 69//79 134//174 3//76
f 69//79 65//67 134//174
f 14//66 65//67 69//79
f 14//66 12//68 65//67
f 126//147 129//155 135//175
f 126//147 125//144 129//155
f 74//149 125//144 126//147
f 74//149 72//146 125//144
f 129//155 102//145 100//170
f 129//155 110//123 102//145
f 108//156 110//123 129//155
f 108//156 119//154 110//123
f 79//93 80//94 81//95
f 79//93 76//90 80//94
f 78//92 76//90 79//93
f 78//92 75//89 76//90
f 106//120 108//122 77//91
f 106//120 107//121 108//122
f 109//115 107//121 106//120
f 109//115 115//129 107//121
f 112//125 110//123 119//154
f 112//125 111//124 110//123
f 114//153 111//124 112//125
f 114//153 115//152 111//124
f 107//121 119//133 108//122
f 107//121 113//126 119//133
f 115//129 113//126 107//121
f 115//129 114//128 113//126
f 70//83 46//84 67//71
f 70//83 50//49 46//84
f 38//74 50//49 70//83
f 38//74 48//65 50//49
f 99//113 94//108 101//115
f 99//113 93//107 94//108
f 98//112 93//107 99//113
f 98//112 95//109 93//107
f 95//109 96//110 93//107
f 95//109 92//106 96//110
f 97//111 92//106 95//109
f 97//111 91//105 92//106
f 92//106 35//35 96//110
f 92//106 25//25 35//35
f 91//105 25//25 92//106
f 91//105 27//27 25//25
f 23//23 28//28 41//41
f 23//23 29//29 28//28
f 21//21 29//29 23//23
f 21//21 31//31 29//29
f 54//54 52//52 53//53
f 54//54 47//47 52//52
f 48//36 47//47 54//54
f 48//36 44//44 47//47
f 124//139 85//140 127//148
f 124//139 84//141 85//140
f 66//142 84//141 124//139
f 131//158 117//168 118//171
f 131//158 122//167 117//168
f 123//169 122//167 131//158
f 125//144 108//156 129//155
f 125//144 77//73 108//156
f 87//143 77//73 125//144
f 109//138 111//124 115//152
f 109//138 110//123 111//124
f 102//145 110//123 109//138
f 67//71 18//72 2//75
f 67//71 6//73 18//72
f 46//84 6//73 67//71
f 25//25 26//26 35//35
f 25//25 24//24 26//26
f 27//27 24//24 25//25
f 19//19 6//6 1//1
f 19//19 18//18 6//6
f 2//2 18//18 19//19
f 133//161 64//164 37//165
f 133//161 63//162 64//164
f 113//126 112//127 119//133
f 113//126 114//128 112//127
f 128//150 127//151 85//99
f 128//150 73//87 127//151
f 55//163 133//161 57//173
f 55//163 63//162 133//161
f 49//48 48//65 54//81
f 49//48 50//49 48//65
f 126//147 127//148 74//149
f 126//147 124//139 127//148
f 116//130 117//131 122//136
f 116//130 118//132 117//131
f 61//61 60//60 39//39
f 61//61 56//56 60//60
f 60//60 57//57 58//58
f 60//60 56//56 57//57
f 57//166 133//161 59//160
f 87//143 125//144 72//146
f 65//67 12//68 66//69
f 73//87 77//91 88//102
f 32//32 26//26 24//24
f 31//31 30//30 29//29
f 19//19 1//1 2//2
# 262 faces

