# RFL_Res.dat Editor OBJ Exporter v1.3 - (c) 2018 Atlas Vryzas Software

#
# object hair
#

v  19.22353 8.192157 -36.40784
v  17.41569 4.615686 -29.58824
v  22.82745 2.956863 -38.75294
v  30.88235 -3.494118 -29.47059
v  30.44314 3.666667 -25.67059
v  35.98824 0.3254902 -32.09804
v  25.75294 -1.203922 -26.02745
v  28.78431 -4.270588 -35.10588
v  28.55686 -0.1843137 -39.58431
v  21.92941 -1.537255 -32.63922
v  22.22745 3.921569 -23.3451
v  20.09412 20.91372 -30.03137
v  15.89412 17.95686 -30.03529
v  23.48235 16.2902 -33.90981
v  14.81569 15.01569 -25.58824
v  15.85098 9.917647 -27.49412
v  22.14118 18 -21.12941
v  26.15294 12.48627 -22.27451
v  17.94118 15.03922 -21.13333
v  23.59608 20.07059 -25.58431
v  27.58039 7.741177 -38.12157
v  32.72157 5.454902 -32.79216
v  29.32549 12.09412 -29.5451
v  35.71373 2.231373 -34.35294
v  40.67451 -0.6039215 -35.96078
v  11.32549 26.52549 -21.01961
v  0 33.43922 -35.24314
v  10.60392 45.50588 -33.15294
v  0 46.12549 -34.86274
v  11.3098 33.43922 -33.51765
v  0 65.56863 -18.54902
v  10.60392 67.4902 -6
v  0 69.24313 -6.309804
v  10.60392 63.99608 -17.63922
v  11.3098 22.57647 -29.83922
v  19.79216 24.19608 -25.38039
v  21.00392 45 -26.6
v  18.76863 58.18431 -15.83922
v  10.60392 56.11765 -27.02353
v  18.76863 61.06274 3.776471
v  25.44314 53 1
v  0 57.28627 -28.41961
v  0 22.01569 -31.37255
v  25.44314 44.26274 -16
v  10.67059 10.89412 -18.37647
v  18.67059 15.55686 -13.8902
v  24 21.9098 -9.019608
v  26.13333 33 -16
v  10.60392 66.44706 5.823529
v  0 68.1451 6.121569
v  0 9.631372 -19.10196
v  27.73726 29.07843 2.654902
v  27.88627 41 0
v  35.50588 -3.003922 -36.23922
v  34.81961 -0.690196 -38.54902
v  34.73726 2.105882 -37.54902
v  36.09412 -2.505882 -32.98824
v  -22.82353 2.956863 -38.75294
v  -21.92157 -1.537255 -32.63922
v  -17.41176 4.615686 -29.58824
v  -26.1451 12.48627 -22.27451
v  -30.43529 3.666667 -25.67059
v  -29.32157 12.09412 -29.5451
v  -28.77647 -4.270588 -35.10588
v  -19.21569 8.192157 -36.40784
v  -25.7451 -1.203922 -26.02745
v  -22.21961 3.921569 -23.3451
v  -15.88627 17.95686 -30.03529
v  -20.08628 20.91372 -30.03137
v  -23.47451 16.2902 -33.90981
v  -15.84314 9.917647 -27.49412
v  -14.81176 15.01569 -25.58824
v  -22.13333 18 -21.12941
v  -17.93333 15.03922 -21.13333
v  -23.58824 20.07059 -25.58431
v  -32.71373 5.454902 -32.79216
v  -27.57255 7.741177 -38.12157
v  -40.67059 -0.6039215 -35.96078
v  -35.7098 2.231373 -34.35294
v  -35.98039 0.3254902 -32.09804
v  -11.31765 26.52549 -21.01961
v  -10.6 45.50588 -33.15294
v  -11.30588 33.43922 -33.51765
v  -10.6 67.4902 -6
v  -10.6 63.99608 -17.63922
v  -19.78431 24.19608 -25.38039
v  -11.30588 22.57647 -29.83922
v  -18.76078 58.18431 -15.83922
v  -21 45 -26.6
v  -10.6 56.11765 -27.02353
v  -18.76078 61.06274 3.776471
v  -25.43922 53 1
v  -25.43922 44.26274 -16
v  -10.66667 10.89412 -18.37647
v  -24 21.9098 -9.019608
v  -18.66667 15.55686 -13.8902
v  -26.12549 33 -16
v  -10.6 66.44706 5.823529
v  -27.73333 29.07843 2.654902
v  -27.87843 41 0
v  -30.87843 -3.494118 -29.47059
v  -35.49804 -3.003922 -36.23922
v  -34.81176 -0.690196 -38.54902
v  -34.72941 2.105882 -37.54902
v  -28.55294 -0.1843137 -39.58431
v  -36.08627 -2.505882 -32.98824
v  4.709804 60 10.36471
v  -8.980392 65.47059 13.71373
v  -18.06667 60.42353 15.55686
v  -24.87059 53.20392 15.26274
v  -28.7098 36.17647 8.568627
v  -28.42745 44.66667 12.87843
v  0 66.7804 13.84706
v  8.984314 65.47059 13.71373
v  18.07059 60.42353 15.55686
v  24.87059 53.20392 15.26274
v  28.7098 36.17647 8.568627
v  28.43529 44.66667 12.87843
v  -23.43922 38.35686 23.85098
v  -17.42353 45.8549 29.25882
v  -15.28235 35.90981 27.6
v  -22.47843 31.38824 20.09804
v  -9.560784 53.46275 30.00784
v  -7.101961 42.93726 30.91765
v  -1.407843 59.6902 25.96471
v  -0.4117647 64.18039 19.4902
v  5.870588 58.83529 22.81961
v  7.686275 63 18.47059
v  -26.43137 29.75294 11.81961
v  0.4352941 51.12941 29.10588
v  24.33333 31.21961 13.21961
v  19.58431 36.27059 21.23529
v  14.67059 43.89412 25.67451
v  27.36471 32.81176 12.41569
v  26.2549 39.91765 20.4549
v  22.11373 49.14902 24.71765
v  9.2 52.84706 25.17255
v  14.26274 59 23.05098
# 138 vertices

vn -0.6639093 0.09313726 -0.7419118
vn -0.8639706 -0.5022672 0.03431373
vn -0.5500613 -0.3246936 -0.7693015
vn 0.3629902 -0.691973 0.6240809
vn 0.7007353 0.04938725 0.7117647
vn 0.6974265 0.09761029 0.710049
vn -0.2370711 -0.7700368 0.5922794
vn -0.1696691 -0.9650735 -0.1995711
vn 0.001041667 -0.275674 -0.9612132
vn -0.6363971 -0.7643383 -0.1036765
vn -0.2972426 -0.4286765 0.8531862
vn 0.08964461 0.7861519 -0.6115196
vn -0.7393382 0.2120711 -0.6390319
vn 0.2386642 0.6391544 -0.7311274
vn -0.9496936 -0.2873162 0.1243873
vn 0.4112745 0.2921569 0.8634804
vn 0.5771446 0.1269608 0.8068015
vn -0.3911152 -0.2833946 0.8756127
vn 0.7048407 0.7034314 0.09136029
vn 0.3115196 0.4852941 -0.816973
vn 0.7856005 0.6173407 -0.04246324
vn 0.8622549 0.5061888 -0.01740196
vn 0.6765931 0.7138481 0.1809436
vn 0.9873162 0.04656863 -0.1517157
vn -0.5356005 0.7498162 0.3885417
vn 0 -0.08523284 -0.9963235
vn 0.3145833 0.2196691 -0.9234068
vn 0 0.3528186 -0.9357231
vn 0.3643382 -0.1563113 -0.918076
vn 0 0.9104779 -0.4135417
vn 0.4078431 0.903799 -0.1297794
vn 0 0.999326 -0.03786765
vn 0.3466912 0.8044118 -0.4824755
vn 0.2790441 -0.546875 -0.789277
vn 0.7280024 -0.3895833 -0.5640931
vn 0.7497549 0.2063725 -0.6287377
vn 0.7293505 0.6131127 -0.3035539
vn 0.3764093 0.5811275 -0.7215074
vn 0.6842524 0.7292892 0.008700981
vn 0.9007353 0.4271446 -0.07959559
vn 0 0.6867034 -0.7269608
vn 0 -0.4590686 -0.8883578
vn 0.9416667 0.2366422 -0.239277
vn 0.4128064 -0.6822304 -0.6034313
vn 0.735049 -0.5744485 -0.360049
vn 0.8992647 -0.3691176 -0.2346201
vn 0.9591912 -0.1047794 -0.2625613
vn 0.3488971 0.9300858 0.1154412
vn 0 0.9902574 0.1395833
vn 0 -0.7038603 -0.7102941
vn 0.9541667 -0.2984069 0.02254902
vn 0.9916667 0.07794118 -0.1030025
vn 0.2297181 -0.8734069 -0.4293505
vn 0.2767157 -0.1912377 -0.9417279
vn 0.4721201 0.6039829 -0.6420956
vn 0.4716299 -0.7749387 0.420772
vn 0.5501226 -0.3246936 -0.7693015
vn 0.6364583 -0.7643383 -0.1036765
vn 0.8640319 -0.5022672 0.03431373
vn -0.5770833 0.1269608 0.8068015
vn -0.700674 0.04938725 0.7117647
vn -0.8621936 0.5061888 -0.01740196
vn 0.1697304 -0.9650735 -0.1995711
vn 0.6639706 0.09313726 -0.7419118
vn 0.2371324 -0.7700368 0.5922794
vn 0.2973039 -0.4286765 0.8531862
vn 0.7393995 0.2120711 -0.6390319
vn -0.08958333 0.7861519 -0.6115196
vn -0.2386029 0.6391544 -0.7311274
vn 0.9507965 -0.2833333 0.1258578
vn -0.4112132 0.2921569 0.8634804
vn 0.3911765 -0.2833946 0.8756127
vn -0.7047794 0.7034314 0.09136029
vn -0.7855392 0.6173407 -0.04246324
vn -0.3114583 0.4852941 -0.816973
vn -0.9872549 0.04656863 -0.1516544
vn -0.6764706 0.7139093 0.1809436
vn -0.697304 0.09761029 0.7101103
vn 0.5356618 0.7498162 0.3885417
vn -0.3145221 0.2196691 -0.9234068
vn -0.3642769 -0.1563113 -0.918076
vn -0.4077819 0.903799 -0.1297794
vn -0.3466299 0.8044118 -0.4824755
vn -0.7279412 -0.389522 -0.5641544
vn -0.2789828 -0.546875 -0.7893382
vn -0.7292892 0.6131127 -0.3035539
vn -0.7496936 0.2063725 -0.6286765
vn -0.376348 0.5811275 -0.7215074
vn -0.6841912 0.7292892 0.008578432
vn -0.900674 0.4271446 -0.07971814
vn -0.9416054 0.2366422 -0.239277
vn -0.4127451 -0.6821691 -0.6034926
vn -0.8992034 -0.3689951 -0.2347426
vn -0.7349877 -0.5743873 -0.3601716
vn -0.9591299 -0.1047181 -0.2626838
vn -0.3488358 0.9300858 0.1153799
vn -0.9870711 -0.1522059 -0.04926471
vn -0.9915441 0.078125 -0.1031863
vn -0.3629289 -0.691973 0.6240809
vn -0.2295343 -0.8734682 -0.4293505
vn -0.2765319 -0.1912377 -0.9417279
vn -0.4719976 0.6039829 -0.6420956
vn -0.4715073 -0.775 0.420772
vn 0.6287377 -0.7278799 0.2735294
vn 0.6955882 -0.7164215 -0.05459559
vn 0.4954657 -0.6604779 0.5641544
vn -0.2560049 0.8903186 0.3767157
vn -0.5637255 0.7386029 0.3697304
vn -0.822549 0.4732843 0.3152573
vn -0.9847426 -0.1092525 0.1351716
vn -0.9773284 0.1496936 0.1494485
vn 0.03639706 0.9403186 0.3384804
vn -0.8270221 -0.5596814 0.05306372
vn -0.7563726 -0.6172181 0.2164216
vn -0.5986519 -0.5827819 0.5494485
vn 0.2500613 0.9172794 0.3101716
vn 0.524326 0.8034314 0.2822917
vn 0.8011642 0.546875 0.2431985
vn 0.9930147 -0.08382353 0.08370098
vn 0.9723039 0.1804534 0.1488358
vn -0.8029412 -0.1395833 0.5794117
vn -0.5157475 0.1708946 0.8395221
vn -0.3927696 -0.3097427 0.8658701
vn -0.6639706 -0.4233456 0.616299
vn -0.1979167 0.484375 0.8522059
vn -0.08167892 -0.01427696 0.9966299
vn 0.07830882 0.6717525 0.7367035
vn 0.0689951 0.8333946 0.5484068
vn 0.1791667 0.601348 0.7787377
vn 0.1910539 0.8230392 0.5349877
vn 0.6893382 -0.7151348 -0.1156863
vn 0.6754902 -0.7097427 -0.1997549
vn 0.6955882 -0.6960171 -0.1781863
vn 0.7570466 -0.6402574 -0.1303922
vn 0.7329657 -0.6642157 -0.1472427
vn -0.9095588 -0.2617034 0.3226716
vn -0.8123162 -0.5672181 -0.1356005
vn -0.8305147 -0.5525122 -0.06985294
vn -0.848897 -0.5284926 -0.003860294
vn 0.7335784 -0.5238971 0.4330882
vn 0.4066789 -0.5334559 0.7416667
vn 0.7389093 -0.2379902 0.6303921
vn 0.5025735 -0.7061887 0.4987745
vn 0.2270221 -0.1783701 0.9574142
vn 0.5672181 0.2229779 0.7928922
vn 0.04466912 0.2315564 0.9718137
vn 0.310049 0.6349878 0.7076593
vn -0.8669118 -0.4979779 0.02218137
vn -0.879473 -0.4743873 0.03731618
vn 0.233701 0.296875 0.9259191
# 150 vertex normals

# 0 texture coords

g hair
f 56//55 55//54 9//9
f 56//55 25//24 55//54
f 24//23 25//24 56//55
f 24//23 6//6 25//24
f 5//5 6//6 24//23
f 5//5 4//4 6//6
f 7//7 4//4 5//5
f 7//7 8//8 4//4
f 10//10 8//8 7//7
f 10//10 3//3 8//8
f 2//2 3//3 10//10
f 2//2 1//1 3//3
f 16//15 1//1 2//2
f 16//15 13//13 1//1
f 15//55 13//54 16//9
f 15//6 26//23 13//24
f 19//7 26//4 15//5
f 19//3 17//10 26//8
f 18//15 17//1 19//2
f 18//25 20//15 17//13
f 23//17 20//16 18//18
f 23//14 14//22 20//19
f 21//3 14//1 23//20
f 21//15 1//25 14//13
f 3//18 1//25 21//15
f 105//9 104//102 77//75
f 105//9 103//101 104//102
f 102//100 103//101 105//9
f 102//100 78//76 103//101
f 106//103 78//76 102//100
f 106//103 80//78 78//76
f 101//99 80//78 106//103
f 101//99 62//61 80//78
f 66//65 62//61 101//99
f 66//65 67//66 62//61
f 60//59 67//66 66//65
f 60//59 71//70 67//66
f 65//64 71//70 60//59
f 65//64 68//67 71//70
f 70//69 68//67 65//64
f 70//69 69//68 68//67
f 75//73 69//68 70//69
f 75//73 81//79 69//68
f 73//71 81//79 75//73
f 73//71 74//72 81//79
f 61//60 74//72 73//71
f 61//60 67//66 74//72
f 62//61 67//66 61//60
f 127//129 125//127 130//150
f 127//129 126//128 125//127
f 128//130 126//128 127//129
f 128//130 113//112 126//128
f 114//116 113//112 128//130
f 114//116 50//49 113//112
f 49//48 50//49 114//116
f 49//48 33//32 50//49
f 32//31 33//32 49//48
f 32//31 31//30 33//32
f 34//33 31//30 32//31
f 34//33 42//41 31//30
f 39//38 42//41 34//33
f 39//38 29//28 42//41
f 28//27 29//28 39//38
f 28//27 27//26 29//28
f 30//29 27//26 28//27
f 30//29 43//42 27//26
f 35//34 43//42 30//29
f 35//34 51//50 43//42
f 45//44 51//50 35//34
f 108//107 125//127 126//128
f 108//107 123//125 125//127
f 109//108 123//125 108//107
f 109//108 120//122 123//125
f 110//109 120//122 109//108
f 110//109 119//121 120//122
f 112//111 119//121 110//109
f 112//111 111//110 119//121
f 100//98 111//110 112//111
f 100//98 99//97 111//110
f 97//95 99//97 100//98
f 97//95 95//93 99//97
f 86//84 95//93 97//95
f 86//84 96//94 95//93
f 94//92 96//94 86//84
f 75//73 61//60 73//71
f 75//73 63//62 61//60
f 70//69 63//62 75//73
f 70//69 77//75 63//62
f 65//64 77//75 70//69
f 65//64 58//57 77//75
f 60//59 58//57 65//64
f 60//59 59//58 58//57
f 66//65 59//58 60//59
f 66//65 64//63 59//58
f 101//99 64//63 66//65
f 101//99 106//103 64//63
f 92//90 112//111 110//109
f 92//90 100//98 112//111
f 93//91 100//98 92//90
f 93//91 97//95 100//98
f 89//87 97//95 93//91
f 89//87 86//84 97//95
f 83//81 86//84 89//87
f 83//81 87//85 86//84
f 43//42 87//85 83//81
f 43//42 51//50 87//85
f 52//51 134//140 131//143
f 52//51 117//119 134//140
f 53//52 117//119 52//51
f 53//52 118//120 117//119
f 41//40 118//120 53//52
f 41//40 116//118 118//120
f 40//39 116//118 41//40
f 40//39 115//117 116//118
f 49//48 115//117 40//39
f 49//48 114//116 115//117
f 83//81 27//26 43//42
f 83//81 82//80 27//26
f 89//87 82//80 83//81
f 89//87 90//88 82//80
f 88//86 90//88 89//87
f 88//86 85//83 90//88
f 84//82 85//83 88//86
f 84//82 31//30 85//83
f 33//32 31//30 84//82
f 40//39 32//31 49//48
f 40//39 38//37 32//31
f 41//40 38//37 40//39
f 41//40 44//43 38//37
f 53//52 44//43 41//40
f 53//52 48//47 44//43
f 52//51 48//47 53//52
f 52//51 47//46 48//47
f 123//125 130//150 125//127
f 123//125 124//126 130//150
f 120//122 124//126 123//125
f 120//122 121//123 124//126
f 119//121 121//123 120//122
f 119//121 122//124 121//123
f 129//136 122//124 119//121
f 38//37 34//33 32//31
f 38//37 39//38 34//33
f 37//36 39//38 38//37
f 37//36 28//27 39//38
f 30//29 28//27 37//36
f 16//15 19//18 15//15
f 16//7 11//2 19//11
f 2//11 11//18 16//10
f 2//11 7//15 11//15
f 10//7 7//11 2//2
f 71//70 74//72 67//66
f 71//70 72//72 74//66
f 68//79 72//67 71//70
f 68//72 81//66 72//68
f 69//67 81//70 68//70
f 13//13 14//14 1//1
f 13//13 12//12 14//14
f 26//25 12//12 13//13
f 26//25 20//19 12//12
f 17//16 20//19 26//25
f 42//41 85//83 31//30
f 42//41 90//88 85//83
f 29//28 90//88 42//41
f 29//28 82//80 90//88
f 27//26 82//80 29//28
f 109//108 91//89 110//109
f 109//108 98//96 91//89
f 108//107 98//96 109//108
f 108//107 50//49 98//96
f 78//76 104//102 103//101
f 78//76 79//77 104//102
f 80//78 79//77 78//76
f 80//78 62//61 79//77
f 63//62 62//61 61//60
f 63//62 76//74 62//61
f 77//75 76//74 63//62
f 77//75 104//102 76//74
f 5//5 23//22 18//17
f 5//5 22//21 23//22
f 24//23 22//21 5//5
f 24//23 56//55 22//21
f 138//147 116//118 115//117
f 138//147 136//145 116//118
f 137//146 136//145 138//147
f 137//146 133//144 136//145
f 54//53 8//8 9//9
f 54//53 57//56 8//8
f 25//24 57//56 54//53
f 25//24 6//6 57//56
f 128//130 115//117 114//116
f 128//130 138//147 115//117
f 127//129 138//147 128//130
f 127//129 137//146 138//147
f 136//145 118//120 116//118
f 136//145 135//142 118//120
f 133//144 135//142 136//145
f 133//144 132//141 135//142
f 135//142 117//119 118//120
f 135//142 134//140 117//119
f 132//141 134//140 135//142
f 132//141 131//143 134//140
f 107//113 131//137 132//138
f 107//113 52//114 131//137
f 47//115 52//114 107//113
f 91//89 92//90 110//109
f 91//89 88//86 92//90
f 84//82 88//86 91//89
f 98//96 84//82 91//89
f 98//96 33//32 84//82
f 50//49 33//32 98//96
f 58//57 105//9 77//75
f 58//57 64//63 105//9
f 59//58 64//63 58//57
f 36//35 48//47 47//46
f 36//35 37//36 48//47
f 30//29 37//36 36//35
f 107//113 137//148 127//149
f 107//113 133//139 137//148
f 132//138 133//139 107//113
f 11//11 18//17 19//18
f 11//11 5//5 18//17
f 7//7 5//5 11//11
f 9//9 21//20 56//55
f 9//9 3//3 21//20
f 8//8 3//3 9//9
f 130//135 107//105 127//134
f 130//135 124//133 107//105
f 121//132 107//105 124//133
f 121//132 122//105 107//133
f 129//131 107//105 122//132
f 129//131 99//104 107//105
f 129//136 111//110 99//97
f 129//136 119//121 111//110
f 93//91 88//86 89//87
f 93//91 92//90 88//86
f 94//92 87//85 51//50
f 94//92 86//84 87//85
f 64//63 102//100 105//9
f 64//63 106//103 102//100
f 79//77 76//74 104//102
f 79//77 62//61 76//74
f 44//43 37//36 38//37
f 44//43 48//47 37//36
f 113//112 108//107 126//128
f 113//112 50//49 108//107
f 46//45 36//35 47//46
f 46//45 45//44 36//35
f 22//21 21//20 23//22
f 22//21 56//55 21//20
f 35//34 36//35 45//44
f 35//34 30//29 36//35
f 57//56 4//4 8//8
f 57//56 6//6 4//4
f 55//54 54//53 9//9
f 55//54 25//24 54//53
f 95//106 107//105 99//104
f 81//79 74//72 72//70
f 12//12 20//19 14//14
# 258 faces

