# RFL_Res.dat Editor OBJ Exporter v1.3 - (c) 2018 Atlas Vryzas Software

#
# object hair
#

v  10.4 66.42745 11.78824
v  19.38431 63 1
v  20.90196 62 12
v  12.62353 44 29
v  16.63529 54 28
v  18.48627 45 27
v  21.83529 54 22
v  25.44706 45 15.54902
v  21.81176 44 21
v  24.44706 54 15
v  4.584314 60 26.45098
v  7.658823 63.73726 22
v  12 59 27
v  16.28235 61 20
v  0 66.33334 16.44706
v  16.82745 36.20392 23.5451
v  0 68.90196 4.054902
v  22.67059 34 15
v  26.36078 42 10
v  25.44314 53.98824 -5
v  26.12941 54 6
v  8.050981 53 30
v  0 5.298039 -21.07059
v  11.3098 22.57647 -29.83922
v  0 22.01569 -31.37255
v  10.29804 6.627451 -20.30588
v  19.78823 24.19608 -25.38039
v  19.2549 11.52549 -15.58823
v  11.3098 33.43922 -33.51765
v  0 33.43922 -35.24314
v  10.60392 45.50588 -33.15294
v  0 46.27451 -34.99608
v  10.60392 67.4902 -6
v  0 65.56863 -18.54902
v  10.83922 63.99608 -17.92157
v  0 69.24313 -6.309804
v  19.78823 43.70588 -26.39216
v  18.76471 58.18431 -15.83922
v  10.60392 56.11765 -27.02353
v  27.88235 41 -3
v  27.09412 28.61176 -0.427451
v  26.12941 33.43922 -16
v  25.07059 21.57647 -6.898039
v  25.44314 44 -15
v  0 57.28627 -28.41961
v  0 63 23
v  7.729412 56.98431 14.82353
v  25.12941 26 9
v  0 30.52549 9
v  0 14.4549 -6.898039
v  -19.38039 63 1
v  -10.39608 66.42745 11.78824
v  -20.89804 62 12
v  -16.63137 54 28
v  -12.61961 44 29
v  -18.48235 45 27
v  -25.44314 45 15.54902
v  -21.83137 54 22
v  -21.80784 44 21
v  -24.44314 54 15
v  -7.654902 63.73726 22
v  -4.580392 60 26.45098
v  -12 59 27
v  -16.82353 36.20392 23.5451
v  -16.27843 61 20
v  -22.66667 34 15
v  -26.35686 42 10
v  -26.12549 54 6
v  -25.43922 53.98824 -5
v  -8.047059 53 30
v  -11.30588 22.57647 -29.83922
v  -10.29412 6.627451 -20.30588
v  -19.78431 24.19608 -25.38039
v  -19.25098 11.52549 -15.58823
v  -11.30588 33.43922 -33.51765
v  -10.6 45.50588 -33.15294
v  -10.6 67.4902 -6
v  -10.83529 63.99608 -17.92157
v  -19.78431 43.70588 -26.39216
v  -18.76078 58.18431 -15.83922
v  -10.6 56.11765 -27.02353
v  -27.87843 41 -3
v  -27.0902 28.61176 -0.427451
v  -25.43922 44 -15
v  -26.12549 33.43922 -16
v  -25.06667 21.57647 -6.898039
v  -7.72549 56.98431 14.82353
v  0 55 23
v  -25.12549 26 9
# 89 vertices

vn 0.2773284 0.942647 0.1859069
vn 0.6422181 0.759804 -0.1014093
vn 0.6878064 0.6940564 0.2127451
vn 0.3098039 -0.1461397 0.9395221
vn 0.4806373 0.2995098 0.8242647
vn 0.6621937 -0.1601716 0.7320465
vn 0.8214461 0.2761642 0.4990809
vn 0.9386642 -0.03982843 0.3425858
vn 0.8392157 -0.1732843 0.5155637
vn 0.9193627 0.2995098 0.2552696
vn -0.15 0.5403186 0.8280637
vn 0.1490809 0.8625 0.483701
vn 0.2442402 0.6338848 0.7339461
vn 0.4881127 0.7544118 0.4390319
vn 0 0.9488971 0.3157476
vn 0.5998162 -0.388174 0.6996936
vn 0 0.9950368 0.09987745
vn 0.8833946 -0.2430147 0.4007966
vn 0.9846814 -0.05134804 0.1667279
vn 0.9000612 0.398223 -0.1770833
vn 0.952451 0.298652 0.06133578
vn 0.1348652 0.2742034 0.9522672
vn 0 -0.5218138 -0.8530024
vn 0.2820466 -0.4301471 -0.8575368
vn 0 -0.3909314 -0.9204044
vn 0.4137255 -0.5096813 -0.7542892
vn 0.6947304 -0.28125 -0.6619485
vn 0.8289828 -0.371875 -0.4177083
vn 0.3825368 -0.1492034 -0.9117647
vn 0 -0.08897059 -0.9960172
vn 0.3575368 0.2128676 -0.9093137
vn 0 0.3542892 -0.9351715
vn 0.285049 0.9525123 -0.1074755
vn 0 0.9117034 -0.4109069
vn 0.3925858 0.8038603 -0.4469363
vn 0 0.9916667 -0.1289216
vn 0.7550245 0.1969976 -0.6254289
vn 0.733027 0.5477941 -0.4032475
vn 0.4105392 0.558027 -0.721201
vn 0.9973652 0.05931373 -0.04301471
vn 0.9950981 -0.09607843 0.02463235
vn 0.952451 -0.1002451 -0.2878676
vn 0.9520833 -0.2351103 -0.1958333
vn 0.9209559 0.2203431 -0.3215074
vn 0 0.6859069 -0.7276961
vn 0 0.6563113 0.7545343
vn -0.8271446 -0.5389706 -0.1591299
vn -0.5720588 -0.8175245 -0.06550245
vn -0.5681372 -0.7630515 -0.3080882
vn -0.8958333 -0.4352941 -0.08921569
vn -0.538848 -0.515625 -0.6661152
vn -0.8799632 -0.4636642 -0.1028799
vn -0.2373162 -0.9538603 0.1835784
vn -0.3030024 -0.4452819 0.8425858
vn -0.1457108 -0.8099877 0.568076
vn 0 -0.6302083 0.7764706
vn 0.08609068 -0.9012868 0.4245711
vn 0.1026348 -0.8226716 0.5591912
vn 0 -0.7602941 0.6495711
vn 0.1693627 -0.7575368 0.6304534
vn 0 -0.8400123 0.5425858
vn 0.1985907 -0.6990809 0.6869485
vn 0.979902 -0.08645833 0.1800858
vn -0.6421568 0.759804 -0.1014093
vn -0.2772672 0.942647 0.1859069
vn -0.6877451 0.6940564 0.2127451
vn -0.480576 0.2995098 0.8242647
vn -0.3097427 -0.1461397 0.9395221
vn -0.6621324 -0.1601716 0.7320465
vn -0.9386029 -0.03982843 0.3425858
vn -0.8213848 0.2761642 0.4990809
vn -0.8391544 -0.1732843 0.5155637
vn -0.9193015 0.2995098 0.2552696
vn -0.1490196 0.8625 0.483701
vn 0.1500613 0.5403186 0.8280637
vn -0.2441789 0.6338848 0.7339461
vn -0.5997549 -0.388174 0.6996936
vn -0.4880515 0.7544118 0.4390319
vn -0.8833333 -0.2430147 0.4007966
vn -0.9846201 -0.05134804 0.1667279
vn -0.9523897 0.298652 0.06133578
vn -0.9 0.398223 -0.1770833
vn -0.1348039 0.2742034 0.9522672
vn -0.2819853 -0.4301471 -0.8575368
vn -0.4136642 -0.5096813 -0.7542892
vn -0.6946691 -0.28125 -0.6619485
vn -0.8289216 -0.371875 -0.4177083
vn -0.3824755 -0.1492034 -0.9117647
vn -0.3574755 0.2128676 -0.9093137
vn -0.2849877 0.9525123 -0.1074755
vn -0.3925245 0.8038603 -0.4469363
vn -0.7549632 0.1969976 -0.6254289
vn -0.7329657 0.5477941 -0.4032475
vn -0.4104779 0.558027 -0.721201
vn -0.9973039 0.05931373 -0.04301471
vn -0.9950368 -0.09607843 0.02463235
vn -0.9208946 0.2203431 -0.3215074
vn -0.9523897 -0.1002451 -0.2878676
vn -0.9520221 -0.2351103 -0.1958333
vn 0.5721201 -0.8175245 -0.06550245
vn 0.8272059 -0.5389706 -0.1591299
vn 0.5681985 -0.7630515 -0.3080882
vn 0 -0.9833333 0.1819853
vn 0.8958946 -0.4352941 -0.08921569
vn 0.5389093 -0.515625 -0.6661152
vn 0.8800245 -0.4636642 -0.1028799
vn 0.2373774 -0.9538603 0.1835784
vn 0.3030637 -0.4452819 0.8425858
vn 0.1457721 -0.8099877 0.568076
vn -0.08602941 -0.9012868 0.4245711
vn -0.1025735 -0.8226716 0.5591912
vn -0.1693015 -0.7575368 0.6304534
vn -0.1985294 -0.6990809 0.6869485
vn -0.9798407 -0.08645833 0.1800858
vn 0 0 1
# 115 vertex normals

# 0 texture coords

g hair
f 41//41 19//19 48//63
f 41//41 40//40 19//19
f 42//42 40//40 41//41
f 42//42 44//44 40//40
f 37//37 44//44 42//42
f 37//37 38//38 44//44
f 39//39 38//38 37//37
f 39//39 35//35 38//38
f 45//45 35//35 39//39
f 45//45 34//34 35//35
f 78//91 34//34 45//45
f 78//91 77//90 34//34
f 51//64 77//90 78//91
f 51//64 52//65 77//90
f 53//66 52//65 51//64
f 53//66 65//78 52//65
f 58//71 65//78 53//66
f 58//71 54//67 65//78
f 56//69 54//67 58//71
f 56//69 55//68 54//67
f 64//77 55//68 56//69
f 67//80 83//96 89//114
f 67//80 82//95 83//96
f 68//81 82//95 67//80
f 68//81 69//82 82//95
f 51//64 69//82 68//81
f 51//64 80//93 69//82
f 78//91 80//93 51//64
f 78//91 81//94 80//93
f 45//45 81//94 78//91
f 45//45 32//32 81//94
f 39//39 32//32 45//45
f 39//39 31//31 32//32
f 37//37 31//31 39//39
f 37//37 29//29 31//31
f 27//27 29//29 37//37
f 27//27 24//24 29//29
f 26//26 24//24 27//27
f 26//26 23//23 24//24
f 70//83 54//67 55//68
f 70//83 63//76 54//67
f 62//75 63//76 70//83
f 62//75 61//74 63//76
f 46//46 61//74 62//75
f 46//46 15//15 61//74
f 12//12 15//15 46//46
f 12//12 1//1 15//15
f 14//14 1//1 12//12
f 14//14 3//3 1//1
f 7//7 3//3 14//14
f 7//7 10//10 3//3
f 8//8 10//10 7//7
f 8//8 21//21 10//10
f 19//19 21//21 8//8
f 19//19 40//40 21//21
f 85//98 86//99 83//96
f 85//98 74//87 86//99
f 73//86 74//87 85//98
f 73//86 72//85 74//87
f 71//84 72//85 73//86
f 71//84 23//23 72//85
f 25//25 23//23 71//84
f 25//25 24//24 23//23
f 29//29 24//24 25//25
f 11//11 12//12 46//46
f 11//11 13//13 12//12
f 22//22 13//13 11//11
f 22//22 5//5 13//13
f 4//4 5//5 22//22
f 4//4 6//6 5//5
f 16//16 6//6 4//4
f 16//16 9//9 6//6
f 35//35 2//2 38//38
f 35//35 33//33 2//2
f 34//34 33//33 35//35
f 34//34 36//36 33//33
f 77//90 36//36 34//34
f 77//90 17//17 36//36
f 52//65 17//17 77//90
f 52//65 15//15 17//17
f 68//81 53//66 51//64
f 68//81 60//73 53//66
f 57//70 60//73 68//81
f 57//70 58//71 60//73
f 59//72 58//71 57//70
f 59//72 56//69 58//71
f 64//77 56//69 59//72
f 81//94 79//92 80//93
f 81//94 76//89 79//92
f 32//32 76//89 81//94
f 32//32 30//30 76//89
f 31//31 30//30 32//32
f 31//31 29//29 30//30
f 21//21 3//3 10//10
f 21//21 2//2 3//3
f 20//20 2//2 21//21
f 20//20 38//38 2//2
f 44//44 38//38 20//20
f 67//108 87//100 66//101
f 67//108 49//56 87//100
f 89//109 49//56 67//108
f 89//109 83//110 49//56
f 82//95 85//98 83//96
f 82//95 84//97 85//98
f 69//82 84//97 82//95
f 69//82 80//93 84//97
f 25//25 30//30 29//29
f 25//25 75//88 30//30
f 71//84 75//88 25//25
f 71//84 73//86 75//88
f 9//9 7//7 6//6
f 9//9 8//8 7//7
f 18//18 8//8 9//9
f 18//18 19//19 8//8
f 88//103 47//48 11//53
f 88//103 87//100 47//48
f 62//107 87//100 88//103
f 62//107 70//106 87//100
f 42//42 27//27 37//37
f 42//42 28//28 27//27
f 43//43 28//28 42//42
f 17//17 33//33 36//36
f 17//17 1//1 33//33
f 15//15 1//1 17//17
f 47//48 22//52 11//53
f 47//48 4//50 22//52
f 16//51 4//50 47//48
f 47//48 9//49 16//51
f 47//48 18//47 9//49
f 19//54 18//47 47//48
f 49//56 19//54 47//48
f 49//56 48//55 19//54
f 41//57 48//55 49//56
f 50//59 83//110 86//113
f 50//59 49//56 83//110
f 41//57 49//56 50//59
f 50//59 43//62 41//57
f 50//59 28//60 43//62
f 26//58 28//60 50//59
f 79//92 84//97 80//93
f 79//92 85//98 84//97
f 73//86 85//98 79//92
f 67//80 57//70 68//81
f 67//80 66//79 57//70
f 88//115 46//46 62//75
f 88//115 11//11 46//46
f 63//76 65//78 54//67
f 63//76 61//74 65//78
f 61//74 52//65 65//78
f 61//74 15//15 52//65
f 40//40 20//20 21//21
f 40//40 44//44 20//20
f 1//1 2//2 33//33
f 1//1 3//3 2//2
f 59//102 87//100 64//105
f 59//102 66//101 87//100
f 5//5 7//7 14//14
f 5//5 6//6 7//7
f 74//112 50//59 86//113
f 74//112 72//111 50//59
f 23//61 50//59 72//111
f 23//61 26//58 50//59
f 13//13 14//14 12//12
f 13//13 5//5 14//14
f 55//104 87//100 70//106
f 55//104 64//105 87//100
f 79//92 75//88 73//86
f 79//92 76//89 75//88
f 57//70 66//79 59//72
f 60//73 58//71 53//66
f 43//43 42//42 41//41
f 27//27 28//28 26//26
f 76//89 30//30 75//88
# 173 faces

