# RFL_Res.dat Editor OBJ Exporter v1.3 - (c) 2018 Atlas Vryzas Software

#
# object hair
#

v  10.83922 63.99608 -17.92157
v  10.60392 56.11765 -27.02353
v  18.76471 58.18431 -15.83922
v  10.60392 67.4902 -6
v  0 65.55294 -18.82353
v  0 69.24313 -6.309804
v  0 57.28627 -28.41961
v  10.60392 45.50588 -33.15294
v  19.78823 43.70588 -26.39216
v  0 46.12549 -34.86274
v  11.3098 33.43922 -33.51765
v  0 33.69412 -35.37255
v  29.04314 32.50588 -0.427451
v  26.12941 33.43922 -16
v  24.29804 22.26274 -11.4902
v  0 21.42353 -33.74118
v  33.99608 -8.435294 -11
v  25.95686 -16.16471 -11.4902
v  28.16078 -8 4.698039
v  13.82745 -10.37255 -37.50588
v  9.207843 -18 -26.90588
v  18.41961 -10.4902 -23.32157
v  21.22353 11.38824 -25.27843
v  19.92549 22.22353 -25.59608
v  10.29804 21.9451 -32.21569
v  0 -10.92549 -21.02745
v  13.15294 -10.2549 -11.4902
v  13.79216 8.164706 -37.96863
v  19.34118 -9.376471 3.321569
v  27.1451 12.24314 3.72549
v  32.22353 8.501961 -11
v  28.17255 0.8392157 -11.4902
v  25.44314 44 -15
v  27.88235 43 -4
v  25.44314 54 -4
v  18.76471 61.06274 4.870588
v  10.60392 67 6
v  0 69 6
v  28.09412 51 10
v  20.22353 60 15
v  10.30196 65 17
v  27.17255 29.93333 10.55686
v  32.58823 22.36078 2.027451
v  0 66.63137 18
v  7 64.10196 23.63137
v  0 56 24
v  22.88235 35 22.73333
v  8.317647 48.21961 0.6078432
v  30.76078 38 16
v  26 47 22
v  12 61.38039 26.61961
v  19 56 26
v  11.15686 -1.047059 -32.87843
v  0 -13.17255 -30.41176
v  0 9.32549 -31.48627
v  24.18431 1.647059 0.372549
v  24.6902 0.1803922 -26.35686
v  0 -2.462745 -39.79608
v  21.1451 33.69412 -26.36078
v  11.68627 53 31.56471
v  0 10.58823 -17.72157
v  12.18431 10.91373 -14.92157
v  23.13725 43 29.7098
v  28.57255 41.2549 4.788235
v  14.60392 22.06275 -12.93725
v  -10.6 56.11765 -27.02353
v  -10.83529 63.99608 -17.92157
v  -18.76078 58.18431 -15.83922
v  -10.6 67.4902 -6
v  -19.78431 43.70588 -26.39216
v  -10.6 45.50588 -33.15294
v  -11.30588 33.43922 -33.51765
v  -26.12549 33.43922 -16
v  -29.03922 32.50588 -0.427451
v  -24.29412 22.26274 -11.4902
v  -25.95294 -16.16471 -11.4902
v  -33.99216 -8.435294 -11
v  -28.15686 -8 4.698039
v  -9.203921 -18 -26.90588
v  -13.82353 -10.37255 -37.50588
v  -18.41569 -10.4902 -23.32157
v  -19.92157 22.22353 -25.59608
v  -21.21961 11.38824 -25.27843
v  -10.29412 21.9451 -32.21569
v  -13.14902 -10.2549 -11.4902
v  -13.78824 8.164706 -37.96863
v  -19.33726 -9.376471 3.321569
v  -32.21961 8.501961 -11
v  -27.14118 12.24314 3.72549
v  -28.16863 0.8392157 -11.4902
v  -27.87843 43 -4
v  -25.43922 44 -15
v  -25.43922 54 -4
v  -18.76078 61.06274 4.870588
v  -10.6 67 6
v  -28.0902 51 10
v  -20.21961 60 15
v  -10.29804 65 17
v  -27.16863 29.93333 10.55686
v  -32.58431 22.36078 2.027451
v  -7 64.10196 23.63137
v  -22.87843 35 22.73333
v  -8.313725 48.21961 0.6078432
v  -26 47 22
v  -30.75686 38 16
v  -12 61.38039 26.61961
v  -11.15294 -1.047059 -32.87843
v  -24.18039 1.647059 0.372549
v  -24.68627 0.1803922 -26.35686
v  -21.14118 33.69412 -26.36078
v  -11.68235 53 31.56471
v  -19 56 26
v  -12.18039 10.91373 -14.92157
v  -23.13333 43 29.7098
v  -28.56863 41.2549 4.788235
v  -14.6 22.06275 -12.93725
# 116 vertices

vn 0.3539216 0.7989584 -0.4862132
vn 0.4079044 0.556679 -0.7237132
vn 0.7281862 0.5691177 -0.381924
vn 0.4539216 0.8810662 -0.1330882
vn 0 0.910723 -0.4130515
vn 0 0.9972426 -0.07518382
vn 0 0.6790441 -0.7340686
vn 0.3539828 0.2178309 -0.9094976
vn 0.75 0.2357843 -0.6179534
vn 0 0.3561887 -0.9344363
vn 0.4137255 -0.04963235 -0.9090074
vn 0 -0.01697304 -0.9998775
vn 0.9922181 0.02291667 -0.1226103
vn 0.9479167 -0.03970588 -0.3161765
vn 0.9449142 0.03296569 -0.3257353
vn 0 -0.003370098 -1
vn 0.9300245 -0.1160539 0.3487745
vn 0.6597427 -0.7033088 0.2646446
vn 0.9385417 0.1139706 0.3257966
vn 0.9328431 -0.1943015 -0.3034926
vn 0.6665441 -0.7117647 -0.2215686
vn 0.7934436 -0.3189951 -0.5183824
vn 0.6938726 0.06256127 -0.717402
vn 0.7890931 -0.0877451 -0.608027
vn 0.4609069 0.1288603 -0.8780025
vn 0.6257353 -0.1293505 -0.7691789
vn 0.7479779 -0.2938113 -0.5951593
vn 0.5628064 -0.5462623 -0.6202819
vn 0 -0.5675858 0.8233456
vn -0.4806985 -0.7485907 0.4566177
vn -0.1057598 -0.9269608 0.3597426
vn 0.8643995 -0.01519608 -0.5025123
vn -0.5773897 -0.283701 0.765625
vn -0.2659926 -0.9476103 0.1765931
vn -0.08455882 -0.3794118 0.9213848
vn 0.9655024 -0.2291054 0.1242034
vn 0.9471201 0.02696078 0.3198529
vn 0.9352941 0.05245098 0.3500613
vn 0.9156862 0.2324142 -0.3279412
vn 0.9825368 0.1220588 -0.1408701
vn 0.8452818 0.5125 -0.1511642
vn 0.6689338 0.7432598 -0.01415441
vn 0.3723039 0.9250613 0.07579657
vn 0 0.9911765 0.1329657
vn 0.9197304 0.3915441 0.02898284
vn 0.6581495 0.7286765 0.1896446
vn 0.302451 0.9286152 0.2150735
vn 0.9226103 -0.253125 0.2911152
vn 0.9590074 0.02310049 -0.2824755
vn 0 0.8948529 0.4463848
vn 0.01231618 0.8752451 0.4836397
vn 0 0.4916667 0.8708333
vn -0.8193628 -0.5275735 0.2241422
vn -0.6308824 -0.6836397 0.3667892
vn -0.6128677 -0.6892157 0.3864583
vn 0.9664828 -0.1118873 0.2313113
vn 0.8784314 0.2439951 0.4109069
vn 0.4732843 0.7689951 0.4298407
vn 0.6428309 0.5162377 0.5659314
vn 0.7931985 -0.3401348 0.5052083
vn 0.8596814 -0.07120098 -0.505821
vn 0.7958946 0.04454657 -0.6038603
vn 0.8900123 0.1318627 -0.4366422
vn 0.7337623 -0.08817402 -0.6737132
vn -0.06936274 -0.4500613 -0.8902574
vn -0.1640931 -0.7655637 -0.6219975
vn -0.3884191 -0.2947304 -0.8731005
vn -0.1810662 0.008210785 -0.9834559
vn -0.008272059 -0.0377451 -0.9992647
vn -0.2705269 -0.03688725 -0.9619485
vn -0.541728 0.2778799 0.7933211
vn 0.947304 0.06360294 0.3140319
vn 0.9672182 -0.1254902 -0.2209559
vn 0.439951 -0.1359681 -0.8876838
vn 0.5295956 -0.02935049 -0.8477328
vn 0.7678922 -0.01115196 -0.6405025
vn 0 -0.8702206 0.4926471
vn 0.04981618 -0.8207721 0.5690564
vn 0.4375613 0.4135417 0.7984681
vn -0.9014093 -0.3213235 0.2902574
vn 0 -0.1518382 0.9884191
vn -0.6817402 0.08670343 0.7264706
vn -0.413174 -0.8952819 -0.1661765
vn 0.5477328 -0.7954657 0.259375
vn -0.5132965 -0.8344976 0.2002451
vn -0.7783088 -0.5530025 0.2971814
vn -0.9140931 -0.3737132 0.1571691
vn 0.8035539 0.1958946 0.5621324
vn 0.9881127 0.1112132 -0.1064951
vn -0.7098039 -0.219424 0.6693627
vn -0.7304534 0.1731005 0.6606618
vn -0.6188725 -0.2384191 0.7484682
vn -0.4078431 0.556679 -0.7237132
vn -0.3538603 0.7989584 -0.4862132
vn -0.728125 0.5691177 -0.381924
vn -0.4538603 0.8810662 -0.1330882
vn -0.75 0.2357843 -0.6179534
vn -0.3539216 0.2178309 -0.9094976
vn -0.4136642 -0.04963235 -0.9090074
vn -0.9478554 -0.03970588 -0.3161765
vn -0.9921569 0.02291667 -0.1226103
vn -0.9448529 0.03296569 -0.3257353
vn -0.6596814 -0.7033088 0.2646446
vn -0.9299632 -0.1160539 0.3487745
vn -0.9384804 0.1139706 0.3257966
vn -0.6664829 -0.7117647 -0.2215686
vn -0.9327819 -0.1943015 -0.3034926
vn -0.7933823 -0.3189951 -0.5183824
vn -0.7890319 -0.0877451 -0.608027
vn -0.6938113 0.06256127 -0.717402
vn -0.4608456 0.1288603 -0.8780025
vn -0.7479166 -0.2938113 -0.5951593
vn -0.625674 -0.1293505 -0.7691789
vn -0.5627451 -0.5462623 -0.6202819
vn 0.4807598 -0.7485907 0.4566177
vn 0.1058211 -0.9269608 0.3597426
vn -0.8643382 -0.01519608 -0.5025123
vn 0.577451 -0.283701 0.765625
vn 0.2660539 -0.9476103 0.1765931
vn 0.0846201 -0.3794118 0.9213848
vn -0.9470588 0.02696078 0.3198529
vn -0.9654412 -0.2291054 0.1242034
vn -0.9352328 0.05245098 0.3500613
vn -0.9824755 0.1220588 -0.1408701
vn -0.915625 0.2324142 -0.3279412
vn -0.8452206 0.5125 -0.1511642
vn -0.6688725 0.7432598 -0.01415441
vn -0.3722427 0.9250613 0.07579657
vn -0.9196691 0.3915441 0.02898284
vn -0.6580882 0.7286765 0.1896446
vn -0.3023897 0.9286152 0.2150735
vn -0.922549 -0.253125 0.2911152
vn -0.958946 0.02310049 -0.2824755
vn -0.0122549 0.8752451 0.4836397
vn 0.6309437 -0.6836397 0.3667892
vn 0.819424 -0.5275735 0.2241422
vn 0.6129289 -0.6892157 0.3864583
vn -0.8783701 0.2439951 0.4109069
vn -0.9664215 -0.1118873 0.2313113
vn -0.473223 0.7689951 0.4298407
vn -0.7931373 -0.3401348 0.5052083
vn -0.7958333 0.04454657 -0.6038603
vn -0.8596201 -0.07120098 -0.505821
vn -0.889951 0.1318627 -0.4366422
vn -0.733701 -0.08817402 -0.6737132
vn 0.1641544 -0.7655637 -0.6219975
vn 0.06942402 -0.4500613 -0.8902574
vn 0.3884804 -0.2947304 -0.8731005
vn 0.008333334 -0.0377451 -0.9992647
vn 0.1811275 0.008210785 -0.9834559
vn 0.2705882 -0.03688725 -0.9619485
vn 0.5417892 0.2778799 0.7933211
vn -0.9472426 0.06360294 0.3140319
vn -0.9671569 -0.1254902 -0.2209559
vn -0.4398897 -0.1359681 -0.8876838
vn -0.5295343 -0.02935049 -0.8477328
vn -0.7678309 -0.01115196 -0.6405025
vn -0.0497549 -0.8207721 0.5690564
vn -0.4375 0.4135417 0.7984681
vn -0.6427696 0.5162377 0.5659314
vn 0.9014706 -0.3213235 0.2902574
vn 0.6818015 0.08670343 0.7264706
vn 0.4132353 -0.8952819 -0.1661765
vn -0.5476716 -0.7954657 0.259375
vn 0.5133578 -0.8344976 0.2002451
vn 0.7783701 -0.5530025 0.2971814
vn 0.9141544 -0.3737132 0.1571691
vn -0.8034927 0.1958946 0.5621324
vn -0.9880515 0.1112132 -0.1064951
vn 0.7305147 0.1731005 0.6606618
vn 0.7098652 -0.219424 0.6693627
vn 0.6189338 -0.2384191 0.7484682
# 172 vertex normals

# 0 texture coords

g hair
f 107//149 58//156 54//147
f 107//149 55//150 58//156
f 86//151 55//150 107//149
f 86//151 16//16 55//150
f 84//111 16//16 86//151
f 84//111 72//99 16//16
f 82//109 72//99 84//111
f 82//109 110//157 72//99
f 73//100 110//157 82//109
f 73//100 70//97 110//157
f 92//125 70//97 73//100
f 92//125 68//95 70//97
f 93//126 68//95 92//125
f 93//126 69//96 68//95
f 94//127 69//96 93//126
f 94//127 95//128 69//96
f 97//130 95//128 94//127
f 97//130 98//131 95//128
f 106//140 98//131 97//130
f 106//140 101//134 98//131
f 70//97 72//99 110//157
f 70//97 71//98 72//99
f 66//93 71//98 70//97
f 66//93 10//10 71//98
f 7//7 10//10 66//93
f 7//7 2//2 10//10
f 1//1 2//2 7//7
f 1//1 3//3 2//2
f 4//4 3//3 1//1
f 4//4 35//41 3//3
f 36//42 35//41 4//4
f 36//42 39//45 35//41
f 40//46 39//45 36//42
f 40//46 50//57 39//45
f 52//59 50//57 40//46
f 52//59 63//88 50//57
f 60//79 63//88 52//59
f 75//102 82//109 83//144
f 75//102 73//100 82//109
f 74//101 73//100 75//102
f 74//101 91//124 73//100
f 115//169 91//124 74//101
f 115//169 96//129 91//124
f 105//139 96//129 115//169
f 105//139 104//138 96//129
f 102//141 104//138 105//139
f 102//141 114//168 104//138
f 49//56 39//45 50//57
f 49//56 64//89 39//45
f 13//13 64//89 49//56
f 13//13 34//40 64//89
f 14//14 34//40 13//13
f 14//14 33//39 34//40
f 9//9 33//39 14//14
f 9//9 3//3 33//39
f 2//2 3//3 9//9
f 68//95 66//93 70//97
f 68//95 67//94 66//93
f 69//96 67//94 68//95
f 69//96 5//5 67//94
f 6//6 5//5 69//96
f 6//6 4//4 5//5
f 37//43 4//4 6//6
f 37//43 36//42 4//4
f 40//46 36//42 37//43
f 47//60 50//57 63//88
f 47//60 49//56 50//57
f 42//48 49//56 47//60
f 42//48 13//13 49//56
f 43//49 13//13 42//48
f 43//49 15//15 13//13
f 30//36 15//15 43//49
f 30//36 31//37 15//15
f 32//38 31//37 30//36
f 23//63 31//62 32//61
f 23//63 15//15 31//62
f 24//24 15//15 23//63
f 24//24 14//14 15//15
f 59//76 14//14 24//24
f 59//76 9//9 14//14
f 11//11 9//9 59//76
f 11//11 8//8 9//9
f 26//29 79//116 54//165
f 26//29 85//115 79//116
f 113//162 85//115 26//29
f 113//162 87//118 85//115
f 108//152 87//118 113//162
f 108//152 78//120 87//118
f 26//29 61//81 113//162
f 26//29 62//82 61//81
f 27//30 62//82 26//29
f 27//30 29//33 62//82
f 18//34 29//33 27//30
f 18//34 19//35 29//33
f 95//128 6//6 69//96
f 95//128 38//44 6//6
f 98//131 38//44 95//128
f 98//131 44//50 38//44
f 101//134 44//50 98//131
f 101//134 46//52 44//50
f 16//16 25//25 28//70
f 16//16 11//11 25//25
f 12//12 11//11 16//16
f 12//12 8//8 11//11
f 10//10 8//8 12//12
f 10//10 2//2 8//8
f 116//171 100//172 89//170
f 116//171 99//135 100//172
f 103//137 99//135 116//171
f 103//137 102//136 99//135
f 114//166 102//136 103//137
f 91//124 92//125 73//100
f 91//124 93//126 92//125
f 96//129 93//126 91//124
f 96//129 94//127 93//126
f 97//130 94//127 96//129
f 24//24 11//11 59//76
f 24//24 25//25 11//11
f 23//23 25//25 24//24
f 23//23 28//32 25//25
f 53//64 28//32 23//23
f 45//51 44//50 46//52
f 45//51 41//47 44//50
f 51//58 41//47 45//51
f 51//58 40//46 41//47
f 62//82 30//91 65//90
f 62//82 56//71 30//91
f 29//33 56//71 62//82
f 29//33 19//35 56//71
f 34//40 39//45 64//89
f 34//40 35//41 39//45
f 33//39 35//41 34//40
f 33//39 3//3 35//41
f 22//27 17//26 18//28
f 22//27 32//61 17//26
f 57//73 32//61 22//27
f 57//73 23//63 32//61
f 90//143 109//154 81//112
f 90//143 83//144 109//154
f 88//142 83//144 90//143
f 88//142 75//102 83//144
f 75//102 100//133 74//101
f 75//102 89//122 100//133
f 88//121 89//122 75//102
f 88//121 90//123 89//122
f 90//123 108//153 89//122
f 90//123 78//105 108//153
f 77//104 78//105 90//123
f 77//104 76//103 78//105
f 104//138 97//130 96//129
f 104//138 112//160 97//130
f 114//168 112//160 104//138
f 114//168 111//159 112//160
f 54//65 20//67 21//66
f 54//65 53//69 20//67
f 58//75 53//69 54//65
f 58//75 55//68 53//69
f 107//145 83//110 86//117
f 107//145 109//155 83//110
f 81//108 109//155 107//145
f 65//90 42//54 48//55
f 65//90 43//92 42//54
f 30//91 43//92 65//90
f 21//31 26//29 54//85
f 21//31 27//30 26//29
f 22//84 27//30 21//31
f 48//55 45//78 46//77
f 48//55 51//80 45//78
f 60//87 51//80 48//55
f 48//55 63//86 60//87
f 48//55 47//53 63//86
f 42//54 47//53 48//55
f 37//43 41//47 40//46
f 37//43 38//44 41//47
f 6//6 38//44 37//43
f 103//137 111//167 114//166
f 103//137 106//161 111//167
f 101//158 106//161 103//137
f 74//101 105//139 115//169
f 74//101 99//132 105//139
f 100//133 99//132 74//101
f 84//111 83//110 82//109
f 84//111 86//117 83//110
f 56//72 32//38 30//36
f 56//72 19//19 32//38
f 19//19 17//17 32//38
f 19//19 18//18 17//17
f 112//160 106//140 97//130
f 112//160 111//159 106//140
f 55//68 28//70 53//69
f 55//68 16//16 28//70
f 77//113 81//112 76//114
f 77//113 90//143 81//112
f 72//99 12//12 16//16
f 72//99 71//98 12//12
f 80//148 54//147 79//146
f 80//148 107//149 54//147
f 85//115 76//119 81//163
f 85//115 87//118 76//119
f 113//162 89//170 108//152
f 113//162 116//171 89//170
f 80//107 81//108 107//145
f 80//107 79//106 81//108
f 103//137 46//77 101//158
f 103//137 48//55 46//77
f 52//59 51//58 60//79
f 52//59 40//46 51//58
f 67//94 7//7 66//93
f 67//94 5//5 7//7
f 57//74 53//64 23//23
f 57//74 22//22 53//64
f 22//22 20//20 53//64
f 22//22 21//21 20//20
f 5//5 1//1 7//7
f 5//5 4//4 1//1
f 85//115 81//164 79//116
f 76//119 87//118 78//120
f 102//141 105//139 99//132
f 18//34 27//30 22//83
f 10//10 12//12 71//98
f 41//47 38//44 44//50
f 15//15 14//14 13//13
f 2//2 9//9 8//8
# 223 faces

