# RFL_Res.dat Editor OBJ Exporter v1.3 - (c) 2018 Atlas Vryzas Software

#
# object hair
#

v  0.007843138 31.57647 -34.35294
v  -10.17255 43.61176 -34.13334
v  0.007843138 42.83529 -29.24706
v  -8.6 33.28627 -37.72941
v  -8.788236 39.71373 -44.47843
v  -10.24706 48.16471 -43.90196
v  0.007843138 46.92157 -48.27451
v  0.007843138 41.42353 -47.8549
v  -11 50.28627 -32.45098
v  0.007843138 51.18039 -26.6549
v  -11.0902 56.44314 -42.5098
v  0.007843138 58.27059 -47.54118
v  -10.12941 54.62745 -30.2
v  0.007843138 54.94118 -25.11373
v  -10.23137 65.01569 -37.29804
v  0.007843138 68.46275 -40.84706
v  -7.768628 69.4902 -29.30196
v  -5.113726 63.39216 -22.36863
v  -7.698039 58.4549 -26.5098
v  -3.701961 32.47059 -47.90981
v  0.007843138 33.63137 -49.38039
v  -4.101961 69.48235 -22.18431
v  0.007843138 62.31372 -12.83922
v  -26.96078 35 5
v  -27.2902 43 4
v  -23.97647 42.21569 11.47451
v  -28 42.50196 -4.533333
v  -24.71373 53.73333 4.431373
v  -22.74902 49.12549 13.67451
v  -25.28627 52.42353 -5.313725
v  -24.71373 27 9
v  0.007843138 44.43137 11.47059
v  -26.53725 31 0
v  -21.72157 49.23922 17.64706
v  -15.45098 56.50196 22.30588
v  -16.07059 50.02745 24.47451
v  -20.78039 55.8 15.99608
v  -13.85882 62.23922 18.83922
v  -7.243137 62.67059 22.33726
v  0.03529412 67.26275 16.88627
v  0.01960784 62.83921 23.54902
v  -5.921568 67.1451 15.91373
v  -10.29412 22.92549 -30.01569
v  0 9.631372 -19.10196
v  0.007843138 22.37255 -31.53725
v  -10.66667 10.89412 -18.37647
v  -19.92157 24.53333 -25.59608
v  -18.66667 15.55686 -13.8902
v  -10.61961 33.69412 -33.66275
v  0.007843138 33.12549 -34.72941
v  -10.83529 45.66275 -33.30196
v  0.007843138 46.27451 -34.99608
v  0.007843138 65.55294 -18.82353
v  -10.6 67.4902 -6
v  -10.83529 63.99608 -17.92157
v  0 69.24313 -6.309804
v  0 69.8353 6.121569
v  -10.6 68.13725 5.823529
v  -19.77255 43.87451 -26.6
v  -20.57255 58.23137 -16.12941
v  -10.83529 56.18039 -27.22745
v  -19.71373 61.16863 -1.2
v  -25.73333 33.69412 -16.29412
v  -24 21.9098 -9.019608
v  -26.24314 44.42745 -13.21961
v  0.007843138 57.33725 -28.60784
v  -17.89804 61.65098 11.8549
v  -8.415687 50.64314 28.83137
v  0.007843138 57.25882 27.72549
v  0.007843138 50.87843 30.32941
v  -8.086274 57.04706 26.33333
v  -24.67451 35 10.14902
v  -5.901961 30.59608 -45.35294
v  -4.372549 28.55686 -43.11372
v  0.007843138 27.4 -41.8
v  0.007843138 71.52941 -22.09412
v  0.007843138 73.00784 -30.70196
v  -21.86275 42.4353 18.21177
v  -8.254902 43.84706 29.67059
v  0.007843138 44.07843 31.2
v  -15.76471 43.22745 25.20784
v  0.007843138 61.3451 -22.45882
v  10.19216 43.61176 -34.13334
v  8.623529 33.28627 -37.72941
v  8.807843 39.71373 -44.47843
v  10.26667 48.16471 -43.90196
v  11.01961 50.28627 -32.45098
v  11.1098 56.44314 -42.5098
v  10.14902 54.62745 -30.2
v  10.25098 65.01569 -37.29804
v  5.137255 63.39216 -22.36863
v  7.788235 69.4902 -29.30196
v  7.717647 58.4549 -26.5098
v  0.007843138 26.37647 -53
v  4.392157 28.55686 -43.11372
v  5.921569 30.59608 -45.35294
v  4.121569 69.48235 -22.18431
v  27.31373 43 4
v  26.98431 35 5
v  23.99608 42.21569 11.47451
v  28.01961 42.50196 -4.533333
v  22.76863 49.12549 13.67451
v  24.73726 53.73333 4.431373
v  25.30588 52.42353 -5.313725
v  24.73333 27 9
v  26.55686 31 0
v  15.47451 56.50196 22.30588
v  21.74118 49.23922 17.64706
v  16.0902 50.02745 24.47451
v  20.80392 55.8 15.99608
v  13.91765 62.27059 18.89804
v  7.290196 62.68628 22.36471
v  6 67.16862 15.9451
v  10.31373 22.92549 -30.01569
v  10.67059 10.89412 -18.37647
v  19.94118 24.53333 -25.59608
v  18.67059 15.55686 -13.8902
v  10.63922 33.69412 -33.66275
v  10.85882 45.66275 -33.30196
v  10.60392 67.4902 -6
v  10.85882 63.99608 -17.92157
v  10.60392 68.13725 5.823529
v  19.79216 43.87451 -26.6
v  20.59608 58.23137 -16.12941
v  10.85882 56.18039 -27.22745
v  19.73333 61.16863 -1.2
v  24 21.9098 -9.019608
v  25.75294 33.69412 -16.29412
v  26.26274 44.42745 -13.21961
v  17.93726 61.67059 11.88235
v  8.435294 50.64314 28.83137
v  8.105883 57.04706 26.33333
v  24.69804 35 10.14902
v  21.88627 42.4353 18.21177
v  8.274509 43.84706 29.67059
v  15.78431 43.22745 25.20784
v  3.72549 32.47059 -47.90981
# 137 vertices

vn 0 -0.6760417 0.7368873
vn -0.8412377 -0.2780637 0.4636642
vn 0 -0.3372549 0.9414216
vn -0.8208333 -0.5264706 0.2214461
vn -0.7696078 -0.1016544 -0.6303309
vn -0.8204044 -0.0408701 -0.5702206
vn 0 -0.006127451 -1
vn 0 0.09693628 -0.9952819
vn -0.8407475 -0.1878064 0.5078431
vn 0 -0.3547794 0.9349877
vn -0.855576 0.2426471 -0.4571691
vn 0 0.2496936 -0.9683211
vn -0.796875 -0.1521446 0.5846814
vn 0 -0.4575368 0.8892157
vn -0.8447304 0.5124387 -0.1541054
vn 0 0.6972426 -0.7169118
vn -0.7854167 0.572304 0.2358456
vn -0.7104167 -0.2868873 0.6426471
vn -0.7927696 -0.1340686 0.5945466
vn -0.5602941 0.1327206 -0.8175245
vn 0 0.3210784 -0.9470588
vn -0.7030025 0.4994485 0.5063726
vn 0 -0.1047181 0.9945466
vn -0.9683824 -0.06844363 0.239951
vn -0.9676471 0.1235907 0.220098
vn -0.913174 0.01979167 0.4070466
vn -0.9984069 0.03768382 -0.04203431
vn -0.9068627 0.3943627 0.1482843
vn -0.931679 0.140625 0.3348652
vn -0.9270833 0.3698529 -0.06041666
vn 0.4726103 -0.7382966 0.4811887
vn 0.1370711 -0.4927696 0.8593137
vn 0.3798407 -0.9067402 0.1829657
vn -0.7639093 0.2011642 0.6132353
vn -0.6003064 0.4233456 0.6785539
vn -0.6384804 0.1889093 0.7461397
vn -0.8070466 0.4301471 0.4045343
vn -0.5324142 0.7154412 0.452451
vn -0.2449755 0.696201 0.6747549
vn -0.00245098 0.8910539 0.4539216
vn -0.002083333 0.7271446 0.6865809
vn -0.2185049 0.908701 0.3556985
vn -0.263174 -0.5422794 -0.7978554
vn 0 -0.6958333 -0.7181985
vn 0 -0.4465074 -0.8947304
vn -0.3985907 -0.6748162 -0.6209559
vn -0.7234069 -0.3720588 -0.5814951
vn -0.7351103 -0.573652 -0.3610294
vn -0.3547794 -0.1561887 -0.9218137
vn 0 -0.09307598 -0.9956495
vn -0.342647 0.1943015 -0.9191176
vn 0 0.3374387 -0.941299
vn 0 0.9124388 -0.4091912
vn -0.3791054 0.9091912 -0.1720588
vn -0.3119485 0.8178921 -0.4835784
vn 0 0.9916667 -0.1291054
vn -0.0007965686 0.9928309 0.1196691
vn -0.3924632 0.9154412 0.08927696
vn -0.7542279 0.1681985 -0.6346813
vn -0.7375613 0.5823529 -0.3417892
vn -0.3840686 0.5609682 -0.7333333
vn -0.7252451 0.6882966 -0.01709559
vn -0.9579657 -0.09883578 -0.2690564
vn -0.9192402 -0.3303309 -0.2140319
vn -0.9380515 0.1905637 -0.2891544
vn -0.9846201 -0.1740196 -0.01121324
vn 0 0.6867034 -0.7269608
vn -0.7107843 0.677451 0.189277
vn -0.3438725 0.2318627 0.9099265
vn -0.0004289215 0.4893995 0.8721201
vn 0 0.2096201 0.9778186
vn -0.3479779 0.4447917 0.8253676
vn 0.009252451 -0.1621324 0.9867035
vn 0.02285539 -0.2454657 0.9691176
vn -0.9137868 -0.01973039 0.4056373
vn -0.9564951 -0.141299 0.2550858
vn 0.0439951 -0.6974878 0.7152573
vn -0.8440564 -0.3709559 -0.3870711
vn -0.5210784 -0.8365809 0.1689951
vn 0 -0.9557598 0.2939951
vn 0 0.9196078 0.3929534
vn 0 0.9780637 -0.2083946
vn -0.2978554 -0.1322304 -0.9453431
vn 0 -0.8665441 -0.4990809
vn -0.3071078 -0.1905637 -0.932353
vn -0.1319853 -0.7481005 -0.6502451
vn 0.05569853 -0.9984069 -0.006862745
vn 0 -0.9998162 -0.01783088
vn 0.08946078 -0.9958333 0.01531863
vn 0.0254902 -0.3210784 0.9467524
vn 0.0223652 -0.3342524 0.9422181
vn -0.7642157 0.05251225 0.6428309
vn -0.5960785 0.06764706 0.8000613
vn -0.2960784 0.1132966 0.9484681
vn 0 0.1273284 0.9919118
vn 0 -0.7911765 0.6115809
vn 0.841299 -0.2780637 0.4636642
vn 0.8208946 -0.5264706 0.2214461
vn 0.7696691 -0.1016544 -0.6303309
vn 0.8204657 -0.0408701 -0.5702206
vn 0.8408088 -0.1878064 0.5078431
vn 0.8556373 0.2426471 -0.4571691
vn 0.796875 -0.1521446 0.5846814
vn 0.8447917 0.5124387 -0.1541054
vn 0.7104779 -0.2868873 0.6426471
vn 0.7854779 0.572304 0.2358456
vn 0.7928309 -0.1340686 0.5945466
vn 0 -0.6248162 -0.7807598
vn 0.5211397 -0.8365809 0.1689951
vn 0.8441176 -0.3709559 -0.3870711
vn 0.7030637 0.4994485 0.5063726
vn 0.9677083 0.1235907 0.220098
vn 0.9684436 -0.06844363 0.239951
vn 0.9132353 0.01979167 0.4070466
vn 0.9984682 0.03768382 -0.04203431
vn 0.9317402 0.140625 0.3348652
vn 0.9072917 0.3935662 0.1481005
vn 0.9271446 0.3698529 -0.06041666
vn -0.1370098 -0.4927696 0.8593137
vn -0.472549 -0.7382966 0.4811887
vn -0.3797794 -0.9067402 0.1829657
vn 0.600674 0.4191789 0.6808823
vn 0.7639706 0.2011642 0.6132353
vn 0.6385416 0.1889093 0.7461397
vn 0.8088848 0.4262868 0.405147
vn 0.534375 0.713174 0.453799
vn 0.2425858 0.69375 0.6781863
vn 0.2161765 0.9095588 0.3550858
vn 0.263174 -0.542402 -0.7977941
vn 0.398652 -0.6751226 -0.6206495
vn 0.7235294 -0.3723652 -0.5811887
vn 0.7351103 -0.5741422 -0.3604167
vn 0.3548407 -0.1561887 -0.9218137
vn 0.3427083 0.1943015 -0.9191176
vn 0.3788603 0.909375 -0.171875
vn 0.3120098 0.8179534 -0.4833946
vn 0.3921569 0.9158701 0.08682598
vn 0.7542892 0.1681985 -0.6346813
vn 0.7375613 0.5824755 -0.3417279
vn 0.3841299 0.5609682 -0.7333333
vn 0.7249388 0.6886029 -0.01789216
vn 0.9191176 -0.33125 -0.2135417
vn 0.9580269 -0.0992647 -0.2689338
vn 0.9381127 0.1905637 -0.2891544
vn 0.9846201 -0.1743873 -0.01121324
vn 0.7122549 0.6764706 0.1874387
vn 0.3439338 0.2318627 0.9099265
vn 0.3482843 0.4427083 0.8263481
vn -0.009191176 -0.1621324 0.9867035
vn -0.02279412 -0.2454657 0.9691176
vn 0.913848 -0.01973039 0.4056373
vn 0.9565564 -0.141299 0.2550858
vn -0.04393382 -0.6974878 0.7152573
vn 0.2979167 -0.1322304 -0.9453431
vn 0.3071691 -0.1905637 -0.932353
vn 0.1320466 -0.7481005 -0.6502451
vn -0.05563726 -0.9984069 -0.006862745
vn -0.08939951 -0.9958333 0.01531863
vn -0.02542892 -0.3210784 0.9467524
vn -0.02230392 -0.3342524 0.9422181
vn 0.764277 0.05251225 0.6428309
vn 0.5961397 0.06764706 0.8000613
vn 0.2961397 0.1132966 0.9484681
vn 0.5603554 0.1327206 -0.8175245
# 164 vertex normals

# 0 texture coords

g hair
f 73//78 5//5 20//20
f 73//78 4//4 5//5
f 74//79 4//4 73//78
f 74//79 1//1 4//4
f 75//80 1//1 74//79
f 75//80 95//109 1//1
f 94//108 95//109 75//80
f 94//108 96//110 95//109
f 137//164 96//110 94//108
f 137//164 85//99 96//110
f 8//8 85//99 137//164
f 8//8 7//7 85//99
f 5//5 7//7 8//8
f 5//5 6//6 7//7
f 2//2 6//6 5//5
f 2//2 9//9 6//6
f 3//3 9//9 2//2
f 3//3 10//10 9//9
f 87//101 10//10 3//3
f 87//101 89//103 10//10
f 88//102 89//103 87//101
f 88//102 90//104 89//103
f 16//16 90//104 88//102
f 16//16 77//82 90//104
f 15//15 77//82 16//16
f 15//15 17//17 77//82
f 19//19 17//17 15//15
f 19//19 18//18 17//17
f 14//14 18//18 19//19
f 14//14 82//96 18//18
f 91//105 82//96 14//14
f 91//105 23//23 82//96
f 97//111 23//23 91//105
f 97//111 76//81 23//23
f 92//106 76//81 97//111
f 92//106 77//82 76//81
f 90//104 77//82 92//106
f 131//147 70//71 135//163
f 131//147 69//70 70//71
f 132//148 69//70 131//147
f 132//148 112//127 69//70
f 107//122 112//127 132//148
f 107//122 111//126 112//127
f 110//125 111//126 107//122
f 110//125 130//146 111//126
f 103//117 130//146 110//125
f 103//117 126//141 130//146
f 104//118 126//141 103//117
f 104//118 124//139 126//141
f 129//144 124//139 104//118
f 129//144 123//138 124//139
f 128//143 123//138 129//144
f 128//143 116//131 123//138
f 127//142 116//131 128//143
f 127//142 117//132 116//131
f 115//130 116//131 117//132
f 115//130 114//129 116//131
f 44//44 114//129 115//130
f 44//44 45//45 114//129
f 43//43 45//45 44//44
f 43//43 49//49 45//45
f 47//47 49//49 43//43
f 47//47 59//59 49//49
f 63//63 59//59 47//47
f 63//63 65//65 59//59
f 27//27 65//65 63//63
f 27//27 30//30 65//65
f 25//25 30//30 27//27
f 25//25 28//28 30//30
f 29//29 28//28 25//25
f 29//29 37//37 28//28
f 69//70 68//69 70//71
f 69//70 71//72 68//69
f 39//39 71//72 69//70
f 39//39 35//35 71//72
f 38//38 35//35 39//39
f 38//38 37//37 35//35
f 67//68 37//37 38//38
f 67//68 28//28 37//37
f 62//62 28//28 67//68
f 62//62 30//30 28//28
f 60//60 30//30 62//62
f 60//60 65//65 30//30
f 59//59 65//65 60//60
f 126//141 122//137 130//146
f 126//141 120//135 122//137
f 124//139 120//135 126//141
f 124//139 121//136 120//135
f 125//140 121//136 124//139
f 125//140 66//67 121//136
f 52//52 66//67 125//140
f 52//52 61//61 66//67
f 51//51 61//61 52//52
f 51//51 59//59 61//61
f 49//49 59//59 51//51
f 25//25 26//26 29//29
f 25//25 24//24 26//26
f 27//27 24//24 25//25
f 27//27 33//66 24//24
f 63//63 33//66 27//27
f 63//63 64//64 33//66
f 47//47 64//64 63//63
f 47//47 48//48 64//64
f 46//46 48//48 47//47
f 122//137 111//126 130//146
f 122//137 113//128 111//126
f 57//57 113//128 122//137
f 57//57 40//40 113//128
f 42//42 40//40 57//57
f 42//42 39//39 40//40
f 38//38 39//39 42//42
f 70//71 80//95 135//163
f 70//71 79//94 80//95
f 68//69 79//94 70//71
f 68//69 81//93 79//94
f 36//36 81//93 68//69
f 36//36 78//92 81//93
f 34//34 78//92 36//36
f 60//60 61//61 59//59
f 60//60 55//55 61//61
f 54//54 55//55 60//60
f 54//54 53//53 55//55
f 56//56 53//53 54//54
f 56//56 120//135 53//53
f 122//137 120//135 56//56
f 123//138 125//140 124//139
f 123//138 119//134 125//140
f 118//133 119//134 123//138
f 118//133 50//50 119//134
f 45//45 50//50 118//133
f 45//45 49//49 50//50
f 102//116 103//117 110//125
f 102//116 98//112 103//117
f 100//114 98//112 102//116
f 100//114 99//113 98//112
f 133//151 99//113 100//114
f 133//151 105//152 99//113
f 56//56 57//57 122//137
f 56//56 58//58 57//57
f 54//54 58//58 56//56
f 54//54 62//62 58//58
f 60//60 62//62 54//54
f 91//105 92//106 97//111
f 91//105 93//107 92//106
f 14//14 93//107 91//105
f 14//14 89//103 93//107
f 10//10 89//103 14//14
f 23//23 18//18 82//96
f 23//23 22//22 18//18
f 76//81 22//22 23//23
f 76//81 17//17 22//22
f 77//82 17//17 76//81
f 1//1 3//3 2//2
f 1//1 83//97 3//3
f 84//98 83//97 1//1
f 84//98 85//99 83//97
f 96//110 85//99 84//98
f 109//124 132//148 131//147
f 109//124 107//122 132//148
f 108//123 107//122 109//124
f 108//123 110//125 107//122
f 136//162 131//147 135//163
f 136//162 109//124 131//147
f 134//161 109//124 136//162
f 134//161 108//123 109//124
f 106//145 99//113 105//152
f 106//145 101//115 99//113
f 128//143 101//115 106//145
f 128//143 129//144 101//115
f 20//20 94//108 73//78
f 20//20 21//21 94//108
f 8//8 21//21 20//20
f 8//8 137//164 21//21
f 83//97 87//101 3//3
f 83//97 86//100 87//101
f 85//99 86//100 83//97
f 85//99 7//7 86//100
f 86//100 88//102 87//101
f 86//100 12//12 88//102
f 7//7 12//12 86//100
f 7//7 6//6 12//12
f 12//12 16//16 88//102
f 12//12 11//11 16//16
f 6//6 11//11 12//12
f 6//6 9//9 11//11
f 11//11 15//15 16//16
f 11//11 13//13 15//15
f 9//9 13//13 11//11
f 9//9 10//10 13//13
f 104//118 101//115 129//144
f 104//118 98//112 101//115
f 103//117 98//112 104//118
f 32//119 102//159 110//160
f 32//119 100//150 102//159
f 133//149 100//150 32//119
f 32//32 33//33 64//77
f 32//32 31//31 33//33
f 72//73 31//31 32//32
f 41//41 69//70 112//127
f 41//41 39//39 69//70
f 40//40 39//39 41//41
f 13//13 19//19 15//15
f 13//13 14//14 19//19
f 10//10 14//14 13//13
f 116//131 118//133 123//138
f 116//131 114//129 118//133
f 108//154 32//84 110//155
f 108//154 134//156 32//84
f 136//158 32//84 134//156
f 136//158 135//157 32//84
f 67//68 58//58 62//62
f 67//68 38//38 58//58
f 121//136 53//53 120//135
f 121//136 66//67 53//53
f 42//42 58//58 38//38
f 42//42 57//57 58//58
f 55//55 66//67 61//61
f 55//55 53//53 66//67
f 51//51 50//50 49//49
f 51//51 52//52 50//50
f 80//88 32//84 135//157
f 80//88 79//87 32//84
f 106//121 32//119 127//153
f 106//121 105//120 32//119
f 74//79 94//108 75//80
f 74//79 73//78 94//108
f 29//90 32//32 37//91
f 29//90 26//74 32//32
f 34//83 32//84 78//86
f 34//83 37//85 32//84
f 90//104 93//107 89//103
f 90//104 92//106 93//107
f 81//89 32//84 79//87
f 81//89 78//86 32//84
f 4//4 2//2 5//5
f 4//4 1//1 2//2
f 31//76 24//24 33//66
f 31//76 72//75 24//24
f 84//98 95//109 96//110
f 84//98 1//1 95//109
f 43//43 46//46 47//47
f 43//43 44//44 46//46
f 34//34 35//35 37//37
f 34//34 36//36 35//35
f 113//128 112//127 111//126
f 113//128 40//40 112//127
f 71//72 36//36 68//69
f 71//72 35//35 36//36
f 119//134 52//52 125//140
f 119//134 50//50 52//52
f 105//120 133//149 32//119
f 26//74 72//73 32//32
f 127//142 128//143 106//145
f 99//113 101//115 98//112
f 26//26 24//24 72//75
f 114//129 45//45 118//133
f 41//41 112//127 40//40
f 21//21 137//164 94//108
f 18//18 22//22 17//17
f 5//5 8//8 20//20
# 260 faces

