# RFL_Res.dat Editor OBJ Exporter v1.3 - (c) 2018 Atlas Vryzas Software

#
# object hair
#

v  19 2 -10.66667
v  15 1 -17.94118
v  13.33333 -4 -14.66667
v  7 0 -21.32941
v  28.63137 31.45098 0
v  26.67059 23.39216 -10.85882
v  27.3098 21.33333 -2.666667
v  19.78823 24.19608 -25.38039
v  12.03529 10.67059 -25.32941
v  19.45098 13.43529 -20
v  11.3098 21.33333 -30.66667
v  0 9.333333 -26.66667
v  0 20 -32
v  26.67059 33.33333 -16
v  19.85098 33.70196 -26.09804
v  11.3098 33.43922 -33.51765
v  10.60392 67.4902 -6
v  0 68.58039 6.121569
v  0 69.24313 -6.309804
v  10.60392 66.88235 5.823529
v  10.60392 63.99608 -17.63922
v  0 65.56863 -18.54902
v  0 33.43922 -35.24314
v  10.60392 45.50588 -33.15294
v  0 46.12549 -34.86274
v  18.76471 58.18431 -15.83922
v  25.44314 52.96078 -2.866667
v  18.76471 61.06274 4.870588
v  19.78823 43.70588 -26.39216
v  26.67059 44 -12.90196
v  10.60392 56.11765 -27.02353
v  0 57.28627 -28.41961
v  6 6.145098 -14.41569
v  13.52549 7.360785 -12.88627
v  -6 6.145098 -14.41569
v  0 -6.666667 -17.32941
v  12.81961 35.99216 2.564706
v  24 10.67059 -6.666667
v  28 42.67059 -1.427451
v  0 48 32
v  0 58 28
v  5.913725 47 30
v  12.91373 41 28
v  12.91373 47 30
v  19.0902 45 25
v  0 65.26275 18.13725
v  10.18824 63.62353 17.27059
v  10.19216 57 26
v  19.0902 51.7098 20
v  19.09412 58 14
v  24.98039 52.42353 9.058824
v  26.27451 40.3451 13.94902
v  0 51.11372 2.588235
v  0 42 31
v  22.58431 37 22
v  25.33333 29 17
v  26.67059 22.67059 10.67059
v  0 1.333333 -22.66667
v  -15 1 -17.94118
v  -19 2 -10.66667
v  -13.32941 -4 -14.66667
v  -7 0 -21.32941
v  -26.66667 23.39216 -10.85882
v  -28.62745 31.45098 0
v  -27.30588 21.33333 -2.666667
v  -12.03137 10.67059 -25.32941
v  -19.78431 24.19608 -25.38039
v  -19.44706 13.43529 -20
v  -11.30588 21.33333 -30.66667
v  -26.66667 33.33333 -16
v  -19.84706 33.70196 -26.09804
v  -11.30588 33.43922 -33.51765
v  -10.6 67.4902 -6
v  -10.6 66.88235 5.823529
v  -10.6 63.99608 -17.63922
v  -10.6 45.50588 -33.15294
v  -25.43922 52.96078 -2.866667
v  -18.76078 58.18431 -15.83922
v  -18.76078 61.06274 4.870588
v  -26.66667 44 -12.90196
v  -19.78431 43.70588 -26.39216
v  -10.6 56.11765 -27.02353
v  -13.52157 7.360785 -12.88627
v  -12.81569 35.99216 2.564706
v  -24 10.67059 -6.666667
v  -28 42.67059 -1.427451
v  -5.909804 47 30
v  -12.9098 47 30
v  -12.9098 41 28
v  -19.08628 45 25
v  -10.18431 63.62353 17.27059
v  -10.18824 57 26
v  -19.08628 51.7098 20
v  -19.0902 58 14
v  -24.97647 52.42353 9.058824
v  -26.27059 40.3451 13.94902
v  -22.58039 37 22
v  -25.32941 29 17
v  -26.66667 22.67059 10.67059
# 99 vertices

vn 0.8331495 -0.4012255 -0.3806373
vn 0.6280025 -0.4739583 -0.6171569
vn 0.6041054 -0.567647 -0.5593137
vn 0.2136642 -0.5033088 -0.8371936
vn 0.9996324 -0.01243873 0.02542892
vn 0.9422794 -0.1998162 -0.2685662
vn 0.9772671 -0.1744485 -0.1205882
vn 0.7430147 -0.2185049 -0.632598
vn 0.4318627 -0.4040441 -0.8063725
vn 0.8001838 -0.3305147 -0.5004289
vn 0.3835171 -0.2906863 -0.8765318
vn 0 -0.4362132 -0.8998162
vn 0 -0.3054534 -0.9522059
vn 0.9379289 -0.02083333 -0.3460784
vn 0.7109681 -0.06452206 -0.7003064
vn 0.4083333 -0.0966299 -0.9076593
vn 0.4112745 0.9078431 -0.08155637
vn 0 0.9922794 0.1243873
vn 0 0.984375 -0.1762868
vn 0.342402 0.9221814 0.1800858
vn 0.3173407 0.8341912 -0.4511029
vn 0 0.8800245 -0.4749387
vn 0 -0.05569853 -0.9984682
vn 0.3517157 0.215625 -0.9109069
vn 0 0.3528186 -0.9357231
vn 0.729228 0.5996324 -0.3296569
vn 0.8898284 0.4507966 -0.0716299
vn 0.6835172 0.7253064 0.08302696
vn 0.7474877 0.2072917 -0.6311275
vn 0.9294118 0.2436887 -0.2772672
vn 0.4047794 0.5634804 -0.7201593
vn 0 0.6867034 -0.7269608
vn -0.1193627 -0.422549 0.8984069
vn -0.3235907 -0.2734069 0.9058824
vn -0.5077819 -0.3001226 0.8075368
vn 0.119424 -0.422549 0.8984069
vn 0 -0.4943627 0.8693015
vn -0.4931985 -0.5735294 0.6541054
vn 0.03363971 -0.3063113 0.9514093
vn -0.2159314 -0.9262868 0.3086397
vn -0.2868873 -0.3182598 0.9035539
vn 0.9913603 0.1313113 -0.001654412
vn 0 0.104473 0.9945466
vn 0 0.5948529 0.8038603
vn 0.1810049 0.111826 0.9771446
vn 0.289277 -0.3026961 0.9081495
vn 0.4267157 0.1545956 0.8911152
vn 0.7705882 0.1867647 0.6094363
vn 0 0.9229779 0.3849265
vn 0.396875 0.8166054 0.4192402
vn 0.415625 0.5398897 0.7320465
vn 0.749326 0.4070466 0.5224878
vn 0.6887867 0.6120711 0.3886029
vn 0.8841912 0.4055147 0.2321691
vn 0.9333333 0.1502451 0.3262868
vn 0 -0.9596814 0.2810662
vn -0.5139706 -0.8428922 0.159375
vn 0 -0.1643995 0.9863971
vn 0.8829044 0.1191789 0.454228
vn -0.7620711 -0.5018382 0.4091299
vn -0.2053922 -0.940625 -0.2699142
vn 0.9624387 0.008088236 0.2715686
vn 0.9813113 0.01439951 0.1922794
vn -0.6370098 -0.7554534 -0.1529412
vn -0.7511642 -0.528125 0.3958333
vn 0 -0.5019608 -0.8648284
vn 0 -0.5546569 -0.8319853
vn 0.9096201 -0.2966299 -0.2909314
vn -0.7454044 -0.5481617 0.3792279
vn -0.4771446 -0.1273284 0.8695466
vn 0.7276961 -0.4571078 0.5114583
vn -0.6279412 -0.4739583 -0.6171569
vn -0.8330882 -0.4012255 -0.3806373
vn -0.6040441 -0.567647 -0.5593137
vn -0.2136029 -0.5033088 -0.8371936
vn -0.9422181 -0.1998162 -0.2685662
vn -0.9995711 -0.01243873 0.02542892
vn -0.9772059 -0.1744485 -0.1205882
vn -0.4318015 -0.4040441 -0.8063725
vn -0.7429534 -0.2185049 -0.632598
vn -0.8001226 -0.3305147 -0.5004289
vn -0.3834559 -0.2906863 -0.8765318
vn -0.9378676 -0.02083333 -0.3460784
vn -0.7109069 -0.06452206 -0.7003064
vn -0.4082721 -0.0966299 -0.9076593
vn -0.4112132 0.9078431 -0.08155637
vn -0.3423407 0.9221814 0.1800858
vn -0.3172794 0.8341912 -0.4511029
vn -0.3516544 0.215625 -0.9109069
vn -0.8897672 0.4507966 -0.0716299
vn -0.7291667 0.5996324 -0.3296569
vn -0.6834559 0.7253064 0.08302696
vn -0.9293505 0.2436887 -0.2772672
vn -0.7474265 0.2072917 -0.6311275
vn -0.4047181 0.5634804 -0.7201593
vn 0.323652 -0.2734069 0.9058824
vn 0.5078431 -0.3001226 0.8075368
vn 0.4932598 -0.5735294 0.6541054
vn -0.03357843 -0.3063113 0.9514093
vn 0.2159926 -0.9262868 0.3086397
vn 0.2869485 -0.3182598 0.9035539
vn -0.991299 0.1313113 -0.001654412
vn -0.1809436 0.111826 0.9771446
vn -0.4266544 0.1545956 0.8911152
vn -0.2892157 -0.3026961 0.9081495
vn -0.7705269 0.1867647 0.6094363
vn -0.3968137 0.8166054 0.4192402
vn -0.4155637 0.5398897 0.7320465
vn -0.7492647 0.4070466 0.5224878
vn -0.6887255 0.6120711 0.3886029
vn -0.8841299 0.4055147 0.2321691
vn -0.9332721 0.1502451 0.3262868
vn -0.8828431 0.1191789 0.454228
vn 0.7621323 -0.5018382 0.4091299
vn 0.5140319 -0.8428922 0.159375
vn 0.02910539 -0.9893995 -0.1420956
vn -0.6018382 -0.7604167 -0.2438726
vn 0.2054534 -0.940625 -0.2699142
vn -0.9623774 0.008088236 0.2715686
vn -0.98125 0.01439951 0.1922794
vn 0.6370711 -0.7554534 -0.1529412
vn 0.7512255 -0.528125 0.3958333
vn -0.9095588 -0.2966299 -0.2909314
vn 0.7454657 -0.5481617 0.3792279
vn 0.4772059 -0.1273284 0.8695466
vn -0.7276348 -0.4571078 0.5114583
vn -0.02904412 -0.9893995 -0.1420956
vn 0.6018995 -0.7604167 -0.2438726
# 128 vertex normals

# 0 texture coords

g hair
f 5//5 56//62 57//63
f 5//5 52//55 56//62
f 39//42 52//55 5//5
f 39//42 51//54 52//55
f 27//27 51//54 39//42
f 27//27 28//28 51//54
f 26//26 28//28 27//27
f 26//26 17//17 28//28
f 21//21 17//17 26//26
f 21//21 19//19 17//17
f 22//22 19//19 21//21
f 22//22 75//88 19//19
f 32//32 75//88 22//22
f 32//32 82//95 75//88
f 25//25 82//95 32//32
f 25//25 76//89 82//95
f 23//23 76//89 25//25
f 23//23 72//85 76//89
f 13//13 72//85 23//23
f 13//13 69//82 72//85
f 12//12 69//82 13//13
f 12//12 66//79 69//82
f 62//75 66//79 12//12
f 62//75 59//72 66//79
f 61//74 59//72 62//75
f 61//74 60//73 59//72
f 51//54 49//52 52//55
f 51//54 50//53 49//52
f 28//28 50//53 51//54
f 28//28 47//50 50//53
f 20//20 47//50 28//28
f 20//20 46//49 47//50
f 18//18 46//49 20//20
f 18//18 74//87 46//49
f 73//86 74//87 18//18
f 73//86 79//92 74//87
f 78//91 79//92 73//86
f 78//91 77//90 79//92
f 80//93 77//90 78//91
f 80//93 86//102 77//90
f 70//83 86//102 80//93
f 70//83 64//77 86//102
f 63//76 64//77 70//83
f 63//76 65//78 64//77
f 85//123 65//78 63//76
f 31//31 25//25 32//32
f 31//31 24//24 25//25
f 29//29 24//24 31//31
f 29//29 16//16 24//24
f 15//15 16//16 29//29
f 15//15 11//11 16//16
f 8//8 11//11 15//15
f 8//8 9//9 11//11
f 10//10 9//9 8//8
f 10//10 2//2 9//9
f 1//1 2//2 10//10
f 1//1 3//3 2//2
f 52//55 55//59 56//62
f 52//55 45//48 55//59
f 49//52 45//48 52//55
f 49//52 44//47 45//48
f 48//51 44//47 49//52
f 48//51 42//45 44//47
f 41//44 42//45 48//51
f 41//44 40//43 42//45
f 87//103 40//43 41//44
f 87//103 54//58 40//43
f 17//17 20//20 28//28
f 17//17 18//18 20//20
f 19//19 18//18 17//17
f 19//19 73//86 18//18
f 75//88 73//86 19//19
f 75//88 78//91 73//86
f 82//95 78//91 75//88
f 82//95 81//94 78//91
f 76//89 81//94 82//95
f 76//89 72//85 81//94
f 96//112 86//102 64//77
f 96//112 95//111 86//102
f 93//109 95//111 96//112
f 93//109 94//110 95//111
f 92//108 94//110 93//109
f 92//108 91//107 94//110
f 41//44 91//107 92//108
f 41//44 46//49 91//107
f 47//50 46//49 41//44
f 21//21 32//32 22//22
f 21//21 31//31 32//32
f 26//26 31//31 21//21
f 26//26 29//29 31//31
f 30//30 29//29 26//26
f 30//30 14//14 29//29
f 39//42 14//14 30//30
f 39//42 5//5 14//14
f 10//10 38//68 1//1
f 10//10 6//6 38//68
f 8//8 6//6 10//10
f 8//8 14//14 6//6
f 15//15 14//14 8//8
f 15//15 29//29 14//14
f 81//94 80//93 78//91
f 81//94 70//83 80//93
f 71//84 70//83 81//94
f 71//84 67//80 70//83
f 69//82 67//80 71//84
f 69//82 66//79 67//80
f 35//36 61//97 62//124
f 35//36 83//96 61//97
f 84//98 83//96 35//36
f 84//98 85//101 83//96
f 65//99 85//101 84//98
f 98//119 64//77 99//120
f 98//119 96//112 64//77
f 97//113 96//112 98//119
f 97//113 90//106 96//112
f 90//115 53//56 89//118
f 90//115 84//98 53//56
f 97//114 84//98 90//115
f 97//114 98//122 84//98
f 90//106 93//109 96//112
f 90//106 88//104 93//109
f 89//105 88//104 90//106
f 89//105 87//103 88//104
f 95//111 77//90 86//102
f 95//111 79//92 77//90
f 94//110 79//92 95//111
f 94//110 91//107 79//92
f 3//35 33//33 4//69
f 3//35 34//34 33//33
f 1//70 34//34 3//35
f 1//70 38//41 34//34
f 67//80 63//76 70//83
f 67//80 68//81 63//76
f 66//79 68//81 67//80
f 66//79 59//72 68//81
f 53//56 42//127 54//128
f 53//56 43//61 42//127
f 45//57 43//61 53//56
f 36//37 35//36 62//126
f 36//37 33//33 35//36
f 4//71 33//33 36//37
f 6//6 7//7 38//68
f 6//6 5//5 7//7
f 14//14 5//5 6//6
f 4//4 2//2 3//3
f 4//4 9//9 2//2
f 12//12 9//9 4//4
f 58//66 62//75 12//12
f 58//66 36//67 62//75
f 4//4 36//67 58//66
f 37//38 53//56 33//33
f 37//38 45//57 53//56
f 55//60 45//57 37//38
f 37//38 56//65 55//60
f 37//38 57//64 56//65
f 5//40 57//64 37//38
f 37//38 7//39 5//40
f 37//38 38//41 7//39
f 34//34 38//41 37//38
f 99//121 84//98 98//122
f 99//121 64//100 84//98
f 88//104 92//108 93//109
f 88//104 87//103 92//108
f 91//107 74//87 79//92
f 91//107 46//49 74//87
f 72//85 71//84 81//94
f 72//85 69//82 71//84
f 43//46 44//47 42//45
f 43//46 45//48 44//47
f 60//73 68//81 59//72
f 60//73 85//123 68//81
f 24//24 23//23 25//25
f 24//24 16//16 23//23
f 16//16 13//13 23//23
f 16//16 11//11 13//13
f 11//11 12//12 13//13
f 11//11 9//9 12//12
f 50//53 48//51 49//52
f 50//53 47//50 48//51
f 83//96 60//125 61//97
f 83//96 85//101 60//125
f 30//30 27//27 39//42
f 30//30 26//26 27//27
f 87//116 53//56 54//117
f 87//116 89//118 53//56
f 35//36 53//56 84//98
f 35//36 33//33 53//56
f 64//100 65//99 84//98
f 87//103 41//44 92//108
f 42//45 40//43 54//58
f 48//51 47//50 41//44
f 68//81 85//123 63//76
f 12//12 4//4 58//66
f 33//33 34//34 37//38
# 194 faces

