# RFL_Res.dat Editor OBJ Exporter v1.3 - (c) 2018 Atlas Vryzas Software

#
# object hair
#

v  0 9.631372 -19.10196
v  10.67059 23.19216 -28.14902
v  0 22.37255 -31.53725
v  10.67059 10.89412 -18.37647
v  18.67059 24.72157 -23.9451
v  18.67059 15.55686 -13.8902
v  26.30196 33.43922 0
v  24 33.43922 9.027451
v  24 46.22353 9.027451
v  24 21.9098 -9.019608
v  24.65098 33.43922 -15.0902
v  24 43.65098 -12.16863
v  25.4 49.81176 -3.270588
v  -10.29412 22.92549 -30.01569
v  -10.66667 10.89412 -18.37647
v  -18.66667 24.72157 -23.9451
v  -18.66667 15.55686 -13.8902
v  -24 33.43922 9.027451
v  -26.29804 33.43922 0
v  -24 46.22353 9.027451
v  -24.64706 33.43922 -15.0902
v  -24 21.9098 -9.019608
v  -24 43.65098 -12.16863
v  -25.39608 49.81176 -3.270588
# 24 vertices

vn 0 -0.8051471 -0.593076
vn 0.3240809 -0.4727941 -0.8193628
vn 0 -0.4811274 -0.8765931
vn 0.3672794 -0.758701 -0.5379902
vn 0.756924 -0.2936274 -0.5837622
vn 0.7403187 -0.5770221 -0.3449755
vn 0.9982231 -0.04871324 0.03553922
vn 0.9045343 -0.01807598 0.4261029
vn 0.9216299 0.181924 0.3429534
vn 0.9259804 -0.297549 -0.2323529
vn 0.9489583 -0.1060049 -0.2970588
vn 0.9596201 0.1705882 -0.2238971
vn 0.9553922 0.2954657 0.005821079
vn -0.3240196 -0.4727941 -0.8193628
vn -0.3672181 -0.758701 -0.5379902
vn -0.7568628 -0.2936274 -0.5837622
vn -0.7402574 -0.5770221 -0.3449755
vn -0.9044731 -0.01807598 0.4261029
vn -0.9981618 -0.04871324 0.03553922
vn -0.9215686 0.181924 0.3429534
vn -0.9488971 -0.1060049 -0.2970588
vn -0.9259191 -0.297549 -0.2323529
vn -0.9595588 0.1705882 -0.2238971
vn -0.9553309 0.2954657 0.005821079
# 24 vertex normals

# 0 texture coords

g hair
f 16//16 17//17 22//22
f 16//16 15//15 17//17
f 14//14 15//15 16//16
f 14//14 1//1 15//15
f 3//3 1//1 14//14
f 3//3 2//2 1//1
f 7//7 9//9 8//8
f 7//7 13//13 9//9
f 12//12 13//13 7//7
f 4//4 5//5 6//6
f 4//4 2//2 5//5
f 1//1 2//2 4//4
f 20//20 19//19 18//18
f 20//20 24//24 19//19
f 23//23 19//19 24//24
f 23//23 21//21 19//19
f 21//21 22//22 19//19
f 21//21 16//16 22//22
f 7//7 11//11 12//12
f 7//7 10//10 11//11
f 10//10 5//5 11//11
f 10//10 6//6 5//5
# 22 faces

