# RFL_Res.dat Editor OBJ Exporter v1.3 - (c) 2018 Atlas Vryzas Software

#
# object hair
#

v  21.27843 22.07451 -24.30196
v  21.27843 12.85098 -18.62353
v  27.59216 24.36078 -14.77255
v  -11.38431 20.3098 -31.66274
v  -21.27451 22.07451 -24.30196
v  -21.27451 12.85098 -18.62353
v  -27.58824 24.36078 -14.77255
v  -10.6 45.50588 -33.15294
v  0 57.28627 -28.41961
v  -10.6 56.11765 -27.02353
v  0 46.12549 -34.86274
v  -27.43137 33.43922 -16
v  -21.01569 33.65882 -26.09412
v  -11.30588 33 -34
v  -10.39608 54.63137 23.46275
v  -20.09804 49.96863 18.85098
v  -19.6 56.72941 14.81176
v  -10.6 61.20784 17.34902
v  0 55.6549 24.84706
v  0 62.86666 18.22353
v  -10.6 63.99608 -17.63922
v  0 69.24313 -6.309804
v  -10.6 67.4902 -6
v  0 65.56863 -18.54902
v  -10.6 66.44706 5.823529
v  0 68.1451 6.121569
v  -18.76078 61.06274 4.870588
v  10.60392 45.50588 -33.15294
v  10.60392 56.11765 -27.02353
v  27.43529 33.43922 -16
v  21.01961 33.65882 -26.09412
v  11.25098 33 -34
v  11.38824 20.3098 -31.66274
v  20.10196 49.96863 18.85098
v  10.4 54.63137 23.46275
v  19.60392 56.72941 14.81176
v  10.60392 61.20784 17.34902
v  10.60392 63.99608 -17.63922
v  10.60392 67.4902 -6
v  10.60392 66.44706 5.823529
v  18.76471 61.06274 4.870588
v  10.4 46 27
v  0 41 0
v  0 47 29
v  -10.39608 46 27
v  -29.4 26 0
v  -27.58824 18.52157 -11.23137
v  11.38824 8.466666 -24.32941
v  0 7.47451 -25.62353
v  -11.38431 8.466666 -24.32941
v  29.40392 26 0
v  27.59216 18.52157 -11.23137
v  29.32941 33.43922 0
v  -23.56078 39 16.50196
v  -25.43922 46.99216 9.572549
v  20.10196 41.97647 21
v  25.44314 46.99216 9.572549
v  23.56471 39 16.50196
v  -26 35 10.92549
v  -29.32549 33.43922 0
v  -20.09804 41.97647 21
v  -19.78431 43.70588 -26.39216
v  -18.76078 58.18431 -15.83922
v  -26.87843 44.42745 -13.21961
v  -25.43922 52.96078 -2.866667
v  -27.87843 42.92941 -1.427451
v  -18.76078 61.49412 -4.698039
v  0 19.91372 -33.32549
v  0 33 -36
v  27.88235 42.92941 -1.427451
v  26 35 10.92549
v  19.78823 43.70588 -26.39216
v  18.76471 58.18431 -15.83922
v  18.76471 61.49412 -4.698039
v  26.88235 44.42745 -13.21961
v  25.44314 52.96078 -2.866667
# 76 vertices

vn 0.7392157 -0.1849265 -0.6476103
vn 0.7179534 -0.3644608 -0.593076
vn 0.9221814 -0.1469363 -0.3576593
vn -0.3851103 -0.3849877 -0.8386642
vn -0.7394608 -0.1852941 -0.6471201
vn -0.7178922 -0.3644608 -0.593076
vn -0.9221201 -0.1469363 -0.3576593
vn -0.3252451 0.2858456 -0.9013481
vn 0 0.5967525 -0.8023897
vn -0.4047181 0.6091912 -0.6819853
vn 0 0.3002451 -0.953799
vn -0.9414828 0.02426471 -0.3360294
vn -0.7769608 0.03125 -0.6286765
vn -0.4393382 -0.05974265 -0.8962622
vn -0.3580882 0.4860294 0.7971814
vn -0.7259191 0.2786765 0.6287377
vn -0.7204657 0.5471814 0.4260417
vn -0.3481618 0.7606005 0.5480392
vn 0 0.6017157 0.7987745
vn 0 0.8501838 0.5265931
vn -0.3462622 0.8440564 -0.4094363
vn 0 0.9862745 -0.1650735
vn -0.3943015 0.9148897 -0.08658088
vn 0 0.8454044 -0.5341299
vn -0.3751838 0.8973039 0.232598
vn 0 0.9810049 0.1942402
vn -0.6580269 0.7306373 0.1819853
vn 0.3254902 0.2852328 -0.9014706
vn 0.4047794 0.6091912 -0.6819853
vn 0.9415441 0.02426471 -0.3360294
vn 0.7763481 0.03118873 -0.6295956
vn 0.4387255 -0.05980392 -0.8965687
vn 0.3852328 -0.3844976 -0.8389093
vn 0.7259804 0.2786765 0.6287377
vn 0.3581495 0.4860294 0.7971814
vn 0.7205269 0.5471814 0.4260417
vn 0.348223 0.7606005 0.5480392
vn 0.3463235 0.8440564 -0.4094363
vn 0.3943627 0.9148897 -0.08658088
vn 0.3752451 0.8973039 0.232598
vn 0.6580882 0.7306373 0.1819853
vn -0.141973 -0.9620711 0.2329044
vn 0 -0.838174 0.5454044
vn 0 -0.979228 0.2026348
vn 0.1420343 -0.9620711 0.2329044
vn -0.9998162 -0.01256127 -0.01599265
vn -0.9337623 -0.1853554 -0.3060662
vn 0.3746324 -0.4878677 -0.7884191
vn 0 -0.5263481 -0.8502451
vn -0.3745711 -0.4878677 -0.7884191
vn 0.9998775 -0.01256127 -0.01599265
vn 0.9338235 -0.1853554 -0.3060662
vn 0.9939951 0.08278187 0.07175245
vn -0.883701 0.1373775 0.4474877
vn -0.9346814 0.2155637 0.2827819
vn -0.4457721 0.3072917 0.8408088
vn 0 0.4064951 0.9136642
vn 0.4458333 0.3072917 0.8408088
vn 0.7140319 0.1822917 0.6760417
vn 0.9347426 0.2155637 0.2827819
vn 0.8837622 0.1373775 0.4474877
vn -0.9500613 0.05631128 0.3068627
vn -0.9939338 0.08278187 0.07175245
vn 0.3433211 -0.8560662 0.3865196
vn 0.2719363 -0.9134804 0.3026348
vn 0.3811887 -0.7961397 0.4699755
vn -0.7167279 0.2564951 -0.6484681
vn -0.7176471 0.5964461 -0.3594363
vn -0.9299632 0.2297794 -0.286826
vn -0.8914216 0.453125 0.004289216
vn -0.9791667 0.1992647 0.03866421
vn -0.6750613 0.735723 -0.05392157
vn 0.000122549 -0.3068627 -0.951777
vn 0.0003063726 -0.01237745 -0.9999387
vn 0.979228 0.1992647 0.03866421
vn -0.3432598 -0.8560662 0.3865196
vn -0.3811274 -0.7961397 0.4699755
vn -0.271875 -0.9134804 0.3026348
vn 0.7164828 0.2560049 -0.6489583
vn 0.7177083 0.5964461 -0.3594363
vn 0.6751226 0.735723 -0.05392157
vn 0.9300245 0.2297794 -0.286826
vn 0.8914828 0.453125 0.004289216
vn 0.9501225 0.05631128 0.3068627
vn 0.09993873 -0.618076 0.7797794
vn 0.2036765 -0.6425245 0.7386642
vn 0.3134191 -0.7033701 0.6379289
vn -0.09987745 -0.618076 0.7797794
vn 0 -0.6072304 0.7945465
vn -0.3133578 -0.7033701 0.6379289
vn -0.2036152 -0.6425245 0.7386642
vn 0.3847426 -0.7540441 0.5323529
vn -0.3846814 -0.7540441 0.5323529
vn -0.7139706 0.1822917 0.6760417
# 94 vertex normals

# 0 texture coords

g hair
f 57//60 58//61 71//84
f 57//60 34//34 58//61
f 36//36 34//34 57//60
f 36//36 35//35 34//34
f 37//37 35//35 36//36
f 37//37 19//19 35//35
f 20//20 19//19 37//37
f 20//20 18//18 19//19
f 25//25 18//18 20//20
f 25//25 27//27 18//18
f 67//72 27//27 25//25
f 67//72 65//70 27//27
f 63//68 65//70 67//72
f 63//68 64//69 65//70
f 62//67 64//69 63//68
f 62//67 13//13 64//69
f 14//14 13//13 62//67
f 14//14 5//5 13//13
f 4//4 5//5 14//14
f 4//4 6//6 5//5
f 50//50 6//6 4//4
f 4//4 49//49 50//50
f 4//4 68//73 49//49
f 14//14 68//73 4//4
f 14//14 69//74 68//73
f 8//8 69//74 14//14
f 8//8 11//11 69//74
f 9//9 11//11 8//8
f 9//9 28//28 11//11
f 29//29 28//28 9//9
f 29//29 72//79 28//28
f 73//80 72//79 29//29
f 73//80 75//82 72//79
f 76//83 75//82 73//80
f 76//83 70//75 75//82
f 57//60 70//75 76//83
f 57//60 53//53 70//75
f 71//84 53//53 57//60
f 71//84 51//51 53//53
f 76//83 36//36 57//60
f 76//83 41//41 36//36
f 74//81 41//41 76//83
f 74//81 40//40 41//41
f 39//39 40//40 74//81
f 39//39 26//26 40//40
f 22//22 26//26 39//39
f 22//22 23//23 26//26
f 21//21 23//23 22//22
f 21//21 63//68 23//23
f 10//10 63//68 21//21
f 10//10 62//67 63//68
f 8//8 62//67 10//10
f 8//8 14//14 62//67
f 15//15 45//56 44//57
f 15//15 16//16 45//56
f 17//17 16//16 15//15
f 17//17 55//55 16//16
f 65//70 55//55 17//17
f 65//70 66//71 55//55
f 64//69 66//71 65//70
f 64//69 60//63 66//71
f 12//12 60//63 64//69
f 12//12 46//46 60//63
f 7//7 46//46 12//12
f 7//7 47//47 46//46
f 6//6 47//47 7//7
f 34//34 56//59 58//61
f 34//34 42//58 56//59
f 35//35 42//58 34//34
f 35//35 44//57 42//58
f 19//19 44//57 35//35
f 19//19 15//15 44//57
f 18//18 15//15 19//19
f 18//18 17//17 15//15
f 27//27 17//17 18//18
f 27//27 65//70 17//17
f 28//28 69//74 11//11
f 28//28 32//32 69//74
f 72//79 32//32 28//28
f 72//79 31//31 32//32
f 75//82 31//31 72//79
f 75//82 30//30 31//31
f 53//53 30//30 75//82
f 53//53 51//51 30//30
f 32//32 68//73 69//74
f 32//32 33//33 68//73
f 1//1 33//33 32//32
f 1//1 2//2 33//33
f 3//3 2//2 1//1
f 3//3 52//52 2//2
f 51//51 52//52 3//3
f 73//80 74//81 76//83
f 73//80 39//39 74//81
f 38//38 39//39 73//80
f 38//38 22//22 39//39
f 24//24 22//22 38//38
f 24//24 21//21 22//22
f 10//10 21//21 24//24
f 29//29 38//38 73//80
f 29//29 24//24 38//38
f 9//9 24//24 29//29
f 9//9 10//10 24//24
f 8//8 10//10 9//9
f 54//54 55//55 59//62
f 54//54 16//16 55//55
f 61//94 16//16 54//54
f 61//94 45//56 16//16
f 60//63 55//55 66//71
f 60//63 59//62 55//55
f 46//46 59//62 60//63
f 33//33 49//49 68//73
f 33//33 48//48 49//49
f 2//2 48//48 33//33
f 43//43 52//90 51//93
f 43//43 2//91 52//90
f 48//88 2//91 43//43
f 43//43 49//89 48//88
f 43//43 50//85 49//89
f 6//86 50//85 43//43
f 43//43 47//87 6//86
f 43//43 46//92 47//87
f 59//66 46//92 43//43
f 43//43 54//64 59//66
f 43//43 61//65 54//64
f 45//45 61//65 43//43
f 13//13 12//12 64//69
f 13//13 5//5 12//12
f 3//3 30//30 51//51
f 3//3 1//1 30//30
f 67//72 23//23 63//68
f 67//72 25//25 23//23
f 41//41 37//37 36//36
f 41//41 40//40 37//37
f 40//40 20//20 37//37
f 40//40 26//26 20//20
f 31//31 1//1 32//32
f 31//31 30//30 1//1
f 25//25 26//26 23//23
f 25//25 20//20 26//26
f 5//5 7//7 12//12
f 5//5 6//6 7//7
f 71//77 43//43 51//93
f 71//77 58//76 43//43
f 56//78 43//43 58//76
f 56//78 42//42 43//43
f 43//43 44//44 45//45
f 43//43 42//42 44//44
f 53//53 75//82 70//75
# 148 faces

