# RFL_Res.dat Editor OBJ Exporter v1.3 - (c) 2018 Atlas Vryzas Software

#
# object hair
#

v  -4.980392 62.84314 -18.69804
v  4.984314 62.84314 -18.69804
v  0 69.82353 -14.78824
v  4.984314 65.78824 -13.03137
v  11.0902 68.18039 -14.07451
v  14.43137 60.17255 -17.05882
v  19.46275 56.78431 -14.94118
v  0 68.29804 -7.121569
v  9.835294 66.76863 -6.701961
v  14.43137 64.89412 -6.184314
v  5.937255 75.05098 -1.529412
v  0 69.57255 -0.8156863
v  9.835294 68 -0.6117647
v  17.20392 71.34902 -1.043137
v  20.71765 59.16079 -4.6
v  0 69.96078 5.611765
v  4.984314 69.55686 5.607843
v  9.835294 68.37255 5.596078
v  14.43137 66.42745 5.57647
v  22.41961 60.00392 5.513725
v  0 77.34902 13.22353
v  4.984314 69.04314 11.96863
v  12.34902 75.38039 12.92941
v  14.43137 65.94902 11.49804
v  23.44314 69.67059 12.05882
v  23.84706 60.06667 11.95294
v  4.482353 62.86666 21.59216
v  12.99216 61.73333 19.2549
v  20.17647 59.58431 14.81961
v  5.97647 54.36078 19.88627
v  0 53.92549 21.0902
v  10 55.16863 18.83529
v  15.60392 56.5647 14.62353
v  17.70196 55.41177 13.97255
v  0 9.631372 -19.10196
v  10.67059 23.19216 -28.14902
v  0 22.66667 -29.6
v  10.67059 10.89412 -18.37647
v  18.67059 24.72157 -23.9451
v  18.67059 15.55686 -13.8902
v  0 33.43922 -33.24706
v  10.67059 33.43922 -31.61961
v  10 44.82353 -31.27843
v  0 45.40784 -32.8902
v  18.67059 43.12157 -24.90196
v  18.66667 51.13334 -21.41961
v  24.52157 51.79216 11.63529
v  26.30196 42.39216 -1.34902
v  24.80392 42 11.2902
v  24.78823 52.16471 -3.113725
v  24 21.9098 -9.019608
v  24.65098 33.43922 -15.0902
v  24 43.65098 -12.16863
v  26.30196 33.43922 0
v  10 54.83529 -25.49804
v  0 55.93726 -26.81176
v  0 35.47059 5.427451
v  24.94118 30 10
v  0 62.86666 21.59216
v  -4.980392 65.78824 -13.03137
v  -11.08627 68.18039 -14.07451
v  -14.42745 60.17255 -17.05882
v  -19.45882 56.78431 -14.94118
v  -9.831372 66.76863 -6.701961
v  -14.42745 64.89412 -6.184314
v  -20.71373 59.16079 -4.6
v  -5.933333 75.05098 -1.529412
v  -9.831372 68 -0.6117647
v  -17.2 71.34902 -1.043137
v  -4.980392 69.55686 5.607843
v  -9.831372 68.37255 5.596078
v  -14.42745 66.42745 5.57647
v  -22.41569 60.00392 5.513725
v  -4.980392 69.04314 11.96863
v  -12.3451 75.38039 12.92941
v  -14.42745 65.94902 11.49804
v  -23.43922 69.67059 12.05882
v  -23.84314 60.06667 11.95294
v  -4.478431 62.86666 21.59216
v  -12.98824 61.73333 19.2549
v  -20.17255 59.58431 14.81961
v  -5.972549 54.36078 19.88627
v  -10 55.16863 18.83529
v  -15.6 56.5647 14.62353
v  -17.69804 55.41177 13.97255
v  -10.66667 23.19216 -28.14902
v  -10.66667 10.89412 -18.37647
v  -18.66667 24.72157 -23.9451
v  -18.66667 15.55686 -13.8902
v  -10.66667 33.43922 -31.61961
v  -10 44.82353 -31.27843
v  -18.66667 43.12157 -24.90196
v  -10 54.83529 -25.49804
v  -18.66274 51.13334 -21.41961
v  -26.29804 42.39216 -1.34902
v  -24.51765 51.79216 11.63529
v  -24.8 42 11.2902
v  -24.78431 52.16471 -3.113725
v  -24.64706 33.43922 -15.0902
v  -24 21.9098 -9.019608
v  -24 43.65098 -12.16863
v  -26.29804 33.43922 0
v  -24.93725 30 10
# 103 vertices

vn -0.1572917 0.7072304 -0.6892157
vn 0.1573529 0.7072304 -0.6892157
vn 0 0.7582721 -0.6519608
vn 0.1591912 0.8758578 -0.4554534
vn 0.3677083 0.6825368 -0.6316177
vn 0.4752451 0.5628064 -0.6762868
vn 0.8049632 0.445098 -0.3922794
vn 0.1488358 0.9889093 0.003125
vn 0 0.9427696 -0.3334559
vn 0 0.9808211 0.1952206
vn 0.1851103 0.9286765 -0.3215686
vn 0.2487132 0.9583946 0.1402574
vn 0.5433211 0.7466912 -0.3839461
vn 0.1539828 0.8469976 -0.5088235
vn 0 0.9802083 -0.198223
vn 0.3145221 0.9304534 -0.1881128
vn 0.4270221 0.666299 -0.6113358
vn 0.8126838 0.5164216 -0.2698529
vn 0.1481005 0.9123775 0.3818015
vn 0 0.9984682 -0.0557598
vn 0.1591299 0.9871324 -0.01758578
vn 0.3136642 0.947978 -0.05514706
vn 0.1434436 0.8630515 0.484375
vn 0.4949755 0.8685662 -0.02726716
vn 0.916054 0.3719975 -0.1502451
vn 0 0.8821691 -0.4709559
vn 0.159375 0.9840686 0.07928921
vn 0.2738358 0.8301471 -0.485723
vn 0.4619485 0.8840686 0.07126226
vn 0.7333946 0.6769608 -0.06231618
vn 0.9395834 0.04963235 0.3387868
vn 0.1655637 0.2921569 0.941973
vn 0 0.6210172 0.7838235
vn 0.1507353 0.8282475 0.5397671
vn 0.2963848 0.6053309 0.738848
vn 0.4458946 0.0435049 0.8940564
vn 0.4309436 0.7568015 0.4915441
vn 0.1070466 0.5865809 0.8028187
vn 0.4193015 -0.1770221 0.8905025
vn 0.2444853 -0.1653799 0.9554535
vn 0 -0.1079657 0.994179
vn 0.4613358 -0.2640319 0.8470588
vn 0.372549 -0.3925858 0.8409314
vn 0.1202206 -0.2205882 0.9679534
vn 0 -0.6246936 -0.7808824
vn 0.2803922 -0.491299 -0.8246323
vn 0 -0.4288603 -0.9033701
vn 0.4197917 -0.5973652 -0.6833333
vn 0.7246937 -0.3192402 -0.6106005
vn 0.7383578 -0.4985294 -0.4541667
vn 0 -0.08523284 -0.9963235
vn 0.3825368 -0.1492034 -0.9117647
vn 0.3859069 0.2384804 -0.8911152
vn 0 0.3528186 -0.9357231
vn 0.778799 0.1113971 -0.6173407
vn 0.709375 0.3934436 -0.5848039
vn 0.8848652 0.04215686 0.4640319
vn 0.9967524 0.07022059 -0.04001226
vn 0.6685049 -0.08272059 0.7391544
vn 0.9458333 0.2903186 -0.1454044
vn 0.9216299 -0.2602328 -0.2881128
vn 0.9564951 -0.01960784 -0.2910539
vn 0.9365196 0.1786765 -0.3018382
vn 0.9996324 -0.02886029 0.008946079
vn 0.3203431 0.5782475 -0.7503064
vn 0 0.6422181 -0.7664828
vn -0.235049 -0.6186274 0.7496936
vn 0.9909927 -0.003370098 0.1340073
vn -0.2721201 -0.8207108 0.5023285
vn -0.1417892 -0.9300245 -0.3389093
vn 0 0.2318627 0.9727941
vn -0.1591299 0.8758578 -0.4554534
vn -0.3676471 0.6825368 -0.6316177
vn -0.4751838 0.5628064 -0.6762868
vn -0.804902 0.445098 -0.3922794
vn -0.1487745 0.9889093 0.003125
vn -0.185049 0.9286765 -0.3215686
vn -0.248652 0.9583946 0.1402574
vn -0.5432598 0.7466912 -0.3839461
vn -0.8126225 0.5164216 -0.2698529
vn -0.1539216 0.8469976 -0.5088235
vn -0.3144608 0.9304534 -0.1881128
vn -0.4269608 0.666299 -0.6113358
vn -0.1480392 0.9123775 0.3818015
vn -0.1590686 0.9871324 -0.01758578
vn -0.313603 0.947978 -0.05514706
vn -0.1433824 0.8630515 0.484375
vn -0.4949142 0.8685662 -0.02726716
vn -0.9159926 0.3719975 -0.1502451
vn -0.1593137 0.9840686 0.07928921
vn -0.2737745 0.8301471 -0.485723
vn -0.4618872 0.8840686 0.07126226
vn -0.7333333 0.6769608 -0.06231618
vn -0.9395221 0.04963235 0.3387868
vn -0.1655024 0.2921569 0.941973
vn -0.150674 0.8282475 0.5397671
vn -0.2963235 0.6053309 0.738848
vn -0.4458333 0.0435049 0.8940564
vn -0.4308824 0.7568015 0.4915441
vn -0.1069853 0.5865809 0.8028187
vn -0.4192402 -0.1770221 0.8905025
vn -0.244424 -0.1653799 0.9554535
vn -0.4612745 -0.2640319 0.8470588
vn -0.3724878 -0.3925858 0.8409314
vn -0.1201593 -0.2205882 0.9679534
vn -0.2803309 -0.491299 -0.8246323
vn -0.4197304 -0.5973652 -0.6833333
vn -0.7246324 -0.3192402 -0.6106005
vn -0.7382966 -0.4985294 -0.4541667
vn -0.3824755 -0.1492034 -0.9117647
vn -0.3858456 0.2384804 -0.8911152
vn -0.7787377 0.1113971 -0.6173407
vn -0.3202819 0.5782475 -0.7503064
vn -0.7093138 0.3934436 -0.5848039
vn -0.9966912 0.07022059 -0.04001226
vn -0.884804 0.04215686 0.4640319
vn -0.6684436 -0.08272059 0.7391544
vn -0.9457721 0.2903186 -0.1454044
vn -0.9564338 -0.01960784 -0.2910539
vn -0.9215686 -0.2602328 -0.2881128
vn -0.9364583 0.1786765 -0.3018382
vn -0.9995711 -0.02886029 0.008946079
vn 0.2351103 -0.6186274 0.7496936
vn -0.9909314 -0.003370098 0.1340073
vn 0.2721814 -0.8207108 0.5023285
vn 0.1418505 -0.9300245 -0.3389093
# 126 vertex normals

# 0 texture coords

g hair
f 54//64 49//59 58//68
f 54//64 48//58 49//59
f 52//62 48//58 54//64
f 52//62 53//63 48//58
f 45//55 53//63 52//62
f 45//55 46//56 53//63
f 43//53 46//56 45//55
f 43//53 55//65 46//56
f 44//54 55//65 43//53
f 44//54 56//66 55//65
f 93//113 56//66 44//54
f 93//113 1//1 56//66
f 62//74 1//1 93//113
f 62//74 61//73 1//1
f 63//75 61//73 62//74
f 63//75 66//80 61//73
f 98//118 66//80 63//75
f 57//123 103//125 102//126
f 57//123 97//117 103//125
f 85//105 97//117 57//123
f 85//105 96//116 97//117
f 81//101 96//116 85//105
f 81//101 78//94 96//116
f 77//93 78//94 81//101
f 77//93 73//89 78//94
f 72//88 73//89 77//93
f 72//88 69//87 73//89
f 71//86 69//87 72//88
f 71//123 68//125 69//126
f 67//116 68//105 71//117
f 49//59 34//44 57//67
f 49//59 47//57 34//44
f 48//58 47//57 49//59
f 48//58 50//60 47//57
f 53//63 50//60 48//58
f 53//63 7//7 50//60
f 46//56 7//7 53//63
f 46//56 6//6 7//7
f 55//65 6//6 46//56
f 55//65 2//2 6//6
f 56//66 2//2 55//65
f 56//66 1//1 2//2
f 97//117 102//122 103//124
f 97//117 95//115 102//122
f 96//116 95//115 97//117
f 96//116 98//118 95//115
f 73//89 98//118 96//116
f 73//89 66//80 98//118
f 69//83 66//80 73//89
f 69//83 65//79 66//80
f 64//77 65//79 69//83
f 64//77 61//78 65//79
f 60//76 61//78 64//77
f 39//49 45//55 52//62
f 39//49 42//52 45//55
f 36//46 42//52 39//49
f 36//46 37//47 42//52
f 35//45 37//47 36//46
f 35//45 86//106 37//47
f 87//107 86//106 35//45
f 87//107 88//108 86//106
f 89//109 88//108 87//107
f 89//109 100//120 88//108
f 18//22 13//22 11//19
f 18//25 14//24 13//23
f 19//39 14//31 18//30
f 19//19 20//44 14//57
f 25//23 20//22 19//22
f 25//30 26//25 20//24
f 29//57 26//39 25//31
f 29//23 47//22 26//44
f 34//25 47//23 29//24
f 28//36 32//42 33//43
f 28//36 30//40 32//42
f 27//32 30//40 28//36
f 27//32 31//41 30//40
f 59//71 31//41 27//32
f 59//71 79//95 31//41
f 21//33 79//95 59//71
f 21//33 74//96 79//95
f 16//20 12//20 67//84
f 16//22 11//21 12//19
f 17//29 11//24 16//28
f 17//20 18//84 11//30
f 23//21 18//19 17//20
f 23//24 19//28 18//22
f 24//20 19//30 23//29
f 24//19 25//21 19//19
f 41//51 44//54 43//53
f 41//51 91//111 44//54
f 90//110 91//111 41//51
f 90//110 92//112 91//111
f 88//108 92//112 90//110
f 88//108 99//119 92//112
f 100//120 99//119 88//108
f 100//120 102//122 99//119
f 15//18 14//17 20//25
f 15//18 10//13 14//17
f 5//12 10//13 15//18
f 5//12 9//11 10//13
f 4//8 9//11 5//12
f 4//8 8//9 9//11
f 3//10 8//9 4//8
f 3//10 60//76 8//9
f 42//52 43//53 45//55
f 42//52 41//51 43//53
f 37//47 41//51 42//52
f 37//47 90//110 41//51
f 86//106 90//110 37//47
f 86//106 88//108 90//110
f 70//85 67//84 71//86
f 70//85 16//20 67//84
f 21//26 16//20 70//85
f 21//26 17//21 16//20
f 22//27 17//21 21//26
f 22//27 23//28 17//21
f 91//111 93//113 44//54
f 91//111 94//114 93//113
f 92//112 94//114 91//111
f 92//112 101//121 94//114
f 99//119 101//121 92//112
f 84//104 81//101 85//105
f 84//104 80//98 81//101
f 83//103 80//98 84//104
f 83//103 82//102 80//98
f 75//91 71//86 72//88
f 75//91 70//85 71//86
f 74//90 70//85 75//91
f 74//90 21//26 70//85
f 95//115 99//119 102//122
f 95//115 101//121 99//119
f 98//118 101//121 95//115
f 98//118 63//75 101//121
f 29//39 33//43 34//44
f 29//39 28//36 33//43
f 25//38 28//36 29//39
f 25//38 24//37 28//36
f 51//61 52//62 54//64
f 51//61 39//49 52//62
f 40//50 39//49 51//61
f 40//50 38//48 39//49
f 80//98 77//100 81//101
f 80//98 76//99 77//100
f 75//97 76//99 80//98
f 94//114 62//74 93//113
f 94//114 63//75 62//74
f 101//121 63//75 94//114
f 79//95 82//102 31//41
f 79//95 80//98 82//102
f 75//97 80//98 79//95
f 27//32 21//33 59//71
f 27//32 22//34 21//33
f 23//35 22//34 27//32
f 5//5 2//2 4//4
f 5//5 6//6 2//2
f 7//7 6//6 5//5
f 15//18 7//7 5//5
f 15//18 50//60 7//7
f 20//25 50//60 15//18
f 9//11 14//17 10//13
f 9//11 13//16 14//17
f 11//14 13//16 9//11
f 76//92 72//88 77//93
f 76//92 75//91 72//88
f 68//82 64//77 69//83
f 68//82 67//81 64//77
f 58//69 57//67 54//70
f 58//69 49//59 57//67
f 38//48 36//46 39//49
f 38//48 35//45 36//46
f 47//57 20//25 26//31
f 47//57 50//60 20//25
f 23//35 28//36 24//37
f 23//35 27//32 28//36
f 3//3 2//2 1//1
f 3//3 4//4 2//2
f 60//72 1//1 61//73
f 60//72 3//3 1//1
f 64//77 8//9 60//76
f 64//77 67//81 8//9
f 12//15 8//9 67//81
f 12//15 11//14 8//9
f 78//94 73//89 96//116
f 65//79 61//78 66//80
f 74//96 75//97 79//95
f 11//14 9//11 8//9
# 186 faces

