# RFL_Res.dat Editor OBJ Exporter v1.3 - (c) 2018 Atlas Vryzas Software

#
# object hair
#

v  15.00392 53.00392 23.30196
v  17.65882 60 14
v  19.8 50.80392 20.63529
v  10.67059 33.82353 -33.66275
v  0 46.12549 -34.86274
v  0 33.78823 -35.37255
v  10.60392 45.50588 -33.15294
v  0 69.24313 -6.309804
v  10.60392 63.99608 -17.63922
v  10.60392 67.4902 -6
v  0 65.56863 -18.54902
v  10.40392 66.72157 5.341177
v  0 63.97647 18.18431
v  0 68.40784 5.639215
v  9.521568 63 17
v  19.78823 43.70588 -26.39216
v  19.92549 33.32941 -25.7451
v  18.76471 58.18431 -15.83922
v  10.60392 56.11765 -27.02353
v  18.76471 61.06274 4.870588
v  26.12941 33.43922 -14.65098
v  26.24706 42.67059 -13.21961
v  25.52157 52.96078 0
v  27.4549 47.78823 9.121569
v  24.48627 54.07059 11
v  0 57.28627 -28.41961
v  29.33333 31.51765 0
v  28.83922 42.67059 0
v  22.08235 47.01961 16.1098
v  27.34902 22.59608 -3.14902
v  25.33333 22.59608 -14.93725
v  19.6549 22.59608 -23.92941
v  10.70196 22.59608 -30
v  0 22.67059 -32
v  15.67843 13.33333 -28
v  7.72549 10.96078 -30.62745
v  28.66274 13.21569 -8
v  25.8549 13.21569 -14.74118
v  31.43529 5.972549 -14.64706
v  0 3.101961 -36
v  0 13.21569 -32
v  18.82745 5.462745 -29.32941
v  19.83529 12.1451 -21.03137
v  9.196078 8.909804 -19.19216
v  0 7.647059 -19.92549
v  0 55.07059 9
v  27.1451 22.0902 5.772549
v  24.39608 39.04314 14.32157
v  26.30588 29.9098 10.99216
v  0 54.82353 26.90196
v  7.901961 45 26
v  8.505882 54 26
v  18 43.24706 21.59216
v  28.78039 40.62745 8.203921
v  29.00784 30.72549 7.305882
v  -17.6549 60 14
v  -15 53.00392 23.30196
v  -19.79608 50.80392 20.63529
v  -10.66667 33.82353 -33.66275
v  -10.6 45.50588 -33.15294
v  -10.6 63.99608 -17.63922
v  -10.6 67.4902 -6
v  -10.4 66.72157 5.341177
v  -9.517647 63 17
v  -19.78431 43.70588 -26.39216
v  -19.92157 33.32941 -25.7451
v  -18.76078 58.18431 -15.83922
v  -10.6 56.11765 -27.02353
v  -18.76078 61.06274 4.870588
v  -26.24314 42.67059 -13.21961
v  -26.12549 33.43922 -14.65098
v  -25.51765 52.96078 0
v  -24.48235 54.07059 11
v  -27.45098 47.78823 9.121569
v  -29.32941 31.51765 0
v  -28.83529 42.67059 0
v  -22.07843 47.01961 16.1098
v  -27.3451 22.59608 -3.14902
v  -25.32941 22.59608 -14.93725
v  -19.65098 22.59608 -23.92941
v  -10.69804 22.59608 -30
v  -15.67451 13.33333 -28
v  -7.721569 10.96078 -30.62745
v  -28.65882 13.21569 -8
v  -25.85098 13.21569 -14.74118
v  -31.43137 5.972549 -14.64706
v  -18.82353 5.462745 -29.32941
v  -19.83137 12.1451 -21.03137
v  -27.14118 22.0902 5.772549
v  -26.30196 29.9098 10.99216
v  -24.39216 39.04314 14.32157
v  -7.898039 45 26
v  -8.501961 54 26
v  -18 43.24706 21.59216
v  -18.80784 9.92549 -14.9098
v  -28.77647 40.62745 8.203921
v  -29.00392 30.72549 7.305882
v  -9.192157 8.909804 -19.19216
v  18.81176 9.92549 -14.9098
# 99 vertices

vn 0.4879289 0.384375 0.7837623
vn 0.5844363 0.704473 0.4028186
vn 0.7469975 0.2068015 0.6319853
vn 0.4012255 -0.1023897 -0.9102328
vn 0 0.2004289 -0.9797181
vn 0 -0.1887255 -0.9819853
vn 0.410723 0.2520833 -0.8761642
vn 0 0.9852941 -0.1709559
vn 0.3463235 0.8440564 -0.4094363
vn 0.408027 0.9101716 -0.0713848
vn 0 0.8454044 -0.5341299
vn 0.3430147 0.9150735 0.2125
vn 0 0.84375 0.5367034
vn 0 0.9872549 0.1591299
vn 0.3226716 0.7772059 0.5403799
vn 0.7786765 0.2104779 -0.5911765
vn 0.7576593 -0.05625 -0.6501838
vn 0.7411765 0.5893995 -0.3213848
vn 0.4047794 0.6091912 -0.6819853
vn 0.6759804 0.7360907 0.03529412
vn 0.9395834 -0.03290441 -0.3407475
vn 0.9390318 0.1957721 -0.2825368
vn 0.8827206 0.4621324 -0.08572304
vn 0.917402 0.2189338 0.3324142
vn 0.8393382 0.4418505 0.3168505
vn 0 0.5967525 -0.8023897
vn 0.9923407 -0.04852941 -0.1139093
vn 0.9873162 0.1509804 -0.04895833
vn 0.8306985 0.03884804 0.5553921
vn 0.981924 0.006066177 -0.189277
vn 0.9224877 0.01170343 -0.3858456
vn 0.7296569 -0.09626225 -0.677022
vn 0.3321078 -0.1298407 -0.9342524
vn 0 -0.09564951 -0.9954044
vn 0.5994485 0.1320466 -0.7893995
vn 0.2391544 0.1183211 -0.9637255
vn 0.9098039 0.2895221 -0.2974265
vn 0.8168505 0.1994485 -0.541299
vn 0.691973 0.526777 -0.4936887
vn 0 0.3678921 -0.9298407
vn 0 0.1854167 -0.9826593
vn 0.5724265 0.3541667 -0.739522
vn 0.7885417 0.145527 -0.597549
vn 0.02512255 -0.9206495 0.3895833
vn 0 -0.9992034 0.03982843
vn 0 -0.7958333 0.605576
vn 0.7647672 -0.6098652 -0.2078431
vn -0.2282476 -0.4568015 0.8598039
vn -0.5785539 -0.7931373 0.1900735
vn -0.7734681 -0.6293505 -0.07420343
vn -0.4121936 -0.3480392 0.8420343
vn -0.4868872 -0.4499387 0.748652
vn 0 -0.9998775 -0.01384804
vn -0.2053309 -0.8808824 -0.4262868
vn -0.1941177 -0.9789829 0.06231618
vn 0.2512868 0.4264706 0.8689338
vn 0.2448529 -0.01642157 0.969424
vn 0 0.3672794 0.9301471
vn 0.6826593 -0.07022059 0.727451
vn -0.5674019 -0.8224878 0.03897059
vn -0.39375 -0.8947304 0.2104167
vn 0.9237132 0.04123775 0.3808211
vn 0.8027574 0.04129902 0.5949142
vn 0.963174 -0.09442402 0.2518382
vn 0.9248162 -0.2506127 0.2862132
vn 0.8151961 -0.1144608 0.5677696
vn -0.584375 0.704473 0.4028186
vn -0.4878677 0.384375 0.7837623
vn -0.7469363 0.2068015 0.6319853
vn -0.4011642 -0.1023897 -0.9102328
vn -0.4106618 0.2520833 -0.8761642
vn -0.3462622 0.8440564 -0.4094363
vn -0.4079657 0.9101716 -0.0713848
vn -0.3429534 0.9150735 0.2125
vn -0.3226103 0.7772059 0.5403799
vn -0.7786152 0.2104779 -0.5911765
vn -0.757598 -0.05625 -0.6501838
vn -0.7411152 0.5893995 -0.3213848
vn -0.4047181 0.6091912 -0.6819853
vn -0.6759191 0.7360907 0.03529412
vn -0.9389706 0.1957721 -0.2825368
vn -0.9395221 -0.03290441 -0.3407475
vn -0.8826593 0.4621324 -0.08572304
vn -0.839277 0.4418505 0.3168505
vn -0.9173407 0.2189338 0.3324142
vn -0.9922794 -0.04852941 -0.1139093
vn -0.9872549 0.1509804 -0.04895833
vn -0.8306373 0.03884804 0.5553921
vn -0.9818627 0.006066177 -0.189277
vn -0.9224265 0.01170343 -0.3858456
vn -0.7295956 -0.09626225 -0.677022
vn -0.3320466 -0.1298407 -0.9342524
vn -0.5993872 0.1320466 -0.7893995
vn -0.2390931 0.1183211 -0.9637255
vn -0.9097427 0.2895221 -0.2974265
vn -0.8167892 0.1994485 -0.541299
vn -0.6919118 0.526777 -0.4936887
vn -0.5723652 0.3541667 -0.739522
vn -0.7884804 0.145527 -0.597549
vn 0.2283088 -0.4568015 0.8598039
vn 0.5786152 -0.7931373 0.1900735
vn 0.7735294 -0.6293505 -0.07420343
vn 0.4869485 -0.4499387 0.748652
vn 0.4122549 -0.3480392 0.8420343
vn 0.2053922 -0.8808824 -0.4262868
vn 0.1941789 -0.9789829 0.06231618
vn -0.2512255 0.4264706 0.8689338
vn -0.2447917 -0.01642157 0.969424
vn -0.6825981 -0.07022059 0.727451
vn 0.5674632 -0.8224878 0.03897059
vn 0.1034926 -0.8139706 0.5715686
vn 0.3209559 -0.5918505 0.7393995
vn 0.2974877 -0.9379902 0.1776961
vn 0.2710172 -0.8895221 -0.3678309
vn 0.3938113 -0.8947304 0.2104167
vn -0.9236519 0.04123775 0.3808211
vn -0.802696 0.04129902 0.5949142
vn -0.9631128 -0.09442402 0.2518382
vn -0.9247549 -0.2506127 0.2862132
vn -0.8151348 -0.1144608 0.5677696
vn -0.02506127 -0.9206495 0.3895833
vn -0.7647059 -0.6098652 -0.2078431
vn 0.2336397 -0.9645833 0.1223652
vn -0.1034314 -0.8139706 0.5715686
vn 0.9681373 -0.239277 0.07487745
vn -0.4311275 -0.8960784 -0.1050245
vn -0.3208946 -0.5918505 0.7393995
vn -0.2974265 -0.9379902 0.1776961
vn -0.2709559 -0.8895221 -0.3678309
vn -0.2335784 -0.9645833 0.1223652
vn 0.4311887 -0.8960784 -0.1050245
vn -0.968076 -0.239277 0.07487745
# 132 vertex normals

# 0 texture coords

g hair
f 97//118 89//119 90//120
f 97//118 75//86 89//119
f 76//87 75//86 97//118
f 76//87 70//81 75//86
f 72//83 70//81 76//87
f 72//83 67//78 70//81
f 69//80 67//78 72//83
f 69//80 62//73 67//78
f 63//74 62//73 69//80
f 63//74 14//14 62//73
f 13//13 14//14 63//74
f 13//13 12//12 14//14
f 15//15 12//12 13//13
f 15//15 2//2 12//12
f 1//1 2//2 15//15
f 1//1 3//3 2//2
f 53//59 3//3 1//1
f 53//59 29//29 3//3
f 80//91 82//93 88//99
f 80//91 81//92 82//93
f 59//70 81//92 80//91
f 59//70 6//6 81//92
f 5//5 6//6 59//70
f 5//5 4//4 6//6
f 7//7 4//4 5//5
f 7//7 17//17 4//4
f 16//16 17//17 7//7
f 16//16 21//21 17//17
f 22//22 21//21 16//16
f 22//22 27//27 21//21
f 28//28 27//27 22//22
f 28//28 55//64 27//27
f 54//62 55//64 28//28
f 54//62 49//66 55//64
f 48//63 49//66 54//62
f 66//77 59//70 80//91
f 66//77 60//71 59//70
f 65//76 60//71 66//77
f 65//76 68//79 60//71
f 67//78 68//79 65//76
f 67//78 61//72 68//79
f 62//73 61//72 67//78
f 62//73 8//8 61//72
f 14//14 8//8 62//73
f 14//14 10//10 8//8
f 12//12 10//10 14//14
f 12//12 20//20 10//10
f 2//2 20//20 12//12
f 2//2 25//25 20//20
f 3//3 25//25 2//2
f 3//3 29//29 25//25
f 91//117 96//116 90//120
f 91//117 74//85 96//116
f 77//88 74//85 91//117
f 77//88 73//84 74//85
f 58//69 73//84 77//88
f 58//69 56//67 73//84
f 57//68 56//67 58//69
f 57//68 64//75 56//67
f 93//107 64//75 57//68
f 93//107 13//13 64//75
f 50//58 13//13 93//107
f 50//58 52//56 13//13
f 51//57 52//56 50//58
f 51//57 1//1 52//56
f 82//93 87//98 88//99
f 82//93 83//94 87//98
f 81//92 83//94 82//93
f 81//92 34//34 83//94
f 6//6 34//34 81//92
f 6//6 33//33 34//34
f 4//4 33//33 6//6
f 4//4 32//32 33//33
f 17//17 32//32 4//4
f 17//17 31//31 32//32
f 21//21 31//31 17//17
f 21//21 30//30 31//31
f 27//27 30//30 21//21
f 96//116 97//118 90//120
f 96//116 76//87 97//118
f 74//85 76//87 96//116
f 74//85 72//83 76//87
f 73//84 72//83 74//85
f 73//84 69//80 72//83
f 56//67 69//80 73//84
f 56//67 63//74 69//80
f 64//75 63//74 56//67
f 64//75 13//13 63//74
f 85//96 88//99 86//97
f 85//96 80//91 88//99
f 79//90 80//91 85//96
f 79//90 66//77 80//91
f 71//82 66//77 79//90
f 71//82 65//76 66//77
f 70//81 65//76 71//82
f 70//81 67//78 65//76
f 84//95 85//96 86//97
f 84//95 79//90 85//96
f 78//89 79//90 84//95
f 78//89 71//82 79//90
f 75//86 71//82 78//89
f 75//86 70//81 71//82
f 60//71 5//5 59//70
f 60//71 26//26 5//5
f 68//79 26//26 60//71
f 68//79 11//11 26//26
f 61//72 11//11 68//79
f 61//72 8//8 11//11
f 26//26 7//7 5//5
f 26//26 19//19 7//7
f 11//11 19//19 26//26
f 11//11 9//9 19//19
f 8//8 9//9 11//11
f 8//8 10//10 9//9
f 34//34 41//41 83//94
f 34//34 36//36 41//41
f 33//33 36//36 34//34
f 33//33 35//35 36//36
f 32//32 35//35 33//33
f 32//32 43//43 35//35
f 46//46 44//44 99//124
f 46//46 45//44 44//124
f 98//45 45//121 46//46
f 98//44 40//124 45//122
f 83//121 40//46 98//46
f 30//48 99//124 37//127
f 30//48 46//46 99//124
f 27//49 46//46 30//48
f 27//49 47//50 46//46
f 37//37 31//31 30//30
f 37//37 38//38 31//31
f 39//39 38//38 37//37
f 39//39 43//43 38//38
f 19//19 16//16 7//7
f 19//19 18//18 16//16
f 9//9 18//18 19//19
f 9//9 10//10 18//18
f 18//18 22//22 16//16
f 18//18 23//23 22//22
f 20//20 23//23 18//18
f 20//20 25//25 23//23
f 23//23 28//28 22//22
f 23//23 24//24 28//28
f 25//25 24//24 23//23
f 25//25 29//29 24//24
f 87//130 95//111 88//132
f 87//130 98//121 95//111
f 83//131 98//121 87//130
f 42//123 44//44 36//126
f 42//123 99//124 44//44
f 43//125 99//124 42//123
f 46//46 95//111 98//121
f 46//46 78//100 95//111
f 75//101 78//100 46//46
f 95//111 86//113 88//114
f 95//111 84//112 86//113
f 78//100 84//112 95//111
f 46//46 89//102 75//101
f 46//46 90//103 89//102
f 91//104 90//103 46//46
f 46//46 77//115 91//104
f 46//46 94//110 77//115
f 57//106 94//110 46//46
f 46//46 92//105 57//106
f 46//46 50//53 92//105
f 51//54 50//53 46//46
f 44//44 40//45 36//47
f 44//44 45//46 40//45
f 58//69 94//109 57//68
f 58//69 77//88 94//109
f 47//65 55//64 49//66
f 47//65 27//27 55//64
f 92//108 93//107 57//68
f 92//108 50//58 93//107
f 38//38 32//32 31//31
f 38//38 43//43 32//32
f 15//15 52//56 1//1
f 15//15 13//13 52//56
f 39//128 99//124 43//129
f 39//128 37//127 99//124
f 49//52 46//46 47//50
f 49//52 48//51 46//46
f 29//61 46//46 48//51
f 29//61 53//60 46//46
f 48//63 24//24 29//29
f 48//63 54//62 24//24
f 1//55 46//46 53//60
f 1//55 51//54 46//46
f 41//41 40//40 83//94
f 41//41 36//36 40//40
f 42//42 35//35 43//43
f 42//42 36//36 35//35
f 54//62 28//28 24//24
f 10//10 20//20 18//18
# 194 faces

