# RFL_Res.dat Editor OBJ Exporter v1.3 - (c) 2018 Atlas Vryzas Software

#
# object hair
#

v  0 69.24313 -6.309804
v  10.60392 66.94902 5.823529
v  0 68.64706 6.121569
v  10.60392 67.4902 -6
v  10.60392 63.99608 -17.63922
v  18.76471 58.18431 -15.83922
v  0 65.56863 -18.54902
v  10.60392 56.11765 -27.02353
v  0 57.28627 -28.41961
v  10.60392 45.50588 -33.15294
v  19.78823 43.70588 -26.39216
v  0 46.12549 -34.86274
v  0 33.43922 -35.24314
v  11.3098 33.43922 -33.51765
v  0 22.01569 -31.37255
v  11.3098 22.57647 -29.83922
v  27.36863 32.97255 0
v  26.12941 33.43922 -16
v  24 21.9098 -9.019608
v  25.44314 44.26274 -12.90196
v  0 58 26
v  5 57.32549 25.06275
v  0 50.32549 29
v  10.60392 62.50196 17
v  0 64.50196 18
v  20.10588 61.58823 3.082353
v  25.44314 52.96078 -2.866667
v  27.88235 42.92941 -1.427451
v  25.44314 49 8
v  10 39 25
v  5 49.76471 27
v  10 49 26
v  0 45.54118 6.878431
v  10 56 24
v  19 46.45098 21
v  18.56863 36.38824 20
v  15 48.16079 23.03529
v  0 39 27
v  0 34.01961 0
v  24.86667 27 11
v  19.78823 24.19608 -25.38039
v  18.67059 15.55686 -13.8902
v  18.76471 58.50196 14
v  20.76078 51.46275 18.77647
v  23.05882 44.04314 16.60392
v  10.67059 10.89412 -18.37647
v  0 9.631372 -19.10196
v  27.31373 39 8
v  14.50196 54.32549 22.13333
v  -10.6 66.94902 5.823529
v  -10.6 67.4902 -6
v  -18.76078 58.18431 -15.83922
v  -10.6 63.99608 -17.63922
v  -10.6 56.11765 -27.02353
v  -19.78431 43.70588 -26.39216
v  -10.6 45.50588 -33.15294
v  -11.30588 33.43922 -33.51765
v  -11.30588 22.57647 -29.83922
v  -26.12549 33.43922 -16
v  -27.36471 32.97255 0
v  -24 21.9098 -9.019608
v  -25.43922 44.26274 -12.90196
v  -5 49.76471 27
v  -5 57.32549 25.06275
v  -10.6 62.50196 17
v  -20.10196 61.58823 3.082353
v  -27.87843 42.92941 -1.427451
v  -25.43922 52.96078 -2.866667
v  -25.43922 49 8
v  -10 39 25
v  -10 49 26
v  -10 56 24
v  -18.56471 36.38824 20
v  -19 46.45098 21
v  -15 48.16079 23.03529
v  -24.86275 27 11
v  -18.66667 15.55686 -13.8902
v  -19.78431 24.19608 -25.38039
v  -18.76078 58.50196 14
v  -23.0549 44.04314 16.60392
v  -20.75686 51.46275 18.77647
v  -10.66667 10.89412 -18.37647
v  -27.3098 39 8
v  -14.49804 54.32549 22.13333
# 84 vertices

vn 0 0.9979166 -0.0653799
vn 0.3466912 0.9186274 0.1898284
vn 0 0.9678922 0.2514706
vn 0.3851103 0.9098652 -0.1545956
vn 0.3466912 0.8044118 -0.4824755
vn 0.7386029 0.576777 -0.3491422
vn 0 0.9104779 -0.4135417
vn 0.4047794 0.5634804 -0.7201593
vn 0 0.6867034 -0.7269608
vn 0.3517157 0.215625 -0.9109069
vn 0.7645221 0.203125 -0.6117647
vn 0 0.3528186 -0.9357231
vn 0 -0.08523284 -0.9963235
vn 0.3825368 -0.1492034 -0.9117647
vn 0 -0.4590686 -0.8883578
vn 0.2790441 -0.546875 -0.7893382
vn 0.991973 -0.1265319 0.003063726
vn 0.9612745 -0.06329657 -0.2683823
vn 0.9105392 -0.3523284 -0.2163603
vn 0.9260417 0.2394608 -0.2918505
vn 0 0.5895833 0.8077819
vn 0.2784314 0.5237745 0.8051471
vn 0 0.1528799 0.9882966
vn 0.3529412 0.7816789 0.514277
vn 0 0.8418505 0.5398897
vn 0.7310049 0.6792892 0.06629902
vn 0.921201 0.3802696 -0.08296569
vn 0.9935049 0.1095588 -0.03161765
vn 0.9236519 0.304902 0.2324142
vn 0.3441789 -0.09344362 0.9343137
vn 0.2869485 0.0971201 0.9530637
vn 0.3852328 0.1012868 0.9173407
vn 0 -0.9387255 0.3445466
vn 0.06452206 -0.9797794 0.1893995
vn -0.1669118 -0.9531863 -0.2518382
vn 0.3614583 0.4250613 0.8299019
vn 0.5900735 0.03578432 0.8066176
vn 0.5673407 -0.1056985 0.8167279
vn 0.4890319 0.03431373 0.8716299
vn 0 -0.1738971 0.9847426
vn 0 -0.9510416 -0.3090686
vn 0 -0.8799632 0.475
vn -0.402451 -0.7533088 0.520098
vn -0.03762255 -0.9804534 0.1928922
vn 0.7327206 -0.3744485 -0.5682598
vn 0.735049 -0.5743873 -0.3601716
vn 0.6653186 0.6323529 0.396875
vn 0.7645833 0.2938725 0.5737745
vn 0.8515931 0.04613971 0.5223039
vn 0.4128064 -0.6821691 -0.6034926
vn 0 -0.703799 -0.7102941
vn 0.9726103 0.01660539 0.2319853
vn -0.02408088 -0.6275123 0.7782475
vn 0.5277573 0.3768382 0.7612745
vn -0.3606005 -0.9230392 -0.1335172
vn -0.09871323 -0.9917279 0.08137255
vn 0.03112745 -0.9907476 0.1318015
vn 0.9446691 -0.1159927 0.306924
vn -0.3466299 0.9186274 0.1898284
vn -0.385049 0.9098652 -0.1545956
vn -0.7385417 0.576777 -0.3491422
vn -0.3466299 0.8044118 -0.4824755
vn -0.4047181 0.5634804 -0.7201593
vn -0.7644608 0.203125 -0.6117647
vn -0.3516544 0.215625 -0.9109069
vn -0.3824755 -0.1492034 -0.9117647
vn -0.2789828 -0.546875 -0.7893382
vn -0.9612132 -0.06329657 -0.2683823
vn -0.9919118 -0.1265319 0.003063726
vn -0.9104779 -0.3523284 -0.2163603
vn -0.9259804 0.2394608 -0.2918505
vn -0.2868873 0.0971201 0.9530637
vn -0.2783701 0.5237745 0.8051471
vn -0.3528799 0.7816789 0.514277
vn -0.7309436 0.6792892 0.06629902
vn -0.9934436 0.1095588 -0.03161765
vn -0.9211397 0.3802696 -0.08296569
vn -0.9235907 0.304902 0.2324142
vn -0.3441176 -0.09344362 0.9343137
vn -0.3851716 0.1012868 0.9173407
vn -0.06446078 -0.9797794 0.1893995
vn 0.166973 -0.9531863 -0.2518382
vn -0.3613971 0.4250613 0.8299019
vn -0.5672794 -0.1056985 0.8167279
vn -0.5900123 0.03578432 0.8066176
vn -0.4889706 0.03431373 0.8716299
vn 0.4025123 -0.7533088 0.520098
vn 0.03768382 -0.9804534 0.1929534
vn -0.7349877 -0.5743873 -0.3601716
vn -0.7326593 -0.3744485 -0.5682598
vn -0.6652573 0.6323529 0.396875
vn -0.8515319 0.04613971 0.5223039
vn -0.7645221 0.2938725 0.5737745
vn -0.4127451 -0.6821691 -0.6034926
vn -0.972549 0.01660539 0.2319853
vn 0.02414216 -0.6275123 0.7782475
vn -0.5276961 0.3768382 0.7612745
vn 0.09877451 -0.9917279 0.08137255
vn 0.3606618 -0.9230392 -0.1335172
vn -0.03106618 -0.9907476 0.1318015
vn -0.9446079 -0.1159927 0.306924
# 101 vertex normals

# 0 texture coords

g hair
f 78//90 82//94 77//89
f 78//90 58//67 82//94
f 57//66 58//67 78//90
f 57//66 15//15 58//67
f 13//13 15//15 57//66
f 13//13 14//14 15//15
f 10//10 14//14 13//13
f 10//10 11//11 14//14
f 8//8 11//11 10//10
f 8//8 6//6 11//11
f 5//5 6//6 8//8
f 5//5 4//4 6//6
f 7//7 4//4 5//5
f 7//7 1//1 4//4
f 51//60 1//1 7//7
f 51//60 50//59 1//1
f 66//75 50//59 51//60
f 66//75 79//91 50//59
f 69//78 79//91 66//75
f 69//78 81//93 79//91
f 80//92 81//93 69//78
f 80//92 74//85 81//93
f 73//84 74//85 80//92
f 73//84 75//86 74//85
f 84//97 81//93 74//85
f 84//97 79//91 81//93
f 65//74 79//91 84//97
f 65//74 50//59 79//91
f 3//3 50//59 65//74
f 3//3 1//1 50//59
f 2//2 1//1 3//3
f 2//2 4//4 1//1
f 26//26 4//4 2//2
f 26//26 6//6 4//4
f 27//27 6//6 26//26
f 27//27 20//20 6//6
f 28//28 20//20 27//27
f 28//28 18//18 20//20
f 17//17 18//18 28//28
f 17//17 19//19 18//18
f 49//54 24//24 34//36
f 49//54 43//47 24//24
f 44//48 43//47 49//54
f 44//48 29//29 43//47
f 45//49 29//29 44//48
f 45//49 48//52 29//29
f 40//58 48//52 45//49
f 40//58 17//17 48//52
f 31//31 22//22 23//23
f 31//31 34//36 22//22
f 32//32 34//36 31//31
f 32//32 49//54 34//36
f 37//39 49//54 32//32
f 37//39 35//37 49//54
f 36//38 35//37 37//39
f 36//38 45//49 35//37
f 62//71 59//68 67//76
f 62//71 55//64 59//68
f 52//61 55//64 62//71
f 52//61 54//63 55//64
f 53//62 54//63 52//61
f 53//62 9//9 54//63
f 7//7 9//9 53//62
f 7//7 5//5 9//9
f 61//70 78//90 77//89
f 61//70 59//68 78//90
f 60//69 59//68 61//70
f 60//69 67//76 59//68
f 83//95 67//76 60//69
f 83//95 69//78 67//76
f 80//92 69//78 83//95
f 55//64 78//90 59//68
f 55//64 57//66 78//90
f 56//65 57//66 55//64
f 56//65 13//13 57//66
f 12//12 13//13 56//65
f 12//12 10//10 13//13
f 8//8 10//10 12//12
f 72//83 65//74 84//97
f 72//83 64//73 65//74
f 63//72 64//73 72//83
f 63//72 23//23 64//73
f 38//40 23//23 63//72
f 38//40 31//31 23//23
f 54//63 56//65 55//64
f 54//63 12//12 56//65
f 9//9 12//12 54//63
f 9//9 8//8 12//12
f 5//5 8//8 9//9
f 39//42 60//88 61//96
f 39//42 76//87 60//88
f 33//33 76//87 39//42
f 33//33 80//98 76//87
f 73//99 80//98 33//33
f 75//86 84//97 74//85
f 75//86 71//80 84//97
f 70//79 71//80 75//86
f 70//79 63//72 71//80
f 64//73 25//25 65//74
f 64//73 21//21 25//25
f 23//23 21//21 64//73
f 23//23 22//22 21//21
f 28//28 48//52 17//17
f 28//28 29//29 48//52
f 27//27 29//29 28//28
f 27//27 26//26 29//29
f 24//24 22//22 34//36
f 24//24 25//25 22//22
f 3//3 25//25 24//24
f 3//3 65//74 25//25
f 52//61 66//75 51//60
f 52//61 68//77 66//75
f 62//71 68//77 52//61
f 62//71 67//76 68//77
f 46//50 41//45 42//46
f 46//50 16//16 41//45
f 47//51 16//16 46//50
f 47//51 15//15 16//16
f 33//33 75//100 73//99
f 33//33 70//82 75//100
f 63//81 70//82 33//33
f 33//33 38//41 63//81
f 33//33 31//34 38//41
f 30//35 31//34 33//33
f 33//33 37//57 30//35
f 33//33 36//55 37//57
f 45//56 36//55 33//33
f 41//45 19//19 42//46
f 41//45 18//18 19//19
f 11//11 18//18 41//45
f 33//33 40//43 45//56
f 33//33 39//42 40//43
f 17//44 39//42 19//53
f 17//44 40//43 39//42
f 58//67 47//51 82//94
f 58//67 15//15 47//51
f 76//101 83//95 60//69
f 76//101 80//92 83//95
f 20//20 11//11 6//6
f 20//20 18//18 11//11
f 35//37 44//48 49//54
f 35//37 45//49 44//48
f 26//26 43//47 29//29
f 26//26 2//2 43//47
f 2//2 24//24 43//47
f 2//2 3//3 24//24
f 32//32 30//30 37//39
f 32//32 31//31 30//30
f 71//80 72//83 84//97
f 71//80 63//72 72//83
f 53//62 51//60 7//7
f 53//62 52//61 51//60
f 68//77 69//78 66//75
f 68//77 67//76 69//78
f 41//45 14//14 11//11
f 41//45 16//16 14//14
f 25//25 21//21 22//22
f 16//16 15//15 14//14
# 158 faces

