# RFL_Res.dat Editor OBJ Exporter v1.3 - (c) 2018 Atlas Vryzas Software

#
# object hair
#

v  0 9.631372 -19.10196
v  11.05882 20 -27
v  0 19 -29
v  10.67059 10.89412 -18.37647
v  19.78823 21 -20
v  18.67059 15.55686 -13.8902
v  11.40784 32.99608 -33.2
v  0 33.00784 -34.90981
v  21.15686 32.37647 -27
v  24 21.9098 -9.019608
v  21.23922 44.50588 -24.4
v  26.28627 32 -20
v  28.45098 32 -12
v  11.64314 45.14118 -32.84314
v  0 45.75686 -34.53333
v  27.40392 44 -13.07059
v  29.68628 32 0
v  25.71765 43.87451 10.67451
v  28.48235 43.8902 -1.043137
v  26.99216 32 9.482353
v  23.96471 53.87843 -12.47451
v  25 52.91373 -1.803922
v  23.28235 52.02353 11.76078
v  10.44706 56.01961 -26.33333
v  0 56.53725 -28.30588
v  19 54.94902 -21
v  0 23.5451 2.823529
v  0 53.15686 0
v  -11.0549 20 -27
v  -10.66667 10.89412 -18.37647
v  -19.78431 21 -20
v  -18.66667 15.55686 -13.8902
v  -11.40392 32.99608 -33.2
v  -21.15294 32.37647 -27
v  -24 21.9098 -9.019608
v  -21.23529 44.50588 -24.4
v  -26.28235 32 -20
v  -28.44706 32 -12
v  -11.63922 45.14118 -32.84314
v  -27.4 44 -13.07059
v  -25.71373 43.87451 10.67451
v  -29.68235 32 0
v  -28.47843 43.8902 -1.043137
v  -26.98824 32 9.482353
v  -23.96078 53.87843 -12.47451
v  -24.99608 52.91373 -1.803922
v  -23.27843 52.02353 11.76078
v  -10.44314 56.01961 -26.33333
v  -19 54.94902 -21
# 49 vertices

vn 0 -0.7083333 -0.7057598
vn 0.364277 -0.5629289 -0.7418505
vn 0 -0.5252451 -0.8509191
vn 0.4473039 -0.6564338 -0.6074755
vn 0.7025123 -0.526777 -0.4785539
vn 0.7362132 -0.5665441 -0.3700368
vn 0.3803922 -0.1749387 -0.9080882
vn 0 -0.113174 -0.9935662
vn 0.6602941 -0.2110907 -0.7207108
vn 0.8582721 -0.4630515 -0.2213235
vn 0.7575368 0.2185049 -0.6151348
vn 0.8911152 -0.1760417 -0.4182598
vn 0.9778799 -0.1333946 -0.1612745
vn 0.3972426 0.2531863 -0.8820466
vn 0 0.3617034 -0.9322917
vn 0.9443628 0.2268995 -0.2380515
vn 0.996201 -0.03627451 0.07996324
vn 0.9588235 0.1489583 0.2420343
vn 0.9753677 0.2139706 0.05459559
vn 0.9591299 0.07585784 0.2727329
vn 0.8871936 0.3308211 -0.3218137
vn 0.9359069 0.352451 -0.000245098
vn 0.9331495 0.310049 0.1821078
vn 0.2846201 0.505576 -0.8144608
vn 0 0.5 -0.8659927
vn 0.6696078 0.3963848 -0.628125
vn 0 -0.4693015 0.883027
vn -0.2660539 0.4096814 0.8726103
vn -0.1800245 -0.1478554 0.9724877
vn 0 0.9637868 0.2669118
vn 0.05147059 -0.7142157 0.6980392
vn 0.2867034 -0.880576 0.3772059
vn 0.2662377 -0.7214461 0.639277
vn 0.0216299 0.9949142 0.09877451
vn 0.0153799 0.996875 0.07781862
vn 0 0.9930147 0.1185662
vn 0.03615196 0.9918505 0.1222426
vn -0.3642157 -0.5629289 -0.7418505
vn -0.4472426 -0.6564338 -0.6074755
vn -0.702451 -0.526777 -0.4785539
vn -0.7361519 -0.5665441 -0.3700368
vn -0.3803309 -0.1749387 -0.9080882
vn -0.6602328 -0.2110907 -0.7207108
vn -0.8582108 -0.4630515 -0.2213235
vn -0.7574755 0.2185049 -0.6151348
vn -0.8910539 -0.1760417 -0.4182598
vn -0.9778186 -0.1333946 -0.1612745
vn -0.3971814 0.2531863 -0.8820466
vn -0.9443015 0.2268995 -0.2380515
vn -0.9587622 0.1489583 0.2420343
vn -0.9961397 -0.03627451 0.07996324
vn -0.9753064 0.2139706 0.05459559
vn -0.9590687 0.07585784 0.2727329
vn -0.8871323 0.3308211 -0.3218137
vn -0.9358456 0.352451 -0.000245098
vn -0.9330882 0.310049 0.1821078
vn -0.2845588 0.505576 -0.8144608
vn -0.6695465 0.3963848 -0.628125
vn 0.2661152 0.4096814 0.8726103
vn 0.1800858 -0.1478554 0.9724877
vn -0.2866422 -0.880576 0.3772059
vn -0.05140931 -0.7142157 0.6980392
vn -0.2661765 -0.7214461 0.639277
vn -0.01531863 0.996875 0.07781862
vn -0.02156863 0.9949142 0.09877451
vn -0.03609069 0.9918505 0.1222426
# 66 vertex normals

# 0 texture coords

g hair
f 17//17 18//18 20//20
f 17//17 19//19 18//18
f 13//13 19//19 17//17
f 13//13 16//16 19//19
f 12//12 16//16 13//13
f 12//12 11//11 16//16
f 9//9 11//11 12//12
f 9//9 7//7 11//11
f 2//2 7//7 9//9
f 2//2 3//3 7//7
f 1//1 3//3 2//2
f 1//1 29//38 3//3
f 30//39 29//38 1//1
f 30//39 31//40 29//38
f 32//41 31//40 30//39
f 32//41 35//44 31//40
f 7//7 14//14 11//11
f 7//7 8//8 14//14
f 3//3 8//8 7//7
f 3//3 33//42 8//8
f 29//38 33//42 3//3
f 29//38 34//43 33//42
f 31//40 34//43 29//38
f 31//40 37//46 34//43
f 35//44 37//46 31//40
f 35//44 38//47 37//46
f 42//51 38//47 35//44
f 42//51 43//52 38//47
f 19//19 23//23 18//18
f 19//19 22//22 23//23
f 16//16 22//22 19//19
f 16//16 21//21 22//22
f 11//11 21//21 16//16
f 11//11 26//26 21//21
f 14//14 26//26 11//11
f 14//14 24//24 26//26
f 15//15 24//24 14//14
f 15//15 25//25 24//24
f 48//57 25//25 15//15
f 39//48 48//57 15//15
f 39//48 49//58 48//57
f 36//45 49//58 39//48
f 36//45 45//54 49//58
f 40//49 45//54 36//45
f 40//49 46//55 45//54
f 43//52 46//55 40//49
f 8//8 15//15 14//14
f 8//8 39//48 15//15
f 33//42 39//48 8//8
f 33//42 36//45 39//48
f 34//43 36//45 33//42
f 34//43 37//46 36//45
f 10//10 13//13 17//17
f 10//10 12//12 13//13
f 5//5 12//12 10//10
f 5//5 9//9 12//12
f 2//2 9//9 5//5
f 27//27 47//59 41//60
f 27//27 28//30 47//59
f 23//28 28//30 27//27
f 23//28 22//35 28//30
f 41//50 42//51 44//53
f 41//50 43//52 42//51
f 47//56 43//52 41//50
f 47//56 46//55 43//52
f 27//27 42//61 35//63
f 27//27 44//62 42//61
f 41//60 44//62 27//27
f 28//30 46//64 47//59
f 28//30 45//65 46//64
f 49//66 45//65 28//30
f 28//30 48//66 49//66
f 28//66 25//37 48//36
f 24//30 25//30 28//36
f 28//30 26//37 24//37
f 28//37 21//35 26//34
f 22//30 21//30 28//34
f 40//49 38//47 43//52
f 40//49 37//46 38//47
f 36//45 37//46 40//49
f 17//32 27//27 10//33
f 17//32 20//31 27//27
f 18//29 27//27 20//31
f 18//29 23//28 27//27
f 6//6 5//5 10//10
f 6//6 4//4 5//5
f 4//4 2//2 5//5
f 4//4 1//1 2//2
# 88 faces

