# RFL_Res.dat Editor OBJ Exporter v1.3 - (c) 2018 Atlas Vryzas Software

#
# object hair
#

v  26.05882 38.05098 19.18824
v  15.33725 39.36863 26.64706
v  22.14118 44.77647 26.64706
v  22.12941 34.93333 19.18824
v  26.2549 40.58039 14.56078
v  23.07843 47.82745 18.60784
v  8.490196 46.48235 29.43137
v  16.34902 52.72549 29.43137
v  18.72941 54.61568 19.83137
v  3.65098 53.92157 26.64706
v  9.917647 60.16863 26.64706
v  12.71373 60.38824 18.60784
v  0 60.82353 19.68235
v  6.545098 66 16
v  14.48235 64.6549 11.86275
v  27.36471 33 6
v  0 56.54902 -3.937255
v  0 68.5451 5
v  9.772549 67.63921 2.392157
v  10.39608 51.34118 23.53725
v  18.61961 50.90981 18.60392
v  0 9.631372 -19.10196
v  11.3098 22.57647 -29.83922
v  0 22.01569 -31.37255
v  10.67059 10.89412 -18.37647
v  19.78823 24.19608 -25.38039
v  18.67059 15.55686 -13.8902
v  11.3098 33.43922 -33.51765
v  0 33.43922 -35.24314
v  10.60392 45.50588 -33.15294
v  0 46.12549 -34.86274
v  10.62353 67.45882 -6.380392
v  0 65.56863 -18.54902
v  10.60392 63.99608 -17.63922
v  0 69.19608 -6.690196
v  19.23529 63 2
v  19.78823 43.70588 -26.39216
v  18.76471 58.18431 -15.83922
v  10.60392 56.11765 -27.02353
v  24 21.9098 -9.019608
v  26.12941 33.43922 -16
v  25.44314 44.26274 -12.90196
v  25.44314 52.96078 -2.866667
v  23.98431 57 6.427451
v  26.61961 50 13
v  22.02353 59 14
v  25.49804 51 6
v  27.26274 32.96863 0.8352941
v  0 57.28627 -28.41961
v  26.91765 43 4.047059
v  28.08235 42 11
v  -15.33333 39.36863 26.64706
v  -26.0549 38.05098 19.18824
v  -22.13725 44.77647 26.64706
v  -22.12549 34.93333 19.18824
v  -26.25098 40.58039 14.56078
v  -23.07451 47.82745 18.60784
v  -8.486275 46.48235 29.43137
v  -16.3451 52.72549 29.43137
v  -18.72549 54.61568 19.83137
v  -3.647059 53.92157 26.64706
v  -9.913726 60.16863 26.64706
v  -12.7098 60.38824 18.60784
v  -6.541176 66 16
v  -14.47843 64.6549 11.86275
v  -27.36078 33 6
v  -9.768627 67.63921 2.392157
v  -10.39216 51.34118 23.53725
v  -18.61569 50.90981 18.60392
v  -11.30588 22.57647 -29.83922
v  -10.66667 10.89412 -18.37647
v  -19.78431 24.19608 -25.38039
v  -18.66667 15.55686 -13.8902
v  -11.30588 33.43922 -33.51765
v  -10.6 45.50588 -33.15294
v  -10.61961 67.45882 -6.380392
v  -10.6 63.99608 -17.63922
v  -19.23137 63 2
v  -19.78431 43.70588 -26.39216
v  -18.76078 58.18431 -15.83922
v  -10.6 56.11765 -27.02353
v  -26.12549 33.43922 -16
v  -24 21.9098 -9.019608
v  -25.43922 44.26274 -12.90196
v  -25.43922 52.96078 -2.866667
v  -26.61569 50 13
v  -23.98039 57 6.427451
v  -22.01961 59 14
v  -25.49412 51 6
v  -27.25882 32.96863 0.8352941
v  -26.91372 43 4.047059
v  -28.07843 42 11
# 92 vertices

vn 0.8007966 -0.345527 0.4891544
vn 0.3545343 -0.4463235 0.8216912
vn 0.7171569 0.0254902 0.6965686
vn 0.5221814 -0.6574755 0.5431985
vn 0.9605392 0.2212623 0.1686887
vn 0.8653799 0.4231618 0.2686275
vn 0.05269608 -0.06623775 0.9964461
vn 0.4471201 0.3991421 0.8005515
vn 0.7189338 0.6347426 0.2834559
vn -0.2941789 0.311397 0.9036765
vn 0.1902574 0.7575368 0.6245711
vn 0.5074755 0.7232843 0.4685049
vn -0.4103554 0.7075368 0.5753676
vn 0.123652 0.9169731 0.3794118
vn 0.4271446 0.8492647 0.3105392
vn 0.89375 -0.3821691 0.2349878
vn 0 -0.9913603 0.1308211
vn -0.8805147 -0.4694853 0.06470589
vn -0.7901348 -0.6126838 0.01617647
vn 0 -0.9840074 0.1781863
vn 0 0.9753064 0.2209559
vn 0.2589461 0.9628063 0.07787991
vn 0.1851716 -0.06292892 0.9807598
vn 0.381924 0.07169118 0.9214461
vn 0.2254902 0.421201 0.8785539
vn 0.1452206 -0.3150122 0.9378676
vn 0 -0.703799 -0.7102941
vn 0.2790441 -0.546875 -0.7893382
vn 0 -0.4590686 -0.8883578
vn 0.4128064 -0.6821691 -0.6034926
vn 0.7327206 -0.3744485 -0.5682598
vn 0.735049 -0.5743873 -0.3601716
vn 0.3825368 -0.1492034 -0.9117647
vn 0 -0.08523284 -0.9963235
vn 0.3517157 0.215625 -0.9109069
vn 0 0.3528186 -0.9357231
vn 0.3683211 0.9130515 -0.1754289
vn 0 0.9088235 -0.4172794
vn 0.3465073 0.803125 -0.4847426
vn 0 0.9967524 -0.08118872
vn 0.6539828 0.7556372 -0.03780637
vn 0.7645221 0.203125 -0.6117647
vn 0.735723 0.5749387 -0.358027
vn 0.4047794 0.5634804 -0.7201593
vn -0.7485294 -0.5416667 0.3824755
vn 0.9119485 -0.350674 -0.2131127
vn 0.9578431 -0.06960784 -0.2787378
vn 0.9574142 0.186152 -0.2206495
vn 0.9337623 0.3427696 -0.1036765
vn 0.900429 0.4351103 -0.008333333
vn 0.9338848 0.2734681 0.2306373
vn 0.6746324 0.6281863 0.3876225
vn 0.9661765 0.2272672 -0.1221814
vn 0.9969975 -0.02702206 -0.07352941
vn 0 0.6867034 -0.7269608
vn 0.9933211 0.1068627 -0.04375
vn 0.9765319 0.1658701 -0.1375613
vn 0.9816789 0.01488971 0.1900735
vn -0.2095588 -0.3019608 0.9300245
vn 0.9700367 -0.1723039 0.1711397
vn 0.8995098 -0.08174019 0.4292892
vn 0.9962623 0.007291667 -0.08670343
vn 0.6339461 0.421875 0.6482843
vn 0.8207721 0.1629289 0.547549
vn 0.978125 0.2045956 0.03897059
vn -0.6791054 -0.7306373 -0.06991421
vn -0.6238971 -0.7715074 -0.1242034
vn -0.6391544 -0.7669117 -0.05723039
vn -0.6405025 -0.6615809 0.389951
vn -0.5308211 -0.471201 0.7044117
vn -0.354473 -0.4463235 0.8216912
vn -0.8007353 -0.345527 0.4891544
vn -0.7170956 0.0254902 0.6965686
vn -0.5221201 -0.6574755 0.5431985
vn -0.9604779 0.2212623 0.1686887
vn -0.8653187 0.4231618 0.2686275
vn -0.05263481 -0.06623775 0.9964461
vn -0.4470588 0.3991421 0.8005515
vn -0.7188725 0.6347426 0.2834559
vn 0.2942402 0.311397 0.9036765
vn -0.1901961 0.7575368 0.6245711
vn -0.5074142 0.7232843 0.4685049
vn 0.4104167 0.7075368 0.5753676
vn -0.1235907 0.9169731 0.3794118
vn -0.4270833 0.8492647 0.3105392
vn -0.8936887 -0.3821691 0.2349878
vn 0.880576 -0.4694853 0.06470589
vn -0.2588848 0.9628063 0.07787991
vn -0.3818628 0.07169118 0.9214461
vn -0.1851103 -0.06292892 0.9807598
vn -0.2254289 0.421201 0.8785539
vn -0.1451593 -0.3150122 0.9378676
vn -0.2789828 -0.546875 -0.7893382
vn -0.4127451 -0.6821691 -0.6034926
vn -0.7326593 -0.3744485 -0.5682598
vn -0.7349877 -0.5743873 -0.3601716
vn -0.3824755 -0.1492034 -0.9117647
vn -0.3516544 0.215625 -0.9109069
vn -0.3682598 0.9130515 -0.1754289
vn -0.3464461 0.803125 -0.4847426
vn -0.6539215 0.7556372 -0.03780637
vn -0.7644608 0.203125 -0.6117647
vn -0.7356617 0.5749387 -0.358027
vn -0.4047181 0.5634804 -0.7201593
vn 0.7485907 -0.5416667 0.3824755
vn -0.9577819 -0.06960784 -0.2787378
vn -0.9118872 -0.350674 -0.2131127
vn -0.9573529 0.186152 -0.2206495
vn -0.933701 0.3427696 -0.1036765
vn -0.9338235 0.2734681 0.2306373
vn -0.9003676 0.4351103 -0.008333333
vn -0.6745711 0.6281863 0.3876225
vn -0.9661152 0.2272672 -0.1221814
vn -0.9969363 -0.02702206 -0.07352941
vn -0.9932598 0.1068627 -0.04375
vn -0.9764706 0.1658701 -0.1375613
vn -0.9816176 0.01488971 0.1900735
vn 0.2096201 -0.3019608 0.9300245
vn -0.9699755 -0.1723039 0.1711397
vn -0.8994485 -0.08174019 0.4292892
vn -0.996201 0.007291667 -0.08670343
vn -0.6338848 0.421875 0.6482843
vn -0.8207108 0.1629289 0.547549
vn -0.9780637 0.2045956 0.03897059
vn 0.6239583 -0.7715074 -0.1242034
vn 0.6791667 -0.7306373 -0.06991421
vn 0.6392157 -0.7669117 -0.05723039
vn 0.7901961 -0.6126838 0.01617647
vn 0.6405637 -0.6615809 0.389951
vn 0.5308824 -0.471201 0.7044117
# 130 vertex normals

# 0 texture coords

g hair
f 78//101 80//103 85//109
f 78//101 76//99 80//103
f 67//88 76//99 78//101
f 67//88 35//40 76//99
f 18//21 35//40 67//88
f 18//21 19//22 35//40
f 14//14 19//22 18//21
f 14//14 15//15 19//22
f 12//12 15//15 14//14
f 12//12 46//52 15//15
f 9//63 46//52 12//12
f 9//63 45//51 46//52
f 6//64 45//51 9//63
f 6//64 51//58 45//51
f 5//61 51//58 6//64
f 5//61 16//60 51//58
f 85//109 91//115 89//124
f 85//109 84//108 91//115
f 80//103 84//108 85//109
f 80//103 79//102 84//108
f 81//104 79//102 80//103
f 81//104 75//98 79//102
f 31//36 75//98 81//104
f 31//36 29//34 75//98
f 30//35 29//34 31//36
f 30//35 28//33 29//34
f 37//42 28//33 30//35
f 37//42 26//31 28//33
f 41//47 26//31 37//42
f 41//47 40//46 26//31
f 48//54 40//46 41//47
f 84//108 90//114 91//115
f 84//108 82//106 90//114
f 79//102 82//106 84//108
f 79//102 72//95 82//106
f 74//97 72//95 79//102
f 74//97 70//93 72//95
f 24//29 70//93 74//97
f 24//29 22//27 70//93
f 23//28 22//27 24//29
f 23//28 25//30 22//27
f 26//31 25//30 23//28
f 26//31 27//32 25//30
f 40//46 27//32 26//31
f 13//13 14//14 18//21
f 13//13 11//11 14//14
f 10//10 11//11 13//13
f 10//10 8//8 11//11
f 7//7 8//8 10//10
f 7//7 3//3 8//8
f 2//2 3//3 7//7
f 2//2 1//1 3//3
f 4//4 1//1 2//2
f 4//4 16//16 1//1
f 87//111 85//109 89//124
f 87//111 78//101 85//109
f 88//112 78//101 87//111
f 88//112 65//85 78//101
f 63//82 65//85 88//112
f 63//82 64//84 65//85
f 62//81 64//84 63//82
f 62//81 13//83 64//84
f 61//80 13//83 62//81
f 60//79 62//81 63//82
f 60//79 59//78 62//81
f 57//76 59//78 60//79
f 57//76 54//73 59//78
f 56//75 54//73 57//76
f 56//75 53//72 54//73
f 66//86 53//72 56//75
f 66//86 55//74 53//72
f 5//5 1//1 16//16
f 5//5 3//3 1//1
f 6//6 3//3 5//5
f 6//6 8//8 3//3
f 9//9 8//8 6//6
f 9//9 11//11 8//8
f 12//12 11//11 9//9
f 12//12 14//14 11//11
f 33//38 49//55 77//100
f 33//38 34//39 49//55
f 32//37 34//39 33//38
f 32//37 38//43 34//39
f 36//41 38//43 32//37
f 36//41 43//49 38//43
f 44//50 43//49 36//41
f 44//50 47//65 43//49
f 77//100 80//103 76//99
f 77//100 81//104 80//103
f 49//55 81//104 77//100
f 49//55 31//36 81//104
f 39//44 31//36 49//55
f 39//44 30//35 31//36
f 37//42 30//35 39//44
f 59//78 61//80 62//81
f 59//78 58//77 61//80
f 54//73 58//77 59//78
f 54//73 52//71 58//77
f 53//72 52//71 54//73
f 53//72 55//74 52//71
f 44//50 45//51 47//53
f 44//50 46//52 45//51
f 36//41 46//52 44//50
f 36//41 15//15 46//52
f 19//22 15//15 36//41
f 88//112 60//122 63//82
f 88//112 86//110 60//122
f 87//111 86//110 88//112
f 87//111 89//113 86//110
f 86//110 57//123 60//122
f 86//110 92//117 57//123
f 91//116 92//117 86//110
f 91//116 90//121 92//117
f 72//95 73//96 83//107
f 72//95 71//94 73//96
f 70//93 71//94 72//95
f 70//93 22//27 71//94
f 50//56 43//49 47//65
f 50//56 42//48 43//49
f 48//54 42//48 50//56
f 48//54 41//47 42//48
f 17//17 90//129 83//130
f 17//17 66//127 90//129
f 55//125 66//127 17//17
f 17//17 52//126 55//125
f 17//17 58//128 52//126
f 61//87 58//128 17//17
f 17//17 13//20 61//87
f 17//17 10//18 13//20
f 7//19 10//18 17//17
f 92//117 56//120 57//123
f 92//117 66//119 56//120
f 90//121 66//119 92//117
f 9//23 21//26 6//59
f 9//23 20//24 21//26
f 12//25 20//24 9//23
f 32//37 19//22 36//41
f 32//37 35//40 19//22
f 33//38 35//40 32//37
f 42//48 38//43 43//49
f 42//48 37//42 38//43
f 41//47 37//42 42//48
f 48//62 51//58 16//60
f 48//62 50//57 51//58
f 50//57 45//51 51//58
f 50//57 47//53 45//51
f 23//28 28//33 26//31
f 23//28 24//29 28//33
f 4//67 17//17 16//68
f 4//67 2//66 17//17
f 82//106 83//107 90//114
f 82//106 72//95 83//107
f 75//98 74//97 79//102
f 75//98 29//34 74//97
f 65//85 67//88 78//101
f 65//85 64//84 67//88
f 29//34 24//29 74//97
f 29//34 28//33 24//29
f 76//99 33//38 77//100
f 76//99 35//40 33//38
f 64//84 18//21 67//88
f 64//84 13//83 18//21
f 69//92 60//90 57//118
f 69//92 68//89 60//90
f 34//39 39//44 49//55
f 34//39 38//43 39//44
f 48//69 17//17 40//70
f 48//69 16//68 17//17
f 57//105 56//105 66//105
f 63//91 60//90 68//89
f 2//66 7//19 17//17
f 6//45 16//45 5//45
f 89//113 91//116 86//110
f 39//44 38//43 37//42
# 174 faces

