# RFL_Res.dat Editor OBJ Exporter v1.3 - (c) 2018 Atlas Vryzas Software

#
# object hair
#

v  6.615686 -6.333333 -29.87451
v  0 -5.866667 -37.16471
v  0 -8.658824 -30.05882
v  7.807843 -0.145098 -30.69412
v  0 5.988235 -39.41177
v  9.427451 16.67843 -32.18824
v  3.47451 20.33333 -37.87059
v  0 8.937255 -21.2
v  11.58039 53.30196 24.98039
v  24.03137 48.23529 23.6
v  15.47059 38.72549 27.17255
v  19.81176 62.27059 20.72157
v  6.490196 64.43137 20.20392
v  11.76863 68.86667 15.09804
v  0 63.24706 19.58824
v  0 67.53333 6.098039
v  18.15686 31.03922 25.87059
v  26.48627 34.45098 24.72941
v  21.02353 28.29804 19.07451
v  20.75294 55.53725 11.12941
v  27.41961 36.78823 11.80784
v  14.38039 64.85883 9.87451
v  23.45882 7.301961 17.7451
v  30.32157 8.254902 14.38431
v  27.15686 5.098039 13.18431
v  28.68235 10.42745 4.972549
v  28.81176 6.309804 7.411765
v  22.40392 13.58039 18.6902
v  29.61569 17.43529 14.53333
v  29.72549 25.75294 9.356863
v  25.71765 31.06275 15.38824
v  28.58039 21.93333 2.698039
v  13.34118 29.42745 3.047059
v  16.91372 69.88628 4.007843
v  24.3451 63.30196 3.909804
v  35.68235 28.87843 3.552941
v  15.58823 65.36471 -1.45098
v  28.17647 3.039216 -1.333333
v  32.58823 2.52549 -6.537255
v  27.54118 0.345098 -6.286274
v  25.11373 7.105882 -14.71373
v  27.04706 1.745098 -12.14118
v  28.21569 9.584313 1.094118
v  33.5647 11.49804 -7.243137
v  29.2902 22.28235 -11.41177
v  30.93726 24.25098 -3.901961
v  23.60784 17.82353 -16.66667
v  27.43137 35.2 -6.937255
v  31.97255 47.5647 3.909804
v  22.25882 55.37647 -4.227451
v  18.67059 14.85882 -15.98431
v  31.84706 25.40784 -21.90196
v  26.57647 48.6549 -18.36078
v  18.75686 66.12157 -12.96471
v  13.26667 70.98039 -5.745098
v  14.58823 55.96471 -20.41569
v  9.639215 66.8353 -10.78039
v  21.66667 -4.811765 -18.88235
v  21.01961 -3.584314 -27.9098
v  17.61176 -7.294117 -23.06274
v  10.87843 -0.03137255 -29.92157
v  13.02745 -6.682353 -27.22745
v  22.88235 2.807843 -18.36863
v  21.11765 7.57647 -30.41176
v  16.63922 20.74118 -31.43922
v  22.1451 21.83922 -23.66274
v  18.55686 35.47059 -26.75294
v  10.67059 10.19608 -20.47059
v  12.38039 24.94118 -41.53725
v  10.89804 50.27843 -34.78431
v  8.184314 66.07843 -24.0902
v  5.560784 71.10196 -13.6902
v  0 57.33333 -27.85882
v  0 66.58431 -13.64314
v  0 37.07843 -37.37647
v  24 21.20784 -11.11765
v  -13.33725 29.42745 3.047059
v  -6.611765 -6.333333 -29.87451
v  -7.803922 -0.145098 -30.69412
v  -3.470588 20.33333 -37.87059
v  -9.42353 16.67843 -32.18824
v  -24.02745 48.23529 23.6
v  -11.57647 53.30196 24.98039
v  -15.46667 38.72549 27.17255
v  -19.80784 62.27059 20.72157
v  -6.486275 64.43137 20.20392
v  -11.76471 68.86667 15.09804
v  -26.48235 34.45098 24.72941
v  -18.15294 31.03922 25.87059
v  -21.01961 28.29804 19.07451
v  -20.74902 55.53725 11.12941
v  -27.41569 36.78823 11.80784
v  -14.37647 64.85883 9.87451
v  -30.31765 8.254902 14.38431
v  -23.4549 7.301961 17.7451
v  -27.15294 5.098039 13.18431
v  -28.67843 10.42745 4.972549
v  -28.80784 6.309804 7.411765
v  -29.61176 17.43529 14.53333
v  -22.4 13.58039 18.6902
v  -29.72157 25.75294 9.356863
v  -25.71373 31.06275 15.38824
v  -28.57647 21.93333 2.698039
v  -24.34118 63.30196 3.909804
v  -16.9098 69.88628 4.007843
v  -35.67843 28.87843 3.552941
v  -15.58431 65.36471 -1.45098
v  -32.58431 2.52549 -6.537255
v  -28.17255 3.039216 -1.333333
v  -27.53725 0.345098 -6.286274
v  -25.1098 7.105882 -14.71373
v  -27.04314 1.745098 -12.14118
v  -33.56078 11.49804 -7.243137
v  -28.21177 9.584313 1.094118
v  -29.28627 22.28235 -11.41177
v  -30.93333 24.25098 -3.901961
v  -23.60392 17.82353 -16.66667
v  -27.42745 35.2 -6.937255
v  -31.96863 47.5647 3.909804
v  -22.2549 55.37647 -4.227451
v  -18.66667 14.85882 -15.98431
v  -31.84314 25.40784 -21.90196
v  -26.57255 48.6549 -18.36078
v  -18.75294 66.12157 -12.96471
v  -13.26274 70.98039 -5.745098
v  -14.58431 55.96471 -20.41569
v  -9.635294 66.8353 -10.78039
v  -21.01569 -3.584314 -27.9098
v  -21.66274 -4.811765 -18.88235
v  -17.60784 -7.294117 -23.06274
v  -10.87451 -0.03137255 -29.92157
v  -13.02353 -6.682353 -27.22745
v  -21.11373 7.57647 -30.41176
v  -22.87843 2.807843 -18.36863
v  -16.63529 20.74118 -31.43922
v  -22.14118 21.83922 -23.66274
v  -18.55294 35.47059 -26.75294
v  -10.66667 10.19608 -20.47059
v  -12.37647 24.94118 -41.53725
v  -10.89412 50.27843 -34.78431
v  -8.180392 66.07843 -24.0902
v  -5.556863 71.10196 -13.6902
v  -24 21.20784 -11.11765
# 143 vertices

vn 0.5681372 -0.6083333 -0.5542279
vn 0 -0.5852329 -0.8108456
vn 0 -0.9306985 -0.365625
vn 0.6896446 -0.1465686 -0.7091299
vn 0 -0.09240196 -0.9957108
vn 0.641973 -0.1289828 -0.7557598
vn 0.3640931 -0.02389706 -0.9310662
vn 0 -0.4498774 0.893076
vn 0 -0.6289216 0.7775123
vn 0.4737132 -0.2708946 0.8380515
vn 0.1428309 0.2876838 0.9470588
vn 0.7485294 0.2881128 0.5973652
vn 0.2096814 0.07254902 0.9751226
vn 0.6258578 0.638174 0.4484681
vn -0.1218137 0.7814338 0.6119485
vn 0.2183211 0.9682598 0.1220588
vn 0 0.953125 0.3026961
vn 0 0.9939338 0.1106005
vn 0.3136642 -0.494424 0.8106618
vn 0.726777 -0.3457108 0.5935662
vn 0.5110907 -0.7818015 0.3571691
vn 0.8560662 0.404902 0.3214461
vn 0.9962623 0.0836397 0.02444853
vn 0.5734681 0.7867647 0.2286765
vn 0.4492034 -0.3747549 0.8110907
vn 0.8443627 -0.2966299 0.446201
vn 0.583701 -0.7243872 0.3667279
vn 0.989951 -0.01905637 -0.1403799
vn 0.9003676 -0.4286152 -0.07536764
vn 0.5034314 0.01960784 0.863848
vn 0.8900735 0.0836397 0.4482231
vn 0.9819853 0.05863971 0.1800245
vn 0.604228 0.03578432 0.7960784
vn 0.733701 0.1066789 0.6711397
vn 0.9873775 -0.02242647 -0.1567402
vn 0.8316789 -0.5403799 0.1276961
vn 0.8567402 0.06550245 0.5117647
vn -0.7523285 -0.5669118 -0.3352941
vn -0.6351716 -0.5308824 -0.5609682
vn -0.798223 -0.5900123 0.1210172
vn -0.3061887 -0.3372549 -0.8901961
vn -0.9082108 -0.4183823 -0.004534313
vn 0.2854779 0.9576593 0.0379902
vn 0.775429 0.6286765 0.05980392
vn 0.7394608 -0.389951 0.5487132
vn 0.9688113 -0.2211397 0.1115809
vn 0.6828431 -0.7158701 0.1458946
vn 0.7090074 0.1288603 0.6933824
vn 0.6228554 0.7671568 -0.1534926
vn 0.5941789 -0.5765319 0.5609069
vn 0.8589461 -0.511826 -0.01648284
vn 0.3982843 -0.9133579 0.08419117
vn 0.693321 -0.0658701 -0.7176471
vn 0.6273897 -0.5590686 -0.5419731
vn 0.8528799 -0.08394608 0.5154412
vn 0.9867647 0.02193628 -0.1606618
vn 0.8444853 0.1132353 -0.5234681
vn 0.9887255 0.1219976 0.08743872
vn 0.6927083 -0.03394608 -0.7204044
vn 0.9471201 -0.06875 0.3134804
vn 0.8726103 -0.3556985 -0.3348039
vn 0.9375 0.2267157 -0.264277
vn 0.7928922 0.1822304 -0.5814951
vn 0.9422181 0.3280637 0.06819853
vn 0.8768382 0.4186887 -0.2364583
vn -0.8810049 -0.4568015 0.1226716
vn -0.7055147 -0.5729167 -0.4170343
vn -0.8643382 -0.4058211 0.2969363
vn -0.264522 -0.3662378 -0.8920343
vn -0.8918505 -0.2530025 0.3748162
vn 0.8474265 -0.2740809 -0.4546569
vn 0.967402 0.1564951 0.1994485
vn 0.8298407 0.3658701 -0.4213848
vn 0.6063113 0.7167279 -0.3445466
vn 0.221875 0.9750613 -0.005269608
vn 0.9126226 -0.3954044 0.1041054
vn 0.5341299 -0.7890319 -0.3033701
vn 0.6107843 0.4868872 -0.6244485
vn 0.3175245 0.8824142 -0.3471201
vn 0.8611519 -0.4917892 -0.1285539
vn 0.6435662 -0.5018995 -0.5778186
vn 0.4694853 -0.8286152 -0.3046569
vn 0.08866422 -0.1939951 -0.9769608
vn 0.1882966 -0.646875 -0.7389093
vn 0.9864584 -0.05533088 -0.154473
vn 0.7094363 -0.02971814 -0.7041054
vn 0.4893382 0.02990196 -0.8715686
vn 0.9161765 0.07120098 -0.3945466
vn 0.1682598 -0.1181985 -0.9786152
vn 0.9759191 -0.02254902 -0.2170343
vn 0.3297794 -0.5 -0.8007353
vn 0.808027 0.08057598 -0.5836397
vn 0.369424 0.144424 -0.9179534
vn -0.6119485 -0.348223 0.7101103
vn -0.8352941 -0.3009804 0.4601103
vn -0.6852941 -0.4208333 0.594424
vn -0.9786765 -0.1496936 0.1405025
vn -0.3936887 -0.1933824 0.898652
vn 0.4318015 -0.2460784 -0.8677696
vn 0.8996936 0.1553922 -0.408027
vn 0.4241422 0.4238971 -0.8001838
vn 0.2688726 0.7940564 -0.5451593
vn 0.05091912 0.9922181 -0.1136642
vn 0.7702819 -0.4045956 -0.4928921
vn 0.3042892 -0.759375 -0.5750613
vn 0 0.6060662 -0.7954657
vn 0 0.9130515 -0.4079044
vn -0.1265319 -0.45625 -0.8806985
vn -0.2474877 0.2098652 -0.9458333
vn 0.7549019 -0.03590686 0.6549633
vn -0.1090686 -0.1549632 0.981924
vn -0.8974878 0.03241422 0.4397672
vn -0.874326 -0.2516544 0.4150122
vn -0.9137868 -0.1503064 0.3772672
vn -0.09669118 -0.9707721 0.2194853
vn 0.5108456 -0.8590686 -0.03308824
vn -0.7835785 -0.5703431 -0.2461397
vn -0.7686275 -0.5479779 0.329902
vn -0.5552083 -0.4511642 0.6987132
vn -0.9383578 -0.2686887 0.2172181
vn -0.9359069 -0.2931373 0.1954657
vn -0.7289829 -0.6545956 0.2002451
vn 0.7982843 -0.5900123 0.1210172
vn -0.568076 -0.6083333 -0.5542279
vn -0.6895834 -0.1465686 -0.7091299
vn -0.3640319 -0.02389706 -0.9310662
vn -0.6419117 -0.1289828 -0.7557598
vn -0.4736519 -0.2708946 0.8380515
vn -0.7484682 0.2881128 0.5973652
vn -0.1427696 0.2876838 0.9470588
vn -0.2096201 0.07254902 0.9751226
vn -0.6257966 0.638174 0.4484681
vn 0.121875 0.7814338 0.6119485
vn -0.2182598 0.9682598 0.1220588
vn -0.7267157 -0.3457108 0.5935662
vn -0.313603 -0.494424 0.8106618
vn -0.5110294 -0.7818015 0.3571691
vn -0.8560049 0.404902 0.3214461
vn -0.996201 0.0836397 0.02444853
vn -0.5734069 0.7867647 0.2286765
vn -0.8443015 -0.2966299 0.446201
vn -0.4491422 -0.3747549 0.8110907
vn -0.5836397 -0.7243872 0.3667279
vn -0.9898897 -0.01905637 -0.1403799
vn -0.9003063 -0.4286152 -0.07536764
vn -0.8900123 0.0836397 0.4482231
vn -0.5033701 0.01960784 0.863848
vn -0.981924 0.05863971 0.1800245
vn -0.6041667 0.03578432 0.7960784
vn -0.7336397 0.1066789 0.6711397
vn -0.9873162 -0.02242647 -0.1567402
vn -0.8316177 -0.5403799 0.1276961
vn -0.8566789 0.06550245 0.5117647
vn 0.6352329 -0.5308824 -0.5609682
vn 0.7523897 -0.5669118 -0.3352941
vn 0.30625 -0.3372549 -0.8901961
vn 0.9082721 -0.4183823 -0.004534313
vn -0.7753676 0.6286765 0.05980392
vn -0.2854167 0.9576593 0.0379902
vn -0.96875 -0.2211397 0.1115809
vn -0.7393995 -0.389951 0.5487132
vn -0.6827819 -0.7158701 0.1458946
vn -0.708946 0.1288603 0.6933824
vn -0.6227941 0.7671568 -0.1534926
vn -0.8588848 -0.511826 -0.01648284
vn -0.5941176 -0.5765319 0.5609069
vn -0.398223 -0.9133579 0.08419117
vn -0.6932598 -0.0658701 -0.7176471
vn -0.6273285 -0.5590686 -0.5419731
vn -0.9867035 0.02193628 -0.1606618
vn -0.8528186 -0.08394608 0.5154412
vn -0.844424 0.1132353 -0.5234681
vn -0.9886642 0.1219976 0.08743872
vn -0.692647 -0.03394608 -0.7204044
vn -0.9470588 -0.06875 0.3134804
vn -0.872549 -0.3556985 -0.3348039
vn -0.9374387 0.2267157 -0.264277
vn -0.7928309 0.1822304 -0.5814951
vn -0.9421569 0.3280637 0.06819853
vn -0.8767769 0.4186887 -0.2364583
vn 0.705576 -0.5729167 -0.4170343
vn 0.8810662 -0.4568015 0.1226716
vn 0.8643995 -0.4058211 0.2969363
vn 0.2645833 -0.3662378 -0.8920343
vn 0.8919117 -0.2530025 0.3748162
vn -0.9673407 0.1564951 0.1994485
vn -0.8473652 -0.2740809 -0.4546569
vn -0.8297794 0.3658701 -0.4213848
vn -0.60625 0.7167279 -0.3445466
vn -0.2218137 0.9750613 -0.005269608
vn -0.9125613 -0.3954044 0.1041054
vn -0.5340686 -0.7890319 -0.3033701
vn -0.610723 0.4868872 -0.6244485
vn -0.3174632 0.8824142 -0.3471201
vn -0.6435049 -0.5018995 -0.5778186
vn -0.8610907 -0.4917892 -0.1285539
vn -0.469424 -0.8286152 -0.3046569
vn -0.08860294 -0.1939951 -0.9769608
vn -0.1882353 -0.646875 -0.7389093
vn -0.709375 -0.02971814 -0.7041054
vn -0.9863971 -0.05533088 -0.154473
vn -0.4892769 0.02990196 -0.8715686
vn -0.9161152 0.07120098 -0.3945466
vn -0.1681985 -0.1181985 -0.9786152
vn -0.9758579 -0.02254902 -0.2170343
vn -0.3297181 -0.5 -0.8007353
vn -0.8079657 0.08057598 -0.5836397
vn -0.3693627 0.144424 -0.9179534
vn 0.8353554 -0.3009804 0.4601103
vn 0.6120098 -0.348223 0.7101103
vn 0.6853554 -0.4208333 0.594424
vn 0.9787378 -0.1496936 0.1405025
vn 0.39375 -0.1933824 0.898652
vn -0.8996323 0.1553922 -0.408027
vn -0.4317402 -0.2460784 -0.8677696
vn -0.4240809 0.4238971 -0.8001838
vn -0.2688113 0.7940564 -0.5451593
vn -0.05085784 0.9922181 -0.1136642
vn -0.7702206 -0.4045956 -0.4928921
vn -0.3042279 -0.759375 -0.5750613
vn 0.1265931 -0.45625 -0.8806985
vn 0.247549 0.2098652 -0.9458333
vn -0.7548407 -0.03590686 0.6549633
vn 0.1091299 -0.1549632 0.981924
vn 0.897549 0.03241422 0.4397672
vn 0.8743873 -0.2516544 0.4150122
vn 0.913848 -0.1503064 0.3772672
vn 0.09675245 -0.9707721 0.2194853
vn -0.5107843 -0.8590686 -0.03308824
vn 0.7836397 -0.5703431 -0.2461397
vn 0.7686887 -0.5479779 0.329902
vn 0.5552696 -0.4511642 0.6987132
vn 0.9384191 -0.2686887 0.2172181
vn 0.9359682 -0.2931373 0.1954657
vn 0.7290441 -0.6545956 0.2002451
vn 0 0.02947304 -0.9995711
# 236 vertex normals

# 0 texture coords

g hair
f 140//216 73//106 75//222
f 140//216 141//217 73//106
f 126//193 141//217 140//216
f 126//193 127//194 141//217
f 124//189 127//194 126//193
f 124//189 125//190 127//194
f 107//164 125//190 124//189
f 107//164 16//18 125//190
f 105//159 16//18 107//164
f 105//159 93//140 16//18
f 104//158 93//140 105//159
f 104//158 91//138 93//140
f 119//179 91//138 104//158
f 119//179 92//163 91//138
f 106//160 92//163 119//179
f 106//160 101//161 92//163
f 103//162 101//161 106//160
f 73//106 70//101 75//109
f 73//106 71//102 70//101
f 74//107 71//102 73//106
f 74//107 72//103 71//102
f 16//18 72//103 74//107
f 16//18 57//79 72//103
f 55//75 57//79 16//18
f 55//75 54//74 57//79
f 37//49 54//74 55//75
f 37//49 50//65 54//74
f 35//44 50//65 37//49
f 35//44 49//64 50//65
f 20//22 49//64 35//44
f 20//22 21//48 49//64
f 21//23 18//20 31//36
f 21//23 10//12 18//20
f 20//22 10//12 21//23
f 20//22 12//14 10//12
f 22//24 12//14 20//22
f 22//24 14//16 12//14
f 16//18 14//16 22//24
f 16//18 13//15 14//16
f 106//160 116//176 103//162
f 106//160 118//178 116//176
f 119//179 118//178 106//160
f 119//179 120//180 118//178
f 104//158 120//180 119//179
f 104//158 107//164 120//180
f 105//159 107//164 104//158
f 7//7 80//126 75//236
f 7//7 5//5 80//126
f 4//4 5//5 7//7
f 4//4 2//2 5//5
f 1//1 2//2 4//4
f 1//1 3//3 2//2
f 135//202 136//203 137//207
f 135//202 133//200 136//203
f 131//198 133//200 135//202
f 131//198 128//195 133//200
f 132//199 128//195 131//198
f 132//199 130//197 128//195
f 115//172 116//173 118//177
f 115//172 113//170 116//173
f 111//168 113//170 115//172
f 111//168 108//165 113//170
f 112//169 108//165 111//168
f 112//169 110//167 108//165
f 57//79 71//102 72//103
f 57//79 56//78 71//102
f 54//74 56//78 57//79
f 54//74 53//73 56//78
f 50//65 53//73 54//74
f 50//65 48//72 53//73
f 101//148 102//150 92//153
f 101//148 99//146 102//150
f 97//144 99//146 101//148
f 97//144 94//141 99//146
f 98//145 94//141 97//144
f 98//145 96//143 94//141
f 85//132 93//140 91//138
f 85//132 87//134 93//140
f 86//133 87//134 85//132
f 86//133 16//18 87//134
f 15//17 16//18 86//133
f 15//17 13//15 16//18
f 31//34 30//32 21//37
f 31//34 29//31 30//32
f 28//30 29//31 31//34
f 28//30 24//26 29//31
f 23//25 24//26 28//30
f 23//25 25//27 24//26
f 66//88 65//87 67//92
f 66//88 64//86 65//87
f 63//85 64//86 66//88
f 63//85 59//81 64//86
f 58//80 59//81 63//85
f 58//80 60//82 59//81
f 46//58 45//57 48//62
f 46//58 44//56 45//57
f 43//55 44//56 46//58
f 43//55 39//51 44//56
f 38//50 39//51 43//55
f 38//50 40//52 39//51
f 43//112 51//68 38//70
f 43//112 76//113 51//68
f 32//117 76//113 43//112
f 32//117 33//40 76//113
f 26//41 33//40 32//117
f 26//41 27//39 33//40
f 10//12 11//13 18//20
f 10//12 9//11 11//13
f 12//14 9//11 10//12
f 12//14 13//15 9//11
f 14//16 13//15 12//14
f 16//18 37//49 55//75
f 16//18 34//43 37//49
f 22//24 34//43 16//18
f 22//24 35//44 34//43
f 20//22 35//44 22//24
f 16//18 127//194 125//190
f 16//18 142//218 127//194
f 74//107 142//218 16//18
f 74//107 141//217 142//218
f 73//106 141//217 74//107
f 124//189 120//180 107//164
f 124//189 123//188 120//180
f 126//193 123//188 124//189
f 126//193 137//208 123//188
f 123//188 118//186 120//180
f 123//188 122//187 118//186
f 137//208 122//187 123//188
f 137//208 136//206 122//187
f 82//129 91//138 92//139
f 82//129 85//132 91//138
f 83//130 85//132 82//129
f 83//130 86//133 85//132
f 88//135 92//139 102//152
f 88//135 82//129 92//139
f 84//131 82//129 88//135
f 84//131 83//130 82//129
f 49//64 48//63 50//65
f 49//64 36//46 48//63
f 21//48 36//46 49//64
f 21//48 30//45 36//46
f 81//228 138//211 131//212
f 81//228 8//9 138//211
f 79//223 8//9 81//228
f 79//223 78//128 8//9
f 134//224 121//183 117//229
f 134//224 138//211 121//183
f 129//213 138//211 134//224
f 129//213 130//210 138//211
f 140//216 137//214 126//193
f 140//216 139//215 137//214
f 75//222 139//215 140//216
f 75//222 80//221 139//215
f 53//73 67//93 56//78
f 53//73 52//71 67//93
f 48//72 52//71 53//73
f 48//72 45//76 52//71
f 36//46 46//61 48//63
f 36//46 32//47 46//61
f 30//45 32//47 36//46
f 128//195 134//201 133//200
f 128//195 129//196 134//201
f 130//197 129//196 128//195
f 69//99 7//108 75//109
f 69//99 6//105 7//108
f 65//104 6//105 69//99
f 108//165 114//171 113//170
f 108//165 109//166 114//171
f 110//167 109//166 108//165
f 18//20 19//21 31//36
f 18//20 17//19 19//21
f 11//13 17//19 18//20
f 2//2 79//125 5//5
f 2//2 78//124 79//125
f 3//3 78//124 2//2
f 61//83 64//86 59//81
f 61//83 65//87 64//86
f 6//89 65//87 61//83
f 41//53 44//56 39//51
f 41//53 45//57 44//56
f 47//59 45//57 41//53
f 94//141 100//147 99//146
f 94//141 95//142 100//147
f 96//143 95//142 94//141
f 26//28 29//31 24//26
f 26//28 30//32 29//31
f 32//35 30//32 26//28
f 33//40 23//42 28//114
f 33//40 25//38 23//42
f 27//39 25//38 33//40
f 33//40 13//119 15//8
f 33//40 9//120 13//119
f 11//121 9//120 33//40
f 33//40 17//122 11//121
f 33//40 19//118 17//122
f 28//114 19//118 33//40
f 52//71 66//91 67//93
f 52//71 47//77 66//91
f 45//76 47//77 52//71
f 136//203 134//201 117//205
f 136//203 133//200 134//201
f 116//173 114//171 103//175
f 116//173 113//170 114//171
f 102//150 100//147 90//149
f 102//150 99//146 100//147
f 110//182 121//183 109//185
f 110//182 112//181 121//183
f 111//184 121//183 112//181
f 111//184 117//229 121//183
f 114//225 121//183 143//226
f 114//225 109//185 121//183
f 4//110 8//9 1//10
f 4//110 6//115 8//9
f 6//115 68//96 8//9
f 6//115 61//97 68//96
f 62//95 68//96 61//97
f 62//95 60//94 68//96
f 58//98 68//96 60//94
f 58//98 63//111 68//96
f 63//111 51//68 68//96
f 63//111 47//116 51//68
f 41//69 51//68 47//116
f 41//69 42//67 51//68
f 40//66 51//68 42//67
f 40//66 38//70 51//68
f 96//155 77//123 95//157
f 96//155 98//154 77//123
f 100//227 77//123 90//231
f 100//227 95//157 77//123
f 90//137 88//135 102//152
f 90//137 89//136 88//135
f 89//235 77//123 84//234
f 89//235 90//231 77//123
f 83//233 77//123 86//232
f 83//233 84//234 77//123
f 77//123 15//8 86//232
f 77//123 33//40 15//8
f 117//192 122//187 136//206
f 117//192 115//191 122//187
f 81//220 139//215 80//221
f 81//220 135//219 139//215
f 56//78 70//101 71//102
f 56//78 67//100 70//101
f 103//230 143//226 77//123
f 103//230 114//225 143//226
f 27//29 24//26 25//27
f 27//29 26//28 24//26
f 42//54 39//51 40//52
f 42//54 41//53 39//51
f 132//209 138//211 130//210
f 132//209 131//212 138//211
f 97//156 77//123 98//154
f 97//156 103//230 77//123
f 70//101 69//99 75//109
f 70//101 67//100 69//99
f 62//84 59//81 60//82
f 62//84 61//83 59//81
f 3//8 8//9 78//128
f 3//8 1//10 8//9
f 80//126 79//125 81//127
f 80//126 5//5 79//125
f 135//202 81//204 131//198
f 115//172 117//174 111//168
f 101//148 103//151 97//144
f 63//85 66//88 47//90
f 43//55 46//58 32//60
f 31//34 19//33 28//30
f 4//4 7//7 6//6
f 137//214 139//215 135//219
f 141//217 127//194 142//218
f 118//186 122//187 115//191
f 16//18 93//140 87//134
f 84//131 88//135 89//136
f 35//44 37//49 34//43
f 67//100 65//104 69//99
# 275 faces

