# RFL_Res.dat Editor OBJ Exporter v1.3 - (c) 2018 Atlas Vryzas Software

#
# object hair
#

v  23.81569 9 -13.58823
v  25.81569 24 -15.58823
v  19.72157 22.46275 -25.59216
v  20.02745 33.22745 -26.23922
v  26.70588 33.43922 -15.93333
v  28.69412 19 9.803922
v  30.43922 25.12941 -3.929412
v  29.30196 15.43922 -2.121569
v  29.55686 27 8.65098
v  10 12 -29
v  19 10.57255 -23
v  10.62353 21.82745 -32.35294
v  30.78039 34 -4.501961
v  29.60392 35 8
v  11.3098 33.43922 -33.51765
v  10.60392 67.4902 -6
v  0 68.1451 6.121569
v  0 69.24313 -6.309804
v  10.60392 66.44706 5.823529
v  18.76471 58 15
v  18.76471 61.06274 4.870588
v  10.60392 61.20784 17.34902
v  0 62.86666 18.22353
v  10.60392 63.99608 -17.63922
v  0 65.56863 -18.54902
v  10.60392 45.50588 -33.15294
v  0 46.12549 -34.86274
v  0 54.34902 25.25098
v  10.60392 54.1098 23.66667
v  0 21.62745 -34.05098
v  0 13 -31
v  0 33.43922 -35.24314
v  18.76471 58.18431 -15.83922
v  25.44314 52.96078 -2.866667
v  29.38039 43.95294 -4.498039
v  24.55686 52 9
v  28.06667 43.95294 8.592157
v  26.61569 44.26274 -16
v  19.78823 45 -26
v  10.60392 56.11765 -27.02353
v  0 57.28627 -28.41961
v  26.99608 12 11.95294
v  27.03137 7.188235 -0.2862745
v  24.44314 6 14.45098
v  19.38039 19.11373 -8.141176
v  0 43.95294 28.47451
v  10.60392 43.95294 27
v  18.76471 52 20
v  25 44 16
v  0 45.67843 5.956863
v  18.76471 43.95294 23
v  6.988235 44.0549 -10.7451
v  -25.81176 24 -15.58823
v  -23.81176 9 -13.58823
v  -19.71765 22.46275 -25.59216
v  -20.02353 33.22745 -26.23922
v  -26.70196 33.43922 -15.93333
v  -30.43529 25.12941 -3.929412
v  -28.6902 19 9.803922
v  -29.29804 15.43922 -2.121569
v  -29.55294 27 8.65098
v  -19 10.57255 -23
v  -10 12 -29
v  -10.61961 21.82745 -32.35294
v  -30.77647 34 -4.501961
v  -29.6 35 8
v  -11.30588 33.43922 -33.51765
v  -10.6 67.4902 -6
v  -10.6 66.44706 5.823529
v  -18.76078 58 15
v  -18.76078 61.06274 4.870588
v  -10.6 61.20784 17.34902
v  -10.6 63.99608 -17.63922
v  -10.6 45.50588 -33.15294
v  -10.6 54.1098 23.66667
v  -25.43922 52.96078 -2.866667
v  -18.76078 58.18431 -15.83922
v  -24.55294 52 9
v  -29.37647 43.95294 -4.498039
v  -28.06274 43.95294 8.592157
v  -26.61176 44.26274 -16
v  -19.78431 45 -26
v  -10.6 56.11765 -27.02353
v  -27.02745 7.188235 -0.2862745
v  -26.99216 12 11.95294
v  -24.43922 6 14.45098
v  -19.37647 19.11373 -8.141176
v  -10.6 43.95294 27
v  -18.76078 52 20
v  -25 44 16
v  -18.76078 43.95294 23
v  -6.984313 44.0549 -10.7451
# 92 vertices

vn 0.8953431 -0.2045956 -0.3955269
vn 0.8908701 -0.1300245 -0.4352941
vn 0.7496936 -0.1316789 -0.6485907
vn 0.7488358 -0.01703431 -0.6625613
vn 0.8925858 -0.03688725 -0.449326
vn 0.986826 -0.1332108 0.09178922
vn 0.9859681 -0.0958946 -0.1367034
vn 0.9720588 -0.2049632 -0.114277
vn 0.9955882 -0.04234068 0.0841299
vn 0.2711397 -0.3270833 -0.9052696
vn 0.6697916 -0.2293505 -0.70625
vn 0.3691789 -0.1999387 -0.9075367
vn 0.9933823 0.03253676 -0.1102328
vn 0.9906863 0.1011029 0.09142157
vn 0.4047181 -0.02714461 -0.9140319
vn 0.4068015 0.9112745 -0.06403186
vn 0 0.9810049 0.1942402
vn 0 0.9862745 -0.1650735
vn 0.3481005 0.8976103 0.2705882
vn 0.6085172 0.6527573 0.4514706
vn 0.7012255 0.7097427 0.0685049
vn 0.2724265 0.7440563 0.6101103
vn 0 0.8409926 0.5411765
vn 0.3463235 0.8440564 -0.4094363
vn 0 0.8454044 -0.5341299
vn 0.4090073 0.2681372 -0.8722426
vn 0 0.1949142 -0.9808211
vn 0 0.5427083 0.8400123
vn 0.2998775 0.4666054 0.8321078
vn 0 -0.2570466 -0.9663603
vn 0 -0.3338848 -0.9425858
vn 0 -0.0596201 -0.9982231
vn 0.7124387 0.6184436 -0.3316177
vn 0.8528186 0.5178922 -0.06758578
vn 0.9604779 0.2783701 -0.009865196
vn 0.8610294 0.4456495 0.245098
vn 0.933027 0.3093137 0.1841912
vn 0.8996323 0.2551471 -0.354473
vn 0.7370098 0.2405637 -0.6316177
vn 0.3987132 0.6132966 -0.6818628
vn 0 0.5967525 -0.8023897
vn 0.9582108 -0.2619485 0.1152574
vn 0.953125 -0.302451 -0.009620098
vn 0.9310662 -0.3385417 0.1362132
vn -0.7979779 -0.3735907 0.4728554
vn -0.3019608 -0.8525122 0.4265319
vn 0 -0.9378676 0.3467525
vn 0 0.3038603 0.9527574
vn 0.3375613 0.3050245 0.890625
vn 0.6362745 0.3778186 0.6726716
vn -0.05343137 -0.9979779 -0.03351716
vn 0 -0.9995711 -0.02824755
vn -0.03964461 -0.997549 -0.05741422
vn -0.06372549 -0.9976103 0.0252451
vn 0 -0.9970588 -0.07647059
vn -0.0213848 -0.9972426 -0.07101715
vn -0.6284927 -0.6672181 0.3997549
vn -0.8359069 -0.5484068 -0.01819853
vn -0.8373774 -0.4935662 0.2347426
vn -0.8713848 0.1032476 0.4796569
vn -0.8139093 -0.06286765 0.5775735
vn -0.7886029 0.4213235 0.4479779
vn -0.8588848 0.2493872 0.4473652
vn -0.06764705 -0.9953431 0.06838235
vn -0.703125 -0.2112745 0.6788603
vn 0.5808824 0.2841912 0.7628064
vn 0.8070466 0.3425858 0.4811274
vn -0.9813725 -0.07303922 0.1776348
vn -0.8908088 -0.1300245 -0.4352941
vn -0.8952819 -0.2045956 -0.3955269
vn -0.7496324 -0.1316789 -0.6485907
vn -0.7487745 -0.01703431 -0.6625613
vn -0.8925245 -0.03688725 -0.449326
vn -0.9859068 -0.0958946 -0.1367034
vn -0.9867647 -0.1332108 0.09178922
vn -0.9719976 -0.2049632 -0.114277
vn -0.995527 -0.04234068 0.0841299
vn -0.6697304 -0.2293505 -0.70625
vn -0.2710784 -0.3270833 -0.9052696
vn -0.3691176 -0.1999387 -0.9075367
vn -0.9933211 0.03253676 -0.1102328
vn -0.990625 0.1011029 0.09142157
vn -0.4046569 -0.02714461 -0.9140319
vn -0.4067402 0.9112745 -0.06403186
vn -0.3480392 0.8976103 0.2705882
vn -0.6084559 0.6527573 0.4514706
vn -0.7011642 0.7097427 0.0685049
vn -0.2723652 0.7441176 0.6101103
vn -0.3462622 0.8440564 -0.4094363
vn -0.4089461 0.2681372 -0.8722426
vn -0.2998162 0.4666054 0.8321078
vn -0.8527573 0.5178922 -0.06758578
vn -0.7123774 0.6184436 -0.3316177
vn -0.8609681 0.4456495 0.245098
vn -0.9604167 0.2783701 -0.009865196
vn -0.9329657 0.3093137 0.1841912
vn -0.8995711 0.2551471 -0.354473
vn -0.7369485 0.2405637 -0.6316177
vn -0.398652 0.6132966 -0.6818628
vn -0.953125 -0.302451 -0.009620098
vn -0.9581495 -0.2619485 0.1152574
vn -0.9310049 -0.3385417 0.1362132
vn 0.3020221 -0.8525122 0.4265319
vn 0.7980392 -0.3735907 0.4728554
vn -0.3375 0.3050245 0.890625
vn -0.6362132 0.3778186 0.6726716
vn 0.05349265 -0.9979779 -0.03351716
vn 0.03970588 -0.997549 -0.05741422
vn 0.06378677 -0.9976103 0.0252451
vn 0.02144608 -0.9972426 -0.07101715
vn 0.6285539 -0.6672181 0.3997549
vn 0.8374387 -0.4935662 0.2347426
vn 0.8359681 -0.5484068 -0.01819853
vn 0.8714461 0.1032476 0.4796569
vn 0.8139706 -0.06286765 0.5775735
vn 0.7886642 0.4213235 0.4479779
vn 0.8589461 0.2493872 0.4473652
vn 0.06770834 -0.9953431 0.06838235
vn 0.7031863 -0.2112745 0.6788603
vn -0.5808211 0.2841912 0.7628064
vn -0.8069853 0.3425858 0.4811274
vn 0.9814338 -0.07303922 0.1776348
vn 0.6550245 -0.2509804 0.7128063
vn -0.6549633 -0.2509804 0.7128063
# 124 vertex normals

# 0 texture coords

g hair
f 60//76 54//70 84//100
f 60//76 53//69 54//70
f 58//74 53//69 60//76
f 58//74 57//73 53//69
f 65//81 57//73 58//74
f 65//81 81//97 57//73
f 79//95 81//97 65//81
f 79//95 76//92 81//97
f 78//94 76//92 79//95
f 78//94 71//87 76//92
f 70//86 71//87 78//94
f 70//86 69//85 71//87
f 72//88 69//85 70//86
f 72//88 23//23 69//85
f 28//28 23//23 72//88
f 28//28 22//22 23//23
f 29//29 22//22 28//28
f 29//29 20//20 22//22
f 48//50 20//20 29//29
f 48//50 36//36 20//20
f 49//67 36//36 48//50
f 49//67 37//37 36//36
f 43//43 42//42 44//44
f 43//43 8//8 42//42
f 1//1 8//8 43//43
f 1//1 2//2 8//8
f 3//3 2//2 1//1
f 3//3 4//4 2//2
f 15//15 4//4 3//3
f 15//15 26//26 4//4
f 27//27 26//26 15//15
f 27//27 41//41 26//26
f 74//90 41//41 27//27
f 74//90 83//99 41//41
f 82//98 83//99 74//90
f 82//98 77//93 83//99
f 81//97 77//93 82//98
f 81//97 76//92 77//93
f 85//101 84//100 86//102
f 85//101 60//76 84//100
f 59//75 60//76 85//101
f 59//75 58//74 60//76
f 61//77 58//74 59//75
f 61//77 65//81 58//74
f 66//82 65//81 61//77
f 66//82 79//95 65//81
f 80//96 79//95 66//82
f 80//96 78//94 79//95
f 90//121 78//94 80//96
f 90//121 89//106 78//94
f 91//120 89//106 90//121
f 91//120 88//105 89//106
f 8//8 6//6 42//42
f 8//8 7//7 6//6
f 2//2 7//7 8//8
f 2//2 5//5 7//7
f 4//4 5//5 2//2
f 4//4 39//39 5//5
f 26//26 39//39 4//4
f 26//26 40//40 39//39
f 41//41 40//40 26//26
f 41//41 25//25 40//40
f 83//99 25//25 41//41
f 83//99 73//89 25//25
f 77//93 73//89 83//99
f 77//93 68//84 73//89
f 7//7 9//9 6//6
f 7//7 13//13 9//9
f 5//5 13//13 7//7
f 5//5 38//38 13//13
f 39//39 38//38 5//5
f 39//39 33//33 38//38
f 40//40 33//33 39//39
f 40//40 24//24 33//33
f 25//25 24//24 40//40
f 25//25 18//18 24//24
f 73//89 18//18 25//25
f 73//89 68//84 18//18
f 82//98 57//73 81//97
f 82//98 56//72 57//73
f 74//90 56//72 82//98
f 74//90 67//83 56//72
f 27//27 67//83 74//90
f 27//27 32//32 67//83
f 15//15 32//32 27//27
f 15//15 12//12 32//32
f 3//3 12//12 15//15
f 3//3 11//11 12//12
f 1//1 11//11 3//3
f 56//72 53//69 57//73
f 56//72 55//71 53//69
f 67//83 55//71 56//72
f 67//83 64//80 55//71
f 32//32 64//80 67//83
f 32//32 30//30 64//80
f 12//12 30//30 32//32
f 12//12 10//10 30//30
f 11//11 10//10 12//12
f 75//91 72//88 70//86
f 75//91 28//28 72//88
f 46//48 28//28 75//91
f 46//48 29//29 28//28
f 47//49 29//29 46//48
f 47//49 48//50 29//29
f 51//66 48//50 47//49
f 51//66 49//67 48//50
f 71//87 77//93 76//92
f 71//87 68//84 77//93
f 69//85 68//84 71//87
f 69//85 17//17 68//84
f 23//23 17//17 69//85
f 23//23 19//19 17//17
f 22//22 19//19 23//23
f 22//22 20//20 19//19
f 16//16 24//24 18//18
f 16//16 33//33 24//24
f 21//21 33//33 16//16
f 21//21 34//34 33//33
f 36//36 34//34 21//21
f 36//36 35//35 34//34
f 37//37 35//35 36//36
f 37//37 14//14 35//35
f 55//71 54//70 53//69
f 55//71 62//78 54//70
f 64//80 62//78 55//71
f 64//80 63//79 62//78
f 30//30 63//79 64//80
f 30//30 31//31 63//79
f 10//10 31//31 30//30
f 17//17 18//18 68//84
f 17//17 16//16 18//18
f 19//19 16//16 17//17
f 19//19 21//21 16//16
f 20//20 21//21 19//19
f 20//20 36//36 21//21
f 31//47 87//104 63//103
f 31//47 45//45 87//104
f 10//46 45//45 31//47
f 10//46 11//57 45//45
f 89//106 70//86 78//94
f 89//106 75//91 70//86
f 88//105 75//91 89//106
f 88//105 46//48 75//91
f 45//45 37//65 52//124
f 45//45 14//61 37//65
f 9//60 14//61 45//45
f 50//52 80//109 92//118
f 50//52 90//107 80//109
f 91//108 90//107 50//52
f 50//52 88//110 91//108
f 50//52 46//55 88//110
f 47//56 46//55 50//52
f 80//119 87//104 92//123
f 80//119 66//115 87//104
f 61//114 87//104 66//115
f 61//114 59//117 87//104
f 85//116 87//104 59//117
f 85//116 86//122 87//104
f 84//113 87//104 86//122
f 84//113 54//112 87//104
f 62//111 87//104 54//112
f 62//111 63//103 87//104
f 1//59 45//45 11//57
f 1//59 43//58 45//45
f 44//68 45//45 43//58
f 44//68 42//62 45//45
f 37//54 50//52 52//64
f 37//54 49//51 50//52
f 45//45 6//63 9//60
f 45//45 42//62 6//63
f 50//52 51//53 47//56
f 50//52 49//51 51//53
f 34//34 38//38 33//33
f 34//34 35//35 38//38
f 35//35 13//13 38//38
f 35//35 14//14 13//13
f 13//13 14//14 9//9
# 177 faces

