# RFL_Res.dat Editor OBJ Exporter v1.3 - (c) 2018 Atlas Vryzas Software

#
# object hair
#

v  11.86275 13.52157 -35.80784
v  22.67843 19.7098 -28.81961
v  12.13725 19.60784 -37.30588
v  22.0549 13.59608 -27.53333
v  0 19.58431 -39.22745
v  0 13.50196 -37.69412
v  29.36863 19.83137 -16.7451
v  11.27451 33.44314 -35.95294
v  22.4 26.53333 -28.99216
v  21.26667 33.48627 -28.01176
v  11.92941 26.44706 -37.35686
v  0 33.4353 -37.73333
v  0 26.42745 -39.23922
v  29.21177 26.6549 -16.94118
v  27.90588 33.55686 -16.41569
v  30.05098 28.4902 -2
v  29.07059 37.67451 1.615686
v  26.8549 40.79216 -15.53726
v  10.80784 56.18039 -27.22745
v  0 65.55294 -18.82353
v  0 57.33725 -28.60784
v  10.83922 63.99608 -17.92157
v  10.62745 45.66275 -33.30196
v  0 46.27451 -34.99608
v  0 68.81569 -6.690196
v  10.62353 67.45882 -6.380392
v  24.71373 54.98039 -6
v  20.8 62.95686 3.082353
v  20.34118 62 -6
v  27.70196 45.02353 2.592157
v  25.85098 48.53725 -12.0549
v  20.57647 58.80392 -16.56078
v  20.00784 52.87843 -22.71765
v  19.32941 43.87451 -26.6
v  12.3451 67.53725 3.92549
v  0 68.67059 4
v  29.85098 14.0549 -8.623529
v  18.13725 23.45098 0.7450981
v  12.08627 4.164706 -24.07843
v  0 2.701961 -26.50196
v  20.95294 7.098039 -19.24314
v  29.84314 16.02745 1.388235
v  32.6902 19.65098 0.3176471
v  26.02745 20.1451 11.32549
v  30.42745 23.55294 10.23922
v  33.30588 26.52941 6.098039
v  25.9451 41.58823 20.76471
v  21.89804 28.08628 19.57647
v  18.11765 39.7098 23.41176
v  27.86667 32.47059 17.56863
v  32.09019 34.87059 10.98431
v  19.09412 62.9451 11.95294
v  23.77647 53.00392 19.35686
v  12 63.42353 14.85882
v  15.32157 52.73333 21.7451
v  8.886274 58.42745 18.81569
v  0 64.22353 13.89804
v  26.96078 53.22745 12.33333
v  11.1451 7.564706 -33.08627
v  0 7.556863 -34.86666
v  30.31765 43.21961 13.01961
v  26.06667 53.46275 3.32549
v  -22.67451 19.7098 -28.81961
v  -11.85882 13.52157 -35.80784
v  -12.13333 19.60784 -37.30588
v  -22.05098 13.59608 -27.53333
v  -29.36471 19.83137 -16.7451
v  -22.39608 26.53333 -28.99216
v  -11.27059 33.44314 -35.95294
v  -21.26274 33.48627 -28.01176
v  -11.92549 26.44706 -37.35686
v  -29.20784 26.6549 -16.94118
v  -27.90196 33.55686 -16.41569
v  -30.04706 28.4902 -2
v  -29.06667 37.67451 1.615686
v  -26.85098 40.79216 -15.53726
v  -10.80392 56.18039 -27.22745
v  -10.83529 63.99608 -17.92157
v  -10.62353 45.66275 -33.30196
v  -10.61961 67.45882 -6.380392
v  -20.79608 62.95686 3.082353
v  -24.7098 54.98039 -6
v  -20.33726 62 -6
v  -27.69804 45.02353 2.592157
v  -25.84706 48.53725 -12.0549
v  -20.00392 52.87843 -22.71765
v  -20.57255 58.80392 -16.56078
v  -19.32549 43.87451 -26.6
v  -12.34118 67.53725 3.92549
v  -29.84706 14.0549 -8.623529
v  -12.08235 4.164706 -24.07843
v  -18.13333 23.45098 0.7450981
v  -20.94902 7.098039 -19.24314
v  -29.83922 16.02745 1.388235
v  -32.68628 19.65098 0.3176471
v  -26.02353 20.1451 11.32549
v  -30.42353 23.55294 10.23922
v  -33.30196 26.52941 6.098039
v  -21.89412 28.08628 19.57647
v  -25.94118 41.58823 20.76471
v  -18.11373 39.7098 23.41176
v  -27.86275 32.47059 17.56863
v  -32.08627 34.87059 10.98431
v  -30.31372 43.21961 13.01961
v  -23.77255 53.00392 19.35686
v  -19.0902 62.9451 11.95294
v  -12 63.42353 14.85882
v  -15.31765 52.73333 21.7451
v  -8.882353 58.42745 18.81569
v  -26.95686 53.22745 12.33333
v  -11.14118 7.564706 -33.08627
v  -26.06274 53.46275 3.32549
# 112 vertices

vn 0.3901348 -0.3008578 -0.8702206
vn 0.7443015 -0.0841299 -0.6625613
vn 0.354902 -0.0932598 -0.9302083
vn 0.7415441 -0.4170343 -0.5254902
vn 0 -0.1651961 -0.9862132
vn 0 -0.3696691 -0.9291054
vn 0.9493873 -0.1153799 -0.2922794
vn 0.3950368 0.2145833 -0.8931985
vn 0.7283701 0.1333333 -0.6720588
vn 0.7436274 0.2122549 -0.6340686
vn 0.4022672 0.1115196 -0.908701
vn 0 0.2099265 -0.9776961
vn 0 0.06917892 -0.9976103
vn 0.927696 0.1106005 -0.3566789
vn 0.9351103 0.1870098 -0.3011029
vn 0.9932598 0.09172794 -0.07169118
vn 0.9818627 0.1641544 -0.09552696
vn 0.9378064 0.1948529 -0.2873774
vn 0.3664829 0.5832108 -0.7249388
vn 0 0.8503677 -0.5262255
vn 0 0.5960785 -0.8028799
vn 0.3485294 0.8355392 -0.4247549
vn 0.4047794 0.3477941 -0.8456495
vn 0 0.3128676 -0.9497549
vn 0 0.9839461 -0.1786765
vn 0.3054534 0.9438726 -0.1257966
vn 0.9121937 0.3933823 -0.1150735
vn 0.7116421 0.7020833 -0.02647059
vn 0.6478554 0.7418505 -0.1734069
vn 0.9677083 0.2082108 -0.1422794
vn 0.9360907 0.2715686 -0.2238971
vn 0.7510417 0.5641544 -0.343076
vn 0.7098652 0.4099877 -0.5727329
vn 0.7242034 0.2527573 -0.6415441
vn 0.2365196 0.9529412 0.1900123
vn 0 0.9906863 0.1365196
vn 0.9145833 -0.3224877 -0.2441176
vn -0.4904412 -0.6915441 0.5303309
vn -0.05588235 -0.7818627 0.6209559
vn 0 -0.7894608 0.6137255
vn -0.1063726 -0.7768995 0.6205882
vn -0.3485907 -0.843076 0.4095588
vn 0.9585171 -0.239277 -0.1548407
vn 0.7405025 -0.583272 0.3338848
vn 0.9681373 -0.2492034 0.02616422
vn 0.5688113 -0.5084559 0.6465074
vn 0.7507353 -0.4318015 0.5
vn 0.9183211 0.1938726 -0.345098
vn 0.9965073 0 0.08431373
vn 0.936826 0.2332721 -0.2608456
vn 0.6450368 0.007720588 0.7641544
vn 0.4602941 -0.2829657 0.8415441
vn 0.303125 0.05422794 0.9514706
vn 0.7088235 -0.2465686 0.6609069
vn 0.9811887 0.1115196 0.1579657
vn 0.5288603 0.7765319 0.342647
vn 0.5442402 0.4246323 0.7235907
vn 0.1520221 0.7415441 0.6535539
vn 0.2030025 0.4485294 0.8704657
vn 0.05490196 0.5990196 0.7988971
vn 0 0.8490196 0.5284314
vn -0.8623775 -0.3471201 0.3683824
vn -0.6594363 -0.4753064 0.5824142
vn 0.8623162 0.4830882 0.1520221
vn -0.6144608 -0.7569853 0.2221201
vn -0.5352328 -0.8309436 0.1514093
vn -0.7966912 -0.5305147 0.2895833
vn -0.9360294 -0.2862745 0.2045956
vn 0.6261029 -0.6826593 -0.376777
vn 0.358027 -0.6604167 -0.6599877
vn 0.2447917 -0.8792279 -0.4085172
vn 0 -0.7843137 -0.6202206
vn 0 -0.8648897 -0.5018382
vn 0.9564951 0.2411152 0.1645833
vn 0.9347426 0.3394608 -0.1055147
vn 0 -0.507598 0.8615809
vn -0.7442402 -0.0841299 -0.6625613
vn -0.3900735 -0.3008578 -0.8702206
vn -0.3548407 -0.0932598 -0.9302083
vn -0.7414829 -0.4170343 -0.5254902
vn -0.949326 -0.1153799 -0.2922794
vn -0.7283088 0.1333333 -0.6720588
vn -0.3949755 0.2145833 -0.8931985
vn -0.7435662 0.2122549 -0.6340686
vn -0.4022059 0.1115196 -0.908701
vn -0.9276348 0.1106005 -0.3566789
vn -0.935049 0.1870098 -0.3011029
vn -0.9931985 0.09172794 -0.07169118
vn -0.9818015 0.1641544 -0.09552696
vn -0.9377451 0.1948529 -0.2873774
vn -0.3664216 0.5832108 -0.7249388
vn -0.3484681 0.8355392 -0.4247549
vn -0.4047181 0.3477941 -0.8456495
vn -0.3053921 0.9438726 -0.1257966
vn -0.7115809 0.7020833 -0.02647059
vn -0.9121324 0.3933823 -0.1150735
vn -0.6477941 0.7418505 -0.1734069
vn -0.9676471 0.2082108 -0.1422794
vn -0.9360294 0.2715686 -0.2238971
vn -0.7098039 0.4099877 -0.5727329
vn -0.7509804 0.5641544 -0.343076
vn -0.7241421 0.2527573 -0.6415441
vn -0.2364583 0.9529412 0.1900123
vn -0.9145221 -0.3224877 -0.2441176
vn 0.05594363 -0.7818627 0.6209559
vn 0.4905024 -0.6915441 0.5303309
vn 0.1064338 -0.7768995 0.6205882
vn 0.348652 -0.843076 0.4095588
vn -0.7404412 -0.583272 0.3338848
vn -0.9584559 -0.239277 -0.1548407
vn -0.968076 -0.2492034 0.02616422
vn -0.56875 -0.5084559 0.6465074
vn -0.750674 -0.4318015 0.5
vn -0.9964461 0 0.08431373
vn -0.9182598 0.1938726 -0.345098
vn -0.9367647 0.2332721 -0.2608456
vn -0.4602329 -0.2829657 0.8415441
vn -0.6449755 0.007720588 0.7641544
vn -0.3030637 0.05422794 0.9514706
vn -0.7087622 -0.2465686 0.6609069
vn -0.9811274 0.1115196 0.1579657
vn -0.9564338 0.2411152 0.1645833
vn -0.5441789 0.4246323 0.7235907
vn -0.528799 0.7765319 0.342647
vn -0.1519608 0.7415441 0.6535539
vn -0.2029412 0.4485294 0.8704657
vn -0.05484069 0.5990196 0.7988971
vn 0.8624387 -0.3471201 0.3683824
vn 0.6594976 -0.4753064 0.5824142
vn -0.8622549 0.4830882 0.1520221
vn 0.5352941 -0.8309436 0.1514093
vn 0.614522 -0.7569853 0.2221201
vn 0.7967525 -0.5305147 0.2895833
vn 0.9360907 -0.2862745 0.2045956
vn -0.6260417 -0.6826593 -0.376777
vn -0.3579657 -0.6604167 -0.6599877
vn -0.2447304 -0.8792279 -0.4085172
vn -0.9346814 0.3394608 -0.1055147
# 138 vertex normals

# 0 texture coords

g hair
f 84//98 76//90 75//89
f 84//98 85//99 76//90
f 82//96 85//99 84//98
f 82//96 87//101 85//99
f 83//97 87//101 82//96
f 83//97 78//92 87//101
f 80//94 78//92 83//97
f 80//94 25//25 78//92
f 36//36 25//25 80//94
f 36//36 26//26 25//25
f 35//35 26//26 36//36
f 35//35 28//28 26//26
f 52//56 28//28 35//35
f 52//56 58//64 28//28
f 53//57 58//64 52//56
f 53//57 61//74 58//64
f 47//51 61//74 53//57
f 47//51 51//55 61//74
f 50//54 51//55 47//51
f 50//54 46//49 51//55
f 45//47 46//49 50//54
f 45//47 43//45 46//49
f 42//44 43//45 45//47
f 42//44 37//43 43//45
f 91//137 60//72 40//73
f 91//137 111//136 60//72
f 93//135 111//136 91//137
f 93//135 66//80 111//136
f 90//104 66//80 93//135
f 90//104 67//81 66//80
f 74//88 67//81 90//104
f 74//88 72//86 67//81
f 73//87 72//86 74//88
f 73//87 70//84 72//86
f 88//102 70//84 73//87
f 88//102 79//93 70//84
f 77//91 79//93 88//102
f 77//91 21//21 79//93
f 20//20 21//21 77//91
f 20//20 19//19 21//21
f 22//22 19//19 20//20
f 22//22 33//33 19//19
f 32//32 33//33 22//22
f 32//32 31//31 33//33
f 27//27 31//31 32//32
f 27//27 30//30 31//31
f 62//75 30//30 27//27
f 60//72 39//71 40//73
f 60//72 59//70 39//71
f 6//6 59//70 60//72
f 6//6 1//1 59//70
f 5//5 1//1 6//6
f 5//5 3//3 1//1
f 13//13 3//3 5//5
f 13//13 11//11 3//3
f 12//12 11//11 13//13
f 12//12 8//8 11//11
f 24//24 8//8 12//12
f 24//24 23//23 8//8
f 21//21 23//23 24//24
f 21//21 19//19 23//23
f 16//48 43//45 37//43
f 16//48 46//49 43//45
f 17//50 46//49 16//48
f 17//50 51//55 46//49
f 30//30 51//55 17//50
f 30//30 61//74 51//55
f 62//75 61//74 30//30
f 62//75 58//64 61//74
f 28//28 58//64 62//75
f 24//24 79//93 21//21
f 24//24 69//83 79//93
f 12//12 69//83 24//24
f 12//12 71//85 69//83
f 13//13 71//85 12//12
f 13//13 65//79 71//85
f 5//5 65//79 13//13
f 5//5 64//78 65//79
f 6//6 64//78 5//5
f 112//138 82//96 84//98
f 112//138 81//95 82//96
f 110//130 81//95 112//138
f 110//130 106//124 81//95
f 105//123 106//124 110//130
f 105//123 107//125 106//124
f 108//126 107//125 105//123
f 108//126 109//127 107//125
f 4//4 37//37 41//69
f 4//4 7//7 37//37
f 2//2 7//7 4//4
f 2//2 14//14 7//7
f 9//9 14//14 2//2
f 9//9 10//10 14//14
f 8//8 10//10 9//9
f 8//8 23//23 10//10
f 105//123 101//119 108//126
f 105//123 100//118 101//119
f 104//122 100//118 105//123
f 104//122 103//121 100//118
f 84//98 103//121 104//122
f 84//98 75//116 103//121
f 100//118 99//117 101//119
f 100//118 102//120 99//117
f 103//121 102//120 100//118
f 103//121 98//114 102//120
f 75//116 98//114 103//121
f 75//116 74//115 98//114
f 102//120 96//112 99//117
f 102//120 97//113 96//112
f 98//114 97//113 102//120
f 98//114 95//111 97//113
f 74//115 95//111 98//114
f 74//115 90//110 95//111
f 111//136 6//6 60//72
f 111//136 64//78 6//6
f 66//80 64//78 111//136
f 66//80 63//77 64//78
f 67//81 63//77 66//80
f 67//81 72//86 63//77
f 69//83 70//84 79//93
f 69//83 68//82 70//84
f 71//85 68//82 69//83
f 71//85 63//77 68//82
f 65//79 63//77 71//85
f 65//79 64//78 63//77
f 59//70 41//69 39//71
f 59//70 4//4 41//69
f 1//1 4//4 59//70
f 1//1 2//2 4//4
f 3//3 2//2 1//1
f 3//3 11//11 2//2
f 92//106 57//76 109//129
f 92//106 38//38 57//76
f 40//40 38//38 92//106
f 40//40 39//39 38//38
f 57//61 107//125 109//127
f 57//61 89//103 107//125
f 36//36 89//103 57//61
f 36//36 80//94 89//103
f 89//103 106//124 107//125
f 89//103 81//95 106//124
f 80//94 81//95 89//103
f 80//94 83//97 81//95
f 53//57 55//59 49//53
f 53//57 54//58 55//59
f 52//56 54//58 53//57
f 52//56 35//35 54//58
f 54//58 56//60 55//59
f 54//58 57//61 56//60
f 35//35 57//61 54//58
f 35//35 36//36 57//61
f 76//90 88//102 73//87
f 76//90 86//100 88//102
f 85//99 86//100 76//90
f 85//99 87//101 86//100
f 27//27 28//28 62//75
f 27//27 29//29 28//28
f 32//32 29//29 27//27
f 32//32 22//22 29//29
f 33//33 34//34 19//19
f 33//33 18//18 34//34
f 31//31 18//18 33//33
f 31//31 30//30 18//18
f 17//17 18//18 30//30
f 17//17 15//15 18//18
f 16//16 15//15 17//17
f 16//16 14//14 15//15
f 104//122 112//138 84//98
f 104//122 110//130 112//138
f 105//123 110//130 104//122
f 38//38 56//63 57//76
f 38//38 55//62 56//63
f 49//68 55//62 38//38
f 38//38 48//67 49//68
f 38//38 44//65 48//67
f 42//66 44//65 38//38
f 38//38 37//42 42//66
f 38//38 41//41 37//42
f 39//39 41//41 38//38
f 86//100 77//91 88//102
f 86//100 78//92 77//91
f 87//101 78//92 86//100
f 15//15 34//34 18//18
f 15//15 10//10 34//34
f 14//14 10//10 15//15
f 93//107 92//106 90//108
f 93//107 91//105 92//106
f 45//47 44//46 42//44
f 45//47 50//54 44//46
f 50//54 48//52 44//46
f 50//54 47//51 48//52
f 47//51 49//53 48//52
f 47//51 53//57 49//53
f 97//113 94//109 96//112
f 97//113 95//111 94//109
f 72//86 68//82 63//77
f 72//86 70//84 68//82
f 108//128 92//106 109//129
f 108//128 101//134 92//106
f 75//89 73//87 74//88
f 75//89 76//90 73//87
f 11//11 9//9 2//2
f 11//11 8//8 9//9
f 29//29 26//26 28//28
f 29//29 22//22 26//26
f 7//7 16//16 37//37
f 7//7 14//14 16//16
f 25//25 22//22 20//20
f 25//25 26//26 22//22
f 99//133 92//106 101//134
f 99//133 96//132 92//106
f 94//131 92//106 96//132
f 94//131 90//108 92//106
f 78//92 20//20 77//91
f 78//92 25//25 20//20
f 23//23 34//34 10//10
f 23//23 19//19 34//34
f 40//40 92//106 91//105
f 95//111 90//110 94//109
f 83//97 82//96 81//95
# 220 faces

