# RFL_Res.dat Editor OBJ Exporter v1.3 - (c) 2018 Atlas Vryzas Software

#
# object hair
#

v  10 59.6353 16.36863
v  17.70196 52.23137 15.63137
v  10 54.54902 19.17647
v  17.70196 55.41177 13.97255
v  0 55.4 20.29804
v  0 61.19608 17.19216
v  0 9.631372 -19.10196
v  10.67059 23.19216 -28.14902
v  0 22.66667 -29.6
v  10.67059 10.89412 -18.37647
v  18.67059 24.72157 -23.9451
v  18.67059 15.55686 -13.8902
v  0 33.43922 -33.24706
v  10.67059 33.43922 -31.61961
v  10 44.82353 -31.27843
v  0 45.40784 -32.8902
v  0 67.21568 -5.956863
v  0 63.74902 -17.49804
v  10 65.5647 -5.662745
v  0 66.18039 5.776471
v  10 64.58039 5.494118
v  17.70196 59.50196 4.596078
v  18.67059 43.12157 -24.90196
v  17.70196 56.78431 -14.94118
v  10 54.83529 -25.49804
v  24 46.22353 9.027451
v  24 51.8549 -2.701961
v  26.30196 42.39216 -1.34902
v  24 21.9098 -9.019608
v  24.65098 33.43922 -15.0902
v  24 43.65098 -12.16863
v  26.30196 33.43922 0
v  0 55.93726 -26.81176
v  10 62.26274 -16.64314
v  24 33.43922 9.027451
v  -17.69804 52.23137 15.63137
v  -10 59.6353 16.36863
v  -10 54.54902 19.17647
v  -17.69804 55.41177 13.97255
v  -10.66667 23.19216 -28.14902
v  -10.66667 10.89412 -18.37647
v  -18.66667 24.72157 -23.9451
v  -18.66667 15.55686 -13.8902
v  -10.66667 33.43922 -31.61961
v  -10 44.82353 -31.27843
v  -10 65.5647 -5.662745
v  -10 64.58039 5.494118
v  -17.69804 59.50196 4.596078
v  -18.66667 43.12157 -24.90196
v  -17.69804 56.78431 -14.94118
v  -10 54.83529 -25.49804
v  -24 51.8549 -2.701961
v  -24 46.22353 9.027451
v  -26.29804 42.39216 -1.34902
v  -24.64706 33.43922 -15.0902
v  -24 21.9098 -9.019608
v  -24 43.65098 -12.16863
v  -26.29804 33.43922 0
v  -10 62.26274 -16.64314
v  -24 33.43922 9.027451
# 60 vertices

vn 0.3393382 0.6865809 0.643076
vn 0.6581495 0.3543505 0.6643382
vn 0.3139093 0.4526961 0.8346814
vn 0.7105392 0.4871936 0.5078431
vn 0 0.4775735 0.8786152
vn 0 0.7338848 0.6793505
vn 0 -0.8051471 -0.593076
vn 0.3240809 -0.4727941 -0.8193628
vn 0 -0.4811274 -0.8765931
vn 0.3672794 -0.758701 -0.5379902
vn 0.756924 -0.2936274 -0.5837622
vn 0.7403187 -0.5770221 -0.3449755
vn 0 -0.1495098 -0.9887255
vn 0.4127451 -0.1273284 -0.9018995
vn 0.4021446 0.2473652 -0.8815564
vn 0 0.2726103 -0.9621323
vn 0 0.9949755 -0.1003064
vn 0 0.8803309 -0.474326
vn 0.4070466 0.9087623 -0.09215686
vn 0 0.9677696 0.2520833
vn 0.3416667 0.908701 0.2400735
vn 0.7588848 0.641299 0.1137868
vn 0.7542892 0.1681985 -0.6346813
vn 0.7552083 0.5708946 -0.3222426
vn 0.4270833 0.5701593 -0.7018383
vn 0.9216299 0.181924 0.3429534
vn 0.9553922 0.2954657 0.005821079
vn 0.9947304 0.1017157 0.01721814
vn 0.9259804 -0.297549 -0.2323529
vn 0.9489583 -0.1060049 -0.2970588
vn 0.9596201 0.1705882 -0.2238971
vn 0.9982231 -0.04871324 0.03553922
vn 0 0.6427696 -0.7659926
vn 0.3488358 0.8256127 -0.4435662
vn 0.9045343 -0.01807598 0.4261029
vn -0.6580882 0.3543505 0.6643382
vn -0.339277 0.6865809 0.643076
vn -0.313848 0.4526961 0.8346814
vn -0.7104779 0.4871936 0.5078431
vn -0.3240196 -0.4727941 -0.8193628
vn -0.3672181 -0.758701 -0.5379902
vn -0.7568628 -0.2936274 -0.5837622
vn -0.7402574 -0.5770221 -0.3449755
vn -0.4126838 -0.1273284 -0.9018995
vn -0.4020833 0.2473652 -0.8815564
vn -0.4069853 0.9087623 -0.09215686
vn -0.3416054 0.908701 0.2400735
vn -0.7588235 0.641299 0.1137868
vn -0.7542279 0.1681985 -0.6346813
vn -0.755147 0.5708946 -0.3222426
vn -0.4270221 0.5701593 -0.7018383
vn -0.9553309 0.2954657 0.005821079
vn -0.9215686 0.181924 0.3429534
vn -0.9946691 0.1017157 0.01721814
vn -0.9488971 -0.1060049 -0.2970588
vn -0.9259191 -0.297549 -0.2323529
vn -0.9595588 0.1705882 -0.2238971
vn -0.9981618 -0.04871324 0.03553922
vn -0.3487745 0.8256127 -0.4435662
vn -0.9044731 -0.01807598 0.4261029
# 60 vertex normals

# 0 texture coords

g hair
f 59//59 50//50 46//46
f 59//59 51//51 50//50
f 33//33 51//51 59//59
f 33//33 16//16 51//51
f 25//25 16//16 33//33
f 25//25 15//15 16//16
f 23//23 15//15 25//25
f 23//23 14//14 15//15
f 11//11 14//14 23//23
f 11//11 8//8 14//14
f 10//10 8//8 11//11
f 10//10 7//7 8//8
f 17//17 20//20 21//21
f 17//17 47//47 20//20
f 46//46 47//47 17//17
f 46//46 48//48 47//47
f 50//50 48//48 46//46
f 50//50 52//52 48//48
f 57//57 52//52 50//50
f 57//57 54//54 52//52
f 55//55 54//54 57//57
f 55//55 58//58 54//54
f 56//56 58//58 55//55
f 53//53 52//52 54//54
f 53//53 48//48 52//52
f 39//39 48//48 53//53
f 39//39 47//47 48//48
f 37//37 47//47 39//39
f 37//37 20//20 47//47
f 6//6 20//20 37//37
f 6//6 1//1 20//20
f 5//5 1//1 6//6
f 5//5 3//3 1//1
f 9//9 14//14 8//8
f 9//9 13//13 14//14
f 44//44 13//13 9//9
f 44//44 45//45 13//13
f 49//49 45//45 44//44
f 49//49 51//51 45//45
f 50//50 51//51 49//49
f 25//25 24//24 23//23
f 25//25 34//34 24//24
f 33//33 34//34 25//25
f 33//33 18//18 34//34
f 59//59 18//18 33//33
f 59//59 46//46 18//18
f 11//11 12//12 10//10
f 11//11 29//29 12//12
f 30//30 29//29 11//11
f 30//30 32//32 29//29
f 28//28 32//32 30//30
f 23//23 30//30 11//11
f 23//23 31//31 30//30
f 24//24 31//31 23//23
f 24//24 27//27 31//31
f 22//22 27//27 24//24
f 49//49 57//57 50//50
f 49//49 55//55 57//57
f 42//42 55//55 49//49
f 42//42 56//56 55//55
f 43//43 56//56 42//42
f 44//44 42//42 49//49
f 44//44 40//40 42//42
f 9//9 40//40 44//44
f 9//9 7//7 40//40
f 8//8 7//7 9//9
f 36//36 39//39 53//53
f 36//36 37//37 39//39
f 38//38 37//37 36//36
f 38//38 5//5 37//37
f 28//28 35//35 32//32
f 28//28 26//26 35//35
f 27//27 26//26 28//28
f 27//27 22//22 26//26
f 1//1 21//21 20//20
f 1//1 4//4 21//21
f 2//2 4//4 1//1
f 2//2 26//26 4//4
f 17//17 18//18 46//46
f 17//17 19//19 18//18
f 21//21 19//19 17//17
f 21//21 22//22 19//19
f 16//16 45//45 51//51
f 16//16 13//13 45//45
f 15//15 13//13 16//16
f 15//15 14//14 13//13
f 19//19 34//34 18//18
f 19//19 24//24 34//34
f 22//22 24//24 19//19
f 60//60 54//54 58//58
f 60//60 53//53 54//54
f 22//22 4//4 26//26
f 22//22 21//21 4//4
f 31//31 28//28 30//30
f 31//31 27//27 28//28
f 42//42 41//41 43//43
f 42//42 40//40 41//41
f 6//6 37//37 5//5
f 3//3 2//2 1//1
f 7//7 41//41 40//40
# 100 faces

