# RFL_Res.dat Editor OBJ Exporter v1.3 - (c) 2018 Atlas Vryzas Software

#
# object hair
#

v  25.44706 45.99608 14.99216
v  27.16471 45.65098 9.345098
v  24.39216 37.80392 14.16471
v  0 57.06667 26.5451
v  4.666667 56.96471 25.48627
v  0 48.08627 28.33333
v  17.95294 56.16863 19.3451
v  19.71373 47.12549 21.27843
v  13.42353 56.55686 21.99216
v  20.59216 55.68628 15.57255
v  7.537255 63.81961 17.49412
v  0 64 19.49412
v  14.20392 63.17255 13.77255
v  19.30588 62 5
v  2.564706 48.07059 27.12157
v  0 39.8549 27.16078
v  10.50196 47.84314 26.66274
v  12.41569 47.7098 24.41961
v  9.858824 39.61568 25.34118
v  20.75294 46.88235 18.23529
v  18.51765 38.91373 20.08235
v  9.552941 56.83921 23.73726
v  7.607843 47.95294 26.60784
v  16.83922 47.34902 21.91372
v  24.20392 54.55686 7.505882
v  23.45882 46.3098 16.60392
v  10.60392 66.44706 5.823529
v  0 69.24313 -6.309804
v  10.60392 67.4902 -6
v  0 68.1451 6.121569
v  10.60392 63.99608 -17.63922
v  18.76471 58.18431 -15.83922
v  0 65.56863 -18.54902
v  10.60392 56.11765 -27.02353
v  0 57.28627 -28.41961
v  10.60392 45.50588 -33.15294
v  19.78823 43.70588 -26.39216
v  0 46.12549 -34.86274
v  27.76471 44.48627 -1
v  26.23922 44 -14
v  28.23922 32.7451 0
v  0 33.43922 -35.24314
v  11.3098 33.43922 -33.51765
v  0 22.01569 -31.37255
v  11.3098 22.57647 -29.83922
v  0 6 -24
v  0 -4 -19.24706
v  9.019608 6.631372 -22
v  23.25098 21.19608 -17.52549
v  19.78823 24.19608 -25.38039
v  16.67843 8 -19
v  7 0 -19.62745
v  14 -4 -16
v  20.63137 9 -10.98039
v  25.63922 21 -6
v  26.12941 33.43922 -16
v  25.44314 52.96078 -2.866667
v  0 54.01961 -8.466666
v  26.29804 24.08628 5.635294
v  0 45.65098 9.345098
v  -27.16078 45.65098 9.345098
v  -25.44314 45.99608 14.99216
v  -24.38824 37.80392 14.16471
v  -4.662745 56.96471 25.48627
v  -17.94902 56.16863 19.3451
v  -13.41961 56.55686 21.99216
v  -19.7098 47.12549 21.27843
v  -20.58824 55.68628 15.57255
v  -7.533333 63.81961 17.49412
v  -14.2 63.17255 13.77255
v  -19.30588 62 5
v  -2.560784 48.07059 27.12157
v  -12.41177 47.7098 24.41961
v  -10.49804 47.84314 26.66274
v  -9.854902 39.61568 25.34118
v  -20.74902 46.88235 18.23529
v  -18.51373 38.91373 20.08235
v  -9.54902 56.83921 23.73726
v  -7.603921 47.95294 26.60784
v  -16.83529 47.34902 21.91372
v  -23.4549 46.3098 16.60392
v  -24.2 54.55686 7.505882
v  -10.6 66.44706 5.823529
v  -10.6 67.4902 -6
v  -18.76078 58.18431 -15.83922
v  -10.6 63.99608 -17.63922
v  -10.6 56.11765 -27.02353
v  -19.78823 43.70196 -26.38824
v  -10.6 45.50588 -33.15294
v  -26.24314 44 -14
v  -27.76078 44.48627 -1
v  -28.23529 32.7451 0
v  -11.30588 33.43922 -33.51765
v  -11.30588 22.57647 -29.83922
v  -9.015686 6.631372 -22
v  -19.78431 24.19608 -25.38039
v  -23.24706 21.19608 -17.52549
v  -16.67451 8 -19
v  -7 0 -19.62745
v  -14 -4 -16
v  -25.63529 21 -6
v  -20.62745 9 -10.98039
v  -25.43922 52.96078 -2.866667
v  -26.12549 33.43922 -16
v  -26.29412 24.08628 5.635294
v  10.31765 7.501961 -10.71765
v  0 6 -11.47059
v  -10.31373 7.501961 -10.71765
# 108 vertices

vn 0.8455882 0.1556985 0.5107231
vn 0.979902 0.1003677 0.1724878
vn 0.8110907 -0.1610294 0.5624387
vn 0 0.4766544 0.8791054
vn 0.2401348 0.421875 0.8743873
vn 0 0.04669118 0.9989583
vn 0.6213848 0.4943015 0.608027
vn 0.6734068 0.07034314 0.7359681
vn 0.4608456 0.4278186 0.7776348
vn 0.7930147 0.439951 0.4215074
vn 0.2512868 0.8254289 0.505576
vn 0 0.8174019 0.5761029
vn 0.4914216 0.7753063 0.396875
vn 0.6816176 0.7276961 0.07757353
vn 0.426777 -0.03125 0.9038603
vn 0 -0.1407475 0.9900735
vn 0.4003676 0.0971201 0.9112132
vn 0.7594975 -0.03651961 0.6495098
vn 0.3977941 -0.175674 0.9005515
vn 0.9449142 -0.03602941 0.3254902
vn 0.6424019 -0.2009191 0.7395833
vn 0.3423407 0.5141544 0.7865196
vn -0.01985294 -0.01905637 0.9996936
vn 0.2116422 -0.04828431 0.9761642
vn 0.8915441 0.4238358 0.1598039
vn 0.6351103 0.05974265 0.7701593
vn 0.2776348 0.9477329 0.1576593
vn 0 0.999326 -0.03786765
vn 0.382598 0.913848 -0.1364583
vn 0 0.9764706 0.2159314
vn 0.3466912 0.8044118 -0.4824755
vn 0.7271446 0.5941176 -0.3439338
vn 0 0.9104779 -0.4135417
vn 0.4047794 0.5634804 -0.7201593
vn 0 0.6867034 -0.7269608
vn 0.3517157 0.215625 -0.9109069
vn 0.7518995 0.1949755 -0.6297794
vn 0 0.3528186 -0.9357231
vn 0.9827819 0.1839461 -0.01936274
vn 0.9440564 0.1977328 -0.2639706
vn 0.9994485 -0.02732843 -0.02279412
vn 0 -0.08523284 -0.9963235
vn 0.3825368 -0.1492034 -0.9117647
vn 0 -0.3537377 -0.9352941
vn 0.3008578 -0.3882966 -0.8710172
vn 0 -0.4382353 -0.8987745
vn 0 -0.4055147 -0.9140319
vn 0.3058211 -0.4016544 -0.863174
vn 0.895772 -0.2805147 -0.3447917
vn 0.6796569 -0.2512868 -0.6890931
vn 0.6965686 -0.3629289 -0.6189338
vn 0.2020833 -0.3838848 -0.9009804
vn 0.536397 -0.352451 -0.7667892
vn 0.8880515 -0.3283088 -0.3219976
vn 0.9592525 -0.21875 -0.178799
vn 0.9424019 -0.07408088 -0.3262255
vn 0.8961397 0.4343137 -0.0916054
vn 0.03302696 -0.9960784 0.08167892
vn 0 -0.9867647 -0.1616422
vn 0.9554535 -0.2720588 -0.1142157
vn -0.9458946 -0.284375 0.1560049
vn 0.8849878 -0.2627451 -0.3844976
vn -0.1267157 -0.9252451 -0.3574142
vn 0.08480392 -0.9953431 0.04558824
vn 0.02579657 -0.9985294 0.04699755
vn -0.7453431 -0.2074755 0.6335784
vn 0.7272671 -0.2608456 -0.6348652
vn -0.2583333 -0.9129902 -0.3155637
vn -0.8621324 -0.2925858 0.4136029
vn -0.4507353 -0.8806985 -0.1454044
vn 0.3173407 -0.575 -0.7540441
vn -0.591299 -0.7650735 0.2551471
vn 0 -0.6117035 0.7911152
vn 0 -0.1696691 0.9854779
vn -0.388174 -0.9168505 0.09344362
vn -0.9798407 0.1003677 0.1724878
vn -0.8455269 0.1556985 0.5107231
vn -0.8110294 -0.1610294 0.5624387
vn -0.2400735 0.421875 0.8743873
vn -0.6213235 0.4943015 0.608027
vn -0.4607843 0.4278186 0.7776348
vn -0.6733456 0.07034314 0.7359681
vn -0.7929534 0.439951 0.4215074
vn -0.2512255 0.8254289 0.505576
vn -0.491299 0.7753063 0.3969363
vn -0.6815563 0.7276348 0.0776348
vn -0.4267157 -0.03125 0.9038603
vn -0.7594362 -0.03651961 0.6495098
vn -0.4003064 0.0971201 0.9112132
vn -0.3977329 -0.175674 0.9005515
vn -0.9448529 -0.03602941 0.3254902
vn -0.6423407 -0.2009191 0.7395833
vn -0.3422794 0.5141544 0.7865196
vn 0.01991422 -0.01905637 0.9996936
vn -0.2115809 -0.04828431 0.9761642
vn -0.635049 0.05974265 0.7701593
vn -0.8915441 0.4237132 0.1598039
vn -0.2775123 0.9477329 0.1577206
vn -0.3824755 0.913848 -0.1364583
vn -0.7270221 0.5941789 -0.3439951
vn -0.3466299 0.8044118 -0.4824755
vn -0.4047181 0.5634191 -0.7201593
vn -0.7518382 0.1949142 -0.6297794
vn -0.3517157 0.215625 -0.9109069
vn -0.9440564 0.1977328 -0.2639093
vn -0.9827206 0.1839461 -0.0192402
vn -0.9993873 -0.02738971 -0.02273284
vn -0.3825368 -0.1492034 -0.9117647
vn -0.3007966 -0.3882966 -0.8710172
vn -0.3057598 -0.4016544 -0.863174
vn -0.6795956 -0.2512868 -0.6890931
vn -0.8957108 -0.2805147 -0.3447917
vn -0.6965073 -0.3629289 -0.6189338
vn -0.2020221 -0.3838848 -0.9009804
vn -0.5363358 -0.352451 -0.7667892
vn -0.9591912 -0.21875 -0.178799
vn -0.8879902 -0.3283088 -0.3219976
vn -0.8960784 0.4343137 -0.09154411
vn -0.9423407 -0.07420343 -0.3262868
vn -0.03296569 -0.9960784 0.08167892
vn -0.9553922 -0.2720588 -0.1142157
vn 0.9459559 -0.284375 0.1560049
vn -0.8849265 -0.2627451 -0.3844976
vn 0.126777 -0.9252451 -0.3574142
vn -0.08474265 -0.9953431 0.04558824
vn -0.02573529 -0.9985294 0.04699755
vn 0.7454044 -0.2074755 0.6335784
vn -0.7272059 -0.2608456 -0.6348652
vn 0.2583946 -0.9129902 -0.3155637
vn 0.8621936 -0.2925858 0.4136029
vn 0.4507966 -0.8806985 -0.1454044
vn -0.3172794 -0.575 -0.7540441
vn 0.5913603 -0.7650735 0.2551471
vn 0.3882353 -0.9168505 0.09344362
vn 0.05471814 -0.4128676 0.9091299
vn 0.004105392 -0.5363358 0.8439338
vn 0 -0.465625 0.8849878
vn 0.08186275 -0.4029412 0.9115809
vn 0 -0.7371936 0.675674
vn -0.0882353 -0.7455882 0.6605392
vn -0.05465686 -0.4128676 0.9091299
vn -0.08180147 -0.4029412 0.9115809
vn 0 -0.9291667 -0.3695466
vn 0.9731005 -0.07647059 0.2175858
vn -0.9730392 -0.07647059 0.2175858
vn 0.08829657 -0.7455882 0.6605392
vn -0.2822304 -0.4735907 0.8342525
vn 0.2822917 -0.4735907 0.8342525
# 148 vertex normals

# 0 texture coords

g hair
f 61//76 92//107 105//145
f 61//76 91//106 92//107
f 82//97 91//106 61//76
f 82//97 103//118 91//106
f 71//86 103//118 82//97
f 71//86 85//100 103//118
f 84//99 85//100 71//86
f 84//99 86//101 85//100
f 33//33 86//101 84//99
f 33//33 35//35 86//101
f 31//31 35//35 33//33
f 31//31 34//34 35//35
f 32//32 34//34 31//31
f 32//32 37//37 34//34
f 40//40 37//37 32//32
f 40//40 56//56 37//37
f 41//41 56//56 40//40
f 41//41 55//55 56//56
f 41//41 2//2 59//144
f 41//41 39//39 2//2
f 40//40 39//39 41//41
f 40//40 57//57 39//39
f 32//32 57//57 40//40
f 32//32 14//14 57//57
f 29//29 14//14 32//32
f 29//29 27//27 14//14
f 28//28 27//27 29//29
f 28//28 30//30 27//27
f 83//98 30//30 28//28
f 83//98 69//84 30//30
f 70//85 69//84 83//98
f 70//85 66//81 69//84
f 65//80 66//81 70//85
f 65//80 67//82 66//81
f 68//83 67//82 65//80
f 68//83 76//91 67//82
f 14//14 10//10 25//25
f 14//14 13//13 10//10
f 27//27 13//13 14//14
f 27//27 11//11 13//13
f 30//30 11//11 27//27
f 30//30 12//12 11//11
f 69//84 12//12 30//30
f 69//84 64//79 12//12
f 78//93 64//79 69//84
f 78//93 74//89 64//79
f 66//81 74//89 78//93
f 66//81 73//88 74//89
f 95//110 47//47 99//114
f 95//110 46//46 47//47
f 94//109 46//46 95//110
f 94//109 44//44 46//46
f 93//108 44//44 94//109
f 93//108 42//42 44//44
f 89//104 42//42 93//108
f 89//104 38//38 42//42
f 87//102 38//38 89//104
f 87//102 35//35 38//38
f 86//101 35//35 87//102
f 100//115 95//110 99//114
f 100//115 98//113 95//110
f 102//117 98//113 100//115
f 102//117 97//112 98//113
f 101//116 97//112 102//117
f 101//116 104//119 97//112
f 92//107 104//119 101//116
f 92//107 90//105 104//119
f 91//106 90//105 92//107
f 91//106 103//118 90//105
f 10//10 8//8 20//20
f 10//10 7//7 8//8
f 13//13 7//7 10//10
f 13//13 9//9 7//7
f 11//11 9//9 13//13
f 11//11 22//22 9//9
f 5//5 22//22 11//11
f 5//5 17//17 22//22
f 23//23 17//17 5//5
f 23//23 19//19 17//17
f 34//34 38//38 35//35
f 34//34 36//36 38//38
f 37//37 36//36 34//34
f 37//37 43//43 36//36
f 50//50 43//43 37//37
f 50//50 45//45 43//43
f 48//48 45//45 50//50
f 48//48 46//46 45//45
f 47//47 46//46 48//48
f 70//85 68//83 65//80
f 70//85 71//86 68//83
f 83//98 71//86 70//85
f 83//98 84//99 71//86
f 28//28 84//99 83//98
f 28//28 33//33 84//99
f 29//29 33//33 28//28
f 29//29 31//31 33//33
f 32//32 31//31 29//29
f 48//48 52//52 47//47
f 48//48 53//53 52//52
f 51//51 53//53 48//48
f 51//51 54//54 53//53
f 49//49 54//54 51//51
f 49//49 55//55 54//54
f 56//56 55//55 49//49
f 12//12 5//5 11//11
f 12//12 4//4 5//5
f 64//79 4//4 12//12
f 64//79 6//6 4//4
f 72//87 6//6 64//79
f 72//87 16//16 6//6
f 44//44 45//45 46//46
f 44//44 43//43 45//45
f 42//42 43//43 44//44
f 42//42 36//36 43//43
f 38//38 36//36 42//42
f 101//141 60//73 92//134
f 101//141 107//137 60//73
f 108//136 107//137 101//141
f 108//136 47//139 107//137
f 99//146 47//139 108//136
f 1//1 10//10 26//26
f 1//1 25//25 10//10
f 2//2 25//25 1//1
f 2//2 39//39 25//25
f 107//137 55//135 60//73
f 107//137 106//136 55//135
f 47//139 106//136 107//137
f 47//139 52//140 106//136
f 93//108 88//103 89//104
f 93//108 96//111 88//103
f 94//109 96//111 93//108
f 94//109 95//110 96//111
f 85//100 90//105 103//118
f 85//100 88//103 90//105
f 87//102 88//103 85//100
f 87//102 89//104 88//103
f 82//97 68//83 71//86
f 82//97 62//77 68//83
f 61//76 62//77 82//97
f 61//76 63//78 62//77
f 58//59 66//125 80//130
f 58//59 73//123 66//125
f 75//124 73//123 58//59
f 58//59 79//122 75//124
f 58//59 64//120 79//122
f 72//121 64//120 58//59
f 58//59 16//143 72//121
f 58//59 15//60 16//143
f 5//58 15//60 58//59
f 60//73 59//72 2//74
f 60//73 41//75 59//72
f 55//135 41//75 60//73
f 108//136 100//148 99//146
f 108//136 102//142 100//148
f 101//141 102//142 108//136
f 104//119 96//111 97//112
f 104//119 88//103 96//111
f 90//105 88//103 104//119
f 50//50 51//51 48//48
f 50//50 49//49 51//51
f 56//56 49//49 50//50
f 67//82 80//95 66//81
f 67//82 77//92 80//95
f 76//91 77//92 67//82
f 58//59 63//131 61//132
f 58//59 81//127 63//131
f 68//126 81//127 58//59
f 74//89 79//94 64//79
f 74//89 75//90 79//94
f 73//88 75//90 74//89
f 17//17 9//9 22//22
f 17//17 18//18 9//9
f 19//19 18//18 17//17
f 8//8 21//21 20//20
f 8//8 24//24 21//21
f 9//9 24//24 8//8
f 58//59 76//128 68//126
f 58//59 77//129 76//128
f 80//130 77//129 58//59
f 21//68 58//59 20//67
f 21//68 24//69 58//59
f 105//133 60//73 61//74
f 105//133 92//134 60//73
f 10//65 58//59 26//66
f 10//65 20//67 58//59
f 57//57 25//25 39//39
f 57//57 14//14 25//25
f 3//70 58//59 2//71
f 3//70 26//66 58//59
f 98//113 96//111 95//110
f 98//113 97//112 96//111
f 3//3 1//1 26//26
f 3//3 2//2 1//1
f 19//63 58//59 18//62
f 19//63 23//61 58//59
f 9//64 58//59 24//69
f 9//64 18//62 58//59
f 53//147 106//136 52//140
f 53//147 54//138 106//136
f 81//96 62//77 63//78
f 81//96 68//83 62//77
f 15//15 6//6 16//16
f 15//15 5//5 6//6
f 54//138 55//135 106//136
f 5//58 58//59 23//61
f 85//100 86//101 87//102
f 50//50 37//37 56//56
f 78//93 69//84 66//81
f 9//9 8//8 7//7
f 6//6 5//5 4//4
# 210 faces

