# RFL_Res.dat Editor OBJ Exporter v1.3 - (c) 2018 Atlas Vryzas Software

#
# object hair
#

v  31 29 6
v  26.19216 37.87843 16.99608
v  31 39.3451 7.262745
v  27.50196 28 12.86275
v  23.77255 46.72157 17.58824
v  29.32941 47.47843 7.564706
v  5.737255 66.62353 18.67843
v  12.47451 62.43137 20.54902
v  6.392157 62.42353 24.10196
v  11.87451 66.12157 14
v  28.1098 18.27843 5
v  30 30 -3
v  30 40 -3
v  27 52 -4
v  25.54902 55.7451 7.094118
v  19.64314 60.38432 -4.717647
v  20.34118 62 5.968627
v  18.57647 56.85882 18.26667
v  0 44 -0.04705882
v  19.25882 50.37647 20.20392
v  18.02745 62 14.86667
v  7 -7 -22
v  0 -2 -29
v  0 -15 -20.13333
v  9.341176 -1 -27
v  25 12 -16
v  18.41961 0 -20
v  23 2 -9
v  19.70196 10.81176 -25.38431
v  10.2902 10.4 -31.97255
v  0 10 -33
v  26.19216 23.46667 -16
v  19.98824 23.77255 -26.05098
v  10.70196 22 -33.10588
v  0 22 -34.81961
v  26.34902 33.69412 -16
v  19.78823 43.70588 -26.39216
v  10.83137 33.69412 -33.66275
v  10.15686 68 4
v  10.60392 67.4902 -6
v  0 65.56863 -18.54902
v  10.60392 63.99608 -17.63922
v  0 69.24313 -6.309804
v  0 33.69412 -35.37255
v  10.60392 45.50588 -33.15294
v  0 46.12549 -34.86274
v  26.24706 44.42745 -13.21961
v  18.8549 58.18431 -15.83922
v  10.60392 56.11765 -27.02353
v  0 57.28627 -28.41961
v  28 14 -6
v  15.56078 -12.31765 -14
v  10.04314 4.894118 -12.55294
v  13.87843 43.54118 26.69804
v  13.85882 50.36863 26.43529
v  19.3098 43.54902 20.49804
v  20.52157 54.99216 16.77647
v  0 43.50588 31.78431
v  7.078432 43.52549 30.5098
v  0 66.62353 19.85882
v  0 62.41569 25.38039
v  0 56.82353 29.41569
v  7.086275 50.35294 30.2902
v  0 50.33333 31.61176
v  6.854902 56.84314 28.08628
v  0 70 4
v  13.38039 56.8549 24.32157
v  0 69.08235 13.32157
v  6.32549 68.43922 12.27843
v  -10.03922 4.894118 -12.55294
v  -26.18824 37.87843 16.99608
v  -31 29 6
v  -31 39.3451 7.262745
v  -27.49804 28 12.86275
v  -23.76863 46.72157 17.58824
v  -29.32549 47.47843 7.564706
v  -12.47059 62.43137 20.54902
v  -5.733333 66.62353 18.67843
v  -6.388235 62.42353 24.10196
v  -11.87059 66.12157 14
v  -28.10588 18.27843 5
v  -30 30 -3
v  -30 40 -3
v  -27 52 -4
v  -19.63922 60.38432 -4.717647
v  -25.5451 55.7451 7.094118
v  -20.33726 62 5.968627
v  -18.57255 56.85882 18.26667
v  -19.2549 50.37647 20.20392
v  -18.02353 62 14.86667
v  -7 -7 -22
v  -9.337255 -1 -27
v  -18.41569 0 -20
v  -25 12 -16
v  -23 2 -9
v  -19.69804 10.81176 -25.38431
v  -10.28627 10.4 -31.97255
v  -26.18824 23.46667 -16
v  -19.98431 23.77255 -26.05098
v  -10.69804 22 -33.10588
v  -26.3451 33.69412 -16
v  -19.78431 43.70588 -26.39216
v  -10.82745 33.69412 -33.66275
v  -10.15294 68 4
v  -10.6 67.4902 -6
v  -10.6 63.99608 -17.63922
v  -10.6 45.50588 -33.15294
v  -26.24314 44.42745 -13.21961
v  -18.85098 58.18431 -15.83922
v  -10.6 56.11765 -27.02353
v  -28 14 -6
v  -15.55686 -12.31765 -14
v  -13.87451 43.54118 26.69804
v  -13.8549 50.36863 26.43529
v  -19.30588 43.54902 20.49804
v  -20.51765 54.99216 16.77647
v  -7.07451 43.52549 30.5098
v  -7.082353 50.35294 30.2902
v  -6.85098 56.84314 28.08628
v  -13.37647 56.8549 24.32157
v  -6.321568 68.43922 12.27843
# 121 vertices

vn 0.9669731 -0.1313113 0.2186887
vn 0.8924019 0.0283701 0.4504289
vn 0.9772059 0.09234069 0.1914828
vn 0.8875 -0.1714461 0.4278799
vn 0.8457108 0.2431373 0.4751225
vn 0.9279412 0.3081495 0.2097427
vn 0.2278799 0.8767769 0.4235907
vn 0.4981618 0.6634804 0.5583333
vn 0.2648897 0.6855392 0.6782476
vn 0.4292279 0.8696691 0.2441176
vn 0.9525735 -0.2698529 0.1410539
vn 0.9803922 -0.05410539 -0.1897059
vn 0.974326 0.1246324 -0.1876225
vn 0.8828431 0.4333946 -0.1811887
vn 0.8282475 0.5429534 0.1387868
vn 0.6887867 0.7044117 -0.1714461
vn 0.6254902 0.7801471 0.01476716
vn 0.7561888 -0.2089461 -0.6200981
vn 0 -0.8705882 0.4920343
vn 0.7341912 -0.07254902 -0.6750613
vn 0.3460784 -0.7793505 0.5223652
vn 0.3904412 -0.5893382 -0.7072304
vn 0 -0.5021446 -0.8647059
vn 0 -0.5632966 -0.8262255
vn 0.4285539 -0.5198529 -0.7389706
vn 0.9063113 -0.2473652 -0.3427083
vn 0.7155024 -0.4526961 -0.5321078
vn 0.8946078 -0.3558823 -0.2701593
vn 0.7354167 -0.2238358 -0.6395833
vn 0.376777 -0.2335172 -0.8963235
vn 0 -0.1900123 -0.9817402
vn 0.9188725 -0.05704657 -0.3904412
vn 0.7230392 -0.03841912 -0.6897059
vn 0.339277 -0.09105392 -0.9362745
vn 0 -0.08229166 -0.9965686
vn 0.9176471 0.03094363 -0.396201
vn 0.7488971 0.2064951 -0.6297181
vn 0.3983456 -0.009497549 -0.9171569
vn 0.322549 0.9464461 0.01568628
vn 0.3878677 0.9050858 -0.1747549
vn 0 0.9104779 -0.4135417
vn 0.3971814 0.8068015 -0.4374387
vn 0 0.9907476 -0.1357843
vn 0 0.01335784 -0.9999387
vn 0.352451 0.2165441 -0.9104167
vn 0 0.3561887 -0.9344363
vn 0.8997549 0.2369485 -0.3664829
vn 0.7283701 0.5606618 -0.3939338
vn 0.4036152 0.5634191 -0.7208946
vn 0 0.6867034 -0.7269608
vn 0.9551471 -0.1696078 -0.2427696
vn 0.6947304 -0.4386642 -0.5699755
vn -0.1245098 -0.3425858 0.93125
vn -0.01384804 -0.6197304 0.7846814
vn 0 -0.6180147 0.7862132
vn -0.653799 -0.7427696 -0.1439951
vn -0.5817402 -0.456924 0.6728554
vn 0.7471814 0.1476103 0.6481005
vn 0.6316789 0.03137255 0.7746936
vn 0.5981005 0.1889706 0.7789215
vn 0.7516544 0.03382353 0.658701
vn 0.8017769 0.3870098 0.4554534
vn 0.6630515 0.6513481 0.3690564
vn 0 -0.9998775 -0.015625
vn -0.5686275 -0.2963235 0.7673407
vn -0.1495098 -0.2166667 0.9647672
vn -0.2918505 -0.1460172 0.9452819
vn -0.3932598 -0.8906863 0.2277573
vn 0 0.8511642 0.525
vn 0 0.6634191 0.7483456
vn 0 0.4153186 0.9096814
vn 0.3396446 0.1757966 0.9240196
vn 0 0.1272059 0.9919118
vn 0.3159927 0.4490196 0.8358456
vn 0.5010417 -0.7156863 -0.4864583
vn 0 0.9998162 0.0213848
vn -0.5730392 -0.1787377 0.7998162
vn -0.6058211 -0.08063725 0.7915441
vn 0.585049 0.4132966 0.6978554
vn 0.685049 0.4099877 0.6023284
vn 0.2863971 0.02830882 0.9577206
vn 0 0.02487745 0.9997549
vn 0 0.9689951 0.2470588
vn 0.2215686 0.9610907 0.1651348
vn -0.542402 -0.2414216 0.8046569
vn 0.1245711 -0.3425858 0.93125
vn -0.8923407 0.0283701 0.4504289
vn -0.9669118 -0.1313113 0.2186887
vn -0.9771446 0.09234069 0.1914828
vn -0.8874387 -0.1714461 0.4278799
vn -0.8456495 0.2431373 0.4751225
vn -0.9278799 0.3081495 0.2097427
vn -0.4981005 0.6634804 0.5583333
vn -0.2278186 0.8767769 0.4235907
vn -0.2648284 0.6855392 0.6782476
vn -0.4291667 0.8696691 0.2441176
vn -0.9525123 -0.2698529 0.1410539
vn -0.9803309 -0.05410539 -0.1897059
vn -0.9742647 0.1246324 -0.1876225
vn -0.8827819 0.4333946 -0.1811887
vn -0.6887255 0.7044117 -0.1714461
vn -0.8281863 0.5429534 0.1387868
vn -0.6254289 0.7801471 0.01476716
vn -0.7561275 -0.2089461 -0.6200981
vn -0.7341299 -0.07254902 -0.6750613
vn -0.3460172 -0.7793505 0.5223652
vn -0.3903799 -0.5893382 -0.7072304
vn -0.4284926 -0.5198529 -0.7389706
vn -0.7154412 -0.4526961 -0.5321078
vn -0.90625 -0.2473652 -0.3427083
vn -0.8945466 -0.3558823 -0.2701593
vn -0.7353554 -0.2238358 -0.6395833
vn -0.3767157 -0.2335172 -0.8963235
vn -0.9188113 -0.05704657 -0.3904412
vn -0.7229779 -0.03841912 -0.6897059
vn -0.3392157 -0.09105392 -0.9362745
vn -0.9175858 0.03094363 -0.396201
vn -0.7488358 0.2064951 -0.6297181
vn -0.3982843 -0.009497549 -0.9171569
vn -0.3224877 0.9464461 0.01568628
vn -0.3878064 0.9050858 -0.1747549
vn -0.3971201 0.8068015 -0.4374387
vn -0.3523897 0.2165441 -0.9104167
vn -0.8996936 0.2369485 -0.3664829
vn -0.7283088 0.5606618 -0.3939338
vn -0.4035539 0.5634191 -0.7208946
vn -0.9550858 -0.1696078 -0.2427696
vn -0.6946691 -0.4386642 -0.5699755
vn 0.01390931 -0.6197304 0.7846814
vn 0.6538603 -0.7427696 -0.1439951
vn 0.5818015 -0.456924 0.6728554
vn -0.6316177 0.03137255 0.7746936
vn -0.7471201 0.1476103 0.6481005
vn -0.5980392 0.1889706 0.7789215
vn -0.7515931 0.03382353 0.658701
vn -0.8017157 0.3870098 0.4554534
vn -0.6629902 0.6513481 0.3690564
vn 0.5686888 -0.2963235 0.7673407
vn 0.1495711 -0.2166667 0.9647672
vn 0.2919118 -0.1460172 0.9452819
vn 0.3933211 -0.8906863 0.2277573
vn -0.3395833 0.1757966 0.9240196
vn -0.3159314 0.4490196 0.8358456
vn -0.5009804 -0.7156863 -0.4864583
vn 0.5731005 -0.1787377 0.7998162
vn 0.6058823 -0.08063725 0.7915441
vn -0.5849878 0.4132966 0.6978554
vn -0.6849877 0.4099877 0.6023284
vn -0.2863358 0.02830882 0.9577206
vn -0.2215074 0.9610907 0.1651348
vn 0.5424632 -0.2414216 0.8046569
# 151 vertex normals

# 0 texture coords

g hair
f 104//120 87//103 80//96
f 104//120 105//121 87//103
f 43//43 105//121 104//120
f 43//43 41//41 105//121
f 40//40 41//41 43//43
f 40//40 42//42 41//41
f 16//16 42//42 40//40
f 16//16 48//48 42//42
f 14//14 48//48 16//16
f 14//14 47//47 48//48
f 13//13 47//47 14//14
f 13//13 36//36 47//47
f 12//12 36//36 13//13
f 12//12 32//32 36//36
f 51//51 32//32 12//12
f 51//51 26//26 32//32
f 28//28 26//26 51//51
f 28//28 27//27 26//26
f 52//52 27//27 28//28
f 52//52 22//22 27//27
f 77//93 90//137 88//148
f 77//93 80//96 90//137
f 78//94 80//96 77//93
f 78//94 121//150 80//96
f 68//83 121//150 78//94
f 68//83 66//76 121//150
f 69//84 66//76 68//83
f 69//84 39//39 66//76
f 10//10 39//39 69//84
f 10//10 17//17 39//39
f 21//63 17//17 10//10
f 21//63 15//15 17//17
f 57//62 15//15 21//63
f 57//62 6//6 15//15
f 5//5 6//6 57//62
f 5//5 3//3 6//6
f 2//2 3//3 5//5
f 2//2 1//1 3//3
f 4//4 1//1 2//2
f 4//4 11//11 1//1
f 87//103 90//137 80//96
f 87//103 86//102 90//137
f 85//101 86//102 87//103
f 85//101 84//100 86//102
f 109//125 84//100 85//101
f 109//125 108//124 84//100
f 102//118 108//124 109//125
f 102//118 101//117 108//124
f 99//115 101//117 102//118
f 99//115 98//114 101//117
f 96//112 98//114 99//115
f 96//112 94//110 98//114
f 93//109 94//110 96//112
f 93//109 95//111 94//110
f 112//128 95//111 93//109
f 12//12 1//1 11//11
f 12//12 3//3 1//1
f 13//13 3//3 12//12
f 13//13 6//6 3//3
f 14//14 6//6 13//13
f 14//14 15//15 6//6
f 16//16 15//15 14//14
f 16//16 17//17 15//15
f 40//40 17//17 16//16
f 40//40 39//39 17//17
f 43//43 39//39 40//40
f 43//43 66//76 39//39
f 104//120 66//76 43//43
f 104//120 121//150 66//76
f 80//96 121//150 104//120
f 93//109 91//107 112//128
f 93//109 92//108 91//107
f 96//112 92//108 93//109
f 96//112 97//113 92//108
f 99//115 97//113 96//112
f 99//115 100//116 97//113
f 103//119 100//116 99//115
f 103//119 35//35 100//116
f 44//44 35//35 103//119
f 44//44 38//38 35//35
f 45//45 38//38 44//44
f 45//45 37//37 38//38
f 49//49 37//37 45//45
f 49//49 48//48 37//37
f 42//42 48//48 49//49
f 113//132 89//133 115//135
f 113//132 114//134 89//133
f 118//142 114//134 113//132
f 118//142 119//143 114//134
f 62//71 119//143 118//142
f 62//71 61//70 119//143
f 65//74 61//70 62//71
f 65//74 9//9 61//70
f 67//79 9//9 65//74
f 67//79 8//8 9//9
f 18//80 8//8 67//79
f 18//80 21//63 8//8
f 31//31 97//113 100//116
f 31//31 23//23 97//113
f 30//30 23//23 31//31
f 30//30 25//25 23//23
f 29//29 25//25 30//30
f 29//29 27//27 25//25
f 26//26 27//27 29//29
f 76//92 75//91 116//136
f 76//92 73//89 75//91
f 83//99 73//89 76//92
f 83//99 82//98 73//89
f 101//117 82//98 83//99
f 101//117 98//114 82//98
f 86//102 116//136 90//137
f 86//102 76//92 116//136
f 84//100 76//92 86//102
f 84//100 83//99 76//92
f 108//124 83//99 84//100
f 108//124 101//117 83//99
f 105//121 85//101 87//103
f 105//121 106//122 85//101
f 41//41 106//122 105//121
f 41//41 50//50 106//122
f 42//42 50//50 41//41
f 42//42 49//49 50//50
f 106//122 109//125 85//101
f 106//122 110//126 109//125
f 50//50 110//126 106//122
f 50//50 46//46 110//126
f 49//49 46//46 50//50
f 49//49 45//45 46//46
f 35//35 31//31 100//116
f 35//35 34//34 31//31
f 38//38 34//34 35//35
f 38//38 33//33 34//34
f 37//37 33//33 38//38
f 37//37 36//36 33//33
f 67//79 20//58 18//80
f 67//79 55//60 20//58
f 65//74 55//60 67//79
f 65//74 63//72 55//60
f 62//71 63//72 65//74
f 53//53 22//54 52//85
f 53//53 24//55 22//54
f 70//86 24//55 53//53
f 70//86 91//129 24//55
f 112//151 91//129 70//86
f 19//19 12//68 11//56
f 19//19 51//66 12//68
f 53//53 51//66 19//19
f 53//53 28//67 51//66
f 52//85 28//67 53//53
f 110//126 102//118 109//125
f 110//126 107//123 102//118
f 46//46 107//123 110//126
f 46//46 44//44 107//123
f 45//45 44//44 46//46
f 117//149 118//142 113//132
f 117//149 64//73 118//142
f 58//82 64//73 117//149
f 58//82 59//81 64//73
f 64//73 62//71 118//142
f 64//73 63//72 62//71
f 59//81 63//72 64//73
f 59//81 54//59 63//72
f 60//69 61//70 9//9
f 60//69 79//95 61//70
f 78//94 79//95 60//69
f 78//94 77//93 79//95
f 10//10 8//8 21//63
f 10//10 7//7 8//8
f 69//84 7//7 10//10
f 69//84 68//83 7//7
f 7//7 9//9 8//8
f 7//7 60//69 9//9
f 68//83 60//69 7//7
f 68//83 78//94 60//69
f 79//95 119//143 61//70
f 79//95 120//147 119//143
f 77//93 120//147 79//95
f 77//93 88//148 120//147
f 73//89 71//87 75//91
f 73//89 72//88 71//87
f 82//98 72//88 73//89
f 82//98 81//97 72//88
f 120//147 114//134 119//143
f 120//147 89//133 114//134
f 88//148 89//133 120//147
f 54//59 55//60 63//72
f 54//59 20//58 55//60
f 56//61 20//58 54//59
f 19//19 115//144 89//105
f 19//19 113//64 115//144
f 117//19 113//144 19//105
f 19//19 58//64 117//64
f 19//64 59//64 58//64
f 54//64 59//19 19//64
f 19//19 56//75 54//64
f 19//19 20//20 56//75
f 18//18 20//20 19//19
f 19//19 21//21 18//18
f 19//19 57//78 21//21
f 5//77 57//78 19//19
f 19//19 2//65 5//77
f 19//19 4//57 2//65
f 11//56 4//57 19//19
f 70//86 95//140 112//151
f 70//86 111//139 95//140
f 19//19 111//139 70//86
f 19//19 90//106 116//146
f 19//19 88//104 90//106
f 89//105 88//104 19//19
f 103//119 107//123 44//44
f 103//119 102//118 107//123
f 99//115 102//118 103//119
f 23//23 92//108 97//113
f 23//23 91//107 92//108
f 24//24 91//107 23//23
f 32//32 33//33 36//36
f 32//32 29//29 33//33
f 26//26 29//29 32//32
f 22//22 25//25 27//27
f 22//22 23//23 25//25
f 24//24 23//23 22//22
f 47//47 37//37 48//48
f 47//47 36//36 37//37
f 82//141 19//19 81//130
f 82//141 111//139 19//19
f 98//114 111//127 82//98
f 98//114 94//110 111//127
f 74//131 19//19 71//138
f 74//131 81//130 19//19
f 75//145 19//19 116//146
f 75//145 71//138 19//19
f 74//90 72//88 81//97
f 74//90 71//87 72//88
f 34//34 30//30 31//31
f 34//34 33//33 30//30
f 53//53 19//19 70//86
f 111//127 94//110 95//111
f 33//33 29//29 30//30
# 238 faces

