# RFL_Res.dat Editor OBJ Exporter v1.3 - (c) 2018 Atlas Vryzas Software

#
# object hair
#

v  5.388235 66.2 -31.72157
v  11.98824 65.43922 -31.74902
v  8.988235 72 -25
v  0 59 -41
v  8 58 -39
v  0 68 -36
v  8 49 -42
v  0 48 -44
v  8.929412 63.99608 -18.8
v  0 74.42745 -26.14118
v  14.1098 57 -35
v  17.18431 54 -30
v  16.47843 57.3647 -20.79608
v  0 65.56863 -18.54902
v  29 41 -1
v  30 40 12
v  25.44314 52.96078 -2.866667
v  27 50 17
v  18.76471 61.06274 4.870588
v  10.60392 67 6
v  10.60392 67.4902 -6
v  0 69.24313 -6.309804
v  0 69 6
v  9.415687 65.48235 15.9451
v  19 60 18
v  0 67 14
v  28.53333 27 3
v  29.05882 28.74118 12.25882
v  8.243137 63.40392 22.95686
v  13.07843 58.68235 27.58824
v  8.556863 46.13726 31.1098
v  4.145098 53.00392 28.87059
v  17.86667 52.79216 29.60784
v  24.7098 30.64314 19.79216
v  0 55.67843 -7
v  25.52941 39.72157 25.15294
v  19.49412 34.31372 26.08628
v  0 63.38824 20
v  22.14118 46.26274 28.74118
v  27.82745 33.74118 19.39608
v  0 9.631372 -19.10196
v  11.3098 22.57647 -29.83922
v  0 22.01569 -31.37255
v  10.67059 10.89412 -18.37647
v  19.78823 24.19608 -25.38039
v  11.3098 35.46275 -33.51765
v  0 33.43922 -35.24314
v  19.78823 43.70588 -26.39216
v  18.76471 58.18431 -15.83922
v  18.67059 15.55686 -13.8902
v  25 28 -19.26274
v  25.44314 44.26274 -12.90196
v  19.12549 50 -23
v  26.42353 7.376471 -7.137255
v  20.88627 8.141176 -4.741177
v  23.27059 1.419608 -9.352942
v  28.46667 7.290196 -1.858824
v  23.49804 1.360784 -2.035294
v  24.68235 7.717647 3.376471
v  28.04314 25 -7
v  28.80784 14.98824 -1.92549
v  28.71765 21.4902 4.337255
v  23.31765 -18 -3.298039
v  19.80784 -10.17647 -7.380392
v  17.64314 -9.643137 -2.560784
v  21.53725 -10.71373 -2.745098
v  25.09804 14.90588 -10.46274
v  26.04314 -4.952941 -4.643137
v  18.00392 1.384314 -2.003922
v  20.55686 -4.611765 -4.384314
v  24.05098 -4.768628 0.572549
v  15.1098 41.69804 -34
v  8 40 -40
v  0 39 -42
v  0 29.40784 -4.984313
v  1.176471 59.41177 23.75686
v  13.89804 39.64706 30.1098
v  15 51 -37
v  -11.98431 65.43922 -31.74902
v  -5.384314 66.2 -31.72157
v  -8.984314 72 -25
v  -8 58 -39
v  -8 49 -42
v  -8.92549 63.99608 -18.8
v  -18.76078 58.18431 -15.83922
v  -19.12157 50 -23
v  -16.47451 57.3647 -20.79608
v  -25.43922 44.26274 -12.90196
v  -17.18039 54 -30
v  -14.10588 57 -35
v  -30 40 12
v  -29 41 -1
v  -25.43922 52.96078 -2.866667
v  -27 50 17
v  -18.76078 61.06274 4.870588
v  -10.6 67.4902 -6
v  -10.6 67 6
v  -9.411765 65.48235 15.9451
v  -19 60 18
v  -28.52941 27 3
v  -29.0549 28.74118 12.25882
v  -8.239216 63.40392 22.95686
v  -13.07451 58.68235 27.58824
v  -17.86275 52.79216 29.60784
v  -4.141176 53.00392 28.87059
v  -8.552941 46.13726 31.1098
v  -24.70588 30.64314 19.79216
v  -25.52549 39.72157 25.15294
v  -19.4902 34.31372 26.08628
v  -22.13725 46.26274 28.74118
v  -27.82353 33.74118 19.39608
v  -11.30588 22.57647 -29.83922
v  -10.66667 10.89412 -18.37647
v  -19.78431 24.19608 -25.38039
v  -11.30588 35.46275 -33.51765
v  -19.78431 43.70588 -26.39216
v  -25 28 -19.26274
v  -18.66667 15.55686 -13.8902
v  -20.88235 8.141176 -4.741177
v  -26.41961 7.376471 -7.137255
v  -23.26667 1.419608 -9.352942
v  -23.49412 1.360784 -2.035294
v  -28.46275 7.290196 -1.858824
v  -24.67843 7.717647 3.376471
v  -28.80392 14.98824 -1.92549
v  -28.03922 25 -7
v  -28.71373 21.4902 4.337255
v  -19.80392 -10.17647 -7.380392
v  -23.31372 -18 -3.298039
v  -17.63922 -9.643137 -2.560784
v  -21.53333 -10.71373 -2.745098
v  -25.09412 14.90588 -10.46274
v  -26.03922 -4.952941 -4.643137
v  -18 1.384314 -2.003922
v  -20.55294 -4.611765 -4.384314
v  -24.04706 -4.768628 0.572549
v  -15.10588 41.69804 -34
v  -8 40 -40
v  -1.172549 59.41177 23.75686
v  -13.89412 39.64706 30.1098
v  -15 51 -37
# 141 vertices

vn 0.3495098 0.7092525 -0.6121936
vn 0.6482843 0.5789216 -0.4945466
vn 0.5779412 0.6983456 -0.4222426
vn 0 0.3564338 -0.9343137
vn 0.4174632 0.4598039 -0.7837623
vn 0 0.7069853 -0.7071691
vn 0.439951 0.03958333 -0.8971201
vn 0 -0.05686275 -0.9983456
vn -0.2693015 0.5909926 0.760478
vn 0.2316789 0.7606618 0.6065564
vn -0.1546569 0.9660539 0.2072917
vn 0 0.889951 0.45625
vn 0 0.8377451 -0.5461397
vn 0.7406863 0.3528799 -0.5716912
vn 0.9316176 0.282353 -0.2291054
vn 0.9141544 0.4013481 -0.05729167
vn 0 0.6509191 0.7592524
vn 0.5971814 0.4882966 0.6363971
vn 0.9863358 0.09540441 -0.1344976
vn 0.9922181 0.07855392 0.0971201
vn 0.8976103 0.4256127 -0.1148897
vn 0.8697917 0.4271446 0.2473039
vn 0.7001225 0.7140931 -0.00680147
vn 0.3705882 0.9248162 0.08602941
vn 0.4038603 0.9020833 -0.152451
vn 0 0.9971201 -0.07677696
vn 0 0.9893382 0.1459559
vn 0.2548407 0.9349265 0.2471201
vn 0.5914215 0.7589461 0.2726103
vn 0 0.9351103 0.3545956
vn 0.9977328 -0.04123775 -0.05367647
vn 0.9321691 -0.2632966 0.2485907
vn 0.04859069 0.8348039 0.5484068
vn 0.1205882 0.6372549 0.7612745
vn 0.1005515 0.08602941 0.9912378
vn -0.1085784 0.376103 0.9202819
vn 0.4166667 0.4181373 0.8072917
vn -0.632598 -0.7634804 -0.1299632
vn -0.6811887 -0.7320465 0.004105392
vn 0 -0.9749388 0.2222427
vn 0.7471201 -0.118076 0.6542279
vn -0.6788603 -0.7306985 -0.07175245
vn 0 0.7610294 0.6488358
vn 0.5329044 0.07751226 0.8427083
vn 0.5926471 -0.5181985 0.6167279
vn 0.7806373 -0.3281863 0.5319853
vn -0.5061888 -0.1519608 0.8489583
vn 0 -0.703799 -0.7102941
vn 0.2802696 -0.5316789 -0.7991422
vn 0 -0.4449142 -0.8955269
vn 0.4128064 -0.6821691 -0.6034926
vn 0.6688725 -0.3793505 -0.6393383
vn 0.3855392 -0.2232843 -0.8952206
vn 0 -0.3208333 -0.9471201
vn 0 0.9583946 -0.2854167
vn 0.4300245 0.8436887 -0.3215074
vn 0.8286152 0.09044117 -0.5523897
vn 0.7483456 0.5974265 -0.2884191
vn 0.5288603 -0.6311275 -0.5674019
vn 0.8573529 -0.1952819 -0.4762868
vn 0.9267157 0.2137868 -0.3091299
vn 0.8505515 0.3536765 -0.389277
vn 0.6897059 0.5929534 -0.4156863
vn -0.8915441 -0.4474265 0.06973039
vn -0.8120098 -0.5824755 0.03645833
vn -0.3946691 0.02175245 -0.9185662
vn -0.8142157 0.05159314 -0.578125
vn -0.5811275 -0.04405637 -0.8125613
vn 0.921201 -0.3662378 0.1316177
vn 0.9639706 -0.2382966 0.1183211
vn 0.7591912 -0.3072917 0.5738358
vn 0.9120098 -0.2954657 -0.2844976
vn 0.9816789 -0.02493872 -0.1892157
vn 0.9906863 -0.03584559 -0.1317402
vn 0.9982231 0.0372549 -0.04761029
vn 0.2716912 -0.6379289 0.7205882
vn -0.7138481 0.1273284 -0.6885417
vn -0.8189951 -0.04963235 0.5716299
vn 0.7409314 -0.4557598 0.4931985
vn 0.9042279 -0.2245098 -0.3633578
vn -0.7811887 -0.125674 0.6115196
vn -0.7574142 0.09295343 0.6462622
vn -0.7049019 0.2484069 0.6643995
vn 0.3514093 -0.5542892 -0.7544118
vn 0.9987133 -0.04166667 -0.03082108
vn 0.9824755 -0.1633578 0.0903799
vn -0.9082721 -0.07867647 0.4107843
vn -0.8791667 0.04240196 -0.4745098
vn -0.4645833 -0.000490196 0.8856005
vn -0.05147059 -0.08278187 -0.9952206
vn 0.00502451 -0.1509191 0.9885417
vn 0.9153186 -0.07242647 -0.3962623
vn 0.9211397 -0.1554534 0.3570466
vn 0.9313725 -0.09197304 -0.3522671
vn 0.7306985 -0.3071691 -0.6096201
vn 0.5783088 -0.5884191 -0.5650735
vn 0.4072304 -0.4443015 -0.7979167
vn 0 -0.5234069 -0.8520221
vn 0 -0.7653186 -0.6435662
vn 0 -0.2091299 0.9779412
vn -0.4963235 -0.4288603 0.7547794
vn 0.4885417 -0.4025123 0.7742034
vn 0 -0.9615196 0.2746324
vn -0.9521446 -0.2969363 0.07254902
vn 0.3136642 -0.191973 0.9299632
vn -0.7390319 -0.6734068 -0.01415441
vn 0.7696078 0.1064951 -0.6295956
vn -0.2391544 0.572978 0.7838848
vn 0.9560049 0.2721201 -0.1096814
vn -0.648223 0.5789216 -0.4945466
vn -0.3494485 0.7092525 -0.6121936
vn -0.5778799 0.6983456 -0.4222426
vn -0.417402 0.4598039 -0.7837623
vn -0.4398897 0.03958333 -0.8971201
vn -0.2316176 0.7606618 0.6065564
vn 0.1547181 0.9660539 0.2072917
vn -0.7482843 0.5974265 -0.2884191
vn -0.8504902 0.3536765 -0.389277
vn -0.6896446 0.5929534 -0.4156863
vn -0.9266544 0.2137868 -0.3091299
vn -0.9140931 0.4013481 -0.05729167
vn -0.9315563 0.282353 -0.2291054
vn -0.740625 0.3528799 -0.5716912
vn 0.2693627 0.5909926 0.760478
vn -0.5971201 0.4882966 0.6363971
vn -0.9921569 0.07855392 0.0971201
vn -0.9862745 0.09540441 -0.1344976
vn -0.897549 0.4256127 -0.1148897
vn -0.8697304 0.4271446 0.2473039
vn -0.7000613 0.7140931 -0.00680147
vn -0.403799 0.9020833 -0.152451
vn -0.370527 0.9248162 0.08602941
vn -0.2547794 0.9349265 0.2471201
vn -0.5913603 0.7589461 0.2726103
vn -0.9976715 -0.04123775 -0.05367647
vn -0.9321079 -0.2632966 0.2485907
vn -0.04852941 0.8348039 0.5484068
vn -0.120527 0.6372549 0.7612745
vn -0.4166054 0.4181373 0.8072917
vn 0.1086397 0.376103 0.9202819
vn -0.1004902 0.08602941 0.9912378
vn 0.68125 -0.7320465 0.004105392
vn 0.6326593 -0.7634804 -0.1299632
vn -0.7470588 -0.118076 0.6542279
vn 0.6789216 -0.7306985 -0.07175245
vn -0.5328431 0.07751226 0.8427083
vn -0.780576 -0.3281863 0.5319853
vn -0.5925858 -0.5181985 0.6167279
vn 0.50625 -0.1519608 0.8489583
vn -0.2802083 -0.5316789 -0.7991422
vn -0.4127451 -0.6821691 -0.6034926
vn -0.6688113 -0.3793505 -0.6393383
vn -0.3854779 -0.2232843 -0.8952206
vn -0.4299632 0.8436887 -0.3215074
vn -0.8285539 0.09044117 -0.5523897
vn -0.8572916 -0.1952819 -0.4762868
vn -0.528799 -0.6311275 -0.5674019
vn 0.8120711 -0.5824755 0.03645833
vn 0.8916054 -0.4474265 0.06973039
vn 0.8142769 0.05159314 -0.578125
vn 0.3947304 0.02175245 -0.9185662
vn 0.5811887 -0.04405637 -0.8125613
vn -0.9639093 -0.2382966 0.1183211
vn -0.9211397 -0.3662378 0.1316177
vn -0.7591299 -0.3072917 0.5738358
vn -0.9119485 -0.2954657 -0.2844976
vn -0.990625 -0.03584559 -0.1317402
vn -0.9816176 -0.02493872 -0.1892157
vn -0.9981618 0.0372549 -0.04761029
vn 0.7139093 0.1273284 -0.6885417
vn -0.2716299 -0.6379289 0.7205882
vn 0.8190564 -0.04963235 0.5716299
vn -0.7408701 -0.4557598 0.4931985
vn -0.9041666 -0.2245098 -0.3633578
vn 0.7574755 0.09295343 0.6462622
vn 0.78125 -0.125674 0.6115196
vn 0.7049632 0.2484069 0.6643995
vn -0.351348 -0.5542892 -0.7544118
vn -0.998652 -0.04166667 -0.03082108
vn -0.9824142 -0.1633578 0.0903799
vn 0.9083334 -0.07867647 0.4107843
vn 0.8792279 0.04240196 -0.4745098
vn 0.4646446 -0.000490196 0.8856005
vn 0.05153186 -0.08278187 -0.9952206
vn -0.004963235 -0.1509191 0.9885417
vn -0.9152573 -0.07242647 -0.3962623
vn -0.9210784 -0.1554534 0.3570466
vn -0.7306373 -0.3071691 -0.6096201
vn -0.9313112 -0.09197304 -0.3522671
vn -0.5782475 -0.5884191 -0.5650735
vn -0.4071691 -0.4443015 -0.7979167
vn 0.4963848 -0.4288603 0.7547794
vn -0.4884804 -0.4025123 0.7742034
vn 0.9522059 -0.2969363 0.07254902
vn -0.313603 -0.191973 0.9299632
vn 0.7390931 -0.6734068 -0.01415441
vn -0.7695466 0.1064951 -0.6295956
vn 0.2392157 0.572978 0.7838848
vn -0.9559436 0.2721201 -0.1096814
# 199 vertex normals

# 0 texture coords

g hair
f 85//117 87//119 86//118
f 85//117 84//154 87//119
f 96//131 84//154 85//117
f 96//131 14//55 84//154
f 22//26 14//55 96//131
f 22//26 21//25 14//55
f 20//24 21//25 22//26
f 20//24 19//23 21//25
f 25//29 19//23 20//24
f 25//29 18//22 19//23
f 33//37 18//22 25//29
f 33//37 39//44 18//22
f 31//35 39//44 33//37
f 31//35 77//105 39//44
f 116//155 117//156 88//120
f 116//155 114//152 117//156
f 115//153 114//152 116//155
f 115//153 112//150 114//152
f 43//50 112//150 115//153
f 43//50 41//48 112//150
f 42//49 41//48 43//50
f 42//49 44//51 41//48
f 45//52 44//51 42//49
f 45//52 50//59 44//51
f 51//60 50//59 45//52
f 51//60 67//84 50//59
f 60//73 67//84 51//60
f 95//130 96//131 85//117
f 95//130 97//132 96//131
f 99//134 97//132 95//130
f 99//134 98//133 97//132
f 102//137 98//133 99//134
f 102//137 26//30 98//133
f 38//43 26//30 102//137
f 38//43 29//33 26//30
f 76//108 29//33 38//43
f 76//108 30//34 29//33
f 32//36 30//34 76//108
f 32//36 33//37 30//34
f 31//35 33//37 32//36
f 2//2 3//3 13//16
f 2//2 1//1 3//3
f 5//5 1//1 2//2
f 5//5 6//6 1//1
f 4//4 6//6 5//5
f 4//4 82//113 6//6
f 83//114 82//113 4//4
f 83//114 141//197 82//113
f 137//188 141//197 83//114
f 137//188 116//189 141//197
f 115//190 116//189 137//188
f 48//94 12//15 53//109
f 48//94 78//107 12//15
f 72//95 78//107 48//94
f 72//95 7//7 78//107
f 73//97 7//7 72//95
f 73//97 8//8 7//7
f 74//98 8//8 73//97
f 74//98 138//191 8//8
f 47//99 138//191 74//98
f 47//99 115//190 138//191
f 88//120 86//118 116//155
f 88//120 85//117 86//118
f 93//128 85//117 88//120
f 93//128 95//130 85//117
f 94//129 95//130 93//128
f 94//129 99//134 95//130
f 104//139 99//134 94//129
f 104//139 103//138 99//134
f 105//140 103//138 104//139
f 105//140 139//198 103//138
f 21//25 9//56 14//55
f 21//25 49//58 9//56
f 19//23 49//58 21//25
f 19//23 17//21 49//58
f 18//22 17//21 19//23
f 18//22 16//20 17//21
f 36//41 16//20 18//22
f 36//41 40//46 16//20
f 37//102 40//46 36//41
f 37//102 34//45 40//46
f 119//160 120//161 132//178
f 119//160 121//162 120//161
f 134//181 121//162 119//160
f 134//181 135//182 121//162
f 136//183 135//182 134//181
f 136//183 130//172 135//182
f 131//173 130//172 136//183
f 131//173 129//171 130//172
f 128//174 129//171 131//173
f 104//139 106//141 105//140
f 104//139 110//146 106//141
f 94//129 110//146 104//139
f 94//129 108//144 110//146
f 91//126 108//144 94//129
f 91//126 111//147 108//144
f 101//136 111//147 91//126
f 101//136 107//148 111//147
f 93//128 91//126 94//129
f 93//128 92//127 91//126
f 88//120 92//127 93//128
f 88//120 126//168 92//127
f 117//156 126//168 88//120
f 117//156 132//178 126//168
f 118//157 132//178 117//156
f 118//157 119//160 132//178
f 56//68 55//67 54//66
f 56//68 69//87 55//67
f 70//88 69//87 56//68
f 70//88 71//89 69//87
f 65//78 71//89 70//88
f 65//78 66//79 71//89
f 63//76 66//79 65//78
f 63//76 64//80 66//79
f 89//122 116//189 86//199
f 89//122 141//197 116//189
f 90//123 141//197 89//122
f 90//123 82//113 141//197
f 79//110 82//113 90//123
f 79//110 80//111 82//113
f 81//112 80//111 79//110
f 118//176 125//175 124//177
f 118//176 127//192 125//175
f 75//100 127//192 118//176
f 75//100 100//149 127//192
f 35//40 100//149 75//100
f 35//40 101//142 100//149
f 107//143 101//142 35//40
f 12//15 13//16 53//109
f 12//15 2//2 13//16
f 11//14 2//2 12//15
f 11//14 5//5 2//2
f 78//107 5//5 11//14
f 78//107 7//7 5//5
f 49//58 13//63 9//56
f 49//58 53//62 13//63
f 52//61 53//62 49//58
f 52//61 48//57 53//62
f 51//60 48//57 52//61
f 51//60 45//52 48//57
f 25//29 30//34 33//37
f 25//29 29//33 30//34
f 24//28 29//33 25//29
f 24//28 26//30 29//33
f 23//27 26//30 24//28
f 61//74 67//92 60//73
f 61//74 54//72 67//92
f 57//69 54//72 61//74
f 57//69 58//70 54//72
f 59//71 58//70 57//69
f 28//32 40//46 34//45
f 28//32 16//20 40//46
f 27//31 16//20 28//32
f 27//31 15//19 16//20
f 60//73 15//19 27//31
f 134//181 122//185 136//183
f 134//181 124//177 122//185
f 119//160 124//177 134//181
f 119//160 118//176 124//177
f 59//83 55//67 69//87
f 59//83 50//81 55//67
f 61//82 50//81 59//83
f 61//82 62//101 50//81
f 114//152 118//157 117//156
f 114//152 113//151 118//157
f 112//150 113//151 114//152
f 112//150 41//48 113//151
f 52//61 60//73 51//60
f 52//61 15//19 60//73
f 17//21 15//19 52//61
f 17//21 16//20 15//19
f 97//132 22//26 96//131
f 97//132 23//27 22//26
f 98//133 23//27 97//132
f 98//133 26//30 23//27
f 135//182 133//184 121//162
f 135//182 128//170 133//184
f 130//172 128//170 135//182
f 130//172 129//171 128//170
f 73//97 47//99 74//98
f 73//97 46//96 47//99
f 72//95 46//96 73//97
f 72//95 48//94 46//96
f 84//115 81//124 87//125
f 84//115 80//116 81//124
f 10//12 80//116 84//115
f 35//40 77//106 31//65
f 35//40 37//42 77//106
f 34//38 37//42 35//40
f 122//163 133//180 136//187
f 122//163 121//179 133//180
f 120//166 121//179 122//163
f 35//40 76//104 38//103
f 35//40 32//64 76//104
f 31//65 32//64 35//40
f 102//137 139//198 38//43
f 102//137 103//138 139//198
f 99//134 103//138 102//137
f 20//24 24//28 25//29
f 20//24 23//27 24//28
f 22//26 23//27 20//24
f 126//168 100//135 92//127
f 126//168 127//169 100//135
f 125//167 127//169 126//168
f 87//121 89//122 86//199
f 87//121 79//110 89//122
f 81//112 79//110 87//121
f 35//40 105//159 106//158
f 35//40 139//194 105//159
f 38//103 139//194 35//40
f 68//86 66//79 64//80
f 68//86 71//93 66//79
f 58//70 71//93 68//86
f 35//40 109//145 107//143
f 35//40 140//196 109//145
f 106//158 140//196 35//40
f 123//164 125//167 120//166
f 123//164 124//165 125//167
f 122//163 124//165 123//164
f 27//47 35//40 75//100
f 27//47 28//39 35//40
f 56//85 58//70 68//86
f 56//85 54//72 58//70
f 67//84 55//67 50//59
f 67//84 54//66 55//67
f 39//44 36//41 18//22
f 39//44 77//105 36//41
f 64//77 65//78 70//88
f 64//77 63//76 65//78
f 45//52 46//53 48//57
f 45//52 42//49 46//53
f 14//17 10//12 84//115
f 14//17 9//10 10//12
f 62//75 60//73 27//31
f 62//75 61//74 60//73
f 3//9 9//10 13//18
f 3//9 1//11 9//10
f 132//186 125//167 126//168
f 132//186 120//166 125//167
f 110//146 140//195 106//141
f 110//146 108//144 140//195
f 108//144 109//193 140//195
f 108//144 111//147 109//193
f 131//173 133//180 128//174
f 131//173 136//187 133//180
f 91//126 100//135 101//136
f 91//126 92//127 100//135
f 47//54 43//50 115//153
f 47//54 46//53 43//50
f 58//91 69//87 71//89
f 58//91 59//83 69//87
f 68//90 70//88 56//68
f 68//90 64//77 70//88
f 137//188 138//191 115//190
f 137//188 83//114 138//191
f 83//114 8//8 138//191
f 83//114 4//4 8//8
f 80//111 6//6 82//113
f 80//111 10//13 6//6
f 4//4 7//7 8//8
f 4//4 5//5 7//7
f 62//101 75//100 50//81
f 62//101 27//47 75//100
f 1//11 10//12 9//10
f 107//148 109//193 111//147
f 36//41 77//105 37//102
f 49//58 17//21 52//61
f 42//49 43//50 46//53
f 57//69 61//74 59//71
f 35//40 28//39 34//38
f 89//122 79//110 90//123
f 78//107 11//14 12//15
f 1//1 6//6 10//13
f 122//163 123//164 120//166
# 274 faces

