# RFL_Res.dat Editor OBJ Exporter v1.3 - (c) 2018 Atlas Vryzas Software

#
# object hair
#

v  -10.66667 23.19216 -28.14902
v  0 9.631372 -19.10196
v  0 22.66667 -29.6
v  -10.66667 10.89412 -18.37647
v  -18.66667 24.72157 -23.9451
v  -18.66667 15.55686 -13.8902
v  -10.66667 33.43922 -31.61961
v  0 33.43922 -33.24706
v  -10 44.82353 -31.27843
v  0 45.40784 -32.8902
v  -9.388235 65.28628 -7.109804
v  0 63.74902 -17.49804
v  0 66.93333 -7.462745
v  -10 62.26274 -16.64314
v  -10.98039 69.32157 26.52549
v  -10 68.94118 14.43137
v  -4.729412 69.57255 14.68235
v  -20.43922 65.57647 25.21961
v  -17.45882 65.2196 14.05882
v  -14.03529 66.9451 14.3098
v  -10.17255 67.1098 2.588235
v  -0.01960784 68.33334 2.52549
v  -18.81569 43.12157 -24.90196
v  -17.69804 56.78431 -14.94118
v  -10 54.83529 -25.49804
v  -24.64706 33.43922 -15.0902
v  -24 21.9098 -9.019608
v  -24.97255 43.65098 -12.16863
v  -23.8 54.46275 -4.294117
v  -26.29804 33.43922 0
v  0 55.93726 -26.81176
v  -26.80392 44 -2
v  -17.69412 61.6902 -6.396079
v  -17.53333 64.19215 2.870588
v  -24.8902 59.7451 14.14118
v  -23.17255 59.18431 3.972549
v  -26.94902 51.21177 6
v  10.67059 23.19216 -28.14902
v  10.67059 10.89412 -18.37647
v  18.67059 24.72157 -23.9451
v  18.67059 15.55686 -13.8902
v  10.67059 33.43922 -31.61961
v  10 44.82353 -31.27843
v  9.392157 65.28628 -7.109804
v  10 62.26274 -16.64314
v  17.46275 65.2196 14.05882
v  20.26274 65.38432 25.32157
v  14.03922 66.9451 14.3098
v  10.18039 67.1098 2.580392
v  18.67059 43.12157 -24.90196
v  17.70196 56.78431 -14.94118
v  10 54.83529 -25.49804
v  17.54118 64.19215 2.87451
v  17.69804 61.6902 -6.396079
v  24 21.9098 -9.019608
v  24.65098 33.43922 -15.0902
v  24.97647 43.65098 -12.16863
v  23.80392 54.46275 -4.294117
v  26.30196 33.43922 0
v  26.80784 44 -2
v  -10 62.23137 18.44706
v  3.407843 68.38039 14.64314
v  0 66.41569 22.34118
v  -18.77647 59.84314 17.65098
v  -27.23137 59.85098 23.42745
v  10 62.23137 18.44314
v  10 64.59216 14.43137
v  18.78431 59.84314 17.65098
v  27.23922 59.8549 23.43137
v  26.95294 51.21177 6
v  23.18039 59.18039 3.972549
v  0 62.88235 18.74902
v  0.0627451 48 0
v  -26.0549 54 18
v  26.05882 54 18
v  24.57255 38 12
v  25.07059 48 14
v  26.39608 40.62353 6
v  -24.66274 29.49412 10.88235
v  24.67843 29.49412 10.88235
v  -24.56863 38 12
v  -26.25098 40.62353 6
v  -25.06667 48 14
v  24.94902 59.7451 14.14118
# 84 vertices

vn -0.2803309 -0.491299 -0.8246323
vn 0 -0.6246936 -0.7808824
vn 0 -0.4288603 -0.9033701
vn -0.4197304 -0.5973652 -0.6833333
vn -0.724326 -0.3209559 -0.6101103
vn -0.7382966 -0.4985294 -0.4541667
vn -0.3804534 -0.1501226 -0.9125
vn 0 -0.08523284 -0.9963235
vn -0.3485294 0.2158701 -0.912071
vn 0 0.3528186 -0.9357231
vn -0.2838235 0.9266544 -0.2464461
vn 0 0.9075367 -0.4199142
vn -0.02432598 0.9759804 -0.2166667
vn -0.3549632 0.8060662 -0.4735294
vn -0.2091299 0.9699142 0.1245098
vn -0.34375 0.9384191 0.03431373
vn 0.01035539 0.9985907 -0.05355392
vn -0.4838235 0.8733456 0.05716912
vn -0.5474265 0.8367647 0.01158088
vn -0.4244485 0.8972427 -0.1215686
vn -0.2452206 0.9571078 -0.1543505
vn 0.03517157 0.9902574 -0.1349265
vn -0.7545956 0.1971814 -0.6257966
vn -0.7217525 0.5280024 -0.4474877
vn -0.4028186 0.5646446 -0.7202818
vn -0.9458946 -0.06023284 -0.31875
vn -0.9215686 -0.2602328 -0.2881128
vn -0.9404412 0.1716912 -0.2933211
vn -0.878799 0.3995711 -0.2606618
vn -0.996875 -0.06452206 -0.04479166
vn 0 0.6867034 -0.7269608
vn -0.9935662 0.05625 -0.09773284
vn -0.6152574 0.7357843 -0.2828431
vn -0.5098652 0.8473039 -0.1484681
vn -0.8389093 0.5263481 -0.1384804
vn -0.8005515 0.5682598 -0.1900123
vn -0.9919118 0.1248162 -0.02254902
vn 0.2803922 -0.491299 -0.8246323
vn 0.4197917 -0.5973652 -0.6833333
vn 0.7246937 -0.3192402 -0.6106005
vn 0.7383578 -0.4985294 -0.4541667
vn 0.3825368 -0.1492034 -0.9117647
vn 0.3517157 0.215625 -0.9109069
vn 0.2606618 0.9375 -0.2308823
vn 0.3550245 0.8060662 -0.4735294
vn 0.515625 0.8568627 -0.006740196
vn 0.1664216 0.9710785 0.1715074
vn -0.02120098 0.996201 0.08511029
vn 0.2066789 0.9775122 -0.04276961
vn 0.754473 0.1971814 -0.6259804
vn 0.7219976 0.5264093 -0.4490809
vn 0.4047794 0.5634804 -0.7201593
vn 0.5204657 0.8394608 -0.1563113
vn 0.6153799 0.735723 -0.2829044
vn 0.9216299 -0.2602328 -0.2881128
vn 0.945098 -0.05839461 -0.3216299
vn 0.9395834 0.1716299 -0.2962623
vn 0.8788603 0.3995711 -0.260723
vn 0.9965073 -0.0680147 -0.04969363
vn 0.9929534 0.05808824 -0.1038603
vn -0.4961397 0.4458946 0.7450368
vn 0.3330882 0.9178922 0.2159314
vn 0.4417279 0.7976716 0.410723
vn -0.55 0.552451 0.626348
vn -0.634375 0.7407476 0.2210784
vn -0.5175858 0.7374387 0.4338848
vn -0.4927696 0.8053921 0.329473
vn 0.5405637 0.5546569 0.6326593
vn 0.6340686 0.7393995 0.2265931
vn 0.9916054 0.1271446 -0.02401961
vn 0.800674 0.567647 -0.1917279
vn 0.08198529 -0.7532476 0.6525735
vn 0.000122549 -0.7492034 0.6623775
vn -0.0007352941 -0.6446691 0.7644608
vn -0.0903799 -0.7586397 0.6451593
vn -0.3059436 -0.6530637 0.6927083
vn 0.3039829 -0.648652 0.6977329
vn 0.4433211 -0.4923407 0.7490809
vn 0.4716912 -0.5467525 0.6917892
vn 0.1541667 -0.7710171 0.6178921
vn 0.05441177 -0.7471201 0.6624388
vn 0.0182598 -0.7248162 0.6886642
vn -0.1598652 -0.7851103 0.5982843
vn -0.4443015 -0.492402 0.7484069
vn -0.4718137 -0.5468137 0.6916667
vn 0.9622549 -0.06176471 0.2653186
vn 0.9716299 -0.1317402 0.1965073
vn 0.9862745 -0.0625 0.1528799
vn 0.4505515 -0.8154412 -0.3633578
vn 0.6553922 -0.6634804 0.3608456
vn -0.4522059 -0.8146446 -0.3629289
vn -0.6571078 -0.6622549 0.3598652
vn -0.479473 -0.1345588 0.8671569
vn 0.4776348 -0.1345588 0.8682598
vn 0.4856618 0.8017769 0.3482843
vn -0.9863971 -0.06286765 0.1514093
vn -0.9727941 -0.1346814 0.1882966
vn -0.9803309 -0.05716912 0.188848
vn 0.9784926 -0.0651348 0.1960784
vn 0.8397059 0.5252451 -0.1382966
vn 0.4875613 0.7525123 0.4427696
vn 0.4638481 -0.3025123 0.8326593
vn -0.4656863 -0.3019608 0.8318627
vn -0.9994485 0.0007965686 -0.03229167
vn 0.9995711 -0.003492647 -0.03008578
vn -0.9675245 -0.05906863 0.2458333
# 106 vertex normals

# 0 texture coords

g hair
f 67//95 63//63 66//101
f 67//95 62//62 63//63
f 49//49 62//62 67//95
f 49//49 17//17 62//62
f 22//22 17//17 49//49
f 22//22 21//21 17//17
f 13//13 21//21 22//22
f 13//13 11//11 21//21
f 12//12 11//11 13//13
f 12//12 14//14 11//11
f 31//31 14//14 12//12
f 31//31 25//25 14//14
f 10//10 25//25 31//31
f 10//10 9//9 25//25
f 8//8 9//9 10//10
f 8//8 7//7 9//9
f 3//3 7//7 8//8
f 3//3 1//1 7//7
f 2//2 1//1 3//3
f 2//2 4//4 1//1
f 47//47 67//67 66//66
f 47//47 48//48 67//67
f 46//46 48//48 47//47
f 46//46 49//49 48//48
f 53//53 49//49 46//46
f 53//53 44//44 49//49
f 54//54 44//44 53//53
f 54//54 45//45 44//44
f 51//51 45//45 54//54
f 51//51 52//52 45//45
f 50//50 52//52 51//51
f 50//50 43//43 52//52
f 42//42 43//43 50//50
f 42//42 8//8 43//43
f 3//3 8//8 42//42
f 23//23 9//9 7//7
f 23//23 25//25 9//9
f 24//24 25//25 23//23
f 24//24 14//14 25//25
f 33//33 14//14 24//24
f 33//33 11//11 14//14
f 34//34 11//11 33//33
f 34//34 21//21 11//11
f 20//20 21//21 34//34
f 20//20 16//16 21//21
f 18//18 16//16 20//20
f 18//18 61//61 16//16
f 37//37 83//97 74//104
f 37//37 82//96 83//97
f 32//32 82//96 37//37
f 32//32 30//30 82//96
f 28//28 30//30 32//32
f 28//28 26//26 30//30
f 23//23 26//26 28//28
f 23//23 5//5 26//26
f 7//7 5//5 23//23
f 7//7 1//1 5//5
f 68//76 75//84 69//85
f 68//76 73//74 75//84
f 66//75 73//74 68//76
f 66//75 72//73 73//74
f 63//82 72//73 66//75
f 63//82 61//72 72//73
f 15//81 61//72 63//82
f 78//88 76//86 80//99
f 78//88 77//87 76//86
f 70//70 77//87 78//88
f 70//70 75//105 77//87
f 84//100 75//105 70//70
f 84//100 69//69 75//105
f 46//46 69//69 84//100
f 45//45 12//12 44//44
f 45//45 31//31 12//12
f 52//52 31//31 45//45
f 52//52 10//10 31//31
f 43//43 10//10 52//52
f 43//43 8//8 10//10
f 29//29 33//33 24//24
f 29//29 36//36 33//33
f 37//37 36//36 29//29
f 37//37 35//35 36//36
f 74//104 35//35 37//37
f 74//104 65//65 35//35
f 59//59 78//88 80//99
f 59//59 60//60 78//88
f 57//57 60//60 59//59
f 57//57 58//58 60//60
f 51//51 58//58 57//57
f 51//51 54//54 58//58
f 84//100 53//53 46//46
f 84//100 71//71 53//53
f 70//70 71//71 84//100
f 70//70 58//58 71//71
f 60//60 58//58 70//70
f 40//40 50//50 56//56
f 40//40 42//42 50//50
f 38//38 42//42 40//40
f 38//38 3//3 42//42
f 2//2 3//3 38//38
f 73//74 74//78 83//102
f 73//74 64//77 74//78
f 61//72 64//77 73//74
f 61//72 18//80 64//77
f 28//28 24//24 23//23
f 28//28 29//29 24//24
f 32//32 29//29 28//28
f 32//32 37//37 29//29
f 57//57 50//50 51//51
f 57//57 56//56 50//50
f 59//59 56//56 57//57
f 59//59 55//55 56//56
f 73//74 79//90 30//89
f 73//74 81//94 79//90
f 83//102 81//94 73//74
f 44//44 22//22 49//49
f 44//44 13//13 22//22
f 12//12 13//13 44//44
f 82//96 81//106 83//97
f 82//96 79//98 81//106
f 30//30 79//98 82//96
f 16//16 17//17 21//21
f 16//16 15//15 17//17
f 61//61 15//15 16//16
f 5//5 6//6 27//27
f 5//5 4//4 6//6
f 1//1 4//4 5//5
f 19//19 35//35 65//65
f 19//19 34//34 35//35
f 20//20 34//34 19//19
f 39//39 40//40 41//41
f 39//39 38//38 40//40
f 2//2 38//38 39//39
f 80//92 73//74 59//91
f 80//92 76//93 73//74
f 77//103 73//74 76//93
f 77//103 75//84 73//74
f 68//68 46//46 47//47
f 68//68 69//69 46//46
f 62//62 15//15 63//63
f 62//62 17//17 15//15
f 36//36 34//34 33//33
f 36//36 35//35 34//34
f 26//26 27//27 30//30
f 26//26 5//5 27//27
f 54//54 71//71 58//58
f 54//54 53//53 71//71
f 64//64 19//19 65//65
f 64//64 18//18 19//19
f 55//55 40//40 56//56
f 55//55 41//41 40//40
f 47//83 66//75 68//76
f 65//79 74//78 64//77
f 73//74 72//73 61//72
f 48//48 49//49 67//67
f 78//88 60//60 70//70
f 20//20 19//19 18//18
# 156 faces

