# RFL_Res.dat Editor OBJ Exporter v1.3 - (c) 2018 Atlas Vryzas Software

#
# object hair
#

v  -25.86275 8.470589 1.486274
v  -26.70196 14 10
v  0 42.00392 -11.35686
v  25.86667 8.470589 1.486274
v  26.70588 14 10
v  0 42.17255 29.23529
v  10.59216 41.67451 27.67843
v  10.60392 61.20784 17.34902
v  18.61961 50.10588 20.74118
v  10.39608 50.54118 25.67843
v  18.76471 56.72941 14.81176
v  0 62.86666 18.22353
v  0 50.6902 27.16471
v  0 33.69412 -37.61568
v  10.83922 45.66275 -33.30196
v  0 46.27451 -34.99608
v  11.36863 33.69412 -35.78823
v  10.60392 67.4902 -6
v  0 65.55294 -18.82353
v  10.83922 63.99608 -17.92157
v  0 69.24313 -6.309804
v  0 68.1451 6.121569
v  10.60392 66.44706 5.823529
v  18.76471 61.06274 4.870588
v  -18.61569 50.10588 20.74118
v  -10.6 61.20784 17.34902
v  -10.39216 50.54118 25.67843
v  -18.76078 56.72941 14.81176
v  -10.83529 45.66275 -33.30196
v  -11.36471 33.69412 -35.78823
v  -10.6 67.4902 -6
v  -10.83529 63.99608 -17.92157
v  -10.6 66.44706 5.823529
v  -18.76078 61.06274 4.870588
v  25.44314 46.99216 9.572549
v  19.02353 40.58823 22.74902
v  -10.58823 41.67451 27.67843
v  -19.01961 40.58823 22.74902
v  -30.41961 33.69412 -0.2196078
v  -25.43922 46.99216 9.572549
v  -24.43529 33.69412 16.68235
v  21.23922 33.69412 -27.6902
v  20.62745 43.87451 -26.6
v  18.76471 58.18431 -15.83922
v  10.60392 56.11765 -27.02353
v  27.54118 33.69412 -17.19608
v  26.24706 44.42745 -13.21961
v  25.44314 52.96078 -2.866667
v  0 57.33725 -28.60784
v  30.42353 33.69412 -0.2196078
v  28.4902 42.92941 -1.427451
v  -20.62353 43.87451 -26.6
v  -21.23529 33.69412 -27.6902
v  -18.76078 58.18431 -15.83922
v  -10.83529 56.18039 -27.22745
v  -26.24314 44.42745 -13.21961
v  -27.53725 33.69412 -17.19608
v  -28.48627 42.92941 -1.427451
v  -25.43922 52.96078 -2.866667
v  24.43922 33.69412 16.68235
v  26.63137 22.50196 14.95294
v  -26.62745 22.50196 14.95294
v  -31.1451 22.50196 -0.2156863
v  -28.2902 22.50196 -17.57647
v  31.14902 22.50196 -0.2156863
v  28.29412 22.50196 -17.57647
v  -21.81961 22.50196 -28.35686
v  21.82353 22.50196 -28.35686
v  -11.67451 22.50196 -36.67451
v  0 22.50196 -38.55294
v  11.67843 22.50196 -36.67451
v  -30.18431 14 -4
v  -27.8902 14 -17.02353
v  30.18824 14 -4
v  27.89412 14 -17.02353
v  -21.04706 12.50196 -27.47451
v  21.05098 12.50196 -27.47451
v  -11.26274 12.50196 -35.49804
v  0 12.50196 -37.31372
v  11.26667 12.50196 -35.49804
v  -10.05882 2.447059 -32.50196
v  -18.89412 3.07451 -24.88235
v  0 2.301961 -34.15686
v  10.06275 2.447059 -32.50196
v  18.89804 3.07451 -24.88235
v  0 19.83922 -21.48627
v  -28.46667 8.819608 -6.752941
v  -24.45098 5.129412 -8.898039
v  -22.59216 3.941176 -16.8902
v  25.86275 8.219608 -16.95686
v  -25.85882 8.219608 -16.95686
v  24.4549 5.129412 -8.898039
v  22.59608 3.941176 -16.8902
v  28.47059 8.819608 -6.752941
# 94 vertices

vn 0.7227941 -0.5135416 0.4625
vn 0.7901961 -0.3980392 0.4660539
vn 0 -0.8515319 0.5242647
vn -0.7227328 -0.5135416 0.4625
vn -0.7901348 -0.3980392 0.4660539
vn 0 -1 0.004105392
vn -0.08051471 -0.9966299 0.01341912
vn 0.3449142 0.7451593 0.5708333
vn 0.6643382 0.376348 0.6458333
vn 0.3291667 0.4075368 0.8518382
vn 0.6818015 0.6091299 0.4053309
vn 0 0.7280024 0.6856618
vn 0 0.3571691 0.9341299
vn 0 0.1660539 -0.9860907
vn 0.3355392 0.3201593 -0.8859681
vn 0.003676471 0.4088848 -0.9125613
vn 0.398652 0.13125 -0.9076593
vn 0.409375 0.9041054 -0.1230392
vn 0 0.9124388 -0.4091912
vn 0.3568015 0.7993873 -0.4834559
vn 0 0.9993873 -0.03627451
vn 0 0.9526348 0.3042892
vn 0.3636029 0.902451 0.23125
vn 0.7254902 0.6791667 0.1118873
vn -0.664277 0.376348 0.6458333
vn -0.344853 0.7451593 0.5708333
vn -0.3291054 0.4075368 0.8518382
vn -0.6817402 0.6091299 0.4053309
vn -0.3357843 0.3115196 -0.8889093
vn -0.3985907 0.13125 -0.9076593
vn -0.4093137 0.9041054 -0.1230392
vn -0.3532476 0.8049632 -0.4767157
vn -0.3635417 0.902451 0.23125
vn -0.7254289 0.6791667 0.1118873
vn 0.9014093 0.2921569 0.3196691
vn 0.7012868 0.1920343 0.6866422
vn 0.2738358 0.2218137 0.9359069
vn 0 0.2363971 0.9716912
vn -0.2737745 0.2218137 0.9359069
vn -0.7012255 0.1920343 0.6866422
vn -0.985723 0.1393995 0.09368873
vn -0.9013481 0.2921569 0.3196691
vn -0.9074142 0.1499387 0.3924632
vn 0.730576 0.09313726 -0.6764706
vn 0.7390319 0.295527 -0.6053922
vn 0.7326593 0.6017157 -0.3181373
vn 0.4011642 0.5694853 -0.7175245
vn 0.9287378 0.1191176 -0.3511642
vn 0.9248162 0.2836397 -0.2534314
vn 0.8945466 0.4461397 -0.02947304
vn 0.007291667 0.6844975 -0.7290441
vn 0.9857843 0.1393995 0.09368873
vn 0.9686275 0.2488358 0.005392157
vn -0.7417279 0.2906863 -0.6043505
vn -0.7305147 0.09313726 -0.6764706
vn -0.735049 0.6015931 -0.3126225
vn -0.4007353 0.569424 -0.7177696
vn -0.9247549 0.2836397 -0.2534314
vn -0.9286765 0.1191176 -0.3511642
vn -0.9685662 0.2488358 0.005392157
vn -0.8944853 0.4461397 -0.02947304
vn 0.9074755 0.1499387 0.3924632
vn 0.9533088 0.01292892 0.301777
vn -0.9532475 0.01292892 0.301777
vn -0.9979166 -0.03596814 0.0536152
vn -0.936152 -0.02322304 -0.3507966
vn 0.9979779 -0.03596814 0.0536152
vn 0.9362133 -0.02322304 -0.3507966
vn -0.7567402 -0.01942402 -0.6533701
vn 0.7568015 -0.01942402 -0.6533701
vn -0.4107843 -0.02071078 -0.911397
vn 0 0.01470588 -0.9998775
vn 0.4108456 -0.02071078 -0.911397
vn -0.9280025 -0.2791054 0.2465686
vn -0.9686887 -0.2457721 0.03492647
vn -0.9241422 -0.2001226 -0.3252451
vn 0.96875 -0.2457721 0.03492647
vn 0.9242035 -0.2001226 -0.3252451
vn -0.7531863 -0.2246936 -0.6181372
vn 0.7532476 -0.2246936 -0.6181372
vn -0.4039828 -0.2142157 -0.8893383
vn 0 -0.18125 -0.9834559
vn 0.4040441 -0.2142157 -0.8893383
vn 0.9280638 -0.2791054 0.2465686
vn -0.4788603 -0.3190564 -0.8178309
vn -0.749326 -0.4241422 -0.5085171
vn 0 -0.2993872 -0.9540441
vn 0.4789216 -0.3190564 -0.8178309
vn 0.7493873 -0.4241422 -0.5085171
vn -0.7982843 -0.5622549 0.2157476
vn 0 -0.7846814 0.619853
vn 0 -0.585723 0.8105392
vn 0.3030637 -0.6288603 0.7160539
vn -0.3030024 -0.6288603 0.7160539
vn 0.7983456 -0.5622549 0.2157476
vn 0.5329044 -0.6977941 0.4786765
vn -0.5328431 -0.6977941 0.4786765
vn -0.8441176 -0.5351103 -0.03192402
vn -0.6585785 -0.7503676 0.05563726
vn -0.7495098 -0.6397672 -0.1700368
vn 0.3758578 -0.9106005 0.171875
vn -0.3757966 -0.9106005 0.171875
vn 0.08057598 -0.9966299 0.01341912
vn 0.7710171 -0.283027 0.570527
vn -0.7709559 -0.283027 0.570527
vn 0.8346201 -0.433701 -0.3395221
vn -0.8345588 -0.433701 -0.3395221
vn -0.5974265 -0.7496936 0.2846814
vn -0.5889706 -0.7499387 0.3011642
vn 0.5890319 -0.7499387 0.3011642
vn 0.5974877 -0.7496936 0.2846814
vn 0.8441789 -0.5351103 -0.03192402
vn 0.6586397 -0.7503676 0.05563726
vn 0.7495711 -0.6397672 -0.1700368
# 114 vertex normals

# 0 texture coords

g hair
f 76//79 81//85 82//86
f 76//79 78//81 81//85
f 67//69 78//81 76//79
f 67//69 69//71 78//81
f 53//55 69//71 67//69
f 53//55 30//30 69//71
f 52//54 30//30 53//55
f 52//54 29//29 30//30
f 55//57 29//29 52//54
f 55//57 16//16 29//29
f 49//51 16//16 55//57
f 49//51 45//47 16//16
f 20//20 45//47 49//51
f 20//20 44//46 45//47
f 18//18 44//46 20//20
f 18//18 24//24 44//46
f 23//23 24//24 18//18
f 23//23 11//11 24//24
f 8//8 11//11 23//23
f 8//8 9//9 11//11
f 10//10 9//9 8//8
f 10//10 36//36 9//9
f 7//37 36//36 10//10
f 57//59 53//55 67//69
f 57//59 52//54 53//55
f 56//58 52//54 57//59
f 56//58 54//56 52//54
f 59//61 54//56 56//58
f 59//61 34//34 54//56
f 40//42 34//34 59//61
f 40//42 28//28 34//34
f 25//25 28//28 40//42
f 25//25 26//26 28//28
f 27//27 26//26 25//25
f 27//27 12//12 26//26
f 13//13 12//12 27//27
f 13//13 10//10 12//12
f 7//37 10//10 13//13
f 90//106 93//114 85//89
f 90//106 94//112 93//114
f 75//78 94//112 90//106
f 75//78 74//77 94//112
f 66//68 74//77 75//78
f 66//68 65//67 74//77
f 46//48 65//67 66//68
f 46//48 50//52 65//67
f 47//49 50//52 46//48
f 47//49 51//53 50//52
f 48//50 51//53 47//49
f 48//50 35//35 51//53
f 24//24 35//35 48//50
f 24//24 11//11 35//35
f 94//112 92//113 93//114
f 94//112 4//95 92//113
f 74//77 4//95 94//112
f 74//77 5//84 4//95
f 65//67 5//84 74//77
f 65//67 61//63 5//84
f 50//52 61//63 65//67
f 50//52 60//62 61//63
f 35//35 60//62 50//52
f 35//35 36//36 60//62
f 9//9 36//36 35//35
f 91//107 82//86 89//100
f 91//107 76//79 82//86
f 73//76 76//79 91//107
f 73//76 64//66 76//79
f 72//75 64//66 73//76
f 72//75 63//65 64//66
f 2//74 63//65 72//75
f 2//74 62//64 63//65
f 68//70 66//68 77//80
f 68//70 46//48 66//68
f 42//44 46//48 68//70
f 42//44 43//45 46//48
f 17//17 43//45 42//44
f 17//17 15//15 43//45
f 14//14 15//15 17//17
f 14//14 16//16 15//15
f 78//81 83//87 81//85
f 78//81 79//82 83//87
f 69//71 79//82 78//81
f 69//71 70//72 79//82
f 30//30 70//72 69//71
f 30//30 14//14 70//72
f 29//29 14//14 30//30
f 29//29 16//16 14//14
f 54//56 55//57 52//54
f 54//56 32//32 55//57
f 31//31 32//32 54//56
f 31//31 19//19 32//32
f 21//21 19//19 31//31
f 21//21 18//18 19//19
f 23//23 18//18 21//21
f 64//66 67//69 76//79
f 64//66 57//59 67//69
f 63//65 57//59 64//66
f 63//65 39//41 57//59
f 62//64 39//41 63//65
f 62//64 41//43 39//41
f 38//40 25//25 40//42
f 38//40 27//27 25//25
f 37//39 27//27 38//40
f 37//39 13//13 27//27
f 6//38 13//13 37//39
f 6//38 7//37 13//13
f 86//91 88//111 89//110
f 86//91 1//1 88//111
f 3//3 1//1 86//91
f 3//3 2//2 1//1
f 62//104 2//2 3//3
f 72//75 1//90 2//74
f 72//75 87//98 1//90
f 73//76 87//98 72//75
f 73//76 91//107 87//98
f 39//41 56//58 57//59
f 39//41 58//60 56//58
f 40//42 58//60 39//41
f 40//42 59//61 58//60
f 34//34 31//31 54//56
f 34//34 33//33 31//31
f 28//28 33//33 34//34
f 28//28 26//26 33//33
f 33//33 21//21 31//31
f 33//33 22//22 21//21
f 26//26 22//22 33//33
f 26//26 12//12 22//22
f 22//22 23//23 21//21
f 22//22 8//8 23//23
f 12//12 8//8 22//22
f 12//12 10//10 8//8
f 84//88 77//80 85//89
f 84//88 80//83 77//80
f 83//87 80//83 84//88
f 83//87 79//82 80//83
f 80//83 68//70 77//80
f 80//83 71//73 68//70
f 79//82 71//73 80//83
f 79//82 70//72 71//73
f 71//73 42//44 68//70
f 71//73 17//17 42//44
f 70//72 17//17 71//73
f 70//72 14//14 17//17
f 45//47 15//15 16//16
f 45//47 43//45 15//15
f 44//46 43//45 45//47
f 44//46 47//49 43//45
f 77//80 90//106 85//89
f 77//80 75//78 90//106
f 66//68 75//78 77//80
f 86//91 85//97 93//109
f 86//91 84//94 85//97
f 83//92 84//94 86//91
f 86//91 81//93 83//92
f 86//91 82//96 81//93
f 89//110 82//96 86//91
f 3//3 41//1 62//104
f 3//3 38//101 41//1
f 37//103 38//101 3//3
f 3//3 6//6 37//103
f 3//3 7//7 6//6
f 36//102 7//7 3//3
f 89//100 87//98 91//107
f 89//100 88//99 87//98
f 32//32 49//51 55//57
f 32//32 19//19 49//51
f 19//19 20//20 49//51
f 19//19 18//18 20//20
f 41//43 40//42 39//41
f 41//43 38//40 40//42
f 92//108 86//91 93//109
f 92//108 4//4 86//91
f 4//4 3//3 86//91
f 4//4 5//5 3//3
f 61//105 3//3 5//5
f 61//105 60//4 3//3
f 48//50 44//46 24//24
f 48//50 47//49 44//46
f 88//99 1//90 87//98
f 59//61 56//58 58//60
f 51//53 35//35 50//52
f 9//9 35//35 11//11
f 36//102 3//3 60//4
f 43//45 47//49 46//48
# 184 faces

