# RFL_Res.dat Editor OBJ Exporter v1.3 - (c) 2018 Atlas Vryzas Software

#
# object hair
#

v  -10.6 66.44706 5.823529
v  0 69.24313 -6.309804
v  0 68.1451 6.121569
v  -10.6 67.4902 -6
v  -18.76078 58.18431 -15.83922
v  -10.6 63.99608 -17.63922
v  0 65.56863 -18.54902
v  -10.6 56.11765 -27.02353
v  0 57.28627 -28.41961
v  -19.78431 43.70588 -26.39216
v  -10.6 45.50588 -33.15294
v  0 46.27451 -34.99608
v  -27.87843 42.92941 -1.427451
v  -26.29804 33.43922 0
v  -26.12549 33.43922 -16
v  0 33.43922 -35.24314
v  -11.30588 33.43922 -33.51765
v  0 22.01569 -31.37255
v  -11.30588 22.57647 -29.83922
v  -18.66667 15.55686 -13.8902
v  -22 23 -17
v  -24 21.9098 -9.019608
v  -10.29412 8.882353 -18
v  -18.66667 24.72157 -23.9451
v  -25.43922 44.26274 -12.90196
v  0 63.78823 19.82353
v  0 54.82353 26.90196
v  -5.262745 54.61176 26.4902
v  -10.47843 62.46275 18.61569
v  -18.76078 61.06274 4.870588
v  -24.21961 52.17647 10
v  -27.3098 39 8
v  -9.588235 43.6549 26.44314
v  -10.32549 53.99216 25.27451
v  0 44.19608 6.878431
v  -24.32549 37 14.36863
v  -22.92941 48 16
v  -25.43922 52.96078 -2.866667
v  -18 43.24706 21.59216
v  -19.12941 51.72941 20.63529
v  -15 53.00392 23.30196
v  0 43.84706 28.13725
v  -24.90588 25.06275 10.79608
v  -19.36471 58.75294 15.17647
v  0 25 0
v  0 7.556863 -18.76863
v  10.60392 66.44706 5.823529
v  10.60392 67.4902 -6
v  10.60392 63.99608 -17.63922
v  18.76471 58.18431 -15.83922
v  10.60392 56.11765 -27.02353
v  10.60392 45.50588 -33.15294
v  19.78823 43.70588 -26.39216
v  26.30196 33.43922 0
v  27.88235 42.92941 -1.427451
v  26.12941 33.43922 -16
v  11.3098 33.43922 -33.51765
v  11.3098 22.57647 -29.83922
v  22 23 -17
v  18.67059 15.55686 -13.8902
v  24 21.9098 -9.019608
v  10.29804 8.882353 -18
v  18.67059 24.72157 -23.9451
v  25.44314 44.26274 -12.90196
v  5.266667 54.61176 26.4902
v  10.48235 62.46275 18.61569
v  18.76471 61.06274 4.870588
v  24.22353 52.17647 10
v  27.31373 39 8
v  9.592157 43.6549 26.44314
v  10.32941 53.99216 25.27451
v  24.32941 37 14.36863
v  22.93333 48 16
v  25.44314 52.96078 -2.866667
v  19.13333 51.72941 20.63529
v  18 43.24706 21.59216
v  15.00392 53.00392 23.30196
v  24.9098 25.06275 10.79608
v  19.36863 58.75294 15.17647
# 79 vertices

vn -0.3497549 0.9223652 0.1640931
vn 0 0.994853 -0.1016544
vn 0 0.9729167 0.2313113
vn -0.453799 0.8860294 -0.09485294
vn -0.7403187 0.5865809 -0.3283701
vn -0.3172794 0.8341912 -0.4511029
vn 0 0.8800245 -0.4749387
vn -0.4072917 0.5648285 -0.7177083
vn 0 0.6901961 -0.7235907
vn -0.7688726 0.1760417 -0.6145833
vn -0.3574755 0.2128676 -0.9093137
vn 0 0.3542892 -0.9351715
vn -0.9967524 0.07665441 -0.02457108
vn -0.9849265 -0.1724265 -0.009129902
vn -0.9493873 -0.1204044 -0.2900735
vn 0 -0.08897059 -0.9960172
vn -0.4245098 -0.1605392 -0.8909926
vn 0 -0.4403799 -0.8977329
vn -0.3545343 -0.5076593 -0.7851716
vn -0.7598652 -0.5090686 -0.4042279
vn -0.7995711 -0.4400735 -0.4083946
vn -0.9208946 -0.3409314 -0.1889706
vn -0.5495098 -0.583946 -0.5974265
vn -0.7346201 -0.3184436 -0.5989583
vn -0.9259804 0.2394608 -0.2918505
vn 0 0.7685662 0.6398284
vn 0 0.3805147 0.9248162
vn -0.1738358 0.4289216 0.8865196
vn -0.3158701 0.7633578 0.5635417
vn -0.7073529 0.7058824 0.03670343
vn -0.9077818 0.3484681 0.2334559
vn -0.9752451 0.001960784 0.2210784
vn -0.3231618 0.08339461 0.9427083
vn -0.3436275 0.3429534 0.874326
vn 0 -0.9212623 0.3890319
vn 0.3483456 -0.2321691 0.9081495
vn 0.02077206 -0.9031863 0.428799
vn -0.0557598 -0.8879902 0.4564951
vn 0.1208946 -0.9921569 0.03161765
vn -0.9003676 0.4283701 -0.07610294
vn -0.6612132 -0.003921568 0.7501225
vn -0.7474265 0.2340074 0.6218137
vn -0.5056372 0.3545343 0.7865809
vn 0 0.1121936 0.99375
vn 0 -0.9998775 -0.01654412
vn -0.9068627 -0.01366422 0.4211397
vn -0.9707108 -0.1268382 0.2036765
vn -0.666299 0.6321079 0.3955882
vn -0.1163603 -0.7059436 0.698652
vn 0 -0.7107843 0.7033701
vn 0 -0.7324755 0.6808211
vn 0 -0.6583946 -0.7525735
vn -0.8754289 0.1349877 0.4640931
vn 0.241299 -0.9416667 0.2344363
vn -0.1370098 -0.9196691 0.3680147
vn -0.1882966 -0.675674 0.7127451
vn 0.615196 -0.7523897 0.2355392
vn 0.4333333 -0.6840686 -0.5867647
vn 0.3498162 0.9223652 0.1640931
vn 0.4538603 0.8860294 -0.09485294
vn 0.3173407 0.8341912 -0.4511029
vn 0.7403799 0.5865809 -0.3283701
vn 0.407353 0.5648285 -0.7177083
vn 0.3575368 0.2128676 -0.9093137
vn 0.7689338 0.1760417 -0.6145833
vn 0.9849877 -0.1724265 -0.009129902
vn 0.9968137 0.07665441 -0.02457108
vn 0.9494485 -0.1204044 -0.2900735
vn 0.4245711 -0.1605392 -0.8909926
vn 0.3545956 -0.5076593 -0.7851716
vn 0.7996324 -0.4400735 -0.4083946
vn 0.7599265 -0.5090686 -0.4042279
vn 0.9209559 -0.3409314 -0.1889706
vn 0.5495711 -0.583946 -0.5974265
vn 0.7346814 -0.3184436 -0.5989583
vn 0.9260417 0.2394608 -0.2918505
vn 0.1738971 0.4289216 0.8865196
vn 0.3159314 0.7633578 0.5635417
vn 0.7074142 0.7058824 0.03670343
vn 0.9078431 0.3484681 0.2334559
vn 0.9753064 0.001960784 0.2210784
vn 0.3232231 0.08339461 0.9427083
vn 0.3436887 0.3429534 0.874326
vn -0.3482843 -0.2321691 0.9081495
vn -0.02071078 -0.9031863 0.428799
vn 0.05582108 -0.8879902 0.4564951
vn -0.1208333 -0.9921569 0.03161765
vn 0.900429 0.4283701 -0.07610294
vn 0.7474877 0.2340074 0.6218137
vn 0.6612745 -0.003921568 0.7501225
vn 0.5056985 0.3545343 0.7865809
vn 0.906924 -0.01366422 0.4211397
vn 0.9707721 -0.1268382 0.2036765
vn 0.6663603 0.6321079 0.3955882
vn 0.1164216 -0.7059436 0.698652
vn 0.8754902 0.1349877 0.4640931
vn -0.2412377 -0.9416667 0.2344363
vn 0.1370711 -0.9196691 0.3680147
vn 0.1883578 -0.675674 0.7127451
vn -0.6151348 -0.7523897 0.2355392
vn -0.4332721 -0.6840686 -0.5867647
# 101 vertex normals

# 0 texture coords

g hair
f 62//74 59//71 60//72
f 62//74 63//75 59//71
f 58//70 63//75 62//74
f 58//70 57//69 63//75
f 18//18 57//69 58//70
f 18//18 16//16 57//69
f 17//17 16//16 18//18
f 17//17 11//11 16//16
f 10//10 11//11 17//17
f 10//10 8//8 11//11
f 5//5 8//8 10//10
f 5//5 6//6 8//8
f 4//4 6//6 5//5
f 4//4 2//2 6//6
f 1//1 2//2 4//4
f 1//1 3//3 2//2
f 29//29 3//3 1//1
f 29//29 26//26 3//3
f 28//28 26//26 29//29
f 28//28 27//27 26//26
f 42//44 27//27 28//28
f 42//44 65//77 27//27
f 46//52 58//70 62//74
f 46//52 18//18 58//70
f 19//19 18//18 46//52
f 19//19 17//17 18//18
f 24//24 17//17 19//19
f 24//24 10//10 17//17
f 15//15 10//10 24//24
f 15//15 25//25 10//10
f 13//13 25//25 15//15
f 13//13 38//40 25//25
f 31//31 38//40 13//13
f 31//31 30//30 38//40
f 44//48 30//30 31//31
f 44//48 1//1 30//30
f 29//29 1//1 44//48
f 66//78 3//3 26//26
f 66//78 47//59 3//3
f 79//94 47//59 66//78
f 79//94 67//79 47//59
f 68//80 67//79 79//94
f 68//80 74//88 67//79
f 55//67 74//88 68//80
f 55//67 64//76 74//88
f 56//68 64//76 55//67
f 56//68 53//65 64//76
f 63//75 53//65 56//68
f 63//75 57//69 53//65
f 37//53 32//32 36//46
f 37//53 31//31 32//32
f 40//42 31//31 37//53
f 40//42 44//48 31//31
f 41//43 44//48 40//42
f 41//43 29//29 44//48
f 34//34 29//29 41//43
f 34//34 28//28 29//29
f 33//33 28//28 34//34
f 8//8 12//12 11//11
f 8//8 9//9 12//12
f 6//6 9//9 8//8
f 6//6 7//7 9//9
f 2//2 7//7 6//6
f 2//2 49//61 7//7
f 48//60 49//61 2//2
f 48//60 50//62 49//61
f 47//59 2//2 3//3
f 47//59 48//60 2//2
f 67//79 48//60 47//59
f 67//79 50//62 48//60
f 74//88 50//62 67//79
f 74//88 64//76 50//62
f 53//65 50//62 64//76
f 53//65 51//63 50//62
f 52//64 51//63 53//65
f 52//64 12//12 51//63
f 16//16 12//12 52//64
f 16//16 11//11 12//12
f 23//23 19//19 46//52
f 23//23 24//24 19//19
f 21//21 24//24 23//23
f 21//21 15//15 24//24
f 22//22 15//15 21//21
f 22//22 14//14 15//15
f 65//77 26//26 27//27
f 65//77 66//78 26//26
f 71//83 66//78 65//77
f 71//83 77//91 66//78
f 70//82 77//91 71//83
f 77//91 79//94 66//78
f 77//91 75//89 79//94
f 76//90 75//89 77//91
f 76//90 73//96 75//89
f 55//67 54//66 56//68
f 55//67 69//81 54//66
f 68//80 69//81 55//67
f 68//80 73//96 69//81
f 14//14 13//13 15//15
f 14//14 32//32 13//13
f 43//47 32//32 14//14
f 43//47 36//46 32//32
f 45//50 62//95 60//99
f 45//50 46//51 62//95
f 23//49 46//51 45//50
f 35//35 43//57 14//58
f 35//35 36//36 43//57
f 37//37 36//36 35//35
f 35//35 39//54 37//37
f 35//35 41//55 39//54
f 33//39 41//55 35//35
f 56//68 59//71 63//75
f 56//68 61//73 59//71
f 54//66 61//73 56//68
f 69//81 78//93 54//66
f 69//81 72//92 78//93
f 73//96 72//92 69//81
f 5//5 38//40 30//30
f 5//5 25//25 38//40
f 10//10 25//25 5//5
f 9//9 51//63 12//12
f 9//9 49//61 51//63
f 7//7 49//61 9//9
f 78//100 35//35 54//101
f 78//100 72//84 35//35
f 73//85 35//35 72//84
f 73//85 76//97 35//35
f 77//98 35//35 76//97
f 77//98 70//87 35//35
f 65//86 35//35 70//87
f 65//86 42//45 35//35
f 28//38 35//35 42//45
f 28//38 33//39 35//35
f 75//89 68//80 79//94
f 75//89 73//96 68//80
f 57//69 52//64 53//65
f 57//69 16//16 52//64
f 20//20 21//21 23//23
f 20//20 22//22 21//21
f 4//4 30//30 1//1
f 4//4 5//5 30//30
f 39//41 40//42 37//53
f 39//41 41//43 40//42
f 20//56 23//49 45//50
f 71//83 65//77 70//82
f 61//73 60//72 59//71
f 34//34 41//43 33//33
f 32//32 31//31 13//13
f 50//62 51//63 49//61
# 148 faces

