# RFL_Res.dat Editor OBJ Exporter v1.3 - (c) 2018 Atlas Vryzas Software

#
# object hair
#

v  10.67059 10.89412 -18.37647
v  11.3098 21.04706 -32.12549
v  0 22.01569 -31.37255
v  19.78823 24.19608 -25.38039
v  11.3098 33.43922 -33.51765
v  0 33.43922 -35.24314
v  10.60392 45.50588 -33.15294
v  0 46.12549 -34.86274
v  10.60392 67.4902 -6
v  0 65.56863 -18.54902
v  10.60392 63.99608 -17.63922
v  0 69.24313 -6.309804
v  10 64.09019 18
v  0 69 7
v  10.60392 67 6
v  0 66 19
v  16.84706 60.58823 16.41176
v  19.78823 43.70588 -26.39216
v  20.57647 58.23137 -16.12941
v  10.60392 56.11765 -27.02353
v  20.41961 62 0
v  24 21.9098 -9.019608
v  26.12941 34 -14
v  25.48627 28.81961 -20.6902
v  26.24706 44.42745 -13.21961
v  25.44314 52.96078 -2.866667
v  22.87059 54.29804 13
v  21.74118 13.44706 -16.06274
v  26.76078 40 -8
v  0 57.28627 -28.41961
v  30.22745 46 -2
v  25.44314 48 10
v  19.05882 55.60784 18.30588
v  23.99216 41 14
v  20.10196 48.6902 18.6549
v  29.29804 28.07843 -4.745098
v  27.27451 33.03529 0.09019608
v  26.52941 28.90588 4
v  24.44314 24 12
v  24.47843 34 12
v  0 29.06275 3.701961
v  -11.30588 21.04706 -32.12549
v  -10.66667 10.89412 -18.37647
v  -19.78431 24.19608 -25.38039
v  -11.30588 33.43922 -33.51765
v  -10.6 45.50588 -33.15294
v  -10.6 67.4902 -6
v  -10.6 63.99608 -17.63922
v  -10 63.3098 18
v  -10.6 67 6
v  -16.84314 60.58823 16.41176
v  -20.41569 62 0
v  -19.78431 43.70588 -26.39216
v  -20.57255 58.23137 -16.12941
v  -10.6 56.11765 -27.02353
v  -26.11373 41 5
v  -30.22353 46 -2
v  -25.72549 45.32549 8.847059
v  -25.48235 28.81961 -20.6902
v  -24 21.9098 -9.019608
v  -26.24314 44.42745 -13.21961
v  -26.12549 34 -14
v  -25.43922 52.96078 -2.866667
v  -22.86275 54.29804 13
v  -21.73726 13.44706 -16.06274
v  -26.75686 40 -8
v  -29.29412 28.07843 -4.745098
v  -26.52549 28.90588 4
v  -24.47451 34 12
v  -27.27059 33.03529 0.09019608
v  -24.43922 24 12
v  -18.6902 50.90981 24.95294
v  -12.32941 53.81569 29.09412
v  -9.494118 45.15686 29.71373
v  -4.74902 56.21569 29.87059
v  -16.9098 42.49412 25.92941
v  -1.580392 48.56078 31.33726
v  3.52549 58.19216 27.4549
v  5.737255 53.98431 29.65098
v  12.96471 57.41177 23.22745
v  -23.64314 47.85098 17.87451
v  10.45882 54 10
v  0 6.294117 -22.36471
v  7.87451 49.3098 29.95294
v  9.701961 44.81569 27.69412
v  4.376471 42 29.04314
v  -0.7882353 41.27059 30.37647
v  -23.98824 41 14
v  15.18824 50 26
v  15.47843 42.96471 24.88235
v  26.11765 41 5
# 91 vertices

vn 0.3341912 -0.65625 -0.6764706
vn 0.3101716 -0.4818015 -0.8195466
vn 0 -0.4516544 -0.8921568
vn 0.7113971 -0.3246936 -0.6232843
vn 0.3760417 -0.08039216 -0.9230392
vn 0 -0.08523284 -0.9963235
vn 0.3517157 0.215625 -0.9109069
vn 0 0.3528186 -0.9357231
vn 0.349326 0.9235907 -0.1579657
vn 0 0.9104779 -0.4135417
vn 0.3068627 0.8167892 -0.4886029
vn 0 0.9970588 -0.07726716
vn 0.3316177 0.8338848 0.441299
vn -0.0122549 0.9838235 0.1792279
vn 0.3469363 0.9292279 0.1275735
vn -0.02254902 0.8710784 0.4907475
vn 0.6265318 0.6786765 0.3833333
vn 0.7594362 0.1752451 -0.6265318
vn 0.7281862 0.5810049 -0.3636029
vn 0.3785539 0.561152 -0.7360907
vn 0.7044117 0.7084559 0.04387255
vn 0.9148284 -0.3082108 -0.261152
vn 0.964277 -0.01715686 -0.2644608
vn 0.9200368 -0.1605392 -0.3574755
vn 0.9360294 0.1522059 -0.3175245
vn 0.8862745 0.461826 -0.03694853
vn 0.8664216 0.3704044 0.3349878
vn 0.7267157 -0.3698529 -0.5788603
vn 0.9870711 -0.02395833 -0.1583333
vn 0 0.6867034 -0.7269608
vn 0.998652 0.04754902 0.02199755
vn 0.9253064 0.1488971 0.3488358
vn 0.7509804 0.3542892 0.5572917
vn 0.9440564 0.01691177 0.329473
vn 0.838603 0.09375 0.5367034
vn 0.9776961 0.01464461 -0.2098039
vn 0.9905638 -0.03406863 0.1327206
vn 0.9727941 0.008578432 0.2314951
vn 0.9682598 -0.003431372 0.2501838
vn 0.00245098 -0.7769608 -0.629473
vn -0.004166666 -0.7856618 0.6186274
vn -0.3192402 -0.8480392 0.4228554
vn 0.145527 -0.9892769 0.01096814
vn -0.3101103 -0.4818015 -0.8195466
vn -0.3341299 -0.65625 -0.6764706
vn -0.7113358 -0.3246936 -0.6232843
vn -0.3759804 -0.08039216 -0.9230392
vn -0.3516544 0.215625 -0.9109069
vn -0.3492647 0.9235907 -0.1579657
vn -0.3068015 0.8167892 -0.4886029
vn -0.3172794 0.8465686 0.4273284
vn -0.3348652 0.9306985 0.1471814
vn -0.6001226 0.7077206 0.3727941
vn -0.7043505 0.7084559 0.04387255
vn -0.759375 0.1752451 -0.6265318
vn -0.728125 0.5810049 -0.3636029
vn -0.3784927 0.561152 -0.7360907
vn -0.955576 -0.07696079 0.2843137
vn -0.9984682 0.03694853 0.04044118
vn -0.960723 0.1033088 0.2575368
vn -0.9199755 -0.1605392 -0.3574755
vn -0.9147671 -0.3082108 -0.261152
vn -0.9359682 0.1522059 -0.3175245
vn -0.9642157 -0.01715686 -0.2644608
vn -0.8924632 0.4508578 -0.01360294
vn -0.875674 0.4175245 0.2425245
vn -0.7266544 -0.3698529 -0.5788603
vn -0.9870098 -0.02395833 -0.1583333
vn -0.9776348 0.01464461 -0.2098039
vn -0.9727328 0.008578432 0.2314951
vn -0.9905025 -0.03406863 0.1327206
vn -0.9681985 -0.003431372 0.2501838
vn -0.1454657 -0.9892769 0.01096814
vn 0.3193015 -0.8480392 0.4228554
vn -0.7115809 0.2332108 0.6628064
vn -0.4040441 0.3890931 0.8279412
vn -0.39375 -0.03198529 0.9186887
vn -0.0877451 0.5555147 0.8269608
vn -0.7131128 -0.1181985 0.6910539
vn 0.001776961 0.07334559 0.9973652
vn 0.2189338 0.6617034 0.7171569
vn 0.2595588 0.3588235 0.8966299
vn 0.4964461 0.5190564 0.6958333
vn -0.9142157 0.04080882 0.403125
vn -0.3784927 -0.1292279 0.9165441
vn -0.0932598 -0.971875 0.2159926
vn -0.6224265 -0.4511642 0.6396446
vn -0.3770833 -0.9152573 -0.1416054
vn 0 -0.7530637 0.6579044
vn -0.0596201 -0.7563726 0.6514093
vn 0.1161765 -0.7132353 0.6912377
vn 0.05968137 -0.7563726 0.6514093
vn -0.1161152 -0.7132353 0.6912377
vn 0.1884804 -0.6602941 0.7269608
vn -0.1884191 -0.6602941 0.7269608
vn 0 -0.4970588 -0.8677083
vn 0.2627451 -0.2067402 0.9424632
vn 0.3557598 -0.004289215 0.9346201
vn 0.4640319 -0.7941176 -0.3925245
vn 0.1614583 -0.8573529 -0.4886642
vn -0.5484068 -0.5389093 -0.6393383
vn 0.3791054 -0.9248162 -0.03125
vn 0.3521446 -0.9333946 -0.06942402
vn 0.3520221 -0.7678922 0.5351716
vn -0.401348 -0.8074142 -0.4323529
vn -0.4203431 -0.9017157 -0.1010417
vn -0.9610907 -0.08155637 0.2639706
vn 0.127451 -0.7754902 -0.6183211
vn 0.8254902 -0.05539216 0.561826
vn 0.6761029 0.1533701 0.7207108
vn -0.9435049 -0.1158701 0.3104779
vn 0.9552084 -0.06139706 0.2895833
vn 0.3262255 -0.2686887 0.9063113
vn 0.4284926 -0.2606618 0.865196
vn 0.2148284 -0.180576 0.9598652
# 115 vertex normals

# 0 texture coords

g hair
f 35//35 89//110 90//109
f 35//35 33//33 89//110
f 27//27 33//33 35//35
f 27//27 17//17 33//33
f 21//21 17//17 27//27
f 21//21 15//15 17//17
f 9//9 15//15 21//21
f 9//9 12//12 15//15
f 10//10 12//12 9//9
f 10//10 47//49 12//12
f 48//50 47//49 10//10
f 48//50 54//56 47//49
f 55//57 54//56 48//50
f 55//57 53//55 54//56
f 46//48 53//55 55//57
f 46//48 45//47 53//55
f 6//6 45//47 46//48
f 6//6 3//3 45//47
f 5//5 3//3 6//6
f 5//5 2//2 3//3
f 4//4 2//2 5//5
f 4//4 1//1 2//2
f 28//28 1//1 4//4
f 69//70 68//70 71//72
f 69//60 56//111 68//58
f 88//75 56//66 69//84
f 88//51 58//76 56//53
f 81//81 58//16 88//78
f 81//17 64//83 58//13
f 72//70 64//72 81//33
f 72//111 51//58 64//70
f 73//66 51//84 72//60
f 73//76 49//53 51//75
f 75//16 49//78 73//51
f 75//83 16//13 49//81
f 78//70 16//33 75//17
f 78//58 13//111 16//58
f 80//111 13//111 78//60
f 80//60 17//84 13//60
f 33//84 17//84 80//66
f 15//15 13//13 17//17
f 15//15 14//14 13//13
f 12//12 14//14 15//15
f 12//12 50//52 14//14
f 47//49 50//52 12//12
f 47//49 52//54 50//52
f 54//56 52//54 47//49
f 54//56 63//65 52//54
f 61//63 63//65 54//56
f 61//63 57//59 63//65
f 66//68 57//59 61//63
f 66//68 70//71 57//59
f 67//69 70//71 66//68
f 91//112 34//34 40//38
f 91//112 32//32 34//34
f 31//31 32//32 91//112
f 31//31 26//26 32//32
f 25//25 26//26 31//31
f 25//25 19//19 26//26
f 18//18 19//19 25//25
f 18//18 20//20 19//19
f 7//7 20//20 18//18
f 7//7 8//8 20//20
f 6//6 8//8 7//7
f 6//6 46//48 8//8
f 38//38 40//38 39//39
f 38//31 91//37 40//112
f 37//23 91//25 38//29
f 37//4 31//24 91//18
f 29//39 31//28 37//22
f 29//112 25//38 31//38
f 23//29 25//31 29//37
f 23//18 18//23 25//25
f 24//22 18//4 23//24
f 24//112 4//38 18//28
f 22//31 4//112 24//37
f 22//31 28//37 4//37
f 56//58 70//71 68//70
f 56//58 57//59 70//71
f 58//60 57//59 56//58
f 58//60 63//65 57//59
f 64//66 63//65 58//60
f 64//66 52//54 63//65
f 51//53 52//54 64//66
f 51//53 50//52 52//54
f 49//51 50//52 51//53
f 49//51 14//14 50//52
f 16//16 14//14 49//51
f 16//16 13//13 14//14
f 32//32 35//35 34//34
f 32//32 27//27 35//35
f 26//26 27//27 32//32
f 26//26 21//21 27//27
f 19//19 21//21 26//26
f 19//19 9//9 21//21
f 11//11 9//9 19//19
f 11//11 10//10 9//9
f 30//30 10//10 11//11
f 53//55 61//63 54//56
f 53//55 62//64 61//63
f 59//61 62//64 53//55
f 59//61 60//62 62//64
f 44//46 60//62 59//61
f 44//46 65//67 60//62
f 43//45 65//67 44//46
f 80//83 89//110 33//33
f 80//83 84//98 89//110
f 79//82 84//98 80//83
f 79//82 77//80 84//98
f 75//78 77//80 79//82
f 75//78 73//76 77//80
f 76//79 81//84 88//111
f 76//79 72//75 81//84
f 74//77 72//75 76//79
f 74//77 73//76 72//75
f 77//80 73//76 74//77
f 69//97 82//86 88//104
f 69//97 41//41 82//86
f 71//74 41//41 69//97
f 71//74 68//40 41//41
f 55//57 8//8 46//48
f 55//57 30//30 8//8
f 48//50 30//30 55//57
f 48//50 10//10 30//30
f 36//36 29//29 37//37
f 36//36 23//23 29//29
f 22//22 23//23 36//36
f 22//22 24//24 23//23
f 43//45 3//3 83//96
f 43//45 42//44 3//3
f 44//46 42//44 43//45
f 44//46 45//47 42//44
f 82//86 35//88 90//108
f 82//86 34//87 35//88
f 40//85 34//87 82//86
f 41//41 40//85 82//86
f 41//41 39//42 40//85
f 38//40 39//42 41//41
f 84//98 85//114 89//110
f 84//98 86//113 85//114
f 87//115 86//113 84//98
f 20//20 11//11 19//19
f 20//20 30//30 11//11
f 8//8 30//30 20//20
f 5//5 18//18 4//4
f 5//5 7//7 18//18
f 6//6 7//7 5//5
f 89//106 82//86 90//107
f 89//106 85//99 82//86
f 86//100 82//86 85//99
f 86//100 87//101 82//86
f 77//105 82//86 87//101
f 77//105 74//102 82//86
f 76//103 82//86 74//102
f 76//103 88//104 82//86
f 70//73 41//41 68//40
f 70//73 67//95 41//41
f 78//81 79//82 80//83
f 78//81 75//78 79//82
f 37//43 41//41 36//94
f 37//43 38//40 41//41
f 22//94 41//41 28//91
f 22//94 36//41 41//91
f 1//92 41//41 83//89
f 1//92 28//91 41//41
f 43//90 41//41 65//93
f 43//90 83//89 41//41
f 60//95 41//41 67//95
f 60//93 65//41 41//93
f 67//69 62//64 60//62
f 67//69 66//68 62//64
f 53//55 44//46 59//61
f 53//55 45//47 44//46
f 1//1 3//3 2//2
f 1//1 83//96 3//3
f 84//98 77//80 87//115
f 66//68 61//63 62//64
f 3//3 42//44 45//47
# 178 faces

