# RFL_Res.dat Editor OBJ Exporter v1.3 - (c) 2018 Atlas Vryzas Software

#
# object hair
#

v  17.58431 29 23
v  22.81176 38 29
v  23.52941 29 23.92157
v  12.96471 38.24314 27
v  27.84314 40.27451 21.07451
v  26.47451 30.2 19.01961
v  25.48235 41 12
v  24.72941 31 13.79216
v  20.3451 47 31
v  9.921569 47.59216 27.78039
v  26 50.29804 22.40784
v  24.29804 50.6 12.45098
v  20.9098 59.21569 22.83529
v  16.20784 56.66667 28.22353
v  19.63137 60 14
v  7.768628 55.36863 25.41961
v  13.2902 63.82353 21
v  10.60392 66.44706 5.823529
v  22.6902 20.96078 16.57647
v  7.043137 60 21
v  0 66.19215 11.49412
v  0 68.1451 6.121569
v  11.3098 33.43922 -33.51765
v  0 46.12549 -34.86274
v  0 33.43922 -35.24314
v  10.83922 63.99608 -17.92157
v  0 69.24313 -6.309804
v  0 65.55294 -18.82353
v  10.60392 67.4902 -6
v  20.10588 61.08627 3.082353
v  19.78823 43.70588 -26.39216
v  10.60392 45.50588 -33.15294
v  20.47059 34 -26
v  18.76471 58.18431 -15.83922
v  10.60392 56.11765 -27.02353
v  27.88235 42.92941 -1.427451
v  26.12941 33.43922 -16
v  26.24706 44.42745 -13.21961
v  25.44314 52.96078 -2.866667
v  0 57.28627 -28.41961
v  29 33 0
v  26.57647 31.50196 11.50196
v  30 22 0
v  23 7 -18
v  24.48235 15 -8.498039
v  26 21 -19
v  24 8 -8
v  22 -2 0
v  27 9 7
v  29 9 0
v  14 -4 -17
v  10.66275 6 -30.85098
v  0 6 -36
v  0 -6 -25.58039
v  18 6 -26.99216
v  27.89412 22 11
v  20 20 -29
v  11 20 -33.85098
v  24.96471 22 -9
v  0 20 -38
v  28.0549 15.50196 9.52549
v  30.48627 15.50196 0
v  8.8 53.11765 11.31765
v  0 55 21.96471
v  0 60 19
v  -17.58039 29 23
v  -22.80784 38 29
v  -12.96078 38.24314 27
v  -23.52549 29 23.92157
v  -27.83922 40.27451 21.07451
v  -26.47059 30.2 19.01961
v  -25.47843 41 12
v  -24.72549 31 13.79216
v  -20.34118 47 31
v  -9.917647 47.59216 27.78039
v  -25.99608 50.29804 22.40784
v  -24.29412 50.6 12.45098
v  -20.90588 59.21569 22.83529
v  -16.20392 56.66667 28.22353
v  -19.62745 60 14
v  -13.28627 63.82353 21
v  -7.039216 60 21
v  -7.764706 55.36863 25.41961
v  -10.6 66.44706 5.823529
v  -22.68627 20.96078 16.57647
v  -11.30588 33.43922 -33.51765
v  -10.6 45.50588 -33.15294
v  -10.83529 63.99608 -17.92157
v  -10.6 67.4902 -6
v  -20.10196 61.08627 3.082353
v  -20.46667 34 -26
v  -18.76078 58.18431 -15.83922
v  -19.78431 43.70588 -26.39216
v  -10.6 56.11765 -27.02353
v  -27.87843 42.92941 -1.427451
v  -26.12549 33.43922 -16
v  -25.43922 52.96078 -2.866667
v  -26.24314 44.42745 -13.21961
v  -29 33 0
v  -26.57255 31.50196 11.50196
v  -27 9 7
v  -22 -2 0
v  -29 9 0
v  -24 8 -8
v  -23 7 -18
v  -14 -4 -17
v  -10.65882 6 -30.85098
v  -18 6 -26.99216
v  -30 22 0
v  -20 20 -29
v  -11 20 -33.85098
v  0 41 -2.431373
v  -28.05098 15.50196 9.52549
v  -27.8902 22 11
v  -24.96078 22 -9
v  -30.48235 15.50196 0
v  -24.47843 15 -8.498039
v  -26 21 -19
v  -8.796079 53.11765 11.31765
v  9.164706 6.956863 -16.09412
v  -9.160785 6.956863 -16.09412
# 121 vertices

vn -0.1452819 -0.5452819 0.8256127
vn 0.4063725 -0.2577206 0.8765931
vn 0.5402573 -0.4761029 0.6938726
vn -0.2305147 -0.3052083 0.9239584
vn 0.9881127 -0.01556373 0.153125
vn 0.9692402 -0.2454657 -0.01770833
vn 0.9981618 0.046875 -0.03909314
vn 0.9188725 -0.2041054 -0.3378064
vn 0.2637255 0.1261029 0.9563726
vn -0.3107843 0.05484069 0.9489583
vn 0.9188113 0.3091912 0.2456495
vn 0.963174 0.2683823 -0.01734069
vn 0.6511642 0.6417279 0.4053922
vn -0.02101716 0.4758579 0.8792892
vn 0.7542279 0.65625 0.02328431
vn -0.3563113 0.4768995 0.8035539
vn 0.05704657 0.8714461 0.4871936
vn 0.3341912 0.9321691 0.1393382
vn 0.7108456 -0.6117035 0.3471814
vn -0.2952206 0.6281863 0.7199142
vn 0 0.8765318 0.4814338
vn 0 0.9847426 0.1738971
vn 0.3762868 0.05238971 -0.925
vn 0 0.1949142 -0.9808211
vn 0 0.08229167 -0.9965686
vn 0.3535539 0.8409314 -0.4098039
vn 0 0.9870711 -0.1603554
vn 0 0.8406863 -0.5415441
vn 0.392402 0.9172794 -0.0689951
vn 0.6791667 0.7340074 -0.008026961
vn 0.7680147 0.2403799 -0.5936275
vn 0.4068015 0.2636029 -0.8746936
vn 0.7538603 0.07567402 -0.6526961
vn 0.7340686 0.5856005 -0.3440564
vn 0.4071078 0.6012255 -0.6875613
vn 0.9849265 0.1645833 0.053125
vn 0.9580882 0.007291667 -0.2863971
vn 0.9411152 0.2107843 -0.2643995
vn 0.9093137 0.4147059 -0.03455883
vn 0 0.5933824 -0.8049632
vn 0.9976103 0.04834559 -0.05018383
vn 0.9727328 0.1045956 0.2072304
vn 0.9925245 0.09154412 -0.08143383
vn 0.9093137 -0.3406863 -0.2389706
vn 0.9512868 -0.1257966 -0.2814951
vn 0.9737132 -0.05802696 -0.2203431
vn 0.8977329 -0.3428309 -0.276777
vn 0.8397059 -0.5343137 -0.0971201
vn 0.8845588 -0.3921569 0.2526961
vn 0.9367034 -0.3218137 -0.138174
vn 0.635478 -0.6965073 -0.3333333
vn 0.3945466 -0.3908701 -0.8314951
vn 0 -0.4208333 -0.9070466
vn 0 -0.655576 -0.7550858
vn 0.6094363 -0.4154412 -0.6751838
vn 0.9765931 0.05569853 0.2077819
vn 0.7185049 -0.0625 -0.6927696
vn 0.3801471 -0.06311274 -0.9227328
vn 0.9635417 -0.04491422 -0.263848
vn 0 -0.05263481 -0.9985907
vn 0.9529412 -0.1679534 0.2525735
vn 0.9825981 -0.07126226 -0.1716912
vn -0.7903186 -0.6099265 0.05692402
vn -0.4171569 -0.7746936 0.4751838
vn -0.9717525 -0.2333333 -0.03382353
vn -0.931924 -0.3521446 -0.08645833
vn -0.9563113 -0.2903186 -0.03235294
vn -0.8996936 -0.4057598 -0.1609681
vn 0 -0.8709559 0.4913603
vn -0.08290441 -0.1695466 -0.9819853
vn -0.1273897 -0.2003676 -0.9713235
vn -0.1715074 -0.2306373 -0.9577819
vn 0 0.6512255 0.7590073
vn 0 0.5095588 0.8604779
vn -0.8901961 -0.4151348 -0.1875
vn 0.1453431 -0.5452819 0.8256127
vn -0.4063113 -0.2577206 0.8765931
vn 0.230576 -0.3052083 0.9239584
vn -0.5401961 -0.4761029 0.6938726
vn -0.9880515 -0.01556373 0.153125
vn -0.9691789 -0.2454657 -0.01770833
vn -0.9981005 0.046875 -0.03909314
vn -0.9188113 -0.2041054 -0.3378064
vn -0.2636642 0.1261029 0.9563726
vn 0.3108456 0.05484069 0.9489583
vn -0.91875 0.3091912 0.2456495
vn -0.9631128 0.2683823 -0.01734069
vn -0.651103 0.6417279 0.4053922
vn 0.02107843 0.4758579 0.8792892
vn -0.7541667 0.65625 0.02328431
vn -0.05698529 0.8714461 0.4871936
vn 0.2952819 0.6281863 0.7199142
vn 0.3563725 0.4768995 0.8035539
vn -0.3341299 0.9321691 0.1393382
vn -0.7107843 -0.6117035 0.3471814
vn -0.3762255 0.05238971 -0.925
vn -0.4067402 0.2636029 -0.8746936
vn -0.3534926 0.8409314 -0.4098039
vn -0.3923407 0.9172794 -0.0689951
vn -0.6791054 0.7340074 -0.008026961
vn -0.753799 0.07567402 -0.6526961
vn -0.7340074 0.5856005 -0.3440564
vn -0.7679535 0.2403799 -0.5936275
vn -0.4070466 0.6012255 -0.6875613
vn -0.9848652 0.1645833 0.053125
vn -0.9580269 0.007291667 -0.2863971
vn -0.9092525 0.4147059 -0.03455883
vn -0.9410539 0.2107843 -0.2643995
vn -0.997549 0.04834559 -0.05018383
vn -0.9726716 0.1045956 0.2072304
vn -0.8844975 -0.3921569 0.2526961
vn -0.8396446 -0.5343137 -0.0971201
vn -0.9366422 -0.3218137 -0.138174
vn -0.8976716 -0.3428309 -0.276777
vn -0.9092525 -0.3406863 -0.2389706
vn -0.6354167 -0.6965073 -0.3333333
vn -0.3944853 -0.3908701 -0.8314951
vn -0.609375 -0.4154412 -0.6751838
vn -0.9924632 0.09154412 -0.08143383
vn -0.7184436 -0.0625 -0.6927696
vn -0.3800858 -0.06311274 -0.9227328
vn 0.5563725 -0.234375 0.7971814
vn 0 -0.3667892 0.9303309
vn 0.8876838 -0.4481005 0.1063726
vn 0.5400735 -0.2122549 0.8144608
vn 0.5134804 -0.1571078 0.8436887
vn 0.4916054 -0.1077819 0.8641544
vn -0.9634804 -0.04491422 -0.263848
vn -0.9825368 -0.07126226 -0.1716912
vn -0.9765319 0.05569853 0.2077819
vn -0.9528799 -0.1679534 0.2525735
vn -0.9512255 -0.1257966 -0.2814951
vn -0.9736519 -0.05802696 -0.2203431
vn 0.9718137 -0.2333333 -0.03382353
vn 0.7903799 -0.6099265 0.05692402
vn 0.9563726 -0.2903186 -0.03235294
vn 0.9319853 -0.3521446 -0.08645833
vn 0.8997549 -0.4057598 -0.1609681
vn 0.4172181 -0.7746936 0.4751838
vn 0.127451 -0.2003676 -0.9713235
vn 0.08296569 -0.1695466 -0.9819853
vn 0.1715686 -0.2306373 -0.9577819
vn 0.8902574 -0.4151348 -0.1875
vn 0.7677084 -0.6297181 0.1186275
vn -0.2234681 -0.6001838 0.7680147
vn -0.7972426 -0.3900735 0.4606005
vn -0.9147059 -0.3984069 -0.06691176
vn 0.2235294 -0.6001838 0.7680147
vn -0.7676471 -0.6297181 0.1186275
vn 0.7973039 -0.3900735 0.4606005
vn 0.9147671 -0.3984069 -0.06691176
vn -0.5563112 -0.234375 0.7971814
vn -0.8876225 -0.4481005 0.1063726
vn -0.5400122 -0.2122549 0.8144608
vn -0.5134191 -0.1571078 0.8436887
vn -0.4915441 -0.1077819 0.8641544
vn 0.7167892 -0.5072917 0.4785539
vn -0.7167279 -0.5072917 0.4785539
# 158 vertex normals

# 0 texture coords

g hair
f 17//17 20//20 16//16
f 17//17 21//21 20//20
f 18//18 21//21 17//17
f 18//18 22//22 21//21
f 29//29 22//22 18//18
f 29//29 27//27 22//22
f 26//26 27//27 29//29
f 26//26 28//28 27//27
f 35//35 28//28 26//26
f 35//35 40//40 28//28
f 32//32 40//40 35//35
f 32//32 24//24 40//40
f 23//23 24//24 32//32
f 23//23 25//25 24//24
f 58//58 25//25 23//23
f 58//58 60//60 25//25
f 52//52 60//60 58//58
f 52//52 53//53 60//60
f 54//54 53//53 52//52
f 54//54 107//117 53//53
f 86//96 24//24 25//25
f 86//96 87//97 24//24
f 91//101 87//97 86//96
f 91//101 93//103 87//97
f 96//106 93//103 91//101
f 96//106 98//108 93//103
f 99//109 98//108 96//106
f 99//109 95//105 98//108
f 72//82 95//105 99//109
f 72//82 77//87 95//105
f 70//80 77//87 72//82
f 70//80 76//86 77//87
f 67//77 76//86 70//80
f 67//77 74//84 76//86
f 68//78 74//84 67//77
f 68//78 75//85 74//84
f 15//15 18//18 17//17
f 15//15 30//30 18//18
f 39//39 30//30 15//15
f 39//39 34//34 30//30
f 38//38 34//34 39//39
f 38//38 31//31 34//34
f 37//37 31//31 38//38
f 37//37 33//33 31//31
f 46//46 33//33 37//37
f 46//46 57//57 33//33
f 44//44 57//57 46//46
f 44//44 55//55 57//57
f 51//51 55//55 44//44
f 51//51 52//52 55//55
f 107//117 60//60 53//53
f 107//117 111//121 60//60
f 108//118 111//121 107//117
f 108//118 110//120 111//121
f 105//115 110//120 108//118
f 105//115 118//133 110//120
f 117//132 118//133 105//115
f 117//132 115//128 118//133
f 116//129 115//128 117//132
f 116//129 109//119 115//128
f 114//130 109//119 116//129
f 114//130 100//110 109//119
f 94//104 28//28 40//40
f 94//104 88//98 28//28
f 92//102 88//98 94//104
f 92//102 89//99 88//98
f 90//100 89//99 92//102
f 90//100 84//94 89//99
f 80//90 84//94 90//100
f 80//90 81//91 84//94
f 78//88 81//91 80//90
f 78//88 79//89 81//91
f 74//84 79//89 78//88
f 74//84 75//85 79//89
f 14//14 16//16 10//10
f 14//14 17//17 16//16
f 13//13 17//17 14//14
f 13//13 15//15 17//17
f 11//11 15//15 13//13
f 11//11 12//12 15//15
f 5//5 12//12 11//11
f 5//5 7//7 12//12
f 6//6 7//7 5//5
f 6//6 8//8 7//7
f 19//19 8//8 6//6
f 44//44 47//47 51//51
f 44//44 45//45 47//47
f 46//46 45//45 44//44
f 46//46 59//59 45//45
f 37//37 59//59 46//46
f 37//37 41//41 59//59
f 38//38 41//41 37//37
f 38//38 36//36 41//41
f 39//39 36//36 38//38
f 39//39 12//12 36//36
f 15//15 12//12 39//39
f 111//121 25//25 60//60
f 111//121 86//96 25//25
f 110//120 86//96 111//121
f 110//120 91//101 86//96
f 118//133 91//101 110//120
f 118//133 96//106 91//101
f 115//128 96//106 118//133
f 115//128 99//109 96//106
f 109//119 99//109 115//128
f 109//119 100//110 99//109
f 58//58 55//55 52//52
f 58//58 57//57 55//55
f 23//23 57//57 58//58
f 23//23 33//33 57//57
f 32//32 33//33 23//23
f 32//32 31//31 33//33
f 35//35 31//31 32//32
f 35//35 34//34 31//31
f 26//26 34//34 35//35
f 26//26 29//29 34//34
f 7//7 36//36 12//12
f 7//7 41//41 36//36
f 42//42 41//41 7//7
f 42//42 43//43 41//41
f 56//56 43//43 42//42
f 56//56 62//62 43//43
f 61//61 62//62 56//56
f 61//61 50//50 62//62
f 49//49 50//50 61//61
f 49//49 48//48 50//50
f 116//129 113//131 114//130
f 116//129 103//113 113//131
f 117//132 103//113 116//129
f 117//132 104//114 103//113
f 105//115 104//114 117//132
f 105//115 106//116 104//114
f 108//118 106//116 105//115
f 108//118 107//117 106//116
f 87//97 40//40 24//24
f 87//97 94//104 40//40
f 93//103 94//104 87//97
f 93//103 92//102 94//104
f 98//108 92//102 93//103
f 98//108 97//107 92//102
f 95//105 97//107 98//108
f 95//105 77//87 97//107
f 83//93 79//89 75//85
f 83//93 81//91 79//89
f 82//92 81//91 83//93
f 82//92 21//21 81//91
f 65//73 21//21 82//92
f 65//73 20//20 21//21
f 64//74 20//20 65//73
f 67//77 66//76 68//78
f 67//77 69//79 66//76
f 70//80 69//79 67//77
f 70//80 71//81 69//79
f 72//82 71//81 70//80
f 72//82 73//83 71//81
f 121//148 106//150 107//151
f 121//148 104//157 106//150
f 112//123 104//157 121//148
f 112//123 102//124 104//157
f 101//122 102//124 112//123
f 97//107 90//100 92//102
f 97//107 80//90 90//100
f 77//87 80//90 97//107
f 77//87 76//86 80//90
f 3//3 1//1 19//19
f 3//3 2//2 1//1
f 5//5 2//2 3//3
f 5//5 11//11 2//2
f 2//2 4//4 1//1
f 2//2 9//9 4//4
f 11//11 9//9 2//2
f 11//11 13//13 9//9
f 63//63 64//69 119//135
f 63//63 20//64 64//69
f 16//65 20//64 63//63
f 63//63 10//67 16//65
f 63//63 4//66 10//67
f 1//68 4//66 63//63
f 103//113 101//111 113//131
f 103//113 102//112 101//111
f 104//114 102//112 103//113
f 119//135 66//138 85//143
f 119//135 68//137 66//138
f 75//136 68//137 119//135
f 112//123 42//156 7//156
f 112//156 56//154 42//155
f 61//123 56//123 112//155
f 112//123 49//152 61//154
f 112//123 48//153 49//152
f 47//158 48//153 112//123
f 54//69 121//148 107//149
f 54//69 120//145 121//148
f 52//144 120//145 54//69
f 120//145 112//123 121//148
f 120//145 47//158 112//123
f 51//146 47//158 120//145
f 119//135 83//134 75//136
f 119//135 82//139 83//134
f 64//69 82//139 119//135
f 76//86 78//88 80//90
f 76//86 74//84 78//88
f 100//127 112//123 72//127
f 100//126 114//123 112//126
f 69//79 85//95 66//76
f 69//79 71//81 85//95
f 73//140 119//140 85//142
f 73//140 72//142 119//141
f 63//71 8//71 19//72
f 63//71 7//72 8//70
f 21//21 84//94 81//91
f 21//21 22//22 84//94
f 30//30 29//29 18//18
f 30//30 34//34 29//29
f 113//125 112//123 114//126
f 113//125 101//122 112//123
f 43//43 59//59 41//41
f 43//43 62//62 59//59
f 62//62 45//45 59//59
f 62//62 50//50 45//45
f 50//50 47//47 45//45
f 50//50 48//48 47//47
f 22//22 89//99 84//94
f 22//22 27//27 89//99
f 6//6 3//3 19//19
f 6//6 5//5 3//3
f 27//27 88//98 89//99
f 27//27 28//28 88//98
f 14//14 9//9 13//13
f 14//14 10//10 9//9
f 120//145 52//147 51//146
f 1//68 63//63 19//75
f 99//109 100//110 72//82
f 82//92 64//74 65//73
f 73//83 85//95 71//81
f 4//4 9//9 10//10
# 235 faces

