# RFL_Res.dat Editor OBJ Exporter v1.3 - (c) 2018 Atlas Vryzas Software

#
# object hair
#

v  29.25098 35.72157 14.81176
v  25.84314 25.13333 15.23529
v  23.51765 32.6549 21.54118
v  28.83137 27.12157 11.66667
v  28.30196 28.38431 6.792157
v  28.51373 37.84706 5.627451
v  28.6549 44.28235 16.86275
v  20.89804 41.06274 25.75294
v  26.81961 48.15294 4.501961
v  26.24706 52.57647 17.67843
v  18.10588 49.92941 27.32549
v  22.14118 56.62353 4
v  19.65098 62.79216 16.40392
v  13.57647 60.04314 25.97255
v  16.46275 62.85098 4.501961
v  27.8 18.70588 7.647059
v  11.65098 33.98039 2.690196
v  9.701961 68.62353 13.7098
v  5.960784 65.38039 20.44314
v  8.996078 66.83138 5.941176
v  0 69.12157 6.854902
v  0 65.86667 19.9451
v  4.686275 -3.223529 -47.94902
v  7.654902 -2.701961 -38.4353
v  7.654902 2.847059 -43.98431
v  4.686275 -6.623529 -44.54902
v  0 5.619608 -46.75686
v  0 -1.529412 -49.64314
v  0 -5.47451 -35.65882
v  0 -8.317647 -42.8549
v  8.309804 2.058824 -33.15686
v  8.309804 8.078431 -39.17647
v  0 11.0902 -42.18824
v  0 -0.9529412 -30.1451
v  6.737255 12.5098 -33.56863
v  6.737255 7.627451 -28.68627
v  0 14.94902 -36.00392
v  0 5.184314 -26.24314
v  2.866667 12.6549 -23.83529
v  4.584314 14.05098 -25.47843
v  0 17.6902 -28.71373
v  3.015686 16.11373 -27.31765
v  0 12.43922 -23.45882
v  0 -9.921569 -51.28627
v  0 69.24313 -6.309804
v  10.60392 67.4902 -6
v  0 9.631372 -19.10196
v  11.3098 22.57647 -29.83922
v  0 22.01569 -31.37255
v  10.67059 10.89412 -18.37647
v  19.78823 24.19608 -25.38039
v  18.67059 15.55686 -13.8902
v  11.3098 33.43922 -33.51765
v  0 33.43922 -35.24314
v  10.60392 45.50588 -33.15294
v  0 46.12549 -34.86274
v  0 65.56863 -18.54902
v  10.60392 63.99608 -17.63922
v  19.77647 43.87451 -26.6
v  18.76471 58.18431 -15.83922
v  10.60392 56.11765 -27.02353
v  24 21.9098 -9.019608
v  26.12941 33.43922 -16
v  25.44314 44.26274 -12.90196
v  26.30196 33.43922 0
v  0 57.33725 -28.60784
v  24 33.43922 9.027451
v  24 46.22353 9.027451
v  -25.83922 25.13333 15.23529
v  -29.24706 35.72157 14.81176
v  -23.51373 32.6549 21.54118
v  -28.82745 27.12157 11.66667
v  -28.29804 28.38431 6.792157
v  -28.5098 37.84706 5.627451
v  -28.65098 44.28235 16.86275
v  -20.89412 41.06274 25.75294
v  -26.81569 48.15294 4.501961
v  -26.24314 52.57647 17.67843
v  -18.10196 49.92941 27.32549
v  -22.13725 56.62353 4
v  -19.64706 62.79216 16.40392
v  -13.57255 60.04314 25.97255
v  -16.45882 62.85098 4.501961
v  -27.79608 18.70588 7.647059
v  -11.64706 33.98039 2.690196
v  -9.698039 68.62353 13.7098
v  -5.956863 65.38039 20.44314
v  -8.992157 66.83138 5.941176
v  -7.65098 -2.701961 -38.4353
v  -4.682353 -3.223529 -47.94902
v  -7.65098 2.847059 -43.98431
v  -4.682353 -6.623529 -44.54902
v  -8.305882 2.058824 -33.15686
v  -8.305882 8.078431 -39.17647
v  -6.733333 12.5098 -33.56863
v  -6.733333 7.627451 -28.68627
v  -4.580392 14.05098 -25.47843
v  -2.862745 12.6549 -23.83529
v  -3.011765 16.11373 -27.31765
v  -10.6 67.4902 -6
v  -11.30588 22.57647 -29.83922
v  -10.66667 10.89412 -18.37647
v  -19.78431 24.19608 -25.38039
v  -18.66667 15.55686 -13.8902
v  -11.30588 33.43922 -33.51765
v  -10.6 45.50588 -33.15294
v  -10.6 63.99608 -17.63922
v  -19.77255 43.87451 -26.6
v  -18.76078 58.18431 -15.83922
v  -10.6 56.11765 -27.02353
v  -26.12549 33.43922 -16
v  -24 21.9098 -9.019608
v  -25.43922 44.26274 -12.90196
v  -26.29804 33.43922 0
v  -24 33.43922 9.027451
v  -24 46.22353 9.027451
# 116 vertices

vn 0.9601103 -0.09332108 0.2636642
vn 0.8018995 -0.2677696 0.5341299
vn 0.7803309 -0.1360294 0.6104779
vn 0.961826 -0.1715074 0.2135417
vn 0.9936274 -0.03455883 -0.1073529
vn 0.9943015 0.06758578 -0.08265931
vn 0.9454657 0.08817402 0.3137255
vn 0.7467524 0.05955882 0.6625
vn 0.9754902 0.2191789 0.02003676
vn 0.8732843 0.3720588 0.3148897
vn 0.6991422 0.3335784 0.6324142
vn 0.8133578 0.5695466 -0.1185662
vn 0.691973 0.6845588 0.2293505
vn 0.4470588 0.7139093 0.5390931
vn 0.609375 0.7862132 -0.1030025
vn -0.7074755 -0.5955882 0.3802696
vn -0.4573529 -0.6724877 -0.5817402
vn -0.6902574 -0.6814338 0.243076
vn 0.2798407 0.9517157 0.1265931
vn 0.02598039 0.9275735 0.3727941
vn 0.3125613 0.9482231 -0.05716912
vn 0 0.9958333 0.09142157
vn 0 0.9704044 0.2414828
vn 0.9579044 -0.2105392 0.1952206
vn 0.2026961 -0.1103554 -0.9729779
vn 0.193076 -0.1 -0.9760417
vn -0.7411765 -0.5150123 0.4305147
vn -0.8003677 -0.4022059 0.4444853
vn -0.4360294 -0.5014706 0.7473039
vn 0 -0.4971201 0.8677083
vn -0.7810662 -0.3827819 0.4933824
vn -0.8384804 -0.3299632 0.4336397
vn 0.7447917 -0.01531863 -0.6671569
vn 0.8162377 -0.553125 0.1666054
vn 0.8330269 0.2112745 -0.5112745
vn 0.6775735 -0.734375 0.03958333
vn 0 0.4675245 -0.8840073
vn 0 0.2840073 -0.9587622
vn 0 -0.8876225 0.4606005
vn 0 -0.9606618 0.2776348
vn 0.8915441 -0.2479167 0.3791054
vn 0.7795343 0.5110907 -0.3621936
vn 0 0.7183211 -0.6957721
vn 0 -0.7018995 0.7123162
vn 0.8123162 0.5802696 -0.05943627
vn 0.7991422 -0.1425245 0.5840687
vn 0 0.8817402 -0.4717525
vn 0 -0.4745711 0.8802083
vn 0.4588235 -0.3045956 0.8347427
vn 0.8920956 0.2795956 0.3549632
vn 0 0.9596814 -0.2811275
vn 0.6516544 0.7569853 -0.04914216
vn 0 -0.3585172 0.9335784
vn 0 -0.7058824 -0.7082108
vn 0 0.9977328 -0.06838235
vn 0.3972426 0.9098039 -0.120527
vn 0.2790441 -0.546875 -0.7893382
vn 0 -0.4590686 -0.8883578
vn 0.4128064 -0.6821691 -0.6034926
vn 0.7320465 -0.3760417 -0.568076
vn 0.735049 -0.5743873 -0.3601716
vn 0.3792279 -0.1503676 -0.9129902
vn 0 -0.08523284 -0.9963235
vn 0.3454044 0.216299 -0.913174
vn 0 0.3479167 -0.9375
vn 0 0.9121937 -0.4098039
vn 0.3495098 0.804902 -0.4796569
vn 0.7623774 0.204473 -0.6139706
vn 0.7666054 0.5798407 -0.2759191
vn 0.4058211 0.5624387 -0.7204044
vn 0.9201593 -0.3405637 -0.1935049
vn 0.9650123 -0.06703431 -0.2537377
vn 0.958946 0.1967525 -0.2044118
vn 0.9974877 -0.06121324 0.03743872
vn 0 0.6862745 -0.7273284
vn 0.9183823 -0.05514706 0.3920343
vn 0.8490809 0 0.5283088
vn 0.1880515 -0.0759804 -0.9791667
vn -0.8018382 -0.2677696 0.5341299
vn -0.960049 -0.09332108 0.2636642
vn -0.7802696 -0.1360294 0.6104779
vn -0.9617647 -0.1715074 0.2135417
vn -0.9935662 -0.03455883 -0.1073529
vn -0.9942402 0.06758578 -0.08265931
vn -0.9454044 0.08817402 0.3137255
vn -0.7466912 0.05955882 0.6625
vn -0.9754289 0.2191789 0.02003676
vn -0.8732231 0.3720588 0.3148897
vn -0.6990809 0.3335784 0.6324142
vn -0.8132966 0.5695466 -0.1185662
vn -0.6919118 0.6845588 0.2293505
vn -0.4469976 0.7139093 0.5390931
vn -0.609375 0.7862132 -0.1030025
vn 0.4574142 -0.6724877 -0.5817402
vn 0.7075368 -0.5955882 0.3802696
vn 0.6903186 -0.6814338 0.243076
vn -0.2797794 0.9517157 0.1265931
vn -0.02591912 0.9275735 0.3727941
vn -0.3125 0.9482231 -0.05716912
vn -0.9578431 -0.2105392 0.1952206
vn -0.2026348 -0.1103554 -0.9729779
vn -0.1930147 -0.1 -0.9760417
vn 0.7412378 -0.5150123 0.4305147
vn 0.8004289 -0.4022059 0.4444853
vn 0.4360907 -0.5014706 0.7473039
vn 0.7811275 -0.3827819 0.4933824
vn 0.8385417 -0.3299632 0.4336397
vn -0.8161765 -0.553125 0.1666054
vn -0.7447304 -0.01531863 -0.6671569
vn -0.8329657 0.2112745 -0.5112745
vn -0.6775122 -0.734375 0.03958333
vn -0.8914828 -0.2479167 0.3791054
vn -0.7794731 0.5110907 -0.3621936
vn -0.8122549 0.5802696 -0.05943627
vn -0.7990809 -0.1425245 0.5840687
vn -0.8920343 0.2795956 0.3549632
vn -0.4587623 -0.3045956 0.8347427
vn -0.6515931 0.7569853 -0.04914216
vn -0.3971814 0.9098039 -0.120527
vn -0.2789828 -0.546875 -0.7893382
vn -0.4127451 -0.6821691 -0.6034926
vn -0.7319853 -0.3760417 -0.568076
vn -0.7349877 -0.5743873 -0.3601716
vn -0.3791667 -0.1503676 -0.9129902
vn -0.3453431 0.216299 -0.913174
vn -0.3494485 0.804902 -0.4796569
vn -0.7623162 0.204473 -0.6139706
vn -0.7665441 0.5798407 -0.2759191
vn -0.4057598 0.5624387 -0.7204044
vn -0.964951 -0.06703431 -0.2537377
vn -0.9200981 -0.3405637 -0.1935049
vn -0.9588848 0.1967525 -0.2044118
vn -0.9974265 -0.06121324 0.03743872
vn -0.9183211 -0.05514706 0.3920343
vn -0.8490196 0 0.5283088
vn -0.1879902 -0.0759804 -0.9791667
# 136 vertex normals

# 0 texture coords

g hair
f 95//114 97//116 99//118
f 95//114 96//115 97//116
f 93//112 96//115 95//114
f 93//112 38//48 96//115
f 34//44 38//48 93//112
f 34//44 31//41 38//48
f 24//34 31//41 34//44
f 24//34 25//35 31//41
f 23//33 25//35 24//34
f 23//33 27//37 25//35
f 28//38 27//37 23//33
f 28//38 90//109 27//37
f 44//54 90//109 28//38
f 44//54 92//111 90//109
f 30//40 92//111 44//54
f 30//40 29//39 92//111
f 26//36 29//39 30//40
f 26//36 24//34 29//39
f 23//33 24//34 26//36
f 77//87 115//134 116//135
f 77//87 114//133 115//134
f 113//132 114//133 77//87
f 113//132 111//130 114//133
f 108//127 111//130 113//132
f 108//127 103//122 111//130
f 105//124 103//122 108//127
f 105//124 101//120 103//122
f 49//58 101//120 105//124
f 49//58 47//54 101//120
f 48//57 47//54 49//58
f 48//57 50//59 47//54
f 51//60 50//59 48//57
f 51//60 52//61 50//59
f 62//71 52//61 51//60
f 109//128 108//127 113//132
f 109//128 110//129 108//127
f 107//126 110//129 109//128
f 107//126 66//75 110//129
f 57//66 66//75 107//126
f 57//66 58//67 66//75
f 46//56 58//67 57//66
f 46//56 60//69 58//67
f 15//15 60//69 46//56
f 15//15 12//12 60//69
f 13//13 12//12 15//15
f 13//13 10//10 12//12
f 11//11 10//10 13//13
f 11//11 8//8 10//10
f 13//13 14//14 11//11
f 13//13 18//19 14//14
f 15//15 18//19 13//13
f 15//15 20//21 18//19
f 46//56 20//21 15//15
f 46//56 45//55 20//21
f 57//66 45//55 46//56
f 57//66 100//119 45//55
f 107//126 100//119 57//66
f 107//126 109//128 100//119
f 56//65 106//125 110//129
f 56//65 54//63 106//125
f 55//64 54//63 56//65
f 55//64 53//62 54//63
f 59//68 53//62 55//64
f 59//68 51//60 53//62
f 63//72 51//60 59//68
f 63//72 62//71 51//60
f 65//74 62//71 63//72
f 34//44 29//39 24//34
f 34//44 89//108 29//39
f 93//112 89//108 34//44
f 93//112 91//110 89//108
f 94//113 91//110 93//112
f 94//113 33//43 91//110
f 37//47 33//43 94//113
f 37//47 32//42 33//43
f 89//108 92//111 29//39
f 89//108 90//109 92//111
f 91//110 90//109 89//108
f 91//110 27//37 90//109
f 33//43 27//37 91//110
f 33//43 25//35 27//37
f 32//42 25//35 33//43
f 38//48 43//53 98//117
f 38//48 39//49 43//53
f 36//46 39//49 38//48
f 36//46 40//50 39//49
f 35//45 40//50 36//46
f 35//45 42//52 40//50
f 41//51 42//52 35//45
f 106//125 108//127 110//129
f 106//125 105//124 108//127
f 54//63 105//124 106//125
f 54//63 49//58 105//124
f 53//62 49//58 54//63
f 53//62 48//57 49//58
f 51//60 48//57 53//62
f 4//4 16//24 5//5
f 4//4 2//2 16//24
f 1//1 2//2 4//4
f 1//1 3//3 2//2
f 7//7 3//3 1//1
f 7//7 8//8 3//3
f 10//10 8//8 7//7
f 77//87 109//128 113//132
f 77//87 80//90 109//128
f 78//88 80//90 77//87
f 78//88 81//91 80//90
f 79//89 81//91 78//88
f 79//89 82//92 81//91
f 41//51 95//114 99//118
f 41//51 37//47 95//114
f 35//45 37//47 41//51
f 35//45 32//42 37//47
f 31//41 32//42 35//45
f 31//41 25//35 32//42
f 61//70 55//64 56//65
f 61//70 59//68 55//64
f 60//69 59//68 61//70
f 60//69 64//73 59//68
f 9//9 64//73 60//69
f 9//9 65//74 64//73
f 21//22 22//23 19//20
f 21//22 87//98 22//23
f 86//97 87//98 21//22
f 86//97 82//92 87//98
f 81//91 82//92 86//97
f 83//93 109//128 80//90
f 83//93 100//119 109//128
f 88//99 100//119 83//93
f 88//99 45//55 100//119
f 21//22 45//55 88//99
f 7//7 9//9 10//10
f 7//7 6//6 9//9
f 1//1 6//6 7//7
f 1//1 5//5 6//6
f 4//4 5//5 1//1
f 103//122 104//123 112//131
f 103//122 102//121 104//123
f 101//120 102//121 103//122
f 101//120 47//54 102//121
f 18//19 19//20 14//14
f 18//19 21//22 19//20
f 20//21 21//22 18//19
f 20//21 45//55 21//22
f 70//80 69//79 71//81
f 70//80 72//82 69//79
f 73//83 72//82 70//80
f 73//83 84//100 72//82
f 75//85 71//81 76//86
f 75//85 70//80 71//81
f 74//84 70//80 75//85
f 74//84 73//83 70//80
f 78//88 76//86 79//89
f 78//88 75//85 76//86
f 77//87 75//85 78//88
f 77//87 74//84 75//85
f 66//75 56//65 110//129
f 66//75 61//70 56//65
f 58//67 61//70 66//75
f 58//67 60//69 61//70
f 85//96 79//107 76//104
f 85//96 82//106 79//107
f 87//105 82//106 85//96
f 17//18 19//29 22//30
f 17//18 14//31 19//29
f 11//32 14//31 17//18
f 17//18 8//28 11//32
f 17//18 3//27 8//28
f 2//16 3//27 17//18
f 44//54 26//36 30//40
f 44//54 23//33 26//36
f 28//38 23//33 44//54
f 85//96 74//102 77//136
f 85//96 73//101 74//102
f 84//94 73//101 85//96
f 85//96 69//95 84//94
f 85//96 71//103 69//95
f 76//104 71//103 85//96
f 111//130 112//131 114//133
f 111//130 103//122 112//131
f 94//113 95//114 37//47
f 94//113 93//112 95//114
f 88//99 86//97 21//22
f 88//99 83//93 86//97
f 83//93 81//91 86//97
f 83//93 80//90 81//91
f 31//41 36//46 38//48
f 31//41 35//45 36//46
f 96//115 98//117 97//116
f 96//115 38//48 98//117
f 16//17 17//18 5//25
f 16//17 2//16 17//18
f 67//76 9//9 68//77
f 67//76 65//74 9//9
f 12//12 9//9 60//69
f 12//12 10//10 9//9
f 63//72 64//73 65//74
f 63//72 59//68 64//73
f 6//26 17//18 9//78
f 6//26 5//25 17//18
f 85//96 22//30 87//105
f 85//96 17//18 22//30
f 72//82 84//100 69//79
# 203 faces

