# RFL_Res.dat Editor OBJ Exporter v1.3 - (c) 2018 Atlas Vryzas Software

#
# object hair
#

v  19.78823 24.19608 -25.38039
v  11.3098 22.57647 -29.83922
v  10.67059 10.89412 -18.37647
v  11.3098 33.43922 -33.51765
v  0 69.24313 -6.309804
v  10.60392 66.44706 5.823529
v  0 68.1451 6.121569
v  10.60392 67.4902 -6
v  9.419608 59 23
v  20 57.34902 16
v  20.03529 51.99608 24.90196
v  10.32157 62.37647 17.63922
v  0 65.56863 -18.54902
v  10.60392 63.99608 -17.63922
v  0 59 23
v  0 63.41569 17.19216
v  13 47 30.04706
v  8 55 28.42745
v  18.76471 61.06274 4.870588
v  18.76471 58.18431 -15.83922
v  25.44314 52.96078 -2.866667
v  26.85882 43.04314 21.62745
v  26.84706 49.78039 12.17255
v  19.78823 43.70588 -26.39216
v  25.44314 44.26274 -12.90196
v  10.60392 56.11765 -27.02353
v  0 57.28627 -28.41961
v  10.60392 45.50588 -33.15294
v  0 46.12549 -34.86274
v  26.12941 33.43922 -16
v  19 38 27.07059
v  28.46667 37.58039 -1.984314
v  26.77255 26 -2
v  29.92941 30.27059 5.278431
v  24 21.9098 -9.019608
v  26.13725 27 11
v  24 31 20.13725
v  30.38824 35.48627 14.37647
v  29.67451 42.15294 6.960784
v  8 51 -3.682353
v  18.67059 15.55686 -13.8902
v  0 51 22.92157
v  0 9.631372 -19.10196
v  -11.30588 22.57647 -29.83922
v  -19.78431 24.19608 -25.38039
v  -10.66667 10.89412 -18.37647
v  -11.30588 33.43922 -33.51765
v  -10.6 66.44706 5.823529
v  -10.6 67.4902 -6
v  -9.415687 59 23
v  -20 57.34902 16
v  -10.31765 62.37647 17.63922
v  -20.03137 51.99608 24.90196
v  -10.6 63.99608 -17.63922
v  -8 55 28.42745
v  -13 47 30.04706
v  -18.76078 58.18431 -15.83922
v  -18.76078 61.06274 4.870588
v  -25.43922 52.96078 -2.866667
v  -26.8549 43.04314 21.62745
v  -26.84314 49.78039 12.17255
v  -19.78431 43.70588 -26.39216
v  -25.43922 44.26274 -12.90196
v  -10.6 56.11765 -27.02353
v  -10.6 45.50588 -33.15294
v  -26.12549 33.43922 -16
v  -19 38 27.07059
v  -26.76863 26 -2
v  -28.46275 37.58039 -1.984314
v  -29.92549 30.27059 5.278431
v  -24 21.9098 -9.019608
v  -26.13333 27 11
v  -24 31 20.13725
v  -30.38431 35.48627 14.37647
v  -29.67059 42.15294 6.960784
v  -8 51 -3.682353
v  -18.66667 15.55686 -13.8902
v  0 22.01569 -31.37255
v  0 33.43922 -35.24314
v  -8.105883 21.18824 -31.2
v  0 24.32941 -26.84706
v  0 18.07843 -29.65882
v  -4.682353 26.11373 -27.88627
v  -8.105883 36.38432 -36.60784
v  -6.619608 30.52157 -29.19608
v  -11.46667 28.80392 -33.72941
v  0 39.52941 -37.8
v  -4.682353 34.90196 -30.85882
v  0 36.71373 -31.5451
v  11.47059 28.80392 -33.72941
v  4.686275 34.90196 -30.85882
v  8.109804 36.38432 -36.60784
v  8.109804 21.18824 -31.2
v  6.623529 30.52157 -29.19608
v  4.686275 26.11373 -27.88627
v  -9.364706 17.69804 -36.6
v  0 14.07059 -35.21961
v  -9.364706 35.20784 -43.24314
v  -13.24314 26.4549 -39.92157
v  0 38.83921 -44.61961
v  13.24706 26.4549 -39.92157
v  9.368628 35.20784 -43.24314
v  9.368628 17.69804 -36.6
v  -8.105883 16.52157 -43.23529
v  0 13.38039 -42.04314
v  -8.105883 31.6902 -48.99216
v  -11.46667 24.10196 -46.1098
v  0 34.83137 -50.18039
v  11.47059 24.10196 -46.1098
v  8.109804 31.6902 -48.99216
v  8.109804 16.52157 -43.23529
v  -4.682353 18.00392 -48.98431
v  0 16.19216 -48.29412
v  -4.682353 26.73333 -52.6549
v  -6.619608 22.38431 -50.64706
v  0 28.57647 -53
v  6.623529 22.38431 -50.64706
v  4.686275 26.73333 -52.6549
v  4.686275 18.00392 -48.98431
v  0 21.75686 -52.30196
# 120 vertices

vn 0.7327206 -0.3744485 -0.5682598
vn 0.2790441 -0.546875 -0.7893382
vn 0.4128064 -0.6821691 -0.6034926
vn 0.3825368 -0.1492034 -0.9117647
vn 0 0.999326 -0.03786765
vn 0.3539216 0.9170956 0.1840073
vn 0 0.9620711 0.2729779
vn 0.4074142 0.9041666 -0.1286765
vn 0.2227941 0.7908701 0.570098
vn 0.6281863 0.7017157 0.3363358
vn 0.5420343 0.460049 0.7033088
vn 0.2534314 0.8681985 0.4267157
vn 0 0.9104779 -0.4135417
vn 0.3466912 0.8044118 -0.4824755
vn 0 0.6183823 0.7859069
vn 0 0.8569853 0.5155025
vn 0.4543505 0.2434436 0.8569853
vn 0.0403799 0.5479167 0.8356005
vn 0.6911152 0.7213848 0.04473039
vn 0.7403799 0.5865809 -0.3283701
vn 0.9050858 0.4058824 -0.1273284
vn 0.814951 0.1613358 0.556679
vn 0.8821079 0.4477941 0.1465074
vn 0.7645221 0.203125 -0.6117647
vn 0.9284314 0.2345588 -0.2882353
vn 0.4047794 0.5634804 -0.7201593
vn 0 0.6867034 -0.7269608
vn 0.3517157 0.215625 -0.9109069
vn 0 0.3528186 -0.9357231
vn 0.9512255 -0.08792892 -0.2958946
vn 0.5845588 -0.02107843 0.811152
vn 0.9793505 0.04044118 -0.1983456
vn 0.9334559 -0.3279412 -0.1454044
vn 0.9615809 -0.2708946 -0.04515931
vn 0.8929535 -0.3715686 -0.2539828
vn 0.7719976 -0.5835784 0.2518995
vn 0.7251226 -0.3495098 0.5934436
vn 0.95 -0.1359069 0.28125
vn 0.9824755 0.1755515 -0.06397059
vn -0.8074142 -0.5889706 0.03474265
vn -0.6356618 -0.7612745 0.1278799
vn -0.8064338 -0.5893995 0.046875
vn -0.3097427 -0.9435049 0.1175858
vn -0.8375 -0.543076 0.05980392
vn 0.735049 -0.5743873 -0.3601716
vn 0 -0.9967524 0.08039216
vn 0 -0.703799 -0.7102941
vn -0.7745711 -0.5620711 0.2900122
vn 0 -0.01011029 1
vn -0.2789828 -0.546875 -0.7893382
vn -0.7326593 -0.3744485 -0.5682598
vn -0.4127451 -0.6821691 -0.6034926
vn -0.3824755 -0.1492034 -0.9117647
vn -0.3538603 0.9170956 0.1840073
vn -0.407353 0.9041666 -0.1286765
vn -0.2227328 0.7908701 0.570098
vn -0.628125 0.7017157 0.3363358
vn -0.2533701 0.8681985 0.4267157
vn -0.5419731 0.460049 0.7033088
vn -0.3466299 0.8044118 -0.4824755
vn -0.04031863 0.5479167 0.8356005
vn -0.4542892 0.2434436 0.8569853
vn -0.7403187 0.5865809 -0.3283701
vn -0.6910539 0.7213848 0.04473039
vn -0.9050245 0.4058824 -0.1273284
vn -0.8148897 0.1613358 0.556679
vn -0.8820466 0.4477941 0.1465074
vn -0.7644608 0.203125 -0.6117647
vn -0.9283701 0.2345588 -0.2882353
vn -0.4047181 0.5634804 -0.7201593
vn -0.3516544 0.215625 -0.9109069
vn -0.9511642 -0.08792892 -0.2958946
vn -0.5844976 -0.02107843 0.811152
vn -0.9333946 -0.3279412 -0.1454044
vn -0.9792892 0.04044118 -0.1983456
vn -0.9615196 -0.2708946 -0.04515931
vn -0.8928922 -0.3715686 -0.2539828
vn -0.7719363 -0.5835784 0.2518995
vn -0.7250613 -0.3495098 0.5934436
vn -0.9499387 -0.1359069 0.28125
vn -0.9824142 0.1755515 -0.06397059
vn 0.6357231 -0.7612745 0.1278799
vn 0.8074755 -0.5889706 0.03474265
vn 0.8064951 -0.5893995 0.046875
vn 0.3098039 -0.9435049 0.1175858
vn 0.8375612 -0.543076 0.05980392
vn -0.7349877 -0.5743873 -0.3601716
vn 0.7746323 -0.5620711 0.2900122
vn 0 -0.4590686 -0.8883578
vn 0.6857843 -0.4778799 0.5490196
vn -0.6857231 -0.4778799 0.5490196
vn 0 -0.08523284 -0.9963235
vn -0.6285539 -0.3707108 0.6837623
vn -0.1075368 -0.3977941 0.9111519
vn -0.006740196 -0.6231005 0.7821078
vn -0.5669118 -0.1622549 0.8076593
vn -0.5990196 0.7606618 0.2501838
vn -0.7047794 0.3253064 0.6304534
vn -0.8627451 0.1798407 0.4724877
vn 0.01654412 0.9862132 0.1646446
vn -0.4289216 0.7792279 0.4571078
vn 0.09718137 0.9076593 0.4083333
vn 0.861826 0.1574142 0.4822917
vn 0.5663603 0.6507353 0.5058824
vn 0.6224265 0.7387868 0.2585171
vn 0.592402 -0.4045343 0.6968137
vn 0.6948529 0.1365196 0.7061275
vn 0.4427696 -0.2800858 0.8518382
vn -0.7095588 -0.6558211 0.257598
vn 0.002818628 -0.9334559 0.3587623
vn -0.7070466 0.6611519 -0.2507966
vn -1 -0.0007352941 0.003492647
vn 0 0.9349877 -0.3547181
vn 1 0 0
vn 0.7071078 0.6611519 -0.2507966
vn 0.7054535 -0.6596814 0.2590074
vn -0.5990196 -0.7606005 -0.2501225
vn 0.01654412 -0.9861519 -0.1645833
vn -0.620527 0.3977329 -0.6757966
vn -0.8664829 -0.1992034 -0.4576593
vn -0.02506127 0.6341299 -0.7727941
vn 0.8637255 -0.1632353 -0.4768382
vn 0.610049 0.4071078 -0.6797794
vn 0.6224265 -0.7387255 -0.2584559
vn -0.3402573 -0.6945466 -0.6338235
vn 0.05968137 -0.8032476 -0.5925858
vn -0.4167892 0.01415441 -0.9088235
vn -0.5400735 -0.3760417 -0.7528186
vn -0.06390931 0.2226716 -0.9727328
vn 0.5518995 -0.2597426 -0.792402
vn 0.3315564 0.09252451 -0.938848
vn 0.4245711 -0.6157476 -0.6637255
vn 0 -0.3713848 -0.9284314
# 133 vertex normals

# 0 texture coords

g hair
f 15//15 55//61 42//49
f 15//15 50//56 55//61
f 16//16 50//56 15//15
f 16//16 52//58 50//56
f 7//7 52//58 16//16
f 7//7 48//54 52//58
f 5//5 48//54 7//7
f 5//5 49//55 48//54
f 13//13 49//55 5//5
f 13//13 54//60 49//55
f 27//27 54//60 13//13
f 27//27 64//70 54//60
f 29//29 64//70 27//27
f 29//29 65//71 64//70
f 79//92 65//71 29//29
f 79//92 47//53 65//71
f 78//89 47//53 79//92
f 78//89 44//50 47//53
f 43//47 44//50 78//89
f 43//47 46//52 44//50
f 90//103 91//104 94//107
f 90//103 92//105 91//104
f 101//114 92//105 90//103
f 101//114 102//115 92//105
f 109//122 102//115 101//114
f 109//122 110//123 102//115
f 117//130 110//123 109//122
f 117//130 118//131 110//123
f 120//133 118//131 117//130
f 120//133 116//129 118//131
f 114//127 116//129 120//133
f 114//127 106//119 116//129
f 107//120 106//119 114//127
f 107//120 99//112 106//119
f 96//109 99//112 107//120
f 96//109 80//93 99//112
f 82//95 80//93 96//109
f 82//95 81//94 80//93
f 95//108 81//94 82//95
f 18//18 15//15 42//49
f 18//18 9//9 15//15
f 11//11 9//9 18//18
f 11//11 10//10 9//9
f 22//22 10//10 11//11
f 22//22 23//23 10//10
f 38//38 23//23 22//22
f 38//38 39//39 23//23
f 34//34 39//39 38//38
f 34//34 32//32 39//39
f 33//33 32//32 34//34
f 33//33 30//30 32//32
f 35//35 30//30 33//33
f 35//35 1//1 30//30
f 41//45 1//1 35//35
f 41//45 3//3 1//1
f 9//9 16//16 15//15
f 9//9 12//12 16//16
f 10//10 12//12 9//9
f 10//10 6//6 12//12
f 19//19 6//6 10//10
f 19//19 8//8 6//6
f 20//20 8//8 19//19
f 20//20 14//14 8//8
f 26//26 14//14 20//20
f 26//26 27//27 14//14
f 29//29 27//27 26//26
f 68//74 66//72 71//77
f 68//74 69//75 66//72
f 70//76 69//75 68//74
f 70//76 75//81 69//75
f 74//80 75//81 70//76
f 74//80 61//67 75//81
f 60//66 61//67 74//80
f 60//66 51//57 61//67
f 53//59 51//57 60//66
f 53//59 50//56 51//57
f 55//61 50//56 53//59
f 93//106 94//107 95//108
f 93//106 90//103 94//107
f 103//116 90//103 93//106
f 103//116 101//114 90//103
f 111//124 101//114 103//116
f 111//124 109//122 101//114
f 119//132 109//122 111//124
f 119//132 117//130 109//122
f 120//133 117//130 119//132
f 92//105 89//102 91//104
f 92//105 87//100 89//102
f 102//115 87//100 92//105
f 102//115 100//113 87//100
f 110//123 100//113 102//115
f 110//123 108//121 100//113
f 118//131 108//121 110//123
f 118//131 116//129 108//121
f 82//95 93//106 95//108
f 82//95 97//110 93//106
f 96//109 97//110 82//95
f 96//109 104//117 97//110
f 107//120 104//117 96//109
f 107//120 115//128 104//117
f 114//127 115//128 107//120
f 114//127 120//133 115//128
f 72//78 70//76 68//74
f 72//78 74//80 70//76
f 73//79 74//80 72//78
f 73//79 60//66 74//80
f 67//73 60//66 73//79
f 67//73 53//59 60//66
f 56//62 53//59 67//73
f 56//62 55//61 53//59
f 66//72 45//51 71//77
f 66//72 62//68 45//51
f 63//69 62//68 66//72
f 63//69 57//63 62//68
f 59//65 57//63 63//69
f 59//65 58//64 57//63
f 61//67 58//64 59//65
f 61//67 51//57 58//64
f 106//119 108//121 116//129
f 106//119 98//111 108//121
f 99//112 98//111 106//119
f 99//112 86//99 98//111
f 80//93 86//99 99//112
f 80//93 83//96 86//99
f 81//94 83//96 80//93
f 97//110 103//116 93//106
f 97//110 105//118 103//116
f 104//117 105//118 97//110
f 104//117 112//125 105//118
f 115//128 112//125 104//117
f 115//128 120//133 112//125
f 78//89 2//2 43//47
f 78//89 4//4 2//2
f 79//92 4//4 78//89
f 79//92 28//28 4//4
f 29//29 28//28 79//92
f 29//29 26//26 28//28
f 2//2 3//3 43//47
f 2//2 1//1 3//3
f 4//4 1//1 2//2
f 4//4 24//24 1//1
f 28//28 24//24 4//4
f 28//28 26//26 24//24
f 85//98 86//99 83//96
f 85//98 84//97 86//99
f 88//101 84//97 85//98
f 88//101 87//100 84//97
f 89//102 87//100 88//101
f 13//13 14//14 27//27
f 13//13 8//8 14//14
f 5//5 8//8 13//13
f 5//5 6//6 8//8
f 7//7 6//6 5//5
f 62//68 65//71 47//53
f 62//68 64//70 65//71
f 57//63 64//70 62//68
f 57//63 54//60 64//70
f 49//55 54//60 57//63
f 105//118 111//124 103//116
f 105//118 113//126 111//124
f 112//125 113//126 105//118
f 112//125 120//133 113//126
f 23//23 19//19 10//10
f 23//23 21//21 19//19
f 39//39 21//21 23//23
f 39//39 32//32 21//21
f 21//21 20//20 19//19
f 21//21 25//25 20//20
f 32//32 25//25 21//21
f 32//32 30//30 25//25
f 69//75 63//69 66//72
f 69//75 59//65 63//69
f 75//81 59//65 69//75
f 75//81 61//67 59//65
f 76//82 68//88 71//90
f 76//82 72//83 68//88
f 73//84 72//83 76//82
f 76//82 67//83 73//84
f 76//82 56//86 67//83
f 55//85 56//86 76//82
f 40//41 18//43 42//46
f 40//41 17//44 18//43
f 31//40 17//44 40//41
f 84//97 98//111 86//99
f 84//97 100//113 98//111
f 87//100 100//113 84//97
f 24//24 30//30 1//1
f 24//24 25//25 30//30
f 20//20 25//25 24//24
f 45//51 77//87 71//77
f 45//51 46//52 77//87
f 44//50 46//52 45//51
f 34//34 36//36 33//33
f 34//34 38//38 36//36
f 38//38 37//37 36//36
f 38//38 22//22 37//37
f 22//22 31//31 37//37
f 22//22 11//11 31//31
f 11//11 17//17 31//31
f 11//11 18//18 17//17
f 33//48 40//41 35//91
f 33//48 36//40 40//41
f 52//58 51//57 50//56
f 52//58 48//54 51//57
f 12//12 7//7 16//16
f 12//12 6//6 7//7
f 76//82 42//46 55//85
f 76//82 40//41 42//46
f 40//41 37//42 31//40
f 40//41 36//40 37//42
f 113//126 119//132 111//124
f 113//126 120//133 119//132
f 48//54 58//64 51//57
f 48//54 49//55 58//64
f 47//53 45//51 62//68
f 47//53 44//50 45//51
f 98//111 100//113 108//121
f 26//26 20//20 24//24
f 49//55 57//63 58//64
# 219 faces

