# RFL_Res.dat Editor OBJ Exporter v1.3 - (c) 2018 Atlas Vryzas Software

#
# object hair
#

v  11.8549 62.41961 21.47059
v  15.03137 63.12549 14.45098
v  15.34902 59.82745 21.47059
v  9.90196 65.05882 15.16863
v  18.09412 57.17255 20.95686
v  21.01569 55.6902 13.9451
v  19.98039 54 19.85098
v  18.48627 59.38039 14.13333
v  21.11373 50.37647 18.23137
v  16.8549 50.40784 23.84706
v  19.3098 48.29804 20.54118
v  22.56471 51.18039 14.30196
v  6.92549 63.93333 21.74902
v  0 64.58039 22.06275
v  0 66.25883 15.70196
v  -11.85098 62.41961 21.47059
v  -15.02745 63.12549 14.45098
v  -9.898039 65.05882 15.16863
v  -15.3451 59.82745 21.47059
v  -21.1098 50.37647 18.23137
v  -21.6 46.4902 16.31765
v  -22.56078 51.18039 14.30196
v  -6.294117 57.6353 29.16078
v  -1.592157 60.69804 28.67451
v  0.9411765 55.03529 30.72549
v  8.035295 52.24706 27.20392
v  0 60.62745 9.027451
v  3.34902 49.27059 28.04314
v  -12.21569 56.23137 25.96078
v  -14.2549 47.32549 24.93726
v  14.48627 53.02353 25.56863
v  12.13725 56.37647 25.92157
v  -7.968627 47.1451 26.64314
v  -2.011765 47.63137 27.81176
v  -6.921568 63.93333 21.74902
v  -9.898039 65.99608 5.494118
v  0 67.40392 5.776471
v  9.90196 65.99608 5.494118
v  0 9.631372 -19.10196
v  10.67059 23.19216 -28.14902
v  0 22.66667 -29.6
v  10.67059 10.89412 -18.37647
v  18.95686 24.72157 -23.9451
v  18.67059 15.55686 -13.8902
v  10.67059 33.43922 -31.61961
v  0 33.43922 -33.24706
v  10 44.82353 -31.27843
v  0 45.40784 -32.8902
v  10.10588 65.5647 -5.662745
v  0 63.74902 -17.49804
v  10.31373 62.26274 -16.64314
v  0 67.21568 -5.956863
v  18.67059 43.12157 -24.90196
v  17.70196 56.78431 -14.94118
v  10 54.83529 -25.49804
v  19.58039 59.79608 4.670588
v  26.30196 33.43922 0
v  24.64706 31.34118 10
v  24.52941 44 10
v  24 21.9098 -9.019608
v  24.65098 33.43922 -15.0902
v  24 43.65098 -12.16863
v  24 51.8549 -2.701961
v  0 55.93726 -26.81176
v  26.30196 42.39216 -1.34902
v  24.76863 48.92941 3.65098
v  -10.66667 23.19216 -28.14902
v  -10.66667 10.89412 -18.37647
v  -18.66667 24.72157 -23.9451
v  -18.66667 15.55686 -13.8902
v  -10.66667 33.43922 -31.61961
v  -10 44.82353 -31.27843
v  -10.10196 65.5647 -5.662745
v  -10.3098 62.26274 -16.64314
v  -19.57647 59.79608 4.670588
v  -18.66667 43.12157 -24.90196
v  -17.69804 56.78431 -14.94118
v  -10 54.83529 -25.49804
v  -24.64314 31.34118 10
v  -26.29804 33.43922 0
v  -24.52549 44 10
v  -24.64706 33.43922 -15.0902
v  -24 21.9098 -9.019608
v  -24 43.65098 -12.16863
v  -24 51.8549 -2.701961
v  -26.29804 42.39216 -1.34902
v  -24.76471 48.92941 3.65098
v  -19.30588 48.29804 20.54118
v  -10.43137 53.26667 28.03137
v  -4.101961 52.59216 30.36078
v  -9.168628 49.83137 28.43137
v  -14.48235 53.02353 25.56863
v  -16.85098 50.40784 23.84706
v  -19.97647 54 19.85098
v  10.04706 59.95686 24.82353
v  -10.04314 59.95686 24.70588
v  5.949019 57.11765 29.27843
v  -18.48235 59.38039 14.13333
v  -22.16863 54.36078 8
v  -21.01176 55.6902 13.9451
v  21.60392 46.4902 16.31765
v  22.17255 54.36078 8
v  -18.0902 57.17255 20.95686
v  3.764706 62.24706 26.58039
# 104 vertices

vn 0.3970588 0.7965074 0.4561275
vn 0.5623162 0.8082721 0.175
vn 0.5933824 0.619179 0.5145221
vn 0.2402574 0.9538603 0.1801471
vn 0.7340686 0.447549 0.5109069
vn 0.8784927 0.4425245 0.1803309
vn 0.8420343 0.2063725 0.4985294
vn 0.7811887 0.6005515 0.1709559
vn 0.8699142 -0.02273284 0.4928309
vn 0.7675245 0.04362745 0.6395833
vn 0.8207721 -0.08572304 0.5648285
vn 0.9500613 0.2126838 0.2287377
vn 0.2223039 0.8889706 0.4005515
vn -0.01164216 0.9252451 0.3791667
vn 0 0.9800245 0.1990196
vn -0.3957108 0.7936274 0.4622549
vn -0.5622549 0.8082721 0.175
vn -0.2401961 0.9538603 0.1801471
vn -0.5900123 0.6202819 0.5169117
vn -0.869853 -0.02273284 0.4928309
vn -0.8962622 -0.0997549 0.4321078
vn -0.95 0.2126838 0.2287377
vn -0.3397672 0.3473652 0.8740809
vn -0.1036765 0.6544118 0.7490809
vn 0.1196691 -0.007230392 0.9928309
vn 0.4503677 -0.7182598 -0.5303309
vn 0.05165441 -0.9976103 -0.04589461
vn 0.3295343 -0.7838848 -0.526103
vn -0.2314951 -0.8878676 -0.397549
vn -0.4868872 -0.4039216 -0.7743872
vn -0.6109068 -0.7753063 0.1599877
vn -0.6949142 -0.6485294 0.3104779
vn -0.1791667 -0.976777 -0.1170956
vn 0.1523897 -0.8167892 -0.5563725
vn 0.2223039 -0.8126838 -0.5385417
vn -0.2098039 0.8768995 0.4325368
vn -0.3199142 0.9474265 0.01256127
vn 0 0.9979166 0.06507353
vn 0.3199755 0.9474265 0.01256127
vn 0 -0.6246936 -0.7808824
vn 0.2746936 -0.4920343 -0.8261029
vn 0 -0.4288603 -0.9033701
vn 0.4153799 -0.6020221 -0.681924
vn 0.725674 -0.3200368 -0.6090686
vn 0.7386029 -0.5086397 -0.4424019
vn 0.3788603 -0.1477941 -0.9135417
vn 0 -0.08523284 -0.9963235
vn 0.3517157 0.215625 -0.9109069
vn 0 0.3528186 -0.9357231
vn 0.3939338 0.9022672 -0.1753677
vn 0 0.9108456 -0.4126838
vn 0.3518995 0.8018995 -0.4828431
vn 0 0.9935662 -0.1137868
vn 0.7641544 0.2064951 -0.6110907
vn 0.74375 0.5710784 -0.347549
vn 0.4068627 0.5599877 -0.7216912
vn 0.7333946 0.6796569 -0.01770833
vn 0.9994485 -0.02438726 0.02518382
vn 0.9862132 0.009436275 0.1651348
vn 0.9845588 0.08155637 0.154902
vn 0.9243873 -0.2612132 -0.2780024
vn 0.9579657 -0.0158701 -0.2863358
vn 0.9260417 0.2394608 -0.2918505
vn 0.9204044 0.3796569 -0.09393382
vn 0 0.6856005 -0.7280024
vn 0.9925245 0.1172181 -0.03449755
vn 0.9623162 0.254473 0.09632353
vn -0.2803309 -0.491299 -0.8246323
vn -0.4197304 -0.5973652 -0.6833333
vn -0.7246324 -0.3192402 -0.6106005
vn -0.7382966 -0.4985294 -0.4541667
vn -0.3824755 -0.1492034 -0.9117647
vn -0.3516544 0.215625 -0.9109069
vn -0.3938726 0.9022672 -0.1753677
vn -0.3518382 0.8018995 -0.4828431
vn -0.7333333 0.6796569 -0.01770833
vn -0.7644608 0.203125 -0.6117647
vn -0.7436887 0.5710784 -0.347549
vn -0.4068015 0.5599877 -0.7216912
vn -0.9861519 0.009436275 0.1651348
vn -0.9993873 -0.02438726 0.02518382
vn -0.9844975 0.08155637 0.154902
vn -0.9564338 -0.01960784 -0.2910539
vn -0.9215686 -0.2602328 -0.2881128
vn -0.9259804 0.2394608 -0.2918505
vn -0.9203432 0.3796569 -0.09393382
vn -0.9924632 0.1172181 -0.03449755
vn -0.9622549 0.254473 0.09632353
vn -0.5666054 -0.8208333 0.07144608
vn 0.5666667 -0.8208333 0.07144608
vn 0.3235294 -0.7744485 -0.5436274
vn -0.49375 0.0625 0.867402
vn -0.1227941 -0.186152 0.9748162
vn -0.2697304 -0.3756127 0.8866422
vn -0.661397 0.2215074 0.7166054
vn -0.7674632 0.04362745 0.6395833
vn -0.8419731 0.2063725 0.4985294
vn 0.5202819 0.3252451 0.7897059
vn 0.660049 0.2234681 0.7172794
vn 0.4121936 0.6039829 0.6822304
vn -0.3945466 0.621201 0.6770833
vn 0.3509191 0.2752451 0.895098
vn -0.7811275 0.6005515 0.1709559
vn -0.8987745 0.4304534 0.08302696
vn -0.8784314 0.4425245 0.1803309
vn -0.3449142 -0.9219363 -0.1756127
vn -0.2357843 -0.29375 0.926348
vn -0.3234681 -0.7744485 -0.5436274
vn 0.2358456 -0.29375 0.926348
vn 0.3449755 -0.9219363 -0.1756127
vn 0.8988358 0.4304534 0.08302696
vn -0.7348039 0.4466912 0.5104167
vn -0.5570466 0.3603554 0.7482843
vn 0.2189338 0.7514706 0.6224877
vn 0.3832108 -0.2295956 0.8946691
vn 0.6931985 -0.6519608 0.3072917
vn 0.6109681 -0.7753063 0.1599877
vn -0.8207108 -0.08572304 0.5648285
vn -0.5180147 -0.2237132 0.8256127
vn -0.167402 -0.5974877 0.7841912
vn -0.03057598 -0.4998775 0.8655638
vn 0.1830882 -0.3626838 0.9137868
vn 0.8963235 -0.0997549 0.4321078
vn 0.7360294 -0.6277574 -0.2531863
vn 0.6226103 -0.5040441 0.5985907
vn -0.622549 -0.5040441 0.5985907
vn -0.7359681 -0.6277574 -0.2531863
# 127 vertex normals

# 0 texture coords

g hair
f 81//82 80//81 79//80
f 81//82 86//87 80//81
f 87//88 86//87 81//82
f 87//88 85//86 86//87
f 99//104 85//86 87//88
f 99//104 75//76 85//86
f 98//103 75//76 99//104
f 98//103 17//17 75//76
f 19//19 17//17 98//103
f 19//19 16//16 17//17
f 96//101 16//16 19//19
f 96//101 35//36 16//16
f 24//24 35//36 96//101
f 24//24 14//14 35//36
f 104//114 14//14 24//24
f 104//114 13//13 14//14
f 95//100 13//13 104//114
f 95//100 1//1 13//13
f 3//3 1//1 95//100
f 3//3 2//2 1//1
f 8//8 2//2 3//3
f 8//8 56//57 2//2
f 102//111 56//57 8//8
f 102//111 63//64 56//57
f 66//67 63//64 102//111
f 66//67 65//66 63//64
f 59//60 65//66 66//67
f 59//60 57//58 65//66
f 58//59 57//58 59//60
f 15//15 35//36 14//14
f 15//15 18//18 35//36
f 37//38 18//18 15//15
f 37//38 36//37 18//18
f 52//53 36//37 37//38
f 52//53 73//74 36//37
f 50//51 73//74 52//53
f 50//51 74//75 73//74
f 64//65 74//75 50//51
f 64//65 78//79 74//75
f 48//49 78//79 64//65
f 48//49 72//73 78//79
f 46//47 72//73 48//49
f 46//47 71//72 72//73
f 41//42 71//72 46//47
f 41//42 67//68 71//72
f 39//40 67//68 41//42
f 39//40 68//69 67//68
f 22//22 87//88 81//82
f 22//22 99//104 87//88
f 100//105 99//104 22//22
f 100//105 98//103 99//104
f 103//112 98//103 100//105
f 103//112 19//19 98//103
f 29//113 19//19 103//112
f 29//113 96//101 19//19
f 23//23 96//101 29//113
f 23//23 24//24 96//101
f 25//25 24//24 23//23
f 25//25 97//102 24//24
f 26//115 97//102 25//25
f 26//115 32//98 97//102
f 97//102 104//114 24//24
f 97//102 95//100 104//114
f 32//98 95//100 97//102
f 32//98 3//3 95//100
f 5//5 3//3 32//98
f 5//5 8//8 3//3
f 6//6 8//8 5//5
f 6//6 102//111 8//8
f 12//12 102//111 6//6
f 12//12 66//67 102//111
f 59//60 66//67 12//12
f 38//39 52//53 37//38
f 38//39 49//50 52//53
f 56//57 49//50 38//39
f 56//57 54//55 49//50
f 63//64 54//55 56//57
f 63//64 62//63 54//55
f 65//66 62//63 63//64
f 65//66 61//62 62//63
f 57//58 61//62 65//66
f 57//58 60//61 61//62
f 49//50 50//51 52//53
f 49//50 51//52 50//51
f 54//55 51//52 49//50
f 54//55 55//56 51//52
f 53//54 55//56 54//55
f 53//54 47//48 55//56
f 45//46 47//48 53//54
f 45//46 46//47 47//48
f 41//42 46//47 45//46
f 18//18 16//16 35//36
f 18//18 17//17 16//16
f 36//37 17//17 18//18
f 36//37 75//76 17//17
f 73//74 75//76 36//37
f 73//74 77//78 75//76
f 74//75 77//78 73//74
f 74//75 78//79 77//78
f 77//78 85//86 75//76
f 77//78 84//85 85//86
f 76//77 84//85 77//78
f 76//77 82//83 84//85
f 69//70 82//83 76//77
f 69//70 83//84 82//83
f 70//71 83//84 69//70
f 31//99 5//5 32//98
f 31//99 7//7 5//5
f 10//10 7//7 31//99
f 10//10 9//9 7//7
f 11//11 9//9 10//10
f 11//11 101//123 9//9
f 25//25 28//122 26//115
f 25//25 90//93 28//122
f 23//23 90//93 25//25
f 23//23 89//92 90//93
f 29//113 89//92 23//23
f 29//113 30//119 89//92
f 43//44 53//54 61//62
f 43//44 45//46 53//54
f 40//41 45//46 43//44
f 40//41 41//42 45//46
f 39//40 41//42 40//41
f 12//12 9//9 101//123
f 12//12 7//7 9//9
f 6//6 7//7 12//12
f 6//6 5//5 7//7
f 94//97 93//96 92//95
f 94//97 20//20 93//96
f 22//22 20//20 94//97
f 22//22 21//21 20//20
f 90//93 34//121 28//122
f 90//93 91//94 34//121
f 89//92 91//94 90//93
f 89//92 30//119 91//94
f 103//112 92//95 29//113
f 103//112 94//97 92//95
f 100//105 94//97 103//112
f 100//105 22//22 94//97
f 71//72 76//77 72//73
f 71//72 69//70 76//77
f 67//68 69//70 71//72
f 67//68 68//69 69//70
f 13//13 15//15 14//14
f 13//13 4//4 15//15
f 1//1 4//4 13//13
f 1//1 2//2 4//4
f 4//4 37//38 15//15
f 4//4 38//39 37//38
f 2//2 38//39 4//4
f 2//2 56//57 38//39
f 27//27 79//125 80//124
f 27//27 81//109 79//125
f 22//110 81//109 27//27
f 27//27 21//91 22//110
f 27//27 88//90 21//91
f 93//117 88//90 27//27
f 27//27 92//116 93//117
f 27//27 29//29 92//116
f 30//30 29//29 27//27
f 27//27 33//34 30//30
f 27//27 34//35 33//34
f 28//28 34//35 27//27
f 42//43 43//44 44//45
f 42//43 40//41 43//44
f 39//40 40//41 42//43
f 84//85 86//87 85//86
f 84//85 82//83 86//87
f 82//83 80//81 86//87
f 82//83 83//84 80//81
f 78//79 76//77 77//78
f 78//79 72//73 76//77
f 91//94 33//120 34//121
f 91//94 30//119 33//120
f 20//20 88//118 93//96
f 20//20 21//21 88//118
f 31//32 27//27 10//31
f 31//32 32//33 27//27
f 26//26 27//27 32//33
f 26//26 28//28 27//27
f 58//126 27//27 57//127
f 58//126 59//107 27//27
f 62//63 53//54 54//55
f 62//63 61//62 53//54
f 51//52 64//65 50//51
f 51//52 55//56 64//65
f 55//56 48//49 64//65
f 55//56 47//48 48//49
f 12//106 27//27 59//107
f 12//106 101//108 27//27
f 60//61 43//44 61//62
f 60//61 44//45 43//44
f 11//89 27//27 101//108
f 11//89 10//31 27//27
f 68//69 70//71 69//70
f 48//49 47//48 46//47
# 196 faces

