# RFL_Res.dat Editor OBJ Exporter v1.3 - (c) 2018 Atlas Vryzas Software

#
# object hair
#

v  37.58431 28.37647 0.01960784
v  31.59216 27.57255 0.01960784
v  37.10588 19.03137 2.415686
v  28.59608 27.16471 5.686275
v  31.87843 18.83529 5.686275
v  31.59216 27.57255 11.35294
v  37.58431 28.37647 11.35294
v  37.10588 19.03137 8.960784
v  40 28.78431 5.686275
v  38.85098 19.09804 5.686275
v  36.3451 37.66667 -0.8588235
v  25.04314 43.22353 5.686275
v  27.81176 44.44706 0.01960784
v  36.3451 37.66667 12.22745
v  39.4 38.45882 5.686275
v  33.33725 46.89412 0.01960784
v  27.81176 44.44706 11.35294
v  33.33725 46.89412 11.35294
v  36.10196 48.11765 5.686275
v  24.71373 52.26667 2.403922
v  27.2549 54.81961 2.415686
v  24.71373 52.26667 9.188235
v  23.95686 51.08235 5.521569
v  27.2549 54.81961 8.960784
v  29.01176 55.93726 5.686275
v  35.3098 10.18431 5.686275
v  22.96863 57.83137 5.568627
v  0 66 19
v  7.596078 60.02353 25.95294
v  0 60.09804 27.36078
v  8.494118 65 17
v  0 52.16863 27.89804
v  8.607843 52.61176 26.19608
v  0 45.99216 5.243137
v  15.81569 64 13
v  14.24706 59.87059 21.93333
v  19.15294 59.83137 15.93725
v  15.59608 53.8902 21.61569
v  20.01961 55.66275 15.4
v  22.8902 58 5
v  10.93725 4.682353 -26.31765
v  20.43137 20.27451 -23.79608
v  10.93725 18.69804 -31.19216
v  20.43137 7.376471 -19.24706
v  26.4902 22.32157 -14.20392
v  26.4902 10.86667 -10.08235
v  28.28627 32.50196 -3.427451
v  28.45098 25.18431 -1.760784
v  27.85882 32.50196 13.2
v  11.3098 33.43922 -33.51765
v  20.43137 32.50196 -26.00392
v  26.4902 32.50196 -16.20784
v  0 69.24313 -6.309804
v  10.60392 67.20784 5.180392
v  0 68.92549 5.352941
v  10.60392 67.4902 -6
v  0 65.56863 -18.54902
v  10.60392 63.99608 -17.63922
v  0 33.43922 -35.24314
v  10.60392 45.50588 -33.15294
v  0 46.12549 -34.86274
v  10.93725 -3.584314 -22.01569
v  20.43137 -1.098039 -14.81569
v  0 -4.145098 -23.64706
v  0 4.070588 -27.91765
v  25 3 -7
v  27.1451 9 1
v  0 18.33726 -32.86666
v  18.76471 58.18431 -15.83922
v  25.44314 52.96078 -2.866667
v  18.76471 63 5
v  25 43 15
v  26.24706 44.42745 -13.21961
v  19.78823 43.70588 -26.39216
v  10.60392 56.11765 -27.02353
v  0 57.28627 -28.41961
v  28.45098 17.95686 8.070588
v  -7.592157 60.02353 25.95294
v  -8.490196 65 17
v  -8.603922 52.61176 26.19608
v  -14.24314 59.87451 21.93333
v  -15.81176 64 13
v  -15.59216 53.8902 21.61569
v  -19.14902 59.83137 15.93725
v  -18.76078 63 5
v  -20.01569 55.66275 15.4
v  -22.88627 58 5
v  -20.42745 20.27451 -23.79608
v  -10.93333 4.682353 -26.31765
v  -10.93333 18.69804 -31.19216
v  -20.42745 7.376471 -19.24706
v  -26.48627 22.32157 -14.20392
v  -26.48627 10.86667 -10.08235
v  -11.30588 33.43922 -33.51765
v  -20.42745 32.50196 -26.00392
v  -26.48627 32.50196 -16.20784
v  -28.44706 25.18431 -1.760784
v  -28.28235 32.50196 -3.427451
v  -27.8549 32.50196 13.2
v  -10.6 67.20784 5.180392
v  -10.6 67.4902 -6
v  -10.6 63.99608 -17.63922
v  -10.6 45.50588 -33.15294
v  -10.93333 -3.584314 -22.01569
v  -20.42745 -1.098039 -14.81569
v  -25 3 -7
v  -27.14118 9 1
v  -25.43922 52.96078 -2.866667
v  -18.76078 58.18431 -15.83922
v  -27.24314 43 5
v  -26.24314 44.42745 -13.21961
v  -19.78431 43.70588 -26.39216
v  -10.6 56.11765 -27.02353
v  -28.44706 17.95686 8.070588
v  -25 43 15
# 115 vertices

vn 0.6460171 -0.1243873 -0.7530637
vn -0.5091299 -0.2484069 -0.8240196
vn 0.4795343 -0.3128064 -0.8198529
vn -0.9563113 -0.2921569 0
vn -0.929902 -0.3676471 0
vn -0.5091299 -0.2484069 0.8240809
vn 0.6567402 -0.08272059 0.7496324
vn 0.6023897 -0.2719975 0.7504289
vn 0.9996324 -0.02941176 0.006188726
vn 0.9689951 -0.2322304 -0.08468137
vn 0.5079657 0.08468137 -0.8572304
vn -0.9795343 -0.1974265 0.03939951
vn -0.5173407 -0.01727941 -0.8555147
vn 0.4863358 0.1294118 0.8641544
vn 0.9792892 0.2023284 -0.01329657
vn 0.5136642 0.359375 -0.7791666
vn -0.3985294 0.01599265 0.9170343
vn 0.4484069 0.4216299 0.7882353
vn 0.8557598 0.5171568 -0.01770833
vn -0.7094363 0.05232843 -0.7028186
vn 0.1693627 0.5532476 -0.8155637
vn -0.7646446 0.03829657 0.6432598
vn -0.9782475 -0.1683823 -0.1210172
vn 0.06145833 0.5303309 0.8456495
vn 0.5654412 0.818321 0.1032476
vn -0.0882353 -0.9960784 0
vn -0.6833946 0.7297794 -0.02175245
vn 0 0.8998774 0.4362745
vn 0.286152 0.5038603 0.8150123
vn 0 0.4918505 0.8707721
vn 0.245527 0.9051471 0.3471814
vn 0 -0.3517157 0.936152
vn 0.4199755 -0.4284926 0.8
vn 0 -0.9856617 0.1684436
vn 0.4732843 0.8376225 0.2729779
vn 0.5527574 0.4914216 0.6730392
vn 0.8043505 0.4339461 0.4061275
vn 0.7146446 -0.3920343 0.5793505
vn 0.8844975 -0.2702819 0.3803922
vn 0.8838235 0.4546569 0.1105392
vn 0.401777 -0.3654412 -0.8396446
vn 0.7305147 -0.1693627 -0.6615809
vn 0.3533088 -0.2488971 -0.901777
vn 0.7702206 -0.2735907 -0.5761642
vn 0.9234681 -0.109375 -0.3676471
vn 0.9610294 -0.163848 -0.2228554
vn 0.9944853 0.101777 -0.02781863
vn 0.9969363 -0.02083333 -0.07567402
vn 0.9939951 0.1071078 0.02493872
vn 0.4351103 -0.07126226 -0.897549
vn 0.750674 -0.04920343 -0.6587623
vn 0.9347426 -0.002879902 -0.3554534
vn 0 0.9969363 -0.07910539
vn 0.2784927 0.9557598 0.09491421
vn 0 0.9887255 0.1499387
vn 0.3783701 0.911826 -0.1594363
vn 0 0.9104779 -0.4135417
vn 0.3466912 0.8044118 -0.4824755
vn 0 -0.02892157 -0.9995711
vn 0.3517157 0.215625 -0.9109069
vn 0 0.3528186 -0.9357231
vn 0.4794731 -0.4054534 -0.7783088
vn 0.7719363 -0.2946691 -0.5632353
vn 0 -0.4610907 -0.8873162
vn 0 -0.3733456 -0.9276348
vn 0.9132353 -0.2578431 -0.3155637
vn 0.9844363 -0.1542892 -0.0841299
vn 0 -0.2150123 -0.9765931
vn 0.7338848 0.5981005 -0.3221201
vn 0.9461397 0.3210784 -0.04246324
vn 0.646875 0.7625 0.01568628
vn 0.957598 0.2450368 0.1518382
vn 0.9352941 0.2276961 -0.2710172
vn 0.7487133 0.2170343 -0.6264093
vn 0.4047794 0.5634804 -0.7201593
vn 0 0.6867034 -0.7269608
vn 0.9979779 -0.05006127 -0.03995098
vn -0.2724265 -0.5090073 0.8164828
vn 0 -0.470098 0.882598
vn -0.5145833 -0.5151348 0.6854779
vn 0 -0.4992647 0.8664829
vn -0.6115809 -0.5243872 0.5924633
vn -0.5863971 -0.503125 0.634804
vn -0.4720588 -0.3997549 0.785723
vn -0.3891544 -0.2875 0.8751225
vn -0.3772672 -0.2162377 0.9004902
vn 0.8849265 0.3382353 0.3204044
vn -0.376103 -0.1765319 0.9095588
vn -0.2860907 0.5038603 0.8150123
vn -0.2454657 0.9051471 0.3471814
vn -0.4199142 -0.4284926 0.8
vn -0.552696 0.4914216 0.6730392
vn -0.473223 0.8376225 0.2729779
vn -0.7145833 -0.3920343 0.5793505
vn -0.8042892 0.4339461 0.4061275
vn -0.6468138 0.7625 0.01568628
vn -0.8844362 -0.2702819 0.3803922
vn -0.8925858 0.4340073 0.121875
vn -0.7304534 -0.1693627 -0.6615809
vn -0.4017157 -0.3654412 -0.8396446
vn -0.3532476 -0.2488971 -0.901777
vn -0.7701593 -0.2735907 -0.5761642
vn -0.9234068 -0.109375 -0.3676471
vn -0.9609681 -0.163848 -0.2228554
vn -0.435049 -0.07126226 -0.897549
vn -0.7506127 -0.04920343 -0.6587623
vn -0.9346814 -0.002879902 -0.3554534
vn -0.996875 -0.02083333 -0.07567402
vn -0.9960172 0.07193627 -0.05269608
vn -0.9931985 0.0908701 0.07273284
vn -0.2784314 0.9557598 0.09491421
vn -0.3783088 0.911826 -0.1594363
vn -0.3466299 0.8044118 -0.4824755
vn -0.3516544 0.215625 -0.9109069
vn -0.4794118 -0.4054534 -0.7783088
vn -0.771875 -0.2946691 -0.5632353
vn -0.913174 -0.2578431 -0.3155637
vn -0.984375 -0.1542892 -0.0841299
vn -0.941299 0.3281863 -0.07849265
vn -0.7338235 0.5981005 -0.3221201
vn -0.9740196 0.1995098 0.1071078
vn -0.9352328 0.2276961 -0.2710172
vn -0.748652 0.2170343 -0.6264093
vn -0.4047181 0.5634804 -0.7201593
vn -0.9979166 -0.05006127 -0.03995098
vn 0.2724878 -0.5090073 0.8164828
vn 0.5146446 -0.5151348 0.6854779
vn 0.6116422 -0.5243872 0.5924633
vn 0.5864583 -0.503125 0.634804
vn 0.4721201 -0.3997549 0.785723
vn 0.3892157 -0.2875 0.8751225
vn 0.3773284 -0.2162377 0.9004902
vn 0.3761642 -0.1765319 0.9095588
vn -0.9275735 0.2785539 0.2490809
vn -0.8848652 0.3382353 0.3204044
# 135 vertex normals

# 0 texture coords

g hair
f 27//27 20//20 23//23
f 27//27 21//21 20//20
f 25//25 21//21 27//27
f 25//25 19//19 21//21
f 18//18 19//19 25//25
f 18//18 14//14 19//19
f 17//17 14//14 18//18
f 17//17 6//6 14//14
f 12//12 6//6 17//17
f 12//12 4//4 6//6
f 2//2 4//4 12//12
f 2//2 5//5 4//4
f 26//26 5//5 2//2
f 26//26 6//6 5//5
f 8//8 6//6 26//26
f 8//8 7//7 6//6
f 9//9 7//7 8//8
f 9//9 15//15 7//7
f 11//11 15//15 9//9
f 11//11 16//16 15//15
f 13//13 16//16 11//11
f 13//13 21//21 16//16
f 20//20 21//21 13//13
f 87//98 115//134 86//135
f 87//98 110//121 115//134
f 108//119 110//121 87//98
f 108//119 98//109 110//121
f 111//122 98//109 108//119
f 111//122 96//107 98//109
f 112//123 96//107 111//122
f 112//123 95//106 96//107
f 94//105 95//106 112//123
f 94//105 88//99 95//106
f 90//101 88//99 94//105
f 90//101 89//100 88//99
f 65//65 89//100 90//101
f 65//65 64//64 89//100
f 41//41 64//64 65//65
f 41//41 62//62 64//64
f 44//44 62//62 41//41
f 44//44 63//63 62//62
f 66//66 63//63 44//44
f 34//34 83//94 86//97
f 34//34 80//91 83//94
f 32//32 80//91 34//34
f 32//32 78//89 80//91
f 30//30 78//89 32//32
f 30//30 28//28 78//89
f 29//29 28//28 30//30
f 29//29 31//31 28//28
f 36//36 31//31 29//29
f 36//36 35//35 31//31
f 37//37 35//35 36//36
f 37//37 71//71 35//35
f 40//40 71//71 37//37
f 40//40 69//69 71//71
f 70//70 69//69 40//40
f 70//70 73//73 69//69
f 72//72 40//40 39//87
f 72//72 70//70 40//40
f 47//47 70//70 72//72
f 47//47 73//73 70//70
f 52//52 73//73 47//47
f 52//52 74//74 73//73
f 51//51 74//74 52//52
f 51//51 50//50 74//74
f 42//42 50//50 51//51
f 42//42 43//43 50//50
f 41//41 43//43 42//42
f 41//41 65//65 43//43
f 84//95 86//97 83//94
f 84//95 87//98 86//97
f 85//96 87//98 84//95
f 85//96 109//120 87//98
f 101//112 109//120 85//96
f 101//112 102//113 109//120
f 57//57 102//113 101//112
f 57//57 76//76 102//113
f 58//58 76//76 57//57
f 58//58 75//75 76//76
f 69//69 75//75 58//58
f 81//92 84//95 83//94
f 81//92 82//93 84//95
f 79//90 82//93 81//92
f 79//90 100//111 82//93
f 55//55 100//111 79//90
f 55//55 53//53 100//111
f 54//54 53//53 55//55
f 54//54 56//56 53//53
f 71//71 56//56 54//54
f 71//71 69//69 56//56
f 74//74 69//69 73//73
f 74//74 75//75 69//69
f 60//60 75//75 74//74
f 60//60 61//61 75//75
f 59//59 61//61 60//60
f 59//59 103//114 61//61
f 94//105 103//114 59//59
f 94//105 112//123 103//114
f 37//37 39//39 40//40
f 37//37 38//38 39//39
f 36//36 38//38 37//37
f 36//36 33//33 38//38
f 29//29 33//33 36//36
f 29//29 32//32 33//33
f 30//30 32//32 29//29
f 88//99 96//107 95//106
f 88//99 92//103 96//107
f 91//102 92//103 88//99
f 91//102 93//104 92//103
f 106//117 93//104 91//102
f 106//117 107//118 93//104
f 49//49 47//47 72//72
f 49//49 48//48 47//47
f 77//77 48//48 49//49
f 77//77 46//46 48//48
f 67//67 46//46 77//77
f 67//67 66//66 46//46
f 11//11 2//2 13//13
f 11//11 1//1 2//2
f 9//9 1//1 11//11
f 9//9 10//10 1//1
f 8//8 10//10 9//9
f 8//8 26//26 10//10
f 48//48 52//52 47//47
f 48//48 45//45 52//52
f 46//46 45//45 48//48
f 46//46 44//44 45//45
f 66//66 44//44 46//46
f 50//50 60//60 74//74
f 50//50 59//59 60//60
f 68//68 59//59 50//50
f 68//68 94//105 59//59
f 90//101 94//105 68//68
f 19//19 16//16 21//21
f 19//19 15//15 16//16
f 14//14 15//15 19//19
f 14//14 7//7 15//15
f 6//6 7//7 14//14
f 104//115 89//100 64//64
f 104//115 91//102 89//100
f 105//116 91//102 104//115
f 105//116 106//117 91//102
f 114//125 93//104 107//118
f 114//125 97//108 93//104
f 99//110 97//108 114//125
f 99//110 98//109 97//108
f 61//61 76//76 75//75
f 61//61 113//124 76//76
f 103//114 113//124 61//61
f 103//114 112//123 113//124
f 17//17 22//22 12//12
f 17//17 24//24 22//22
f 18//18 24//24 17//17
f 18//18 25//25 24//24
f 27//27 24//24 25//25
f 27//27 22//22 24//24
f 23//23 22//22 27//27
f 23//23 12//12 22//22
f 68//68 65//65 90//101
f 68//68 43//43 65//65
f 50//50 43//43 68//68
f 34//79 72//86 39//88
f 34//79 49//85 72//86
f 77//84 49//85 34//79
f 97//108 92//103 93//104
f 97//108 96//107 92//103
f 98//109 96//107 97//108
f 34//79 67//83 77//84
f 34//79 66//82 67//83
f 63//80 66//82 34//79
f 109//120 108//119 87//98
f 109//120 111//122 108//119
f 112//123 111//122 109//120
f 54//54 35//35 71//71
f 54//54 31//31 35//35
f 55//55 31//31 54//54
f 13//13 23//23 20//20
f 13//13 12//12 23//23
f 2//2 12//12 13//13
f 3//3 26//26 2//2
f 3//3 10//10 26//26
f 1//1 10//10 3//3
f 109//120 113//124 112//123
f 109//120 102//113 113//124
f 106//128 34//79 107//129
f 106//128 105//127 34//79
f 82//93 85//96 84//95
f 82//93 100//111 85//96
f 100//111 101//112 85//96
f 100//111 53//53 101//112
f 53//53 57//57 101//112
f 53//53 56//56 57//57
f 80//91 81//92 83//94
f 80//91 78//89 81//92
f 78//89 79//90 81//92
f 78//89 28//28 79//90
f 104//126 34//79 105//127
f 104//126 64//81 34//79
f 62//78 34//79 64//81
f 62//78 63//80 34//79
f 58//58 56//56 69//69
f 58//58 57//57 56//56
f 52//52 42//42 51//51
f 52//52 45//45 42//42
f 44//44 42//42 45//45
f 44//44 41//41 42//42
f 28//28 55//55 79//90
f 28//28 31//31 55//55
f 38//38 34//34 39//39
f 38//38 33//33 34//34
f 110//121 99//110 115//134
f 110//121 98//109 99//110
f 115//132 34//79 86//133
f 115//132 99//131 34//79
f 114//130 34//79 99//131
f 114//130 107//129 34//79
f 89//100 91//102 88//99
f 34//34 33//33 32//32
f 76//76 113//124 102//113
f 5//5 6//6 4//4
f 3//3 2//2 1//1
# 222 faces

