# RFL_Res.dat Editor OBJ Exporter v1.3 - (c) 2018 Atlas Vryzas Software

#
# object hair
#

v  0 9.631372 -19.10196
v  11.3098 22.57647 -29.83922
v  0 22.01569 -31.37255
v  10.67059 10.89412 -18.37647
v  18.35686 24.19608 -25.38039
v  18.67059 15.55686 -13.8902
v  11.3098 33.43922 -33.51765
v  0 33.43922 -35.24314
v  10.60392 45.50588 -33.15294
v  0 46.27451 -34.99608
v  10.60392 67.4902 -6
v  0 65.56863 -18.54902
v  10.60392 63.99608 -17.63922
v  0 69.24313 -6.309804
v  19.78823 43.70588 -26.39216
v  20.57647 58.23137 -16.12549
v  10.60392 56.11765 -27.02353
v  24 21.9098 -9.019608
v  24.65098 33.43922 -15.0902
v  26.24706 44.43137 -13.21569
v  25.74118 52.96078 -2.866667
v  26.30196 33.43922 0
v  0 57.28627 -28.41961
v  27.88235 42.92941 -1.427451
v  10.46274 68 3
v  26.38431 53 8.094118
v  20.10588 61.08627 0.3176471
v  26.84314 42 10.73333
v  24.59216 53 16.87451
v  24.83137 43 18
v  19.34902 63.10196 11
v  8.968628 68 12
v  19.35294 53 24.28627
v  17.20784 60 21
v  13.2549 65 17
v  10.13333 51 30
v  9.313725 57 28
v  19.35294 44 24.82353
v  10.32157 45 30
v  0 63 17
v  3.258824 68.05882 12
v  6 66 20
v  0 66 12
v  0 41 -0.2117647
v  4.87451 57.69804 18.25882
v  0 59 19.4902
v  0 55.4 20.29804
v  8 62 25
v  -11.30588 22.57647 -29.83922
v  -10.66667 10.89412 -18.37647
v  -18.35294 24.19608 -25.38039
v  -18.66667 15.55686 -13.8902
v  -11.30588 33.43922 -33.51765
v  -10.6 45.50588 -33.15294
v  -10.6 67.4902 -6
v  -10.6 63.99608 -17.63922
v  -19.78431 43.70588 -26.39216
v  -20.57647 58.23137 -16.12549
v  -10.6 56.11765 -27.02353
v  -24.64706 33.43922 -15.0902
v  -24 21.9098 -9.019608
v  -26.23529 44.43137 -13.21569
v  -25.73726 52.96078 -2.866667
v  -26.29804 33.43922 0
v  -27.87843 42.92941 -1.427451
v  -26.38039 53 8.094118
v  -20.10196 61.08627 0.3176471
v  -10.45882 68 3
v  -19.3451 63.10196 11
v  0 69.02745 2.921569
v  -24.58824 53 16.87451
v  -26.83922 42 10.73333
v  -24.82745 43 18
v  -17.20392 60 21
v  -19.34902 53 24.28627
v  -13.25098 65 17
v  -8.964705 68 12
v  -10.12941 51 30
v  -9.309804 57 28
v  -19.34902 44 24.82353
v  -8 62 25
v  -6 66 20
v  -4.870588 57.69804 18.25882
v  -3.254902 68.05882 12
v  -10.31765 45 30
v  -25.11765 30 10.93725
v  25.12157 30 10.93725
# 87 vertices

vn 0 -0.703799 -0.7102941
vn 0.3099265 -0.5428922 -0.780576
vn 0 -0.4590686 -0.8883578
vn 0.4375 -0.6604167 -0.6101716
vn 0.7528799 -0.3498162 -0.5574142
vn 0.7380515 -0.5295956 -0.418076
vn 0.4018382 -0.1560662 -0.9023284
vn 0 -0.08897059 -0.9960172
vn 0.3575368 0.2128676 -0.9093137
vn 0 0.3542892 -0.9351715
vn 0.3759191 0.9098039 -0.1758578
vn 0 0.9104779 -0.4135417
vn 0.306924 0.8167892 -0.4885417
vn 0 0.9943015 -0.1067402
vn 0.7688113 0.1370098 -0.6246936
vn 0.7272671 0.5890319 -0.352451
vn 0.3813113 0.5625 -0.7336397
vn 0.9254289 -0.2639706 -0.271875
vn 0.953125 -0.1328431 -0.2721201
vn 0.9518995 0.1254289 -0.2796569
vn 0.9161152 0.3864583 -0.1070466
vn 0.9889706 -0.1467524 -0.02003676
vn 0 0.6901961 -0.7235907
vn 0.9990196 0.001164216 -0.04485294
vn 0.3292892 0.9441177 -0.01629902
vn 0.9341299 0.3533701 0.05159314
vn 0.704473 0.705576 -0.07665441
vn 0.9903187 -0.01813725 0.1379902
vn 0.8796569 0.313174 0.358027
vn 0.8675858 0.05900735 0.4938726
vn 0.6501838 0.7473652 0.1371936
vn 0.211826 0.9647059 0.1568628
vn 0.6500612 0.2533701 0.7164828
vn 0.5719362 0.610049 0.5484068
vn 0.4045343 0.8301471 0.3838235
vn 0.4919118 0.1362132 0.8599265
vn 0.4492034 0.459375 0.766299
vn 0.608701 0.03511029 0.7927083
vn 0.4987745 0.01550245 0.8666667
vn -0.5455883 0.6557598 0.5219363
vn -0.3211397 0.8965074 0.3052083
vn -0.120527 0.8657476 0.4857843
vn -0.4974878 0.7876838 0.3634804
vn -0.01672794 -0.9911152 0.1317402
vn 0 -0.863174 0.5048407
vn -0.1518995 -0.3183824 0.9357231
vn 0 -0.008455882 1
vn -0.4727941 -0.1188725 0.8731618
vn 0 -0.3227328 0.9465073
vn 0.3868873 0.7034926 0.596201
vn -0.9432598 -0.03327206 0.3302696
vn -0.8684436 -0.1691176 0.4660539
vn -0.6556985 -0.6862745 0.3148284
vn -0.3098652 -0.5428922 -0.780576
vn -0.4375 -0.6604167 -0.6101716
vn -0.7528186 -0.3498162 -0.5574142
vn -0.7379902 -0.5295956 -0.418076
vn -0.401777 -0.1560662 -0.9023284
vn -0.3574755 0.2128676 -0.9093137
vn -0.3757966 0.9098652 -0.1757966
vn -0.3068015 0.8167892 -0.4886029
vn -0.76875 0.1370098 -0.6246324
vn -0.7272671 0.5889706 -0.3523897
vn -0.3811887 0.5625 -0.733701
vn -0.9530637 -0.1326593 -0.2721201
vn -0.9253677 -0.2639706 -0.271875
vn -0.9518383 0.1253676 -0.2796569
vn -0.9161152 0.3863358 -0.1071078
vn -0.9889093 -0.1467524 -0.02003676
vn -0.9989583 0.00122549 -0.04497549
vn -0.9340686 0.3533701 0.05159314
vn -0.7044117 0.705576 -0.07659314
vn -0.329228 0.9441177 -0.01629902
vn -0.6501225 0.7473652 0.1371936
vn 0 0.994179 0.1081495
vn -0.8795956 0.313174 0.358027
vn -0.9902574 -0.01813725 0.1379902
vn -0.8675245 0.05900735 0.4938726
vn -0.571875 0.610049 0.5484068
vn -0.65 0.2533701 0.7164828
vn -0.404473 0.8301471 0.3838235
vn -0.2117647 0.9647059 0.1568628
vn -0.4918505 0.1362132 0.8599265
vn -0.4491422 0.459375 0.766299
vn -0.6086397 0.03511029 0.7927083
vn -0.386826 0.7034926 0.596201
vn 0.1205882 0.8657476 0.4857843
vn 0.9452819 -0.02530637 0.3254289
vn 0.1519608 -0.3183824 0.9357231
vn 0.4728554 -0.1188725 0.8731618
vn 0.8685049 -0.1691176 0.4660539
vn 0.321201 0.8965074 0.3052083
vn 0.01678922 -0.9911152 0.1317402
vn 0.6557598 -0.6862745 0.3148284
vn -0.9880515 -0.1404412 0.0625
vn -0.4987132 0.01550245 0.8666667
vn 0.9881127 -0.1404412 0.0625
vn 0.3789216 0.07009804 0.9227941
vn 0.2599877 -0.9128064 -0.3148284
vn -0.2599265 -0.9128064 -0.3148284
vn -0.3788603 0.07009804 0.9227941
vn 0.5456495 0.6557598 0.5219363
vn 0.497549 0.7876838 0.3634804
vn 0.5672181 0.4351103 0.699326
vn -0.5671569 0.4351103 0.699326
# 105 vertex normals

# 0 texture coords

g hair
f 42//42 40//40 46//105
f 42//42 41//41 40//40
f 32//32 41//41 42//42
f 32//32 70//75 41//41
f 25//25 70//75 32//32
f 25//25 14//14 70//75
f 11//11 14//14 25//25
f 11//11 12//12 14//14
f 13//13 12//12 11//11
f 13//13 23//23 12//12
f 17//17 23//23 13//13
f 17//17 10//10 23//23
f 9//9 10//10 17//17
f 9//9 8//8 10//10
f 7//7 8//8 9//9
f 7//7 3//3 8//8
f 2//2 3//3 7//7
f 2//2 1//1 3//3
f 4//4 1//1 2//2
f 78//83 80//85 85//96
f 78//83 75//80 80//85
f 79//84 75//80 78//83
f 79//84 74//79 75//80
f 81//86 74//79 79//84
f 81//86 76//81 74//79
f 82//87 76//81 81//86
f 82//87 77//82 76//81
f 84//92 77//82 82//87
f 84//92 70//75 77//82
f 72//77 64//69 86//95
f 72//77 65//70 64//69
f 66//71 65//70 72//77
f 66//71 63//68 65//70
f 67//72 63//68 66//71
f 67//72 58//63 63//68
f 55//60 58//63 67//72
f 55//60 56//61 58//63
f 12//12 56//61 55//60
f 12//12 23//23 56//61
f 38//38 36//36 39//39
f 38//38 33//33 36//36
f 30//30 33//33 38//38
f 30//30 29//29 33//33
f 28//28 29//29 30//30
f 28//28 26//26 29//29
f 24//24 26//26 28//28
f 24//24 21//21 26//26
f 20//20 21//21 24//24
f 20//20 16//16 21//21
f 22//22 28//28 87//97
f 22//22 24//24 28//28
f 19//19 24//24 22//22
f 19//19 20//20 24//24
f 15//15 20//20 19//19
f 15//15 16//16 20//20
f 17//17 16//16 15//15
f 17//17 13//13 16//16
f 71//76 72//77 73//78
f 71//76 66//71 72//77
f 69//74 66//71 71//76
f 69//74 67//72 66//71
f 68//73 67//72 69//74
f 68//73 55//60 67//72
f 14//14 55//60 68//73
f 14//14 12//12 55//60
f 33//33 37//37 36//36
f 33//33 34//34 37//37
f 29//29 34//34 33//33
f 29//29 31//31 34//34
f 26//26 31//31 29//29
f 26//26 27//27 31//31
f 21//21 27//27 26//26
f 21//21 16//16 27//27
f 62//67 65//70 63//68
f 62//67 60//65 65//70
f 57//62 60//65 62//67
f 57//62 51//56 60//65
f 53//58 51//56 57//62
f 53//58 49//54 51//56
f 3//3 49//54 53//58
f 3//3 1//1 49//54
f 75//80 73//78 80//85
f 75//80 71//76 73//78
f 74//79 71//76 75//80
f 74//79 69//74 71//76
f 76//81 69//74 74//79
f 76//81 77//82 69//74
f 83//89 82//90 81//91
f 83//89 46//47 82//90
f 47//49 46//47 83//89
f 47//49 45//46 46//47
f 44//45 45//46 47//49
f 44//45 48//52 45//46
f 58//63 62//67 63//68
f 58//63 57//62 62//67
f 59//64 57//62 58//63
f 59//64 54//59 57//62
f 10//10 54//59 59//64
f 10//10 8//8 54//59
f 34//34 48//50 37//37
f 34//34 35//35 48//50
f 31//31 35//35 34//34
f 31//31 32//32 35//35
f 25//25 32//32 31//31
f 15//15 9//9 17//17
f 15//15 7//7 9//9
f 5//5 7//7 15//15
f 5//5 2//2 7//7
f 4//4 2//2 5//5
f 60//65 64//69 65//70
f 60//65 61//66 64//69
f 51//56 61//66 60//65
f 51//56 52//57 61//66
f 50//55 52//57 51//56
f 40//102 82//87 46//104
f 40//102 84//92 82//87
f 43//103 84//92 40//102
f 43//103 70//75 84//92
f 27//27 25//25 31//31
f 27//27 11//11 25//25
f 16//16 11//11 27//27
f 16//16 13//13 11//11
f 44//45 73//93 72//93
f 44//93 80//94 73//93
f 85//93 80//45 44//93
f 44//45 78//88 85//94
f 44//45 79//88 78//94
f 81//45 79//91 44//88
f 19//19 5//5 15//15
f 19//19 18//18 5//5
f 22//22 18//18 19//19
f 43//43 41//41 70//75
f 43//43 40//40 41//41
f 77//82 68//73 69//74
f 77//82 70//75 68//73
f 30//44 44//45 28//44
f 30//45 38//44 44//44
f 39//53 44//45 38//44
f 39//53 36//51 44//45
f 37//51 44//45 36//51
f 37//52 48//45 44//52
f 42//42 35//35 32//32
f 42//42 48//50 35//35
f 6//6 5//5 18//18
f 6//6 4//4 5//5
f 44//45 83//89 81//91
f 44//45 47//49 83//89
f 42//48 45//46 48//52
f 42//48 46//47 45//46
f 56//61 59//64 58//63
f 56//61 23//23 59//64
f 54//59 53//58 57//62
f 54//59 8//8 53//58
f 49//54 50//55 51//56
f 49//54 1//1 50//55
f 44//101 87//101 28//101
f 22//100 87//100 44//100
f 86//99 64//99 44//99
f 72//98 86//98 44//98
f 70//75 14//14 68//73
f 23//23 10//10 59//64
f 8//8 3//3 53//58
# 162 faces

