# RFL_Res.dat Editor OBJ Exporter v1.3 - (c) 2018 Atlas Vryzas Software

#
# object hair
#

v  21.45098 57.97255 15.1451
v  17.70196 52.23137 15.63137
v  14.22745 59.07843 19.59216
v  10.1098 59.07059 18.68628
v  7.470588 59.60784 22.62353
v  7.329412 66.7804 22.23137
v  10.1098 62.54902 15.84314
v  25.18431 48.09019 -2.47451
v  25.57647 43.16471 6.223529
v  23.33726 57.30196 5.596078
v  19.6 63.25882 14.54902
v  14.00392 65.25491 19.29412
v  12.76863 66.26667 13.98431
v  0 67.21568 -5.956863
v  7.011765 67.97647 5
v  0 68.47059 5
v  8 65.58823 -5.839216
v  0 63.74902 -17.49804
v  10 44.82353 -31.27843
v  0 33.43922 -33.24706
v  10.67059 33.43922 -31.61961
v  0 45.40784 -32.8902
v  0 22.66667 -29.6
v  10.67059 23.19216 -28.14902
v  10.67059 10.89412 -18.37647
v  18.95686 24.72157 -23.9451
v  18.67059 15.55686 -13.8902
v  0 9.631372 -19.10196
v  6.505882 68.13333 15.12549
v  10.01569 63.12157 5
v  18.53725 61 -4.843137
v  12 64.22745 -5.376471
v  10 62.26274 -16.64314
v  17.70196 56.78431 -14.94118
v  22.31765 56.83137 -3.596078
v  18.67059 43.12157 -24.90196
v  24 45.84706 -12.16863
v  10 54.83529 -25.49804
v  0 55.93726 -26.81176
v  24.65098 34 -13
v  24 21.9098 -9.019608
v  12.52941 65.74902 5
v  26.30196 33.43922 0
v  26.30196 41.55686 -1.34902
v  0 33.43922 13.07451
v  24.2 31 12
v  0 67.32549 23.25882
v  -7.466667 59.60784 22.62353
v  -7.32549 66.7804 22.23137
v  0 59.80784 23.6902
v  -22.31372 56.83137 -3.596078
v  -25.18039 48.09019 -2.47451
v  -24 45.84706 -12.16863
v  -14 65.25491 19.29412
v  -12.76471 66.26667 13.98431
v  -6.501961 68.13333 15.12549
v  -19.17255 62.64706 5
v  -10.10588 67.47451 5
v  -10 65.5647 -5.662745
v  -10.3098 62.26274 -16.64314
v  -10 44.82353 -31.27843
v  -10.66667 33.43922 -31.61961
v  -10.66667 23.19216 -28.14902
v  -18.95294 24.72157 -23.9451
v  -10.66667 10.89412 -18.37647
v  -18.66667 15.55686 -13.8902
v  0 68.78824 15.5098
v  -18.53333 61 -4.843137
v  -17.69804 56.78431 -14.94118
v  -18.66667 43.12157 -24.90196
v  -10.3098 54.83529 -25.49804
v  -24.64706 34 -13
v  -24 21.9098 -9.019608
v  -19.56863 63.05098 14.54902
v  -23.33333 57.30196 5.596078
v  -21.07451 57.97255 15.1451
v  -14.22353 59.07843 19.59216
v  -26.29804 33.43922 0
v  -26.29804 41.55686 -1.34902
v  -23.69412 41.45882 14.17255
v  -22.53333 49.98039 14.92941
v  -17.69804 52.23137 15.63137
v  -24.19608 31 12
v  10.1098 63 -5
v  5 54.97647 19.73726
v  0 55.4 20.29804
v  19.17255 62.64706 5
v  -10 54.54902 19.17647
v  23.6902 41.45882 14.17255
v  22.72157 49.60392 15.12157
v  10 54.54902 19.17647
v  -25.57255 43.16471 6.223529
# 92 vertices

vn 0.2210784 0.02322304 0.975
vn 0.2334559 -0.1908701 0.9534314
vn 0.1906863 -0.08498774 0.9780024
vn 0.3744485 0.07175245 0.9245098
vn 0.4510417 -0.2229167 0.8642157
vn 0.4037378 0.05772059 0.9131128
vn 0.9393382 0.2170343 0.265625
vn 0.7223652 0.6698529 0.1720588
vn 0.8905637 0.4439338 0.09981617
vn 0.9744485 0.2132353 -0.07083333
vn 0.9856005 0.08143383 0.1482843
vn 0.9393382 0.3408088 0.03915441
vn 0.624326 0.78125 0.005453432
vn -0.4379289 0.821201 0.3659314
vn -0.3543505 0.9317402 0.08008578
vn 0.006311275 0.9805147 -0.1965073
vn 0.4607843 0.8855392 -0.059375
vn -0.03057598 0.997549 -0.06348039
vn 0.4528186 0.8731005 -0.1811887
vn 0.00692402 0.9123162 -0.4094976
vn 0.3517157 0.215625 -0.9109069
vn 0 -0.08523284 -0.9963235
vn 0.3788603 -0.1477941 -0.9135417
vn 0.0008578431 0.3520833 -0.9359682
vn 0 -0.4288603 -0.9033701
vn 0.2746936 -0.4920343 -0.8261029
vn 0.4153799 -0.6020221 -0.681924
vn 0.7383578 -0.3096814 -0.5990809
vn 0.7386029 -0.5086397 -0.4424019
vn 0 -0.6246936 -0.7808824
vn 0.5257966 0.8472427 0.07628676
vn 0.8461397 0.532598 0.0192402
vn 0.6097426 0.7525735 -0.248652
vn 0.04718137 0.9859681 -0.160049
vn 0.3280025 0.8629289 -0.3844976
vn 0.7229167 0.5401961 -0.4308211
vn 0.8539216 0.4768382 -0.2086397
vn 0.7670956 0.1990196 -0.6098039
vn 0.9308823 0.2273284 -0.2859681
vn 0.4047794 0.5634804 -0.7201593
vn 0.002512255 0.6867034 -0.7269608
vn 0.9607843 -0.02438726 -0.276348
vn 0.9310049 -0.2307598 -0.2828431
vn -0.1509191 0.9849265 -0.084375
vn 0.3659314 0.1516544 0.9182598
vn 0.9995098 -0.03376225 0.0003676471
vn 0.9950981 0.07665441 -0.06305147
vn -0.1072304 -0.9704657 -0.2157476
vn -0.02279412 -0.4650735 0.8849878
vn -0.06004902 -0.8365809 0.5446078
vn -0.04791667 0.05704657 0.9972426
vn -0.2101103 -0.2446078 0.9466299
vn -0.3254902 0.05821078 0.94375
vn 0.03302696 -0.2875 0.9572304
vn -0.8539829 0.4766544 -0.2086397
vn -0.9743872 0.2132353 -0.07083333
vn -0.9308211 0.2273284 -0.2859681
vn -0.3356005 0.9354779 0.1107843
vn -0.3849877 0.9224265 0.02996324
vn -0.1983456 0.9776961 0.06954657
vn -0.6106617 0.7843137 -0.1089461
vn -0.2690564 0.9599878 -0.0776348
vn -0.3223039 0.9201593 -0.2224877
vn -0.3727941 0.8050245 -0.4614583
vn -0.3517157 0.2114583 -0.9118872
vn -0.378799 -0.1477941 -0.9135417
vn -0.2746324 -0.4920343 -0.8261029
vn -0.7382966 -0.3096814 -0.5990809
vn -0.4153186 -0.6020221 -0.681924
vn -0.7385417 -0.5086397 -0.4424019
vn -0.004411764 0.996875 0.07947304
vn -0.6233456 0.7411152 -0.2493872
vn -0.7295343 0.5346201 -0.4264706
vn -0.7688726 0.1955882 -0.608701
vn -0.4096814 0.5592524 -0.7206495
vn -0.960723 -0.02438726 -0.276348
vn -0.9309436 -0.2307598 -0.2828431
vn -0.1634191 0.971875 0.1694853
vn 0.03615196 0.9826593 0.1822304
vn -0.6875 0.7249388 0.04221814
vn -0.9393382 0.3385417 0.05477941
vn -0.9494485 0.2354167 0.2077819
vn -0.4317402 -0.1387868 0.8912377
vn -0.5585172 0.1358456 0.818321
vn -0.9994485 -0.03376225 0.0003676471
vn -0.9950368 0.07665441 -0.06305147
vn 0.01421569 -0.4674632 0.8839461
vn -0.00367647 -0.1464461 0.9892157
vn -0.06158088 -0.09289216 0.9938112
vn -0.4920343 0.03002451 0.8700981
vn -0.2570466 -0.198223 0.9458946
vn 0.1072917 -0.9704657 -0.2157476
vn 0.06011029 -0.8365809 0.5446078
vn -0.9631128 0.146875 0.2253677
vn 0.8064338 0.5903186 -0.03670343
vn -0.6129902 0.7883579 -0.05202206
vn -0.7511029 0.6601103 0.0007352941
vn -0.771446 0.5678309 0.2871324
vn -0.7477941 0.4201593 0.5140932
vn 0.6767769 0.3119485 0.6668505
vn 0.06213235 -0.5737745 0.8166667
vn -0.03566176 -0.5887255 0.8075368
vn 0.619853 0.7741421 -0.1288603
vn -0.2343137 -0.441299 0.8662378
vn 0.008272059 -0.1594363 0.9871936
vn 0.040625 -0.08566176 0.995527
vn 0.2781863 -0.2176471 0.9356005
vn -0.9848652 0.08468137 0.1509804
vn -0.9800858 -0.01666667 0.1979779
vn 0.9541054 0.2457108 0.171201
vn 0.9699755 0.04301471 0.2393382
vn 0.9800245 -0.01642157 0.1984681
vn 0.9693015 0.1318015 0.2077206
vn -0.6845588 0.2819853 0.6722426
vn -0.9690564 0.05410539 0.240625
# 115 vertex normals

# 0 texture coords

g hair
f 12//14 7//98 4//99
f 12//14 13//15 7//98
f 11//13 13//15 12//14
f 11//13 42//44 13//15
f 87//103 42//44 11//13
f 87//103 32//34 42//44
f 31//33 32//34 87//103
f 31//33 33//35 32//34
f 34//36 33//35 31//33
f 34//36 38//40 33//35
f 36//38 38//40 34//36
f 36//38 19//21 38//40
f 21//23 19//21 36//38
f 21//23 20//22 19//21
f 23//25 20//22 21//23
f 23//25 62//66 20//22
f 63//67 62//66 23//25
f 63//67 64//68 62//66
f 65//69 64//68 63//67
f 65//69 66//70 64//68
f 73//77 64//68 66//70
f 73//77 72//76 64//68
f 78//85 72//76 73//77
f 78//85 79//86 72//76
f 92//108 79//86 78//85
f 92//108 52//56 79//86
f 75//81 52//56 92//108
f 75//81 51//55 52//56
f 57//61 51//55 75//81
f 57//61 68//72 51//55
f 59//63 68//72 57//61
f 59//63 60//64 68//72
f 18//20 60//64 59//63
f 18//20 39//41 60//64
f 33//35 39//41 18//20
f 33//35 38//40 39//41
f 12//45 1//1 11//100
f 12//45 3//3 1//1
f 4//4 3//3 12//45
f 4//4 91//107 3//3
f 5//5 91//107 4//4
f 5//5 85//101 91//107
f 50//54 85//101 5//5
f 50//54 86//102 85//101
f 48//52 86//102 50//54
f 48//52 88//104 86//102
f 77//83 88//104 48//52
f 74//80 57//61 75//81
f 74//80 55//59 57//61
f 54//58 55//59 74//80
f 54//58 56//60 55//59
f 49//78 56//60 54//58
f 49//78 67//71 56//60
f 47//79 67//71 49//78
f 47//79 29//31 67//71
f 6//8 29//31 47//79
f 6//8 7//9 29//31
f 4//7 7//9 6//8
f 15//17 67//71 29//31
f 15//17 16//18 67//71
f 14//16 16//18 15//17
f 14//16 58//62 16//18
f 59//63 58//62 14//16
f 59//63 57//61 58//62
f 30//32 29//31 7//9
f 30//32 15//17 29//31
f 84//95 15//17 30//32
f 84//95 17//19 15//17
f 33//35 17//19 84//95
f 33//35 18//20 17//19
f 43//46 9//11 46//112
f 43//46 44//47 9//11
f 40//42 44//47 43//46
f 40//42 37//39 44//47
f 36//38 37//39 40//42
f 36//38 34//36 37//39
f 26//28 36//38 40//42
f 26//28 21//23 36//38
f 24//26 21//23 26//28
f 24//26 23//25 21//23
f 28//30 23//25 24//26
f 10//12 11//13 1//110
f 10//12 87//103 11//13
f 35//37 87//103 10//12
f 35//37 31//33 87//103
f 34//36 31//33 35//37
f 53//57 79//86 52//56
f 53//57 72//76 79//86
f 70//74 72//76 53//57
f 70//74 64//68 72//76
f 62//66 64//68 70//74
f 61//65 62//66 70//74
f 61//65 20//22 62//66
f 22//24 20//22 61//65
f 22//24 19//21 20//22
f 38//40 19//21 22//24
f 51//55 53//57 52//56
f 51//55 69//73 53//57
f 68//72 69//73 51//55
f 68//72 60//64 69//73
f 69//73 70//74 53//57
f 69//73 71//75 70//74
f 60//64 71//75 69//73
f 60//64 39//41 71//75
f 90//113 10//12 1//110
f 90//113 9//11 10//12
f 89//111 9//11 90//113
f 89//111 46//112 9//11
f 41//43 40//42 43//46
f 41//43 26//28 40//42
f 27//29 26//28 41//43
f 27//29 25//27 26//28
f 35//37 37//39 34//36
f 35//37 8//10 37//39
f 10//12 8//10 35//37
f 10//12 9//11 8//10
f 71//75 61//65 70//74
f 71//75 22//24 61//65
f 39//41 22//24 71//75
f 39//41 38//40 22//24
f 81//94 92//108 80//115
f 81//94 75//81 92//108
f 76//82 75//81 81//94
f 76//82 74//80 75//81
f 76//90 54//84 74//114
f 76//90 77//83 54//84
f 82//91 77//83 76//90
f 82//91 88//104 77//83
f 2//2 3//3 91//107
f 2//2 1//1 3//3
f 90//106 1//1 2//2
f 45//49 90//106 2//2
f 45//49 89//105 90//106
f 46//50 89//105 45//49
f 45//87 83//93 78//92
f 45//87 80//88 83//93
f 81//89 80//88 45//87
f 14//16 18//20 59//63
f 14//16 17//19 18//20
f 15//17 17//19 14//16
f 13//15 30//97 7//98
f 13//15 42//44 30//97
f 42//44 84//96 30//97
f 42//44 32//34 84//96
f 82//91 81//89 45//87
f 82//91 76//90 81//89
f 48//52 47//51 49//53
f 48//52 50//54 47//51
f 63//67 28//30 65//69
f 63//67 23//25 28//30
f 50//54 6//6 47//51
f 50//54 5//5 6//6
f 16//18 56//60 67//71
f 16//18 58//62 56//60
f 8//10 44//47 37//39
f 8//10 9//11 44//47
f 83//109 92//108 78//85
f 83//109 80//115 92//108
f 24//26 25//27 28//30
f 24//26 26//28 25//27
f 77//83 49//53 54//84
f 77//83 48//52 49//53
f 58//62 55//59 56//60
f 58//62 57//61 55//59
f 84//96 32//34 33//35
f 46//50 45//49 43//48
f 6//6 5//5 4//4
# 167 faces

