# RFL_Res.dat Editor OBJ Exporter v1.3 - (c) 2018 Atlas Vryzas Software

#
# object hair
#

v  -4.035294 74.40392 22.04314
v  0 63 21
v  -9.047059 62 20
v  -10 44.82353 -31.27843
v  0 33.43922 -33.24706
v  0 45.40784 -32.8902
v  -10.66667 33.43922 -31.61961
v  -10 65.5647 -5.662745
v  0 63.74902 -17.49804
v  0 67.21568 -5.956863
v  -10.6 68 7
v  0 70 7
v  -11.61176 71.36471 20.34902
v  -18.76078 61.06274 4.870588
v  -18.66667 43.12157 -24.90196
v  -17.69804 56.78431 -14.94118
v  -10 54.83529 -25.49804
v  -10 62.26274 -16.64314
v  -24 43.65098 -12.16863
v  -24.64706 33.43922 -13.98431
v  -24 51.8549 -2.701961
v  0 55.93726 -26.81176
v  -26.29804 42.39216 -1.34902
v  -18.59608 58.6353 14.81176
v  -23.99216 48 12
v  -25.92549 36 10
v  -18.66667 24.72157 -24.00784
v  -23.52941 24.3451 -15.49412
v  0 22.66667 -31.32941
v  -10.66667 23.19216 -29.88235
v  -16.20392 11.66667 -17.56863
v  -22.08235 14 -10.18431
v  0 9 -25.24706
v  -9.396078 10 -23
v  -12.3451 4 -15.30196
v  0 2 -20.87059
v  -26.68235 23.61176 -5.160784
v  -10 56.24314 18.23922
v  0 57.33333 19.26274
v  0 22 8
v  -26.49804 22 8
v  -27.63922 31 -1
v  27.64314 31 -1
v  0 31 -1
v  26.50196 22 8
v  -17.69804 53.2902 15.07451
v  4.039216 74.40392 22.04314
v  9.050981 62 20
v  10 44.82353 -31.27843
v  10.67059 33.43922 -31.61961
v  10 65.5647 -5.662745
v  10.60392 68 7
v  18.76471 61.06274 4.870588
v  11.61569 71.36471 20.34902
v  18.67059 43.12157 -24.90196
v  17.70196 56.78431 -14.94118
v  10 54.83529 -25.49804
v  10 62.26274 -16.64314
v  24.65098 33.43922 -13.98431
v  24 43.65098 -12.16863
v  24 51.8549 -2.701961
v  18.67059 24.72157 -24.00784
v  26.30196 42.39216 -1.34902
v  18.6 58.6353 14.81176
v  23.99608 48 12
v  25.92941 36 10
v  23.53333 24.3451 -15.49412
v  10.67059 23.19216 -29.88235
v  16.20784 11.66667 -17.56863
v  22.08628 14 -10.18431
v  9.4 10 -23
v  12.34902 4 -15.30196
v  26.68628 23.61176 -5.160784
v  10 56.24314 18.23922
v  17.70196 53.2902 15.07451
v  -8.862745 8.031373 -15.9451
v  8.866667 8.031373 -15.9451
# 77 vertices

vn -0.09540441 -0.1240196 0.9876838
vn 0 -0.2097427 0.9778186
vn -0.2192402 -0.214277 0.9518995
vn -0.3516544 0.215625 -0.9109069
vn 0 -0.03560049 -0.9993873
vn 0 0.3528186 -0.9357231
vn -0.400674 -0.07126226 -0.9134191
vn -0.4 0.8859069 -0.2349265
vn 0 0.9104779 -0.4135417
vn 0 0.9727941 -0.2317402
vn -0.09491421 0.9936274 0.06139706
vn -0.3129289 0.9356618 -0.1634191
vn 0 0.9863971 -0.164277
vn -0.3318627 0.940625 -0.07089461
vn -0.7592524 0.6439951 -0.09381127
vn -0.7700368 0.1981005 -0.6064338
vn -0.7373162 0.5762868 -0.3525122
vn -0.4047181 0.5634804 -0.7201593
vn -0.3466299 0.8044118 -0.4824755
vn -0.9286765 0.2272059 -0.2929534
vn -0.9425858 0.03125 -0.3324142
vn -0.9218137 0.382598 -0.0625
vn 0 0.6867034 -0.7269608
vn -0.9865809 0.1546569 -0.05128676
vn -0.8969363 0.4264093 0.1166667
vn -0.9573529 0.2722426 0.09675245
vn -0.9884804 0.0932598 0.1189338
vn -0.7387255 -0.2144608 -0.6389093
vn -0.8776961 -0.2288603 -0.4209559
vn 0 -0.2515319 -0.9678309
vn -0.3585172 -0.3293505 -0.8734682
vn -0.7174633 -0.4401961 -0.5397671
vn -0.8216912 -0.3884804 -0.416973
vn 0 -0.4734069 -0.880821
vn -0.4753676 -0.475 -0.7404412
vn -0.6841299 -0.5009804 -0.5300245
vn 0 -0.5303922 -0.8476716
vn -0.9542892 -0.1170343 -0.2748162
vn 0 0.894424 0.4472426
vn 0.08449755 0.9085172 0.4092525
vn -0.2897059 -0.170527 0.9417892
vn 0 -0.2877451 0.9577206
vn -0.4109681 -0.09950981 0.90625
vn -0.430576 -0.1509804 0.8898897
vn -0.005821078 -0.1519608 0.9883578
vn 0 -0.8064338 0.5913603
vn 0 -0.948652 0.3162377
vn -0.9969363 0.06292892 -0.04656863
vn -0.9891544 0.02003676 0.145098
vn 0 -0.9616421 -0.2740809
vn 0 -0.7390931 0.6735294
vn -0.3330882 -0.1213235 0.9351103
vn -0.2117647 -0.1719363 0.9620711
vn 0.09546569 -0.1240196 0.9876838
vn 0.2193015 -0.214277 0.9518995
vn 0.3517157 0.215625 -0.9109069
vn 0.4007353 -0.07126226 -0.9134191
vn 0.4000613 0.8859069 -0.2349265
vn 0.3129902 0.9356618 -0.1634191
vn 0.09497549 0.9936274 0.06139706
vn 0.7593137 0.6439951 -0.09381127
vn 0.331924 0.940625 -0.07089461
vn 0.770098 0.1981005 -0.6064338
vn 0.7373775 0.5762868 -0.3525122
vn 0.4047794 0.5634804 -0.7201593
vn 0.3466912 0.8044118 -0.4824755
vn 0.942647 0.03125 -0.3324142
vn 0.9287378 0.2272059 -0.2929534
vn 0.921875 0.382598 -0.0625
vn 0.7387868 -0.2144608 -0.6389093
vn 0.9866422 0.1546569 -0.05128676
vn 0.8969976 0.4264093 0.1166667
vn 0.9574142 0.2722426 0.09675245
vn 0.9885417 0.0932598 0.1189338
vn 0.9892157 0.02003676 0.145098
vn 0.9969975 0.06292892 -0.04656863
vn 0.8777574 -0.2288603 -0.4209559
vn 0.3585784 -0.3293505 -0.8734682
vn 0.7175245 -0.4401961 -0.5397671
vn 0.8217524 -0.3884804 -0.416973
vn 0.4754289 -0.475 -0.7404412
vn 0.6841912 -0.5009804 -0.5300245
vn 0.9543505 -0.1170343 -0.2748162
vn -0.08443628 0.9085172 0.4092525
vn 0.2897671 -0.170527 0.9417892
vn 0.4110294 -0.09950981 0.90625
vn 0.4306372 -0.1509804 0.8898897
vn 0.005882353 -0.1519608 0.9883578
vn 0.3331495 -0.1213235 0.9351103
vn 0.211826 -0.1719363 0.9620711
vn 0.7056373 -0.5365196 0.4628676
vn 0.1471814 -0.405147 0.9023897
vn 0.1200368 -0.7416054 0.6599877
vn 0 -0.9802083 0.1980392
vn 0.06666667 -0.9596201 -0.2730392
vn -0.1199755 -0.7416054 0.6599877
vn -0.1471201 -0.405147 0.9023897
vn -0.705576 -0.5365196 0.4628676
vn -0.06660539 -0.9596201 -0.2730392
vn -0.00435049 -0.4787377 0.8779412
# 100 vertex normals

# 0 texture coords

g hair
f 43//76 66//74 45//75
f 43//76 63//71 66//74
f 59//67 63//71 43//76
f 59//67 60//68 63//71
f 55//63 60//68 59//67
f 55//63 56//64 60//68
f 57//65 56//64 55//63
f 57//65 58//66 56//64
f 22//23 58//66 57//65
f 22//23 9//9 58//66
f 18//19 9//9 22//23
f 18//19 8//8 9//9
f 16//17 8//8 18//19
f 16//17 14//15 8//8
f 21//22 14//15 16//17
f 21//22 24//25 14//15
f 25//26 24//25 21//22
f 2//2 48//55 47//54
f 2//2 39//42 48//55
f 3//3 39//42 2//2
f 3//3 38//41 39//42
f 24//43 38//41 3//3
f 24//43 46//52 38//41
f 25//53 46//52 24//43
f 25//53 40//46 46//52
f 26//45 40//46 25//53
f 26//45 41//47 40//46
f 33//34 71//81 36//37
f 33//34 68//78 71//81
f 29//30 68//78 33//34
f 29//30 50//57 68//78
f 5//5 50//57 29//30
f 5//5 49//56 50//57
f 6//6 49//56 5//5
f 6//6 57//65 49//56
f 22//23 57//65 6//6
f 34//35 33//34 36//37
f 34//35 30//31 33//34
f 27//28 30//31 34//35
f 27//28 7//7 30//31
f 15//16 7//7 27//28
f 15//16 4//4 7//7
f 17//18 4//4 15//16
f 17//18 6//6 4//4
f 22//23 6//6 17//18
f 17//18 18//19 22//23
f 17//18 16//17 18//19
f 15//16 16//17 17//18
f 15//16 19//20 16//17
f 20//21 19//20 15//16
f 20//21 23//24 19//20
f 42//48 23//24 20//21
f 73//83 59//67 43//76
f 73//83 67//77 59//67
f 70//80 67//77 73//83
f 70//80 69//79 67//77
f 72//82 69//79 70//80
f 72//82 71//81 69//79
f 61//69 64//72 65//73
f 61//69 53//61 64//72
f 56//64 53//61 61//69
f 56//64 51//58 53//61
f 58//66 51//58 56//64
f 58//66 9//9 51//58
f 53//61 54//62 64//72
f 53//61 52//59 54//62
f 51//58 52//59 53//61
f 51//58 10//10 52//59
f 9//9 10//10 51//58
f 9//9 8//8 10//10
f 20//21 37//38 42//48
f 20//21 28//29 37//38
f 27//28 28//29 20//21
f 27//28 31//32 28//29
f 34//35 31//32 27//28
f 34//35 35//36 31//32
f 75//89 64//86 74//85
f 75//89 65//90 64//86
f 40//46 65//90 75//89
f 40//46 66//88 65//90
f 45//47 66//88 40//46
f 52//59 48//84 54//62
f 52//59 47//60 48//84
f 12//13 47//60 52//59
f 12//13 2//39 47//60
f 1//11 2//39 12//13
f 44//51 73//100 43//50
f 44//51 70//97 73//100
f 77//96 70//97 44//51
f 77//96 72//98 70//97
f 71//99 72//98 77//96
f 55//63 49//56 57//65
f 55//63 50//57 49//56
f 62//70 50//57 55//63
f 62//70 68//78 50//57
f 71//81 68//78 62//70
f 63//71 65//73 66//74
f 63//71 61//69 65//73
f 60//68 61//69 63//71
f 60//68 56//64 61//69
f 10//10 12//13 52//59
f 10//10 11//12 12//13
f 8//8 11//12 10//10
f 8//8 14//15 11//12
f 42//50 40//46 41//47
f 42//50 44//51 40//46
f 37//100 44//51 42//50
f 37//100 32//92 44//51
f 77//96 36//94 71//99
f 77//96 76//93 36//94
f 44//51 76//93 77//96
f 44//51 32//92 76//93
f 26//27 42//48 41//49
f 26//27 23//24 42//48
f 25//26 23//24 26//27
f 25//26 21//22 23//24
f 13//14 14//15 24//25
f 13//14 11//12 14//15
f 3//40 11//12 13//14
f 3//40 1//11 11//12
f 48//55 64//86 54//87
f 48//55 74//85 64//86
f 39//42 74//85 48//55
f 76//93 34//95 36//94
f 76//93 35//91 34//95
f 32//92 35//91 76//93
f 62//70 69//79 71//81
f 62//70 67//77 69//79
f 59//67 67//77 62//70
f 40//46 43//50 45//47
f 40//46 44//51 43//50
f 30//31 29//30 33//34
f 30//31 7//7 29//30
f 7//7 5//5 29//30
f 7//7 4//4 5//5
f 28//29 32//33 37//38
f 28//29 31//32 32//33
f 21//22 19//20 23//24
f 21//22 16//17 19//20
f 13//44 24//43 3//3
f 12//13 11//12 1//11
f 3//3 2//2 1//1
f 55//63 59//67 62//70
f 15//16 27//28 20//21
f 31//32 35//36 32//33
f 6//6 5//5 4//4
# 146 faces

