# RFL_Res.dat Editor OBJ Exporter v1.3 - (c) 2018 Atlas Vryzas Software

#
# object hair
#

v  5.372549 68.41177 6.756863
v  12.96863 66.1098 3.913725
v  12.83529 65.78824 10.54902
v  22.11373 60.74902 9.415687
v  12.01176 64.59216 17.6902
v  16.81569 64.41569 17.06275
v  16.37647 59.69804 22.01176
v  0 69.32549 9.109804
v  4.619608 66.12157 20.1451
v  0 67.21568 -5.956863
v  10.10588 65.5647 -5.662745
v  0 63.74902 -17.49804
v  10.31373 62.26274 -16.64314
v  10 44.82353 -31.27843
v  0 33.43922 -33.24706
v  10.67059 33.43922 -31.61961
v  0 45.40784 -32.8902
v  0 22.66667 -29.6
v  9.8 23.19216 -28.14902
v  10.67059 10.89412 -18.37647
v  18.67059 24.72157 -23.9451
v  18.67059 15.55686 -13.8902
v  0 9.631372 -19.10196
v  17.70196 56.78431 -14.94118
v  18.60392 58.32941 -5.572549
v  18.67059 43.12157 -24.90196
v  24 43.65098 -12.16863
v  10 54.83529 -25.49804
v  0 55.93726 -26.81176
v  24 21.9098 -9.019608
v  24.48627 33.43922 -15.0902
v  23.89804 51.76471 2.388235
v  28.01176 44.41177 8.745098
v  26.6 52.77255 9.411765
v  25.30588 48.5647 20
v  23.03529 60 16
v  21.96078 47.04314 23.89804
v  15.69412 47.41569 25.44706
v  17.82745 53.09412 25.57255
v  14.35686 58.37255 10
v  11.38431 54.5647 22
v  19.64314 42.44314 22.23137
v  26.30196 33.43922 0
v  26.39216 44.27059 18.73726
v  23.41176 43.32941 21.47451
v  20.46275 59.47843 1.894118
v  4.654902 61.44706 26.1098
v  11.23137 58.66275 21.99216
v  24 33.43922 9.027451
v  26.30196 42.39216 -1.34902
v  -14.35294 60 10
v  6.717647 54.73726 24.41569
v  -15.81569 46.8 25.44706
v  -20.45882 42.44314 21.58431
v  0.7921569 54.22353 27.40392
v  -5.015686 52.49804 28.52549
v  -10.43922 50.19608 27.81569
v  26.77255 34.85882 8.121569
v  23.82353 38.05882 16.60392
v  21.52157 56.72549 22.03529
v  26.32157 43.42745 4.709804
v  -12.96471 66.1098 3.913725
v  -5.368628 68.41177 6.756863
v  -14.98039 66.4902 10.54902
v  -22.1098 60.74902 9.415687
v  -10.10196 65.5647 -5.662745
v  -10.3098 62.26274 -16.64314
v  -10 44.82353 -31.27843
v  -10.66667 33.43922 -31.61961
v  -9.796079 23.19216 -28.14902
v  -18.66667 24.72157 -23.9451
v  -10.66667 10.89412 -18.37647
v  -18.66667 15.55686 -13.8902
v  -20.45882 59.47843 1.894118
v  -24 43.65098 -12.16863
v  -18.66667 43.12157 -24.90196
v  -17.69804 56.78431 -14.94118
v  -10 54.83529 -25.49804
v  -24 21.9098 -9.019608
v  -24.48235 33.43922 -15.0902
v  -23.89412 51.76471 2.388235
v  -18.6 58.32941 -5.572549
v  -23.94902 50.49412 -5.690196
v  -28.00784 44.41177 8.745098
v  -26.59608 52.77255 9.411765
v  -25.30196 48.5647 20
v  -23.03137 60 16
v  -14.42353 63.45882 22.76078
v  -5.007843 66.95294 21.99216
v  -11.37647 58.40392 29.25098
v  -21.95686 47.04314 23.89804
v  -26.29804 42.39216 -1.34902
v  -26.29804 33.43922 0
v  -23.40392 43.32941 21.47451
v  -23.81569 38.06667 16.60392
v  -3.392157 61.51373 28.70588
v  -24 46.22353 9.027451
v  -26.76863 34.85882 8.121569
v  -26.38824 44.27059 18.73726
v  -17.82353 53.09412 27.53333
v  -21.51765 56.72549 22.03529
v  -16.81176 65.52941 17.06275
v  -26.31765 43.42745 4.709804
v  -9.909804 68.74117 15.33725
v  -24 33.43922 9.027451
v  23.95294 50.49412 -5.690196
v  24 46.22353 9.027451
# 107 vertices

vn 0.2256127 0.9739583 0.02420343
vn 0.4599265 0.8818628 -0.1042892
vn 0.2746324 0.9540441 0.120098
vn 0.3445466 0.9378064 0.04264706
vn 0.6629902 0.7408088 -0.1083333
vn 0.01819853 0.8099877 0.5862745
vn 0.389277 0.8523284 0.3494485
vn 0.1148897 0.6009191 0.791054
vn 0.05404412 0.9977941 0.03988971
vn 0.2313113 0.8852941 0.4035539
vn 0 0.9805147 -0.1968137
vn 0.3840074 0.8942402 -0.2300858
vn 0 0.9108456 -0.4126838
vn 0.4059436 0.8033088 -0.4359069
vn 0.3517157 0.215625 -0.9109069
vn 0 -0.08523284 -0.9963235
vn 0.3781863 -0.1582108 -0.912071
vn 0 0.3528186 -0.9357231
vn 0 -0.4326593 -0.9015319
vn 0.26875 -0.4957108 -0.8258578
vn 0.4079044 -0.5927083 -0.6944853
vn 0.7181373 -0.3231618 -0.616299
vn 0.7383578 -0.4985294 -0.4541667
vn 0 -0.621875 -0.7830269
vn 0.7586397 0.5306985 -0.3780637
vn 0.7457108 0.6346201 -0.203125
vn 0.7660539 0.2011029 -0.6104779
vn 0.9261029 0.2254902 -0.302451
vn 0.4068627 0.5599877 -0.7216912
vn 0 0.6856005 -0.7280024
vn 0.9226103 -0.2528799 -0.291299
vn 0.9560662 -0.02101716 -0.2923407
vn 0.928799 0.3061275 -0.2090074
vn 0.9903187 0.07787991 -0.1151961
vn 0.9355392 0.3325368 -0.1196078
vn 0.8849265 0.1394608 0.4444853
vn 0.8117034 0.5398897 0.2231005
vn 0.4964461 -0.1318015 0.8580883
vn -0.009313725 -0.1365809 0.990625
vn 0.01237745 0.2179534 0.9759191
vn -0.7733456 -0.5466912 -0.3210171
vn -0.6572304 -0.5894608 -0.4694853
vn -0.3154412 -0.8989583 -0.303799
vn -0.8367647 -0.479902 -0.2636029
vn 0.9996324 -0.02873774 0.002941177
vn 0.8914216 -0.1231618 0.436152
vn 0.5712622 -0.3604167 0.7374387
vn 0.7548407 0.5901348 -0.2863971
vn 0.3848652 0.8151961 0.4329044
vn 0.4433824 0.327451 0.8344363
vn 0.5396446 0.1286765 0.8320466
vn 0.9726716 0.01862745 0.2316176
vn 0.9938725 0.1102941 0.01078431
vn 0.4523284 -0.7610294 -0.4650123
vn -0.09007353 -0.9706495 -0.2228554
vn 0.7001838 -0.5740196 -0.4245711
vn 0.8316177 -0.476777 -0.2846201
vn 0.06139706 -0.9300858 -0.3620711
vn 0.2860294 -0.8291667 -0.4801471
vn 0.5052696 -0.7042279 -0.4987132
vn -0.3172794 -0.6800858 -0.6608456
vn -0.876348 -0.4485907 -0.1752451
vn -0.2028186 -0.3867647 -0.8995711
vn 0.4596814 0.01930147 0.8879289
vn 0.4759804 -0.04154412 0.8784927
vn 0.5965074 0.435049 0.6745711
vn 0.2573529 -0.5048407 0.8239583
vn -0.7006127 -0.3383578 -0.628125
vn -0.7227941 -0.3724878 -0.5819853
vn 0.9867647 -0.121201 -0.1075368
vn 0.9199142 0.02530637 -0.3914216
vn -0.4715686 0.06783088 0.8792279
vn -0.248223 0.3635417 0.8979167
vn -0.4675858 0.8616422 -0.1972426
vn -0.1903799 0.971875 -0.138848
vn -0.4344975 0.8931373 -0.1160539
vn -0.7123774 0.6855392 -0.1501838
vn -0.3838848 0.8942402 -0.2300858
vn -0.4058824 0.8033088 -0.4359069
vn -0.3516544 0.215625 -0.9109069
vn -0.378125 -0.1582108 -0.912071
vn -0.2686887 -0.4957108 -0.8258578
vn -0.718076 -0.3231618 -0.616299
vn -0.4078431 -0.5927083 -0.6944853
vn -0.7382966 -0.4985294 -0.4541667
vn -0.7547794 0.5901348 -0.2863971
vn -0.9260417 0.2254902 -0.302451
vn -0.7659926 0.2011029 -0.6104779
vn -0.7585784 0.5306985 -0.3780637
vn -0.4068015 0.5599877 -0.7216912
vn -0.922549 -0.2528799 -0.291299
vn -0.9560049 -0.02101716 -0.2923407
vn -0.9287378 0.3061275 -0.2090074
vn -0.7456495 0.6346201 -0.203125
vn -0.9056373 0.3890931 -0.16875
vn -0.9902574 0.07787991 -0.1151961
vn -0.9354779 0.3325368 -0.1196078
vn -0.8723652 0.1382353 0.4689338
vn -0.8342525 0.5082108 0.2139093
vn -0.4344975 0.6916667 0.5769608
vn -0.06121324 0.8741422 0.481924
vn -0.2107843 0.2922181 0.9329044
vn -0.4647672 -0.2932598 0.8354779
vn -0.2166667 -0.4109069 0.8856005
vn -0.2118873 -0.5480392 0.8091912
vn -0.9938112 0.1102941 0.01078431
vn -0.9995711 -0.02873774 0.002941177
vn -0.5424632 -0.3775735 0.7503676
vn -0.4628064 -0.5823529 0.6683211
vn 0.1392157 0.4146446 0.899326
vn -0.9786765 0.09632353 0.1813726
vn 0.8884191 -0.4256127 -0.1720588
vn 0.3443015 -0.643076 -0.6839461
vn 0.07855392 -0.09050245 0.9928309
vn -0.4983456 0.05667892 0.8651348
vn -0.1136029 -0.2417892 0.9636642
vn -0.7010416 0.4540441 0.5499387
vn -0.5670956 0.7889706 0.2364583
vn 0.2411765 -0.3735294 -0.8956495
vn -0.8913603 -0.1233456 0.436152
vn -0.9867035 -0.121201 -0.1075368
vn -0.9198529 0.02530637 -0.3914216
vn -0.2260417 0.9636642 0.1423407
vn 0.3246323 -0.04515931 0.9447917
vn -0.9726103 0.01862745 0.2316176
vn 0.9056985 0.3890931 -0.16875
vn 0.9787378 0.09632353 0.1813726
vn 0.4950368 -0.5686888 0.6568627
vn 0.7278799 -0.3341299 -0.5987745
vn 0.7536152 -0.370527 -0.5429534
# 130 vertex normals

# 0 texture coords

g hair
f 48//51 52//65 41//64
f 48//51 47//50 52//65
f 5//49 47//50 48//51
f 5//49 9//10 47//50
f 1//1 9//10 5//49
f 1//1 8//9 9//10
f 10//11 8//9 1//1
f 10//11 63//75 8//9
f 66//78 63//75 10//11
f 66//78 62//74 63//75
f 74//86 62//74 66//78
f 74//86 65//77 62//74
f 85//97 65//77 74//86
f 85//97 87//99 65//77
f 86//98 87//99 85//97
f 86//98 101//117 87//99
f 100//115 101//117 86//98
f 100//115 88//100 101//117
f 90//102 88//100 100//115
f 90//102 89//101 88//100
f 96//110 89//101 90//102
f 96//110 9//10 89//101
f 47//50 9//10 96//110
f 44//46 45//47 59//128
f 44//46 35//36 45//47
f 33//34 35//36 44//46
f 33//34 34//35 35//36
f 32//33 34//35 33//34
f 32//33 46//48 34//35
f 25//26 46//48 32//33
f 25//26 11//12 46//48
f 13//14 11//12 25//26
f 13//14 12//13 11//12
f 29//30 12//13 13//14
f 29//30 67//79 12//13
f 78//90 67//79 29//30
f 78//90 77//89 67//79
f 76//88 77//89 78//90
f 76//88 75//87 77//89
f 80//92 75//87 76//88
f 80//92 92//106 75//87
f 93//107 92//106 80//92
f 93//107 105//125 92//106
f 80//92 79//91 93//107
f 80//92 71//83 79//91
f 76//88 71//83 80//92
f 76//88 69//81 71//83
f 68//80 69//81 76//88
f 68//80 15//16 69//81
f 17//18 15//16 68//80
f 17//18 14//15 15//16
f 28//29 14//15 17//18
f 28//29 26//27 14//15
f 24//25 26//27 28//29
f 24//25 27//28 26//27
f 106//126 27//28 24//25
f 106//126 50//53 27//28
f 32//33 50//53 106//126
f 32//33 107//127 50//53
f 71//83 73//85 79//91
f 71//83 72//84 73//85
f 70//82 72//84 71//83
f 70//82 23//24 72//84
f 18//19 23//24 70//82
f 18//19 19//20 23//24
f 16//17 19//20 18//19
f 16//17 21//22 19//20
f 26//27 21//22 16//17
f 26//27 31//32 21//22
f 27//28 31//32 26//27
f 27//28 50//53 31//32
f 45//47 42//67 59//128
f 45//47 37//38 42//67
f 35//36 37//38 45//47
f 35//36 60//66 37//38
f 36//37 60//66 35//36
f 36//37 6//7 60//66
f 4//5 6//7 36//37
f 4//5 3//4 6//7
f 2//2 3//4 4//5
f 12//13 10//11 11//12
f 12//13 66//78 10//11
f 67//79 66//78 12//13
f 67//79 82//94 66//78
f 77//89 82//94 67//79
f 77//89 83//95 82//94
f 75//87 83//95 77//89
f 75//87 92//106 83//95
f 78//90 68//80 76//88
f 78//90 17//18 68//80
f 29//30 17//18 78//90
f 29//30 28//29 17//18
f 13//14 28//29 29//30
f 13//14 24//25 28//29
f 25//26 24//25 13//14
f 34//35 36//37 35//36
f 34//35 4//5 36//37
f 46//48 4//5 34//35
f 46//48 2//2 4//5
f 11//12 2//2 46//48
f 11//12 1//1 2//2
f 10//11 1//1 11//12
f 8//9 89//101 9//10
f 8//9 104//123 89//101
f 63//75 104//123 8//9
f 63//75 64//76 104//123
f 62//74 64//76 63//75
f 62//74 65//77 64//76
f 100//115 53//104 57//116
f 100//115 91//103 53//104
f 86//98 91//103 100//115
f 86//98 94//108 91//103
f 99//120 94//108 86//98
f 99//120 95//109 94//108
f 69//81 70//82 71//83
f 69//81 18//19 70//82
f 15//16 18//19 69//81
f 15//16 16//17 18//19
f 14//15 16//17 15//16
f 14//15 26//27 16//17
f 5//6 6//7 3//4
f 5//6 7//8 6//7
f 48//73 7//8 5//6
f 48//73 39//40 7//8
f 41//72 39//40 48//73
f 41//72 38//39 39//40
f 51//54 52//55 55//58
f 51//54 41//43 52//55
f 40//42 41//43 51//54
f 40//42 38//41 41//43
f 104//123 88//100 89//101
f 104//123 102//118 88//100
f 64//76 102//118 104//123
f 64//76 65//77 102//118
f 81//93 83//95 92//106
f 81//93 82//94 83//95
f 74//86 82//94 81//93
f 74//86 66//78 82//94
f 81//93 85//97 74//86
f 81//93 84//96 85//97
f 103//122 84//96 81//93
f 103//122 98//121 84//96
f 51//54 103//129 81//130
f 51//54 98//112 103//129
f 99//113 98//112 51//54
f 51//54 95//119 99//113
f 51//54 54//57 95//119
f 53//56 54//57 51//54
f 102//118 101//117 88//100
f 102//118 87//99 101//117
f 65//77 87//99 102//118
f 51//54 57//60 53//56
f 51//54 56//59 57//60
f 55//58 56//59 51//54
f 54//105 94//108 95//109
f 54//105 91//103 94//108
f 53//104 91//103 54//105
f 33//34 61//71 32//33
f 33//34 58//70 61//71
f 44//46 58//70 33//34
f 37//38 38//39 42//67
f 37//38 39//40 38//39
f 60//66 39//40 37//38
f 47//50 55//124 52//65
f 47//50 96//110 55//124
f 96//110 56//114 55//124
f 96//110 90//102 56//114
f 90//102 57//116 56//114
f 90//102 100//115 57//116
f 3//3 1//1 5//49
f 3//3 2//2 1//1
f 44//61 40//42 58//62
f 44//61 59//63 40//42
f 7//8 60//66 6//7
f 7//8 39//40 60//66
f 42//44 40//42 59//63
f 42//44 38//41 40//42
f 43//45 31//32 50//53
f 43//45 30//31 31//32
f 97//111 92//106 105//125
f 97//111 81//93 92//106
f 30//31 21//22 31//32
f 30//31 22//23 21//22
f 19//20 20//21 23//24
f 19//20 21//22 20//21
f 61//68 40//42 32//69
f 61//68 58//62 40//42
f 106//126 25//26 32//33
f 106//126 24//25 25//26
f 49//52 50//53 107//127
f 49//52 43//45 50//53
f 99//120 84//96 98//121
f 99//120 86//98 84//96
f 21//22 22//23 20//21
f 86//98 85//97 84//96
# 195 faces

