# RFL_Res.dat Editor OBJ Exporter v1.3 - (c) 2018 Atlas Vryzas Software

#
# object hair
#

v  0 4.360785 -28.90588
v  10.33725 13.86667 -29.96471
v  0 13.86667 -32.36863
v  9.274509 4.360785 -26.7451
v  19.2 13.86667 -23.0902
v  17.22745 4.360785 -20.58039
v  0 -12.2 -19.70588
v  7.894118 -4.780392 -22.56078
v  0 -4.780392 -24.39608
v  25.32157 13.86667 -12.73726
v  25.17647 4.360785 -5.392157
v  27.81569 14 -2.027451
v  22.72157 4.360785 -11.28627
v  11.82353 33.69412 -33.66275
v  11.07059 23.62745 -32.18039
v  20.56078 23.62745 -24.82353
v  0 23.62745 -34.75686
v  0 33.69412 -35.37255
v  0 68.58431 6.121569
v  10.60392 67.4902 -6
v  10.60392 66.88628 5.823529
v  0 69.24313 -6.309804
v  0 66.43137 15.36863
v  10.60392 64.56863 15.21176
v  10.60392 63.99608 -17.63922
v  0 65.56863 -18.54902
v  10.60392 45.50588 -33.15294
v  0 46.12549 -34.86274
v  10.25098 60.15686 22.48235
v  18.76471 58.67059 14.67059
v  18.76471 58.18431 -15.83922
v  25.44314 52.96078 -2.866667
v  18.76471 61.50196 4.870588
v  18.03137 54 21
v  24.30196 51.84314 9.690196
v  24.09804 46.61176 17
v  25.44314 44.26274 -12.90196
v  10.60392 56.11765 -27.02353
v  0 57.28627 -28.41961
v  19.78823 43.70588 -26.39216
v  6.623529 -11.34118 -18.7098
v  0 51.76078 -3.682353
v  19.99216 -3.015686 -9.772549
v  13.27451 -8.623529 -15.55294
v  27.6 28.26274 10.0902
v  29.47451 34.02353 -0.6980392
v  28.93333 23.62745 -0.490196
v  28.43922 42.92941 -1.427451
v  23.25098 34.50588 18.88235
v  27.11373 23.62745 -13.73333
v  17.68628 42.74118 24.48235
v  10.34118 53.10588 26.12549
v  27.9451 40 10
v  -10.33333 13.86667 -29.96471
v  -9.270588 4.360785 -26.7451
v  -7.890196 -4.780392 -22.56078
v  -11.06667 23.62745 -32.18039
v  -11.81961 33.69412 -33.66275
v  -20.55686 23.62745 -24.82353
v  -10.6 67.4902 -6
v  -10.6 66.88628 5.823529
v  -10.6 64.56863 15.21176
v  -10.6 63.99608 -17.63922
v  -10.6 45.50588 -33.15294
v  -25.43922 52.96078 -2.866667
v  -18.76078 58.18431 -15.83922
v  -18.76078 61.50196 4.870588
v  -24.29804 51.84314 9.690196
v  -18.02745 54 21
v  -24.09412 46.61176 17
v  -18.76078 58.67059 14.67059
v  -25.43922 44.26274 -12.90196
v  -10.6 56.11765 -27.02353
v  -19.78431 43.70588 -26.39216
v  -6.619608 -11.34118 -18.7098
v  -25.17647 4.360785 -5.392157
v  -19.98824 -3.015686 -9.772549
v  -22.41176 4.360785 -11.28627
v  -17.68235 42.74118 24.48235
v  -10.33333 53.10588 26.12549
v  -10.24706 60.15686 22.48235
v  -27.80784 14 -1.760784
v  -27.1098 23.62745 -13.73333
v  -28.92941 23.62745 -0.490196
v  -25.31765 13.86667 -12.73726
v  -28.43529 42.92941 -1.427451
v  -13.27059 -8.623529 -15.55294
v  -17.22353 4.360785 -20.58039
v  -29.47059 34.02353 -0.6980392
v  -27.59608 28.25882 10.0902
v  -27.94118 40 10
v  -23.24706 34.50588 18.88235
v  -19.19608 13.86667 -23.0902
v  0 62.49412 23
v  -9.705882 47.48627 29.45098
v  -13.10588 43.08627 26.57255
v  3.686275 56.80392 27.6902
v  -3.678431 56.80392 27.6902
v  0 54.29804 3.317647
v  -6.152941 46.08627 29.8
v  -0.9176471 50.67059 30.18039
v  -6.458824 52.04314 29.26667
v  -2.745098 45.11372 29.04706
v  3.12549 47.77255 29.86275
v  7.14902 50.63922 28.6902
# 105 vertices

vn 0 -0.3761642 -0.9264706
vn 0.4134191 -0.283027 -0.8653799
vn 0 -0.2729779 -0.9620098
vn 0.3988358 -0.3832721 -0.8330882
vn 0.7200367 -0.2816176 -0.6341299
vn 0.6936888 -0.3863358 -0.6079044
vn 0 -0.5346201 -0.8450367
vn 0.3837622 -0.483272 -0.786826
vn 0 -0.4734681 -0.8807598
vn 0.8925245 -0.2341912 -0.3854779
vn 0.9026961 -0.2920343 -0.3161152
vn 0.9684436 -0.1589461 -0.1922794
vn 0.8362745 -0.3356005 -0.4336397
vn 0.4182598 -0.04417892 -0.9072304
vn 0.3818015 -0.2048407 -0.9012255
vn 0.7338848 -0.1525123 -0.6619485
vn 0 -0.1537377 -0.9880515
vn 0 0.01268382 -0.9999387
vn 0 0.9938725 0.1106618
vn 0.4035539 0.9110907 -0.08431373
vn 0.3283701 0.9318628 0.1544118
vn 0 0.984375 -0.1764093
vn 0 0.950674 0.3104167
vn 0.3822304 0.8520221 0.3577819
vn 0.3173407 0.8341912 -0.4511029
vn 0 0.8800245 -0.4749387
vn 0.3502451 0.2293505 -0.9081495
vn 0 0.3561887 -0.9344363
vn 0.419424 0.634375 0.6494485
vn 0.6912377 0.6268995 0.3594975
vn 0.7398284 0.5849878 -0.3322917
vn 0.8957108 0.4371324 -0.08210784
vn 0.6946079 0.7153799 0.07708333
vn 0.6772059 0.4016544 0.6165441
vn 0.8858456 0.4109069 0.2158088
vn 0.8390931 0.2104779 0.5017157
vn 0.9321079 0.2043505 -0.2990809
vn 0.4047794 0.5634804 -0.7201593
vn 0 0.6867034 -0.7269608
vn 0.7723039 0.2012868 -0.6025122
vn -0.2226103 -0.2479167 0.9428921
vn 0 -0.2430147 0.9700367
vn 0.0002450981 -0.5779412 0.8160539
vn 0.8057598 -0.4003676 -0.4365196
vn 0.6317402 -0.4601103 -0.6238971
vn 0.9661765 -0.03339461 0.2558211
vn 0.9987745 0.02910539 -0.04172794
vn 0.9969975 -0.06568627 -0.04209559
vn 0.9760417 0.2154412 -0.03167892
vn -0.6895221 -0.6989583 0.1893995
vn -0.7032475 -0.6810049 0.2039828
vn 0.9490809 -0.05514706 -0.3102941
vn -0.5413603 -0.4784314 0.6913603
vn 0.367402 -0.5231005 -0.7689951
vn -0.4445466 -0.2575368 0.8579657
vn -0.4104167 -0.2620098 0.8734682
vn -0.3762255 -0.2322304 0.8969363
vn -0.739522 -0.6180147 0.2665441
vn -0.2926471 -0.1744485 0.9401961
vn 0.454902 0.3584559 0.8152574
vn 0.6591912 0.1624387 0.7343137
vn 0.9594976 0.1140931 0.257598
vn 0.8446078 0.01341912 0.5352328
vn -0.4133579 -0.283027 -0.8653799
vn -0.3987745 -0.3832721 -0.8330882
vn -0.383701 -0.483272 -0.786826
vn -0.3817402 -0.2048407 -0.9012255
vn -0.4181985 -0.04417892 -0.9072304
vn -0.7338235 -0.1525123 -0.6619485
vn -0.4034927 0.9110907 -0.08431373
vn -0.3283088 0.9318628 0.1544118
vn -0.3821691 0.8520221 0.3577819
vn -0.3172794 0.8341912 -0.4511029
vn -0.3501838 0.2293505 -0.9081495
vn -0.8956495 0.4371324 -0.08210784
vn -0.7397671 0.5849878 -0.3322917
vn -0.6945466 0.7153799 0.07708333
vn -0.8857843 0.4109069 0.2158088
vn -0.6771446 0.4016544 0.6166054
vn -0.8390319 0.2104779 0.5017157
vn -0.6911765 0.6268995 0.3594975
vn -0.9320466 0.2043505 -0.2990809
vn -0.4047181 0.5634804 -0.7201593
vn -0.7722427 0.2012868 -0.6025122
vn 0.2226716 -0.2479167 0.9428921
vn -0.8943627 -0.2900735 -0.3404412
vn -0.8101715 -0.3810662 -0.4453431
vn -0.8337622 -0.3328431 -0.4403799
vn -0.6590686 0.1624387 0.7343137
vn -0.5367034 0.375 0.7558824
vn -0.4193015 0.6343137 0.6495098
vn -0.9690564 -0.1586397 -0.1886029
vn -0.9492647 -0.05569853 -0.3094975
vn -0.9968137 -0.06709559 -0.04203431
vn -0.8887868 -0.2419118 -0.389277
vn -0.9759804 0.2154412 -0.03167892
vn -0.6316789 -0.4601103 -0.6238971
vn -0.7004289 -0.3816176 -0.603125
vn -0.9987133 0.02910539 -0.04172794
vn -0.9661152 -0.03339461 0.2558211
vn -0.9594363 0.1140931 0.257598
vn -0.8445466 0.01341912 0.5352328
vn 0.6896446 -0.6988971 0.1893995
vn 0.7033088 -0.6808823 0.2041054
vn 0.5340074 -0.469424 0.703125
vn -0.3673407 -0.5231005 -0.7689951
vn 0.4445466 -0.2575368 0.858027
vn 0.4104779 -0.2620098 0.8734682
vn 0.3891544 -0.2387868 0.8897672
vn 0.7395833 -0.618076 0.2664828
vn 0.2957108 -0.1699142 0.9400735
vn -0.7215686 -0.2854167 -0.6306372
vn 0 0.7995098 0.6007353
vn -0.446201 0.09185049 0.8902574
vn -0.5784926 -0.08394608 0.8113358
vn 0.204902 0.4715686 0.8577819
vn -0.1955882 0.5132353 0.835723
vn 0.708272 -0.6501838 0.2750613
vn 6.127451E-05 -0.9398897 0.3414216
vn 0.561826 -0.8180147 -0.1231005
vn 0.1691176 -0.9189951 -0.3561887
vn -0.4553309 -0.6739584 -0.5816789
vn -0.5495098 -0.8251838 -0.1302696
vn -0.8909926 0.2291054 -0.3917892
vn -0.1540441 -0.07794118 0.9849877
vn -0.2583333 0.2958946 0.9196691
vn 0.0161152 0.1746936 0.9844975
vn -0.05275735 -0.183027 0.9817402
vn 0.06531863 -0.02009804 0.9977328
vn 0.2549632 0.2553922 0.9326593
vn -0.7082108 -0.6501225 0.2751226
vn 0.4832108 -0.8369485 -0.256924
vn 0.4572304 -0.8529412 -0.2518995
vn 0.4685662 -0.8435049 -0.2627451
vn -0.6514093 -0.6898285 -0.3157476
# 135 vertex normals

# 0 texture coords

g hair
f 50//52 47//48 12//12
f 50//52 46//47 47//48
f 37//37 46//47 50//52
f 37//37 48//49 46//47
f 32//32 48//49 37//37
f 32//32 35//35 48//49
f 33//33 35//35 32//32
f 33//33 30//30 35//35
f 24//24 30//30 33//33
f 24//24 29//29 30//30
f 94//113 29//29 24//24
f 94//113 97//116 29//29
f 98//117 97//116 94//113
f 98//117 101//127 97//116
f 102//126 101//127 98//117
f 102//126 100//125 101//127
f 95//114 100//125 102//126
f 95//114 96//115 100//125
f 80//90 96//115 95//114
f 15//15 16//16 2//2
f 15//15 14//14 16//16
f 17//17 14//14 15//15
f 17//17 18//18 14//14
f 58//68 18//18 17//17
f 58//68 64//74 18//18
f 74//84 64//74 58//68
f 74//84 73//83 64//74
f 66//76 73//83 74//84
f 66//76 63//73 73//83
f 60//70 63//73 66//76
f 60//70 22//22 63//73
f 19//19 22//22 60//70
f 19//19 20//20 22//22
f 21//21 20//20 19//19
f 21//21 33//33 20//20
f 24//24 33//33 21//21
f 82//92 85//95 76//86
f 82//92 83//93 85//95
f 84//94 83//93 82//92
f 84//94 89//99 83//93
f 90//100 89//99 84//94
f 90//100 91//101 89//99
f 92//102 91//101 90//100
f 92//102 70//80 91//101
f 79//89 70//80 92//102
f 79//89 69//79 70//80
f 80//90 69//79 79//89
f 80//90 81//91 69//79
f 98//117 81//91 80//90
f 98//117 94//113 81//91
f 10//10 50//52 12//12
f 10//10 16//16 50//52
f 5//5 16//16 10//10
f 5//5 2//2 16//16
f 4//4 2//2 5//5
f 4//4 1//1 2//2
f 9//9 1//1 4//4
f 9//9 55//65 1//1
f 56//66 55//65 9//9
f 56//66 88//98 55//65
f 87//97 88//98 56//66
f 87//97 77//87 88//98
f 56//66 75//106 87//97
f 56//66 7//7 75//106
f 9//9 7//7 56//66
f 9//9 8//8 7//7
f 4//4 8//8 9//9
f 4//4 6//6 8//8
f 5//5 6//6 4//4
f 5//5 13//13 6//6
f 10//10 13//13 5//5
f 10//10 11//11 13//13
f 12//12 11//11 10//10
f 83//93 59//69 85//95
f 83//93 74//84 59//69
f 72//82 74//84 83//93
f 72//82 66//76 74//84
f 65//75 66//76 72//82
f 65//75 67//77 66//76
f 68//78 67//77 65//75
f 68//78 71//81 67//77
f 69//79 71//81 68//78
f 69//79 81//91 71//81
f 73//83 28//28 64//74
f 73//83 39//39 28//28
f 63//73 39//39 73//83
f 63//73 26//26 39//39
f 22//22 26//26 63//73
f 22//22 25//25 26//26
f 20//20 25//25 22//22
f 20//20 31//31 25//25
f 33//33 31//31 20//20
f 33//33 32//32 31//31
f 52//60 29//29 97//116
f 52//60 34//34 29//29
f 51//61 34//34 52//60
f 51//61 36//36 34//34
f 49//63 36//36 51//61
f 49//63 53//62 36//36
f 45//46 53//62 49//63
f 45//46 46//47 53//62
f 47//48 46//47 45//46
f 85//95 78//88 76//86
f 85//95 93//112 78//88
f 59//69 93//112 85//95
f 59//69 54//64 93//112
f 57//67 54//64 59//69
f 57//67 3//3 54//64
f 17//17 3//3 57//67
f 17//17 15//15 3//3
f 78//88 77//87 76//86
f 78//88 88//98 77//87
f 93//112 88//98 78//88
f 93//112 55//65 88//98
f 54//64 55//65 93//112
f 54//64 1//1 55//65
f 3//3 1//1 54//64
f 28//28 18//18 64//74
f 28//28 27//27 18//18
f 38//38 27//27 28//28
f 38//38 40//40 27//27
f 31//31 40//40 38//38
f 31//31 37//37 40//40
f 32//32 37//37 31//31
f 89//99 72//82 83//93
f 89//99 86//96 72//82
f 91//101 86//96 89//99
f 91//101 68//78 86//96
f 70//80 68//78 91//101
f 70//80 69//79 68//78
f 43//44 13//13 11//11
f 43//44 6//6 13//13
f 44//45 6//6 43//44
f 44//45 8//8 6//6
f 41//54 8//8 44//45
f 41//54 7//7 8//8
f 67//77 60//70 66//76
f 67//77 61//71 60//70
f 62//72 61//71 67//77
f 62//72 23//23 61//71
f 94//113 23//23 62//72
f 94//113 24//24 23//23
f 35//35 36//36 53//62
f 35//35 34//34 36//36
f 30//30 34//34 35//35
f 30//30 29//29 34//34
f 99//121 96//122 80//124
f 99//121 100//120 96//122
f 101//123 100//120 99//121
f 58//68 59//69 74//84
f 58//68 57//67 59//69
f 17//17 57//67 58//68
f 62//72 81//91 94//113
f 62//72 71//81 81//91
f 67//77 71//81 62//72
f 42//43 51//58 52//131
f 42//43 49//51 51//58
f 45//50 49//51 42//43
f 42//43 47//53 45//50
f 42//43 12//59 47//53
f 11//57 12//59 42//43
f 42//43 43//55 11//57
f 42//43 44//56 43//55
f 41//41 44//56 42//43
f 14//14 40//40 16//16
f 14//14 27//27 40//40
f 18//18 27//27 14//14
f 39//39 38//38 28//28
f 39//39 25//25 38//38
f 26//26 25//25 39//39
f 102//126 80//90 95//114
f 102//126 98//117 80//90
f 61//71 19//19 60//70
f 61//71 23//23 19//19
f 23//23 21//21 19//19
f 23//23 24//24 21//21
f 105//130 97//116 101//127
f 105//130 52//60 97//116
f 99//119 42//43 52//131
f 99//119 80//118 42//43
f 79//110 42//43 80//118
f 79//110 92//104 42//43
f 90//103 42//43 92//104
f 90//103 84//105 42//43
f 82//111 42//43 84//105
f 82//111 76//109 42//43
f 77//107 42//43 76//109
f 77//107 87//108 42//43
f 75//85 42//43 87//108
f 75//85 7//42 42//43
f 48//49 53//62 46//47
f 48//49 35//35 53//62
f 2//2 3//3 15//15
f 2//2 1//1 3//3
f 65//75 86//96 68//78
f 65//75 72//82 86//96
f 105//132 99//121 52//133
f 105//132 104//134 99//121
f 50//52 40//40 37//37
f 50//52 16//16 40//40
f 103//135 99//121 104//134
f 103//135 101//123 99//121
f 104//129 101//127 103//128
f 104//129 105//130 101//127
f 42//43 7//42 41//41
f 38//38 25//25 31//31
# 206 faces

